<svg xmlns="http://www.w3.org/2000/svg" width="18" height="18" viewBox="0 0 18 18">
    <path fill="#AEB8BD" d="M13.445 9.086c.328 0 .593.266.593.593l-.001 2.287 2.387.001c.318 0 .576.258.576.576 0 .318-.258.576-.576.576h-2.387v2.289c0 .327-.264.592-.592.592-.327 0-.592-.265-.592-.592v-2.29l-2.386.001c-.318 0-.576-.258-.576-.576 0-.318.258-.576.576-.576h2.386V9.678c0-.327.265-.593.592-.593zm-4.158-.574c1.05 0 2.048.116 2.95.325-.081.104-.13.224-.145.36l-.006.105v.567c-.835-.202-1.783-.32-2.8-.32-3.44 0-6.107 1.359-6.216 2.694l-.004.085v.9c0 .45.353.822.805.866l.091.005 8.123-.001v1.037H3.962C2.88 15.136 2 14.282 2 13.228v-.899c0-2.069 3.143-3.753 7.064-3.815l.223-.001zM9.309 2c1.628 0 2.947 1.283 2.947 2.866 0 1.583-1.319 2.866-2.947 2.866h-.061c-1.628 0-2.947-1.283-2.947-2.866C6.301 3.283 7.621 2 9.248 2h.061zm0 1.037h-.061c-1.039 0-1.88.819-1.88 1.829 0 .971.778 1.766 1.761 1.825l.119.004h.061c1.04 0 1.881-.819 1.881-1.83 0-1.01-.842-1.828-1.88-1.828z"/>
</svg>
