<svg xmlns="http://www.w3.org/2000/svg" width="18" height="18" viewBox="0 0 18 18">
    <g fill="none" fill-opacity=".86" fill-rule="evenodd">
        <g fill="#010505">
            <g>
                <path d="M11.625 1.762l-.05-.002h-5.48c-.638.036-1.203.313-1.601.77-.398.457-.595 1.054-.546 1.658L3.946 15.14l.006.1c.07.595.752.971 1.268.54l3.654-2.795 3.556 2.779.087.08c.514.404 1.169-.119 1.169-.724v-11c.085-1.187-.833-2.256-2.06-2.358zm-.078 1.198l.092.013c.515.1.886.57.848 1.105l-.001 10.207-3.205-2.502c-.24-.153-.574-.151-.832.018l-3.303 2.526V4.14c-.025-.33.067-.61.253-.822.185-.213.45-.343.731-.359l5.417.001z" transform="translate(-542 -1004) translate(542 1004)"/>
            </g>
        </g>
    </g>
</svg>
