<svg xmlns="http://www.w3.org/2000/svg" width="18" height="18" viewBox="0 0 18 18">
    <g fill="none" fill-rule="evenodd">
        <g>
            <g>
                <g>
                    <path d="M0 0H18V18H0z" transform="translate(-929 -439) translate(929 439)"/>
                </g>
                <path fill="#010505" d="M13.323 3.574c.236-.374.73-.486 1.103-.25.343.215.466.648.303 1.007l-.052.095-6.301 10c-.28.445-.895.497-1.248.135l-.071-.084-3.7-4.984c-.263-.354-.189-.855.166-1.119.325-.241.774-.199 1.049.083l.07.083 3.003 4.045 5.678-9.011z" transform="translate(-929 -439) translate(929 439)"/>
            </g>
        </g>
    </g>
</svg>
