<?xml version="1.0" encoding="UTF-8"?>
<svg width="18px" height="18px" viewBox="0 0 18 18" version="1.1" xmlns="http://www.w3.org/2000/svg" xmlns:xlink="http://www.w3.org/1999/xlink">
    <title>3B8001EF-6262-486D-B07B-8501C55D01FF</title>
    <g id="⚪️Base/Iconograyphy" stroke="none" stroke-width="1" fill="none" fill-rule="evenodd" >
        <g id="Element/Icons/18*18" transform="translate(-1336.000000, -366.000000)" fill="#010505">
            <g id="@TEXT" transform="translate(72.000000, 26.000000)">
                <g id="ic/18/18_check-circle" transform="translate(1264.000000, 340.000000)">
                    <g transform="translate(-0.000000, -0.000000)">
                        <path d="M9,2.3 C5.29969218,2.3 2.3,5.29969218 2.3,9 C2.3,12.7003078 5.29969218,15.7 9,15.7 C12.7003078,15.7 15.7,12.7003078 15.7,9 C15.7,5.29969218 12.7003078,2.3 9,2.3 Z M9,3.7 C11.9271092,3.7 14.3,6.07289083 14.3,9 C14.3,11.9271092 11.9271092,14.3 9,14.3 C6.07289083,14.3 3.7,11.9271092 3.7,9 C3.7,6.07289083 6.07289083,3.7 9,3.7 Z" id="Oval"></path>
                        <path d="M11.2360712,6.19325412 C11.3578987,5.9999056 11.6133987,5.94192667 11.8067466,6.06375456 C11.9839821,6.17543012 12.0474699,6.3994282 11.9629823,6.58491328 L11.9362457,6.63443192 L8.67717828,11.8067953 C8.53244661,12.0364944 8.2145118,12.0635725 8.03180338,11.8762594 L7.99483377,11.8328351 L6.08155625,9.25525565 C5.94534748,9.07175435 5.98368513,8.81257775 6.16718576,8.6763685 C6.33539468,8.55151003 6.56719165,8.57331954 6.70957179,8.71916425 L6.74607084,8.76199833 L8.29913326,10.854317 L11.2360712,6.19325412 Z" id="Path-26"></path>
                    </g>
                </g>
            </g>
        </g>
    </g>
</svg>
