<svg xmlns="http://www.w3.org/2000/svg" width="18" height="18" viewBox="0 0 18 18">
    <g fill="none" fill-rule="evenodd">
        <g fill="#010505">
            <g>
                <g transform="translate(-517.000000, -1361.000000) translate(517.000000, 1361.000000) translate(1.000000, 3.000000)">
                    <path d="M3.01 0c.36 0 .68.214.823.536l.04.112.392 1.342 9.507.001c.25.015.486.118.665.29l.085.091c.186.226.27.52.23.81l-.023.112L13.49 7.9l-.01.07c-.2 1.083-1.125 1.885-2.205 1.928H5.201c-.498.012-.934-.33-1.036-.8L2.779 3.29l-.005-.011-.038-.107L2.335 1.8H.9c-.459 0-.837-.343-.893-.787L0 .9C0 .441.343.063.787.007L.9 0h2.11zm9.721 3.79H4.749L5.777 8.1h5.368c.257.007.482-.161.552-.401l.044-.223.99-3.686z"/>
                    <circle cx="6.57" cy="11.69" r="1"/>
                    <circle cx="10.76" cy="11.69" r="1"/>
                </g>
            </g>
        </g>
    </g>
</svg>
