<svg xmlns="http://www.w3.org/2000/svg" width="18" height="18" viewBox="0 0 18 18">
    <g fill="none" fill-rule="evenodd">
        <g>
            <g>
                <g>
                    <path fill="#010505" fill-opacity=".74" d="M9 1.5C4.858 1.5 1.5 4.858 1.5 9c0 4.142 3.358 7.5 7.5 7.5 4.142 0 7.5-3.358 7.5-7.5 0-4.142-3.358-7.5-7.5-7.5z" transform="translate(-1351 -387) translate(72 26) translate(1279 361)"/>
                    <path fill="#FFF" d="M6.713 6.017l.07.058L9 8.293l2.218-2.218c.195-.195.512-.195.707 0 .174.174.193.443.058.638l-.058.07L9.707 9l2.218 2.218c.195.195.195.512 0 .707-.174.174-.443.193-.638.058l-.07-.058L9 9.707l-2.218 2.218c-.195.195-.512.195-.707 0-.174-.174-.193-.443-.058-.638l.058-.07L8.293 9 6.075 6.782c-.195-.195-.195-.512 0-.707.152-.152.377-.186.562-.101l.076.043z" transform="translate(-1351 -387) translate(72 26) translate(1279 361)"/>
                </g>
            </g>
        </g>
    </g>
</svg>
