<svg xmlns="http://www.w3.org/2000/svg" width="18" height="18" viewBox="0 0 18 18">
    <g fill="none" fill-rule="evenodd">
        <g fill="#010505">
            <g>
                <g transform="translate(-542.000000, -1361.000000) translate(542.000000, 1361.000000) translate(0.000000, 0.000000) translate(1.000000, 3.000000)">
                    <path d="M2.71 0c.233 0 .442.135.54.34l.036.092.454 1.558 9.715.001c.173.01.337.08.464.197l.071.075c.133.161.193.37.148.658L12.859 7.5l-.013.094c-.16.925-.93 1.626-1.868 1.7l-.158.006H4.894c-.354.008-.664-.236-.737-.57L2.74 2.832l-.017-.044L2.26 1.2H.6C.302 1.2.054.982.008.697L0 .6C0 .302.218.054.503.008L.6 0h2.11zm10.112 3.19H4.061L5.239 8.1h5.58c.405 0 .75-.284.836-.67l.018-.108.02-.103 1.129-4.029z"/>
                    <circle cx="6.27" cy="11.39" r="1"/>
                    <circle cx="10.46" cy="11.39" r="1"/>
                </g>
            </g>
        </g>
    </g>
</svg>
