<svg width="18" height="18" viewBox="0 0 18 18" xmlns="http://www.w3.org/2000/svg">
    <path d="M15.06 4.1a.9.9 0 0 1 .9.906l-.06 8.92a.9.9 0 0 1-.9.894H3a.9.9 0 0 1-.9-.92l.06-2.63a.9.9 0 0 1 .9-.88l.11-.006A.935.935 0 0 0 4 9.45a.935.935 0 0 0-.94-.94l-.113-.007a.9.9 0 0 1-.787-.893V5a.9.9 0 0 1 .9-.9h12zm-.906 1.8H3.96v.961l.058.02a2.735 2.735 0 0 1 1.777 2.402l.005.167c0 1.18-.74 2.182-1.782 2.569l-.076.025-.022.976h10.186l.048-7.12zM11.1 10.81a.6.6 0 0 1 .592.503l.008.097v.31a.6.6 0 0 1-1.192.097l-.008-.097v-.31a.6.6 0 0 1 .6-.6zm0-2.1a.6.6 0 0 1 .592.503l.008.097v.3a.6.6 0 0 1-1.192.097L10.5 9.61v-.3a.6.6 0 0 1 .6-.6zm0-2.1a.6.6 0 0 1 .592.503l.008.097v.3a.6.6 0 0 1-1.192.097L10.5 7.51v-.3a.6.6 0 0 1 .6-.6z" fill="#010505" fill-rule="evenodd" fill-opacity=".86"/>
</svg>
