<?xml version="1.0" encoding="UTF-8"?>
<svg width="18px" height="18px" viewBox="0 0 18 18" version="1.1" xmlns="http://www.w3.org/2000/svg" xmlns:xlink="http://www.w3.org/1999/xlink">
    <title>ic/18/18_contentsbox1</title>
    <g id="ic/18/18_contentsbox1" stroke="none" stroke-width="1" fill="none" fill-rule="evenodd" >
        <path d="M14.9414758,4.5 C15.3777807,4.5 15.7314758,4.85369505 15.7314758,5.29 L15.7314758,5.29 L15.7314758,13.17 C15.7314758,14.3464812 14.7818236,15.3023479 13.6014758,15.31 L13.6014758,15.31 L4.18147578,15.31 C2.99958642,15.31 2.04147578,14.3518894 2.04147578,13.17 L2.04147578,13.17 L2.04147578,5.3 C2.04147578,5.09047897 2.12470769,4.88953938 2.27286143,4.74138564 C2.33212292,4.68212415 2.39983015,4.63325015 2.47315404,4.59593548 L2.47315404,4.59593548 L2.51447578,4.578 L2.59294765,4.5 Z M14.5314758,5.699 L3.24147578,5.699 L3.24147578,13.17 C3.24147578,13.6520657 3.60435356,14.0493767 4.07185192,14.1036759 L4.07185192,14.1036759 L4.18147578,14.1100126 L13.5975797,14.1100126 C14.1143369,14.106657 14.5314758,13.6867883 14.5314758,13.17 L14.5314758,13.17 L14.5314758,5.699 Z M9.88147578,7.82 C10.2128466,7.82 10.4814758,8.08862915 10.4814758,8.42 C10.4814758,8.71823376 10.2638862,8.96564675 9.9787989,9.01214701 L9.88147578,9.02 L7.90147578,9.02 C7.57010493,9.02 7.30147578,8.75137085 7.30147578,8.42 C7.30147578,8.12176624 7.51906539,7.87435325 7.80415267,7.82785299 L7.90147578,7.82 L9.88147578,7.82 Z M12.4514758,1.9 C12.7828466,1.9 13.0514758,2.16862915 13.0514758,2.5 C13.0514758,2.79823376 12.8338862,3.04564675 12.5487989,3.09214701 L12.4514758,3.1 L5.33147578,3.1 C5.00010493,3.1 4.73147578,2.83137085 4.73147578,2.5 C4.73147578,2.20176624 4.94906539,1.95435325 5.23415267,1.90785299 L5.33147578,1.9 L12.4514758,1.9 Z" id="Combined-Shape" fill="#010505"></path>
    </g>
</svg>