<svg width="18" height="18" viewBox="0 0 18 18" xmlns="http://www.w3.org/2000/svg">
    <path d="M15.24 4a.6.6 0 0 1 .6.6v8.58a.6.6 0 0 1-.6.6H2.6a.6.6 0 0 1-.6-.6v-2.35a.6.6 0 0 1 .6-.6c.739 0 1.34-.601 1.34-1.34 0-.739-.601-1.34-1.34-1.34l-.097-.008A.6.6 0 0 1 2 6.95V4.6a.6.6 0 0 1 .6-.6h12.64zm-.6 1.199H3.2v1.223l.049.012a2.544 2.544 0 0 1 1.886 2.29l.005.166a2.543 2.543 0 0 1-1.891 2.456l-.049.011v1.222h11.44v-7.38zm-3.68 5.121a.6.6 0 0 1 .592.503l.008.097v.39a.6.6 0 0 1-1.192.097l-.008-.097v-.39a.6.6 0 0 1 .6-.6zm0-2.22a.6.6 0 0 1 .592.503l.008.097v.39a.6.6 0 0 1-1.192.097l-.008-.097V8.7a.6.6 0 0 1 .6-.6zm0-2.23a.6.6 0 0 1 .592.503l.008.097v.39a.6.6 0 0 1-1.192.097l-.008-.097v-.39a.6.6 0 0 1 .6-.6z" fill="#010505" fill-rule="evenodd" />
</svg>
