<svg xmlns="http://www.w3.org/2000/svg" width="18" height="18" viewBox="0 0 18 18">
    <g fill="none" fill-rule="evenodd">
        <g fill="#010505">
            <g transform="translate(-492.000000, -1361.000000) translate(492.000000, 1361.000000)">
                <ellipse cx="8.136" cy="14.877" rx="1.098" ry="1.123"/>
                <ellipse cx="12.786" cy="14.877" rx="1.098" ry="1.123"/>
                <path d="M16.808 4.646c-.182-.218-.448-.344-.729-.343H5.436l-.492-1.696c-.1-.358-.42-.606-.785-.607H1.818C1.366 2 1 2.374 1 2.836c0 .462.366.837.818.837h1.714l.482 1.684 1.59 6.542c.113.444.504.755.953.756h6.598c1.21-.001 2.24-.9 2.432-2.12l1.389-4.972c.005-.046.005-.092 0-.137.063-.273.001-.56-.168-.78z"/>
            </g>
        </g>
    </g>
</svg>
