<?xml version="1.0" encoding="UTF-8"?>
<svg width="18px" height="18px" viewBox="0 0 18 18" version="1.1" xmlns="http://www.w3.org/2000/svg" xmlns:xlink="http://www.w3.org/1999/xlink">
    <title>4CCC20A9-A591-45C6-B60A-A05060A1636A</title>
    <g id="⚪️Base/Iconograyphy" stroke="none" stroke-width="1" fill="none" fill-rule="evenodd">
        <g id="Element/Icons/18*18" transform="translate(-2320.000000, -284.000000)" fill="#FFFFFF">
            <g id="@TEXT" transform="translate(72.000000, 26.000000)">
                <g id="ic/18/download_w" transform="translate(2248.000000, 258.000000)">
                    <g id="ic/18/18_download_w" transform="translate(0.000000, 0.000000)">
                        <path d="M9.06093052,2.4 C9.35916429,2.4 9.60657727,2.61758961 9.65307753,2.90267688 L9.66093052,3 L9.65999782,10.653 L13.33776,6.44772922 C13.5558918,6.19827948 13.9349415,6.17289124 14.1843912,6.39102301 C14.4061243,6.58491791 14.4508212,6.90595785 14.3048154,7.15010282 L14.2410974,7.23765422 L9.50753342,12.6508334 C9.27365574,12.9182897 8.85988844,12.9250681 8.61737558,12.6654161 L3.56151088,7.25223694 C3.3353253,7.01006609 3.34828392,6.63038818 3.59045478,6.4042026 C3.83262563,6.17801702 4.21230354,6.19097564 4.43848912,6.43314649 L8.45999782,10.739 L8.46093052,3 C8.46093052,2.66862915 8.72955967,2.4 9.06093052,2.4 Z" id="Combined-Shape"></path>
                        <path d="M16,12.1633057 C16.2982338,12.1633057 16.5456468,12.3808953 16.592147,12.6659825 L16.6,12.7633057 L16.6,15.3186035 C16.6,15.6168373 16.3824104,15.8642503 16.0973231,15.9107505 L16,15.9186035 L2,15.9186035 C1.70176624,15.9186035 1.45435325,15.7010139 1.40785299,15.4159266 L1.4,15.3186035 L1.4,12.7633057 C1.4,12.4319348 1.66862915,12.1633057 2,12.1633057 C2.29823376,12.1633057 2.54564675,12.3808953 2.59214701,12.6659825 L2.6,12.7633057 L2.6,14.719 L15.4,14.719 L15.4,12.7633057 C15.4,12.4650719 15.6175896,12.2176589 15.9026769,12.1711587 L16,12.1633057 Z" id="Path-Copy-3"></path>
                    </g>
                </g>
            </g>
        </g>
    </g>
</svg>