<svg xmlns="http://www.w3.org/2000/svg" width="18" height="18" viewBox="0 0 18 18">
    <defs>
        <filter id="3n4qj1qira">
            <feColorMatrix in="SourceGraphic" values="0 0 0 0 0.003922 0 0 0 0 0.019608 0 0 0 0 0.019608 0 0 0 0.380000 0"/>
        </filter>
    </defs>
    <g fill="none" fill-rule="evenodd" opacity=".32">
        <g>
            <g>
                <g filter="url(#3n4qj1qira)" transform="translate(-731 -366) translate(731 366) rotate(-90 9 9)">
                    <g fill="#FFF">
                        <path d="M11.54 3.05c.254-.253.665-.254.92 0 .228.228.251.584.069.839l-.069.08-3.992 4c-.228.229-.585.252-.839.07l-.08-.069-4.008-4c-.254-.254-.255-.665-.001-.92.228-.228.584-.251.839-.069l.08.069 3.547 3.54 3.534-3.54z" transform="matrix(-1 0 0 1 14 4) rotate(-90 8 5.51)"/>
                        <path d="M6.54 3.05c.254-.253.665-.254.92 0 .228.228.251.584.069.839l-.069.08-3.992 4c-.228.229-.585.252-.839.07l-.08-.069-4.008-4c-.254-.254-.255-.665-.001-.92.228-.228.584-.251.839-.069l.08.069 3.547 3.54L6.54 3.05z" transform="matrix(-1 0 0 1 14 4) rotate(-90 3 5.51)"/>
                    </g>
                </g>
            </g>
        </g>
    </g>
</svg>
