<svg xmlns="http://www.w3.org/2000/svg" width="18" height="18" viewBox="0 0 18 18">
    <defs>
        <filter id="7z6l8lwe3a">
            <feColorMatrix in="SourceGraphic" values="0 0 0 0 1.000000 0 0 0 0 1.000000 0 0 0 0 1.000000 0 0 0 1.000000 0"/>
        </filter>
    </defs>
    <g fill="none" fill-rule="evenodd" opacity=".324">
        <g>
            <g>
                <g>
                    <g filter="url(#7z6l8lwe3a)" transform="translate(-668 -366) translate(668 366) matrix(-1 0 0 1 18 0) rotate(90 8.5 8.5)">
                        <g fill="#FFF">
                            <path d="M11.54 3.05c.254-.253.665-.254.92 0 .228.228.251.584.069.839l-.069.08-3.992 4c-.228.229-.585.252-.839.07l-.08-.069-4.008-4c-.254-.254-.255-.665-.001-.92.228-.228.584-.251.839-.069l.08.069 3.547 3.54 3.534-3.54z" transform="matrix(-1 0 0 1 14 3) rotate(-90 8 5.51)"/>
                            <path d="M6.54 3.05c.254-.253.665-.254.92 0 .228.228.251.584.069.839l-.069.08-3.992 4c-.228.229-.585.252-.839.07l-.08-.069-4.008-4c-.254-.254-.255-.665-.001-.92.228-.228.584-.251.839-.069l.08.069 3.547 3.54L6.54 3.05z" transform="matrix(-1 0 0 1 14 3) rotate(-90 3 5.51)"/>
                        </g>
                    </g>
                </g>
            </g>
        </g>
    </g>
</svg>
