<?xml version="1.0" encoding="UTF-8"?>
<svg width="18px" height="18px" viewBox="0 0 18 18" version="1.1" xmlns="http://www.w3.org/2000/svg" xmlns:xlink="http://www.w3.org/1999/xlink">
    <title>ic/18/18_doulearrow_T_32%</title>
    <g id="⚪️Base/Iconograyphy" stroke="none" stroke-width="1" fill="none" fill-rule="evenodd" opacity="0.32">
        <g id="Element/Icons" transform="translate(-710.000000, -366.000000)" fill="#FFFFFF">
            <g id="ic/18/18_doulearrow_T_32%" transform="translate(710.000000, 366.000000)">
                <g id="ic/18/18_doulearrow_g" transform="translate(9.000000, 9.000000) rotate(-270.000000) translate(-9.000000, -9.000000) ">
                    <g id="Group-2" transform="translate(8.500000, 9.500000) scale(-1, 1) translate(-8.500000, -9.500000) translate(3.000000, 4.000000)">
                        <path d="M11.539934,3.05081981 C11.7935279,2.79673236 12.2050849,2.79633226 12.4591724,3.04992615 C12.6878511,3.27816065 12.711043,3.6343453 12.5285247,3.88852964 L12.460066,3.96916453 L8.46783594,7.96916453 C8.23960113,8.19784354 7.8834159,8.22103521 7.62923156,8.03851621 L7.54859669,7.97005733 L3.54082678,3.97005733 C3.2867398,3.71646296 3.28634047,3.30490592 3.53993484,3.05081895 C3.76816977,2.82214067 4.12435447,2.79894939 4.37853846,2.98146821 L4.45917322,3.04992701 L8.006,6.59 L11.539934,3.05081981 Z" id="Path-2" transform="translate(8.000000, 5.509992) rotate(-90.000000) translate(-8.000000, -5.509992) "></path>
                        <path d="M6.53993398,3.05081981 C6.79352787,2.79673236 7.20508491,2.79633226 7.45917236,3.04992615 C7.68785106,3.27816065 7.71104302,3.6343453 7.52852468,3.88852964 L7.46006602,3.96916453 L3.46783594,7.96916453 C3.23960113,8.19784354 2.8834159,8.22103521 2.62923156,8.03851621 L2.54859669,7.97005733 L-1.45917322,3.97005733 C-1.7132602,3.71646296 -1.71365953,3.30490592 -1.46006516,3.05081895 C-1.23183023,2.82214067 -0.875645528,2.79894939 -0.621461536,2.98146821 L-0.540826775,3.04992701 L3.006,6.59 L6.53993398,3.05081981 Z" id="Path-2-Copy" transform="translate(3.000000, 5.509992) rotate(-90.000000) translate(-3.000000, -5.509992) "></path>
                    </g>
                </g>
            </g>
        </g>
    </g>
</svg>