<svg xmlns="http://www.w3.org/2000/svg" width="18" height="18" viewBox="0 0 18 18">
    <path fill="#AEB8BD" d="M13.235 8.3C15.317 8.3 17 10.026 17 12.15S15.317 16 13.235 16l-.208-.003c-2.011-.081-3.613-1.775-3.613-3.847 0-2.124 1.683-3.85 3.764-3.85zm-4.166.293c.499 0 .985.028 1.455.082-.46.413-.761.74-.904.982-.18-.01-.365-.014-.551-.014-3.338 0-5.925 1.376-6.031 2.728l-.004.086v.91c0 .458.343.833.78.878l.09.005H9.32c.131.193.319.427.562.7.113.128.223.245.328.35H3.904C2.852 15.3 2 14.435 2 13.368v-.91c0-2.095 3.049-3.8 6.853-3.863l.216-.002zm4.166.757l-.193.003c-1.444.073-2.594 1.297-2.594 2.797 0 1.546 1.223 2.8 2.73 2.8h.057c1.508 0 2.73-1.254 2.73-2.8 0-1.546-1.222-2.8-2.73-2.8zm1.516 2.275c.29 0 .525.235.525.525 0 .29-.235.525-.525.525h-3.088c-.29 0-.525-.235-.525-.525 0-.29.235-.525.525-.525h3.088zM9.09 2c1.579 0 2.859 1.3 2.859 2.902S10.67 7.803 9.09 7.803h-.06c-1.579 0-2.858-1.299-2.858-2.901C6.173 3.299 7.453 2 9.03 2h.06zm0 1.05h-.06c-1.007 0-1.824.829-1.824 1.852 0 .983.755 1.787 1.709 1.848l.115.003h.06c1.008 0 1.824-.829 1.824-1.851 0-1.023-.816-1.852-1.824-1.852z"/>
</svg>
