<svg xmlns="http://www.w3.org/2000/svg" width="18" height="18" viewBox="0 0 18 18">
    <g fill="none"  fill-rule="evenodd">
        <g fill="#010505">
            <g>
                <path d="M13.45 8.962c-.275-.395-.728-.63-1.21-.63h-1.59l.5-1.33c.141-.392.12-.824-.06-1.2-.162-.344-.459-.608-.82-.73-.585-.192-1.228.009-1.6.5l-2.1 2.76h-2c-.153 0-.3.062-.406.17-.108.11-.167.258-.164.41v4.51c-.003.153.056.3.164.41.107.11.253.17.406.17h7.31c.25 0 .473-.156.56-.39l1.2-3.31c.16-.45.09-.951-.19-1.34zm-7.13 4H5.04v-3.63h1.28v3.63z" transform="translate(-488.000000, -1171.000000) translate(488.000000, 1171.000000) translate(8.862143, 9.501226) rotate(-180.000000) translate(-8.862143, -9.501226)"/>
            </g>
        </g>
    </g>
</svg>
