<svg xmlns="http://www.w3.org/2000/svg" width="18" height="18" viewBox="0 0 18 18">
    <g fill="none"  fill-rule="evenodd">
        <g fill="#010505">
            <g>
                <path d="M13.45 8.962c-.275-.395-.728-.63-1.21-.63h-1.59l.5-1.33c.141-.392.12-.824-.06-1.2-.162-.344-.459-.608-.82-.73-.585-.192-1.228.009-1.6.5l-2.1 2.76h-2c-.153 0-.3.062-.406.17-.108.11-.167.258-.164.41v4.51c-.003.153.056.3.164.41.107.11.253.17.406.17h7.31c.25 0 .473-.156.56-.39l1.2-3.31c.16-.45.09-.951-.19-1.34zm-7.13 4H5.04v-3.63h1.28v3.63zm6.38-3l-1.08 3h-4.3v-4l2.14-2.78c.113-.157.316-.222.5-.16.107.034.192.115.23.22.055.132.055.28 0 .41l-.7 1.94-.09.29.34.45h2.5c.157-.002.306.073.397.2.092.128.116.292.063.44v-.01z" transform="translate(-515.000000, -1171.000000) translate(515.000000, 1171.000000) translate(-0.000000, 0.000000) translate(8.862143, 9.501226) rotate(-180.000000) translate(-8.862143, -9.501226)"/>
            </g>
        </g>
    </g>
</svg>
