<svg xmlns="http://www.w3.org/2000/svg" width="18" height="18" viewBox="0 0 18 18">
    <path fill="#AEB8BD" fill-rule="evenodd" d="M11.125 2.334c.446-.445 1.168-.445 1.614 0l2.927 2.927c.445.446.445 1.168 0 1.614l-8.623 8.622c-.2.2-.465.318-.747.333l-3.251.169c-.548.028-1.015-.393-1.044-.94v-.039l.17-3.316c.014-.282.132-.548.332-.747zM9.307 5.707L3.28 11.734c-.007.007-.011.017-.012.027l-.162 3.132 3.133-.161.014-.004.013-.008 6.14-6.14-3.099-2.873zm2.654-2.595c-.016-.017-.042-.017-.058 0l-1.818 1.817 3.097 2.873 1.706-1.705c.011-.01.015-.026.011-.04l-.01-.019z"/>
</svg>
