<svg width="18" height="18" viewBox="0 0 18 18" xmlns="http://www.w3.org/2000/svg">
    <g fill="none" fill-rule="evenodd">
        <path d="M0 0h18v18H0z"/>
        <path d="M9 2.21a6.79 6.79 0 1 0 0 13.58A6.79 6.79 0 0 0 9 2.21zm0 1.2a5.59 5.59 0 1 1 0 11.18A5.59 5.59 0 0 1 9 3.41z" fill="#010505"/>
        <path d="M6.95 7.02a.6.6 0 0 1 .097 1.192l-.107.008a.6.6 0 0 1-.097-1.192l.107-.008zM10.95 7.02a.6.6 0 0 1 .097 1.192l-.107.008a.6.6 0 0 1-.097-1.192l.107-.008zM6.86 10.631a.6.6 0 0 1 .849.01 1.806 1.806 0 0 0 2.435.135l.122-.11.03-.03a.6.6 0 0 1 .918.765l-.07.083-.032.033a3.005 3.005 0 0 1-4.26-.037.6.6 0 0 1 .008-.849z"  fill="#010505"/>
    </g>
</svg>
