<svg xmlns="http://www.w3.org/2000/svg" width="18" height="18" viewBox="0 0 18 18">
    <g fill="none" fill-rule="evenodd">
        <g fill="#3A5CA9">
            <g>
                <path d="M16.18 1H1.66c-.364 0-.66.296-.66.66v14.52c0 .364.296.66.66.66h7.755V10.9h-1.98V8.425h1.98v-1.98c0-2.046 1.295-3.053 3.12-3.053.875 0 1.626.066 1.845.094v2.139h-1.266c-.992 0-1.224.472-1.224 1.164v1.636h2.475L13.87 10.9h-1.98l.04 5.94h4.25c.364 0 .66-.296.66-.66V1.66c0-.364-.296-.66-.66-.66" transform="translate(-261 -2367) translate(261 2367)"/>
            </g>
        </g>
    </g>
</svg>
