<svg xmlns="http://www.w3.org/2000/svg" width="18" height="19" viewBox="0 0 18 19">
    <g fill="none"  fill-rule="evenodd">
        <g fill="#010505">
            <g>
                <g>
                    <g>
                        <path d="M5.73 3.483c.331 0 .6.284.6.634 0 .314-.218.576-.503.625l-.097.008H2.71c-.331 0-.6-.284-.6-.633 0-.315.218-.576.503-.625l.097-.009h3.02zM7.67 5.964c.331 0 .6.283.6.633 0 .315-.218.576-.503.625l-.097.009H2.82c-.331 0-.6-.284-.6-.634 0-.315.218-.576.503-.625l.097-.008h4.85z" transform="translate(-564.000000, -362.000000) translate(564.000000, 362.000000) translate(0.000000, -0.000000) translate(2.000000, 2.111111)"/>
                        <path d="M9.26 0c1.215 0 2.2 1.04 2.2 2.322l-.001.311c.063-.023.13-.036.201-.036.602 0 1.179.253 1.603.703.377.4.606.928.65 1.483l.007.21v7.311c.004.635-.233 1.246-.657 1.696-.377.4-.875.645-1.404.695l-.199.009H4.73c-1.254 0-2.27-1.073-2.27-2.396 0-.074.012-.146.034-.212H2.2c-1.215 0-2.2-1.039-2.2-2.322V2.322C0 1.04.985 0 2.2 0zm2.199 3.827l.001 5.947c0 1.283-.985 2.323-2.2 2.323H3.626c.011.034.02.07.026.108l.008.103c0 .582.417 1.061.953 1.123l.117.006h6.93c.282 0 .553-.119.752-.33.17-.181.276-.417.302-.671l.006-.128V4.989c.002-.298-.11-.584-.308-.796-.2-.21-.47-.33-.752-.33-.07 0-.138-.013-.201-.036zM9.26 1.267H2.2c-.552 0-1 .472-1 1.055v7.452c0 .583.448 1.056 1 1.056h7.06c.552 0 1-.473 1-1.056V2.322c0-.583-.448-1.055-1-1.055z" transform="translate(-564.000000, -362.000000) translate(564.000000, 362.000000) translate(0.000000, -0.000000) translate(2.000000, 2.111111)"/>
                    </g>
                </g>
            </g>
        </g>
    </g>
</svg>
