<svg xmlns="http://www.w3.org/2000/svg" width="18" height="18" viewBox="0 0 18 18">
    <g fill="#1A1F23" fill-rule="evenodd">
        <g>
            <path d="M15.436 3.6c1.143 0 2.08.887 2.159 2.01l.005.154v8.605c0 1.143-.887 2.08-2.01 2.159l-.154.005H5.764a2.165 2.165 0 01-2.159-2.01L3.6 14.37v-1.07h1.2v1.07c0 .494.372.902.852.958l.112.006h9.672a.965.965 0 00.958-.852l.006-.112V5.764a.965.965 0 00-.852-.958l-.112-.006H14.28V3.6h1.156z" transform="translate(0 1)"/>
            <path d="M12.236.4c1.195 0 2.164.97 2.164 2.164v8.605c0 1.195-.97 2.164-2.164 2.164H2.564A2.164 2.164 0 01.4 11.17v-4.17h1.2v4.17c0 .494.372.902.852.958l.112.006h9.672a.964.964 0 00.964-.964V2.564a.964.964 0 00-.964-.964l-4.237-.001v-1.2z" transform="translate(0 1)"/>
            <path d="M10.6 4.787a.48.48 0 01.086.952l-.086.008H8.012v-.96H10.6zM4.204 7.987l4.3.033a.48.48 0 01.079.953l-.087.007-4.3-.033a.48.48 0 01-.079-.953l.087-.007z" transform="translate(0 1)"/>
        </g>
        <rect width="6" height="4" x="1" y="3" rx=".612"/>
        <path d="M4 .5a2.5 2.5 0 012.495 2.336L6.5 3h-1a1.5 1.5 0 00-2.993-.144L2.5 3h-1A2.5 2.5 0 014 .5z"/>
    </g>
</svg>
