<svg xmlns="http://www.w3.org/2000/svg" width="18" height="18" viewBox="0 0 18 18">
    <g fill="none"  fill-rule="evenodd">
        <g fill="#010505">
            <g>
                <g>
                    <g>
                        <path d="M5.53 3.14c.442 0 .8.358.8.8 0 .408-.305.744-.7.794l-.1.006H3.48c-.442 0-.8-.358-.8-.8 0-.408.305-.744.7-.794l.1-.006h2.05zM7.33 5.87c.442 0 .8.358.8.8 0 .408-.305.744-.7.794l-.1.006H3.59c-.442 0-.8-.358-.8-.8 0-.408.305-.744.7-.794l.1-.006h3.74z" transform="translate(-1351.000000, -809.000000) translate(72.000000, 26.000000) translate(1279.000000, 783.000000) translate(2.000000, 2.000000)"/>
                        <path d="M9.14 0c1.38 0 2.5 1.12 2.5 2.5l-.005-.136.04.001c1.25.081 2.249 1.08 2.33 2.33l.005.165v6.65c0 1.325-1.032 2.41-2.336 2.495l-.164.005H4.86c-1.339 0-2.431-1.052-2.497-2.374C1.047 11.566 0 10.476 0 9.14V2.5C0 1.12 1.12 0 2.5 0zm2.502 4.172L11.64 9.14c0 1.38-1.12 2.5-2.5 2.5H4.172c.055.294.294.523.593.564l.095.006h6.65c.354 0 .647-.263.694-.605l.006-.095V4.86c0-.342-.245-.626-.568-.688zM9.14 1.8H2.5c-.387 0-.7.313-.7.7v6.64c0 .387.313.7.7.7h6.64c.387 0 .7-.313.7-.7V2.5c0-.387-.313-.7-.7-.7z" transform="translate(-1351.000000, -809.000000) translate(72.000000, 26.000000) translate(1279.000000, 783.000000) translate(2.000000, 2.000000)"/>
                    </g>
                </g>
            </g>
        </g>
    </g>
</svg>
