<svg xmlns="http://www.w3.org/2000/svg" width="18" height="18" viewBox="0 0 18 18">
    <defs>
        <radialGradient id="iqk5by516a" cx="25.191%" cy="107.04%" r="99.007%" fx="25.191%" fy="107.04%" gradientTransform="matrix(0 -1 .99972 0 -.818 1.322)">
            <stop offset="0%" stop-color="#FD5"/>
            <stop offset="10%" stop-color="#FD5"/>
            <stop offset="50%" stop-color="#FF543E"/>
            <stop offset="100%" stop-color="#C837AB"/>
        </radialGradient>
        <radialGradient id="v9h8gmky4b" cx="-17.766%" cy="7.817%" r="44.326%" fx="-17.766%" fy="7.817%" gradientTransform="matrix(.19172 .98144 -.98116 .19178 -.067 .238)">
            <stop offset="0%" stop-color="#3771C8"/>
            <stop offset="13%" stop-color="#3771C8"/>
            <stop offset="100%" stop-color="#60F" stop-opacity="0"/>
        </radialGradient>
    </defs>
    <g fill="none" fill-rule="evenodd">
        <g fill-rule="nonzero">
            <g>
                <path fill="url(#iqk5by516a)" d="M8.986 0C5.236 0 4.14 0 3.93.022 3.16.085 2.68.207 2.155.466c-.387.19-.736.448-1.032.761-.571.597-.936 1.36-1.04 2.18-.061.42-.083.506-.083 2.65v2.916c0 3.747 0 4.843.023 5.056.062.749.18 1.22.428 1.735.484.996 1.38 1.73 2.453 2.008.428.102.865.16 1.304.172.222.01 2.49.017 4.759.017 2.27 0 4.537 0 4.755-.014.455-.009.909-.068 1.351-.176 1.073-.276 1.97-1.01 2.452-2.008.253-.534.397-1.113.424-1.703.012-.154.017-2.621.017-5.085 0-2.465 0-4.928-.018-5.082-.025-.597-.172-1.182-.432-1.72-.19-.394-.45-.751-.768-1.052C16.148.55 15.38.186 14.56.082 14.14.022 14.056 0 11.915 0H8.986z" transform="translate(-57 -2397) translate(57 2397)"/>
                <path fill="url(#v9h8gmky4b)" d="M8.986 0C5.236 0 4.14 0 3.93.022 3.16.085 2.68.207 2.155.466c-.387.19-.736.448-1.032.761-.571.597-.936 1.36-1.04 2.18-.061.42-.083.506-.083 2.65v2.916c0 3.747 0 4.843.022 5.056.062.749.18 1.22.428 1.735.484.996 1.381 1.73 2.454 2.008.428.102.865.16 1.304.172.222.01 2.49.017 4.759.017 2.27 0 4.537 0 4.755-.014.455-.009.909-.068 1.351-.176 1.073-.276 1.97-1.01 2.453-2.008.252-.534.396-1.113.423-1.703.012-.154.017-2.621.017-5.085 0-2.465 0-4.928-.018-5.082-.025-.597-.172-1.182-.432-1.72-.19-.395-.45-.752-.768-1.052C16.148.55 15.38.186 14.56.082 14.14.022 14.056 0 11.915 0H8.986z" transform="translate(-57 -2397) translate(57 2397)"/>
                <path fill="#FFF" d="M8.982 2.348c-1.801 0-2.028.008-2.735.04-.55.012-1.095.116-1.61.308-.891.344-1.596 1.048-1.94 1.94-.193.515-.297 1.06-.308 1.61-.031.707-.04.934-.04 2.735 0 1.801.007 2.028.04 2.733.01.55.115 1.095.308 1.61.345.891 1.049 1.596 1.94 1.94.515.193 1.06.298 1.61.309.707.032.933.04 2.734.04s2.028-.008 2.734-.04c.55-.011 1.095-.115 1.61-.308.891-.346 1.596-1.05 1.94-1.941.192-.516.296-1.06.309-1.609.031-.708.04-.933.04-2.734s-.009-2.028-.04-2.736c-.013-.55-.117-1.094-.308-1.61-.166-.441-.426-.842-.76-1.174-.332-.336-.734-.596-1.176-.761-.516-.192-1.06-.296-1.611-.308-.707-.032-.933-.04-2.734-.04l-.003-.004zm-.596 1.201h.596c1.775 0 1.98.007 2.68.038.42.006.837.083 1.23.23.579.221 1.036.676 1.26 1.253.146.394.223.81.228 1.231.031.699.039.91.039 2.679 0 1.77-.008 1.98-.04 2.68-.004.42-.081.836-.227 1.23-.224.579-.68 1.036-1.26 1.259-.393.146-.81.224-1.23.228-.7.032-.909.038-2.68.038-1.77 0-1.981 0-2.68-.038-.421-.006-.838-.084-1.232-.23-.578-.223-1.035-.68-1.258-1.258-.146-.393-.224-.808-.23-1.227-.033-.704-.033-.914-.033-2.685 0-1.77.007-1.98.038-2.678.005-.42.08-.835.225-1.229.22-.582.678-1.043 1.258-1.267.395-.147.81-.224 1.231-.23.613-.026.85-.035 2.085-.036v.012zm4.137 1.102c-.322 0-.613.193-.737.49-.123.298-.056.64.172.868.228.228.57.297.868.173.297-.123.491-.413.491-.735 0-.44-.355-.795-.794-.796zm-3.54.926c-1.379 0-2.621.83-3.149 2.103-.527 1.273-.236 2.738.739 3.712.975.975 2.44 1.266 3.713.738 1.273-.528 2.102-1.771 2.101-3.149-.001-1.88-1.525-3.403-3.405-3.404zm0 1.196c.894 0 1.7.539 2.042 1.365.342.827.152 1.778-.48 2.41-.633.632-1.585.82-2.41.477-.827-.343-1.364-1.15-1.363-2.044 0-1.221.99-2.21 2.21-2.21v.002z" transform="translate(-57 -2397) translate(57 2397)"/>
            </g>
        </g>
    </g>
</svg>
