<svg xmlns="http://www.w3.org/2000/svg" width="18" height="18" viewBox="0 0 18 18">
    <g fill="none"  fill-rule="evenodd">
        <g fill="#010505">
            <g>
                <g>
                    <path d="M12.6 0c.773 0 1.4.616 1.4 1.375v8.25c0 .76-.627 1.375-1.4 1.375H1.4C.627 11 0 10.384 0 9.625v-8.25C0 .615.627 0 1.4 0h11.2zm0 1.031H1.4c-.172 0-.315.122-.344.282l-.006.062v8.25c0 .169.124.31.287.338l.063.006h11.2c.172 0 .315-.122.344-.282l.006-.062v-8.25c0-.169-.124-.31-.287-.338L12.6 1.03z" transform="translate(-496 -414) translate(496 414) translate(2 4)"/>
                    <path d="M1.798 2.189c.156-.21.441-.27.668-.152l.066.04L6.995 5.29 11.4 2.08c.212-.155.503-.13.684.048l.05.058c.158.208.132.494-.05.671l-.058.05L7.31 6.345c-.164.12-.382.134-.559.041l-.064-.04L1.91 2.91c-.234-.168-.284-.49-.113-.72z" transform="translate(-496 -414) translate(496 414) translate(2 4)"/>
                </g>
            </g>
        </g>
    </g>
</svg>
