<?xml version="1.0" encoding="UTF-8"?>
<svg width="24px" height="24px" viewBox="0 0 24 24" version="1.1" xmlns="http://www.w3.org/2000/svg" xmlns:xlink="http://www.w3.org/1999/xlink">
    <title>ic/18/18_info_g copy 2</title>
    <g id="ic/18/18_info_g-copy-2" stroke="none" stroke-width="1" fill="none" fill-rule="evenodd">
        <g id="Group" transform="translate(3.066667, 3.066667)" fill="#010505">
            <circle id="Oval-7" cx="8.82564103" cy="5.91794872" r="1"></circle>
            <rect id="Rectangle" x="8.11948718" y="7.57948718" width="1.41230769" height="5.81538462" rx="0.706153846"></rect>
            <path d="M8.93333333,0 C3.99958957,0 0,3.99958957 0,8.93333333 C0,13.8670771 3.99958957,17.8666667 8.93333333,17.8666667 C13.8670771,17.8666667 17.8666667,13.8670771 17.8666667,8.93333333 C17.8666667,3.99958957 13.8670771,0 8.93333333,0 Z M8.93333333,1.86666667 C12.8361456,1.86666667 16,5.0305211 16,8.93333333 C16,12.8361456 12.8361456,16 8.93333333,16 C5.0305211,16 1.86666667,12.8361456 1.86666667,8.93333333 C1.86666667,5.0305211 5.0305211,1.86666667 8.93333333,1.86666667 Z" id="Oval"></path>
        </g>
    </g>
</svg>