<svg xmlns="http://www.w3.org/2000/svg" width="18" height="18" viewBox="0 0 18 18">
    <g fill="none" fill-rule="evenodd">
        <g fill="#381E1E">
            <g>
                <path d="M9.501 10.177s-.002-2.336-.004-3.06c0-.256.225-.383.451-.383s.45.126.451.38c.002.525-.002 2.686-.002 2.686s.715.004 1.106.004c.392 0 .395.834.003.834l-1.673.003c-.398 0-.332-.464-.332-.464zM5.922 6.599c.519 0 .518.879 0 .878-.55 0-.83.061-.83.061l-.004 2.79c.002.39-.864.37-.866-.02.005-.533 0-2.852 0-2.852h-.834c-.488 0-.49-.857 0-.857h2.534zm2.058.388c.146.315.957 2.54 1.19 3.158.165.433-.627.733-.79.3-.203-.534-.15-.557-.15-.557l-1.526-.001-.166.584c-.179.408-.945.075-.768-.334.246-.566.987-2.699 1.193-3.15.08-.18.271-.25.467-.25.237 0 .48.104.55.25zM12.037 7c-.005-.175.22-.266.44-.266.205 0 .406.08.41.243.012.43 0 1.21 0 1.21l1.417-1.416c.183-.182.746.386.564.567-.312.31-1.103 1.168-1.103 1.168l1.166 1.536c.222.293-.477.822-.698.53l-1.1-1.5-.251.202v1.13c0 .336-.855.337-.856.002 0-.214.019-3.088.01-3.406zm-3.04-4.71C4.58 2.291 1 5.121 1 8.614c0 2.272 1.517 4.264 3.794 5.38-.167.623-.605 2.261-.693 2.612-.109.435.159.429.335.312l3.077-2.09c.481.07.977.108 1.485.108 4.417 0 7.997-2.83 7.997-6.322S13.415 2.29 8.998 2.29z" transform="translate(-329 -2367) translate(329 2367)"/>
                <path d="M7.946 9.12L7.481 7.667 6.979 9.12z" transform="translate(-329 -2367) translate(329 2367)"/>
            </g>
        </g>
    </g>
</svg>
