<svg xmlns="http://www.w3.org/2000/svg" width="18" height="18" viewBox="0 0 18 18">
    <g fill="none" fill-rule="evenodd">
        <g>
            <g>
                <path fill="#00C300" d="M16.898 8.45c0-3.556-3.566-6.45-7.949-6.45C4.567 2 1 4.894 1 8.45c0 3.189 2.828 5.86 6.648 6.365.258.055.61.171.7.392.08.2.053.515.026.718 0 0-.093.562-.114.681-.034.201-.16.786.689.428.848-.357 4.578-2.695 6.245-4.615 1.152-1.263 1.704-2.545 1.704-3.969z" transform="translate(-363 -2367) translate(363 2367)"/>
                <g fill="#FFF">
                    <path d="M9.987 1.58c.23 0 .417.186.417.417 0 .23-.187.416-.417.416H8.824v.746h1.163c.23 0 .417.187.417.416 0 .23-.188.417-.417.417h-1.58c-.23 0-.416-.187-.416-.417V.417c0-.23.187-.417.417-.417h1.579c.23 0 .417.187.417.417 0 .23-.187.417-.417.417H8.824v.746h1.163zM7.431 3.575c0 .18-.114.339-.285.396-.042.014-.087.021-.132.021-.13 0-.254-.062-.333-.167L5.062 1.622v1.953c0 .23-.186.417-.416.417-.23 0-.417-.187-.417-.417V.417c0-.18.115-.339.285-.396C4.557.007 4.6 0 4.646 0c.13 0 .255.062.333.167L6.598 2.37V.417c0-.23.187-.417.417-.417.23 0 .416.187.416.417v3.158zM3.63 3.575c0 .23-.187.417-.417.417-.23 0-.417-.187-.417-.417V.417c0-.23.187-.417.417-.417.23 0 .416.187.416.417v3.158zM1.996 3.992H.416C.187 3.992 0 3.805 0 3.575V.417C0 .187.187 0 .416 0c.23 0 .417.187.417.417v2.742h1.163c.23 0 .416.187.416.416 0 .23-.186.417-.416.417z" transform="translate(-363 -2367) translate(363 2367) translate(3.842 6.574)"/>
                </g>
            </g>
        </g>
    </g>
</svg>
