<svg width="18" height="18" viewBox="0 0 18 18" xmlns="http://www.w3.org/2000/svg">
    <path d="M10.818 7.108a.6.6 0 1 1-.854.843 1.81 1.81 0 0 0-2.419-.143l-.122.108-2.81 2.79a1.84 1.84 0 0 0 2.476 2.713l.123-.11.37-.36a.6.6 0 0 1 .908.779l-.07.082-.374.362a3.04 3.04 0 0 1-4.421-4.16l.133-.148 2.826-2.806a3.01 3.01 0 0 1 4.234.05zm3.308-3.311c1.073 1.08 1.177 2.778.24 4.007l-.122.15-2.771 2.762a3.03 3.03 0 0 1-4.264 0 .6.6 0 1 1 .844-.852 1.83 1.83 0 0 0 2.452.112l.122-.111 2.739-2.726a1.84 1.84 0 0 0-2.447-2.71l-.131.1-.34.3a.6.6 0 0 1-.869-.82l.075-.08.348-.307a3.04 3.04 0 0 1 4.124.175z" fill="#010505" fill-rule="evenodd"/>
</svg>
