<svg xmlns="http://www.w3.org/2000/svg" width="18" height="18" viewBox="0 0 18 18">
    <g fill="none" fill-rule="evenodd">
        <g fill="#010505">
            <g>
                <g>
                    <path d="M8.5 10h-7C.67 10 0 9.33 0 8.5v-7C0 .67.67 0 1.5 0H3c.28 0 .5.22.5.5S3.28 1 3 1H1.5c-.27 0-.5.23-.5.5v7c0 .27.23.5.5.5h7c.27 0 .5-.23.5-.5V7c0-.28.22-.5.5-.5s.5.22.5.5v1.5c0 .83-.67 1.5-1.5 1.5z" transform="translate(-929 -1038) translate(929 1038) translate(4 4)"/>
                    <path d="M9.12 0H5.88c-.28 0-.5.22-.5.5s.22.5.5.5h2.4L5.32 3.96c-.2.2-.2.51 0 .71.1.1.23.15.35.15.12 0 .26-.05.35-.15L9 1.7v2.39c0 .28.22.5.5.5s.5-.23.5-.51V.88C10 .4 9.6 0 9.12 0z" transform="translate(-929 -1038) translate(929 1038) translate(4 4)"/>
                </g>
            </g>
        </g>
    </g>
</svg>
