<svg xmlns="http://www.w3.org/2000/svg" width="18" height="19" viewBox="0 0 18 19">
    <g fill="none" fill-rule="evenodd">
        <g fill="#010505">
            <g>
                <g>
                    <path d="M8.911 4.75c1.689 0 3.069 1.395 3.162 3.153l-.001.001h.316c.338 0 .612.275.612.613v4.406c0 .338-.274.612-.612.612H5.612c-.338 0-.612-.274-.612-.612V8.517c0-.338.274-.612.612-.612l.137-.001C5.843 6.145 7.223 4.75 8.911 4.75zm0 1.056c-1.136 0-2.068.923-2.16 2.098h4.32c-.091-1.175-1.023-2.098-2.16-2.098z" transform="translate(-540 -494) translate(540 494)"/>
                </g>
            </g>
        </g>
    </g>
</svg>
