<svg xmlns="http://www.w3.org/2000/svg" width="18" height="18" viewBox="0 0 18 18">
    <g fill="none" fill-rule="evenodd">
        <g fill="#010505">
            <g>
                <g>
                    <path d="M7.54 7.05c.254-.253.665-.254.92 0 .228.228.251.584.069.839l-.069.08-3.992 4c-.228.229-.585.252-.839.07l-.08-.069-4.008-4c-.254-.254-.255-.665-.001-.92.228-.228.584-.251.839-.069l.08.069 3.547 3.54L7.54 7.05z" transform="translate(-1321.000000, -1840.000000) translate(72.000000, 26.000000) translate(1249.000000, 1814.000000) translate(-0.000000, 0.000000) translate(4.000000, 9.509992) scale(-1, 1) rotate(-90.000000) translate(-4.000000, -9.509992)"/>
                </g>
            </g>
        </g>
    </g>
</svg>
