<svg xmlns="http://www.w3.org/2000/svg" width="18" height="18" viewBox="0 0 18 18">
    <g fill="none"  fill-rule="evenodd">
        <g fill="#010505">
            <path d="M11.662 3.377c-.915.053-1.785.42-2.46 1.04l-.035.033.101.1c-.72-.744-1.75-1.18-2.826-1.18s-2.106.436-2.855 1.208c-1.619 1.679-1.703 4.308-.198 6.086.313.382.685.789 1.087 1.196l.412.407c1.54 1.487 3.381 2.874 4.213 2.965h.132c.68-.075 2.037-1.017 3.353-2.172l.436-.393.427-.402c.561-.542 1.083-1.097 1.502-1.609 1.5-1.77 1.415-4.4-.202-6.077-.751-.773-1.781-1.209-2.857-1.209l-.23.007zm.23 1.193c.752 0 1.471.305 1.995.844 1.187 1.232 1.25 3.166.142 4.474l-.143.17c-.196.23-.416.472-.652.717l-.364.368-.38.37-.391.363-.394.353-.392.337-.193.16-.376.303c-.675.53-1.255.911-1.565.995l-.012.001.066.014c-.236-.025-.708-.308-1.285-.736l-.357-.273c-.062-.048-.124-.098-.186-.148l-.383-.315-.391-.337c-.132-.115-.263-.233-.394-.352l-.39-.363-.38-.368c-.435-.43-.835-.86-1.156-1.252-1.113-1.315-1.051-3.249.138-4.483.522-.537 1.242-.842 1.993-.842.752 0 1.471.305 1.995.844l.73.659.701-.631c.553-.567 1.273-.872 2.024-.872z" transform="translate(-542.000000, -1004.000000) translate(542.000000, 1004.000000)"/>
        </g>
    </g>
</svg>
