<svg xmlns="http://www.w3.org/2000/svg" width="18" height="18" viewBox="0 0 18 18">
    <g fill="none" fill-rule="evenodd">
        <path fill="#AEB8BD" d="M2.285 8v6.404c0 .712.577 1.29 1.29 1.292h10.83a1.292 1.292 0 001.289-1.292v-2.708a.643.643 0 111.286.002v2.708a2.578 2.578 0 01-2.574 2.574H3.575A2.578 2.578 0 011 14.406V8h1.285zM16.93 1.398A.647.647 0 0016.337 1H10.15a.643.643 0 000 1.286h4.634L9.695 7.375a.643.643 0 00.91.909l5.089-5.089v4.636a.643.643 0 101.286 0V1.643a.639.639 0 00-.05-.245z"/>
        <rect width="6" height="4" x="1" y="3" fill="#AEB8BD" rx=".612"/>
        <path fill="#AEB8BD" d="M4 .5a2.5 2.5 0 012.495 2.336L6.5 3h-1a1.5 1.5 0 00-2.993-.144L2.5 3h-1A2.5 2.5 0 014 .5z"/>
    </g>
</svg>
