<svg width="18" height="18" viewBox="0 0 18 18" xmlns="http://www.w3.org/2000/svg">
    <path d="M11.276 3.107a4.14 4.14 0 0 0-2.193.782l-.168.129-.173-.133a4.144 4.144 0 0 0-5.398.472 4.69 4.69 0 0 0-.213 6.276c1.519 1.884 4.506 4.414 5.668 4.545l.119.013.117-.018c.527-.08 1.421-.63 2.382-1.38l.448-.36c.15-.124.3-.252.45-.382l.447-.399.22-.204.428-.412c.49-.483.94-.97 1.3-1.418 1.535-1.822 1.444-4.53-.222-6.259A4.142 4.142 0 0 0 11.515 3.1l-.24.007zm.239 1.793a2.34 2.34 0 0 1 1.679.71 2.89 2.89 0 0 1 .127 3.864c-.598.742-1.592 1.72-2.583 2.552l-.175.145-.369.295-.345.261-.313.225-.274.183a4.03 4.03 0 0 1-.32.189l-.062.028-.012-.004c-.207-.09-.55-.32-.96-.636l-.366-.29-.39-.326a26.666 26.666 0 0 1-.406-.352l-.41-.371-.408-.384-.394-.387c-.385-.388-.737-.77-1.013-1.113a2.895 2.895 0 0 1 .117-3.881 2.338 2.338 0 0 1 3.356.002l.872.872.925-.828c.485-.498 1.091-.754 1.724-.754z" fill="#010505" fill-rule="evenodd" />
</svg>
