<svg xmlns="http://www.w3.org/2000/svg" width="18" height="18" viewBox="0 0 18 18">
    <g fill="#AEB8BD" fill-rule="nonzero">
        <path d="M16.337 11.053a.643.643 0 0 0-.643.643v2.708c0 .712-.577 1.29-1.29 1.292H3.575a1.292 1.292 0 0 1-1.288-1.292V3.573a1.292 1.292 0 0 1 1.289-1.287h2.707a.643.643 0 0 0 0-1.286H3.575A2.578 2.578 0 0 0 1 3.575v10.83a2.578 2.578 0 0 0 2.575 2.575h10.83a2.578 2.578 0 0 0 2.575-2.574v-2.708a.643.643 0 0 0-.643-.645z"/>
        <path d="M16.93 1.398A.647.647 0 0 0 16.337 1H10.15a.643.643 0 1 0 0 1.286h4.634L9.695 7.375a.643.643 0 0 0 .91.909l5.089-5.089v4.636a.643.643 0 1 0 1.286 0V1.643a.639.639 0 0 0-.05-.245z"/>
    </g>
</svg>
