<svg width="18" height="18" viewBox="0 0 18 18" xmlns="http://www.w3.org/2000/svg">
    <g fill="none" fill-rule="evenodd">
        <path d="M13.673 7.395c.301 0 .55.223.589.513l.005.08v.193a5.08 5.08 0 0 1-4.678 5.064v2.588a.594.594 0 0 1-1.182.08l-.005-.08v-2.588a5.055 5.055 0 0 1-2.76-1.087l.848-.847c.603.447 1.34.723 2.14.758l.173.004h.384a3.892 3.892 0 0 0 3.889-3.72l.004-.172v-.192c0-.328.266-.594.593-.594zm-1.871-1.397v1.657c0 1.734-1.256 3.14-2.807 3.14a2.582 2.582 0 0 1-1.502-.487l4.309-4.31zM4.317 7.395c.301 0 .55.223.589.513l.005.08v.193c0 .408.063.801.18 1.17l-.92.919a5.055 5.055 0 0 1-.444-1.907l-.003-.182v-.192c0-.328.265-.594.593-.594zm4.678-6.02c1.056 0 1.976.652 2.455 1.616L6.232 8.21a3.525 3.525 0 0 1-.043-.554v-3.14c0-1.734 1.256-3.14 2.806-3.14z" fill="#010505"/>
        <path d="M13.11 2.17a.594.594 0 0 1 .897.774l-.057.066L3.874 13.087a.594.594 0 0 1-.898-.774l.058-.066L13.11 2.17z" fill="#FB2942"/>
    </g>
</svg>
