<svg xmlns="http://www.w3.org/2000/svg" width="18" height="18" viewBox="0 0 18 18">
    <g fill="none"  fill-rule="evenodd">
        <g fill="#010505">
            <path d="M13.88 2.08c.361-.014.713.12.973.371s.407.597.407.959l1.1 11.25c0 .359-.146.702-.404.952-.259.249-.607.382-.966.368H3.53c-.71-.027-1.27-.61-1.27-1.32L3.31 3.41c-.003-.352.135-.69.383-.94s.585-.39.937-.39h9.25zm-2.62 3.31c-.276 0-.5.224-.5.5v1.19l-.007.142c-.069.745-.685 1.335-1.448 1.358-.78-.024-1.425-.689-1.425-1.5V5.89l-.008-.09c-.042-.233-.247-.41-.492-.41-.276 0-.5.224-.5.5v1.19l.005.168C6.97 8.522 8.01 9.54 9.305 9.58c1.381-.04 2.456-1.148 2.455-2.5V5.89l-.008-.09c-.042-.233-.247-.41-.492-.41z" transform="translate(-492.000000, -1387.000000) translate(492.000000, 1387.000000)"/>
        </g>
    </g>
</svg>
