<svg xmlns="http://www.w3.org/2000/svg" width="18" height="18" viewBox="0 0 18 18">
    <g fill="none"  fill-rule="evenodd">
        <g fill="#010505">
            <path d="M14.32 8.41C14.32 5.98 12 4 9.16 4 6.32 4 4 6 4 8.41c0 2.72 2.92 4.89 6.19 4.31.52.396 1.106.697 1.73.89.07.01.14.01.21 0 .257 0 .493-.14.616-.364.124-.226.113-.5-.026-.716-.144-.223-.255-.465-.33-.72 1.164-.747 1.886-2.018 1.93-3.4z" transform="translate(-488.000000, -978.000000) translate(488.000000, 978.000000)"/>
        </g>
    </g>
</svg>
