<svg xmlns="http://www.w3.org/2000/svg" width="18" height="18" viewBox="0 0 18 18">
    <path fill="#AEB8BD" fill-rule="evenodd" d="M14.314 12.127c.379 0 .686.307.686.687 0 .379-.307.686-.686.686H3.686c-.379 0-.686-.307-.686-.686 0-.38.307-.687.686-.687h10.628zm0-3.813c.379 0 .686.307.686.686 0 .38-.307.686-.686.686H3.686C3.307 9.686 3 9.38 3 9c0-.38.307-.686.686-.686h10.628zm0-3.814c.379 0 .686.307.686.686 0 .38-.307.687-.686.687H3.686c-.379 0-.686-.307-.686-.687 0-.379.307-.686.686-.686h10.628z"/>
</svg>
