<svg xmlns="http://www.w3.org/2000/svg" width="18" height="18" viewBox="0 0 18 18">
    <path fill="#AEB8BD" fill-rule="evenodd" d="M9.077 1.4c4.155 0 7.523 3.368 7.523 7.523v7.523H7.923C3.768 16.446.4 13.078.4 8.923.4 4.768 3.768 1.4 7.923 1.4zm0 1.2H7.923C4.431 2.6 1.6 5.43 1.6 8.923c0 3.492 2.83 6.323 6.323 6.323H15.4V8.923c0-3.414-2.707-6.197-6.091-6.319L9.077 2.6zM5.462 8.615c.51 0 .923.414.923.923 0 .51-.414.924-.923.924-.51 0-.924-.414-.924-.924s.414-.923.924-.923zm3 0c.51 0 .923.414.923.923 0 .51-.414.924-.923.924-.51 0-.924-.414-.924-.924s.414-.923.924-.923zm3 0c.51 0 .923.414.923.923 0 .51-.414.924-.923.924-.51 0-.924-.414-.924-.924s.414-.923.924-.923z"/>
</svg>
