<svg xmlns="http://www.w3.org/2000/svg" width="18" height="18" viewBox="0 0 18 18">
    <g fill="none"  fill-rule="evenodd">
        <g fill="#010505">
            <g>
                <g>
                    <path d="M11.26 5.39c.245 0 .45.177.492.41l.008.09V7.1c-.054 1.342-1.158 2.401-2.512 2.4-1.263-.03-2.296-.997-2.426-2.254L6.81 7.08V5.89c0-.276.224-.5.5-.5.245 0 .45.177.492.41l.008.09v1.17c.031.79.671 1.421 1.45 1.44.759 0 1.39-.563 1.488-1.283l.012-.137V5.89c0-.276.224-.5.5-.5z" transform="translate(-542.000000, -1387.000000) translate(542.000000, 1387.000000) translate(0.000000, -0.000000)"/>
                    <path d="M13.48 2.13H4.9c-.994 0-1.8.806-1.8 1.8l-.997 10.152C2.1 15.134 2.906 15.94 3.9 15.94h10.58c.994 0 1.8-.806 1.8-1.8L15.277 3.872c.003-.936-.803-1.742-1.797-1.742zM4.9 3.33h8.58c.331 0 .6.269.6.6l1.003 10.268c-.003.273-.272.542-.603.542H3.9c-.331 0-.6-.269-.6-.6l.997-10.152c.003-.39.272-.658.603-.658z" transform="translate(-542.000000, -1387.000000) translate(542.000000, 1387.000000) translate(0.000000, -0.000000)"/>
                </g>
            </g>
        </g>
    </g>
</svg>
