<svg xmlns="http://www.w3.org/2000/svg" width="18" height="18" viewBox="0 0 18 18">
    <g fill="none"  fill-rule="evenodd">
        <g fill="#010505">
            <g>
                <path d="M15.82 7.94c0-3.28-3.1-5.94-6.9-5.94C5.12 2 2 4.66 2 7.94c0 3.63 3.84 6.54 8.17 5.83.674.498 1.428.877 2.23 1.12.113.015.227.015.34 0 .361-.003.7-.173.92-.46.284-.394.284-.926 0-1.32-.132-.219-.242-.45-.33-.69 1.501-1.007 2.427-2.674 2.49-4.48z" transform="translate(-488.000000, -954.000000) translate(488.000000, 954.000000) translate(0.000000, -0.000000)"/>
            </g>
        </g>
    </g>
</svg>
