<svg width="18px" height="18px" viewBox="0 0 18 18" version="1.1" xmlns="http://www.w3.org/2000/svg">
    <g stroke="none" stroke-width="1" fill="none" fill-rule="evenodd">
        <path d="M9,0 C13.9705627,0 18,4.02943725 18,9 C18,13.9705627 13.9705627,18 9,18 C4.02943725,18 0,13.9705627 0,9 C0,4.02943725 4.02943725,0 9,0 Z M14.9546207,3.94618239 L11.395,7.505 L11.3959044,8.36061793 C11.3959044,9.84091169 10.3232215,11.0409269 9,11.0409269 C8.67036218,11.0409269 8.35627268,10.9664544 8.07044197,10.8317288 L7.26895543,11.6319677 C7.64220929,11.8397136 8.06120435,11.9755126 8.50748651,12.0203702 L8.69025667,12.033544 L8.83617747,12.0367586 L9.16382253,12.0367586 C10.8310287,12.0367586 12.2109379,10.7697557 12.3749598,9.13792394 L12.3881336,8.95515379 L12.3913481,8.80923298 L12.3913481,8.64541045 C12.3913481,8.31303117 12.6607948,8.04358452 12.9931741,8.04358452 C13.2616146,8.04358452 13.4922142,8.22031563 13.5688602,8.47239624 L13.590159,8.57026046 L13.595,8.64541045 L13.595,8.80923298 C13.595,11.0560002 11.9165862,12.9305577 9.72105018,13.2057192 L9.601,13.217 L9.60182594,15.3416562 C9.60182594,15.6075596 9.42938008,15.8331862 9.19022354,15.9128006 L9.09761929,15.9356052 L9,15.9434821 C8.73155942,15.9434821 8.50095985,15.766751 8.42431391,15.5146704 L8.40301504,15.4168062 L8.39817406,15.341662 L8.398,13.217 L8.27725758,13.2054983 C7.5866402,13.1186222 6.94644617,12.8731645 6.3935731,12.5071098 L3.94618239,14.9546207 C5.30832286,16.1118396 7.07262938,16.81 9,16.81 C13.3133439,16.81 16.81,13.3133439 16.81,9 C16.81,7.07262938 16.1118396,5.30832286 14.9546207,3.94618239 Z M9,1.19 C4.6866561,1.19 1.19,4.6866561 1.19,9 C1.19,10.9574039 1.91008809,12.7466221 3.09980984,14.1172004 L5.49648959,11.7213758 C4.93681246,11.0796697 4.5592804,10.275589 4.44296829,9.39053851 L4.42008158,9.17627723 L4.40775184,8.96642942 L4.405,8.64541045 C4.405,8.31303117 4.67444665,8.04358452 5.00682594,8.04358452 C5.27526652,8.04358452 5.50586609,8.22031563 5.58251203,8.47239624 L5.6038109,8.57026046 L5.60865188,8.64541045 L5.60865188,8.80923298 C5.60865188,9.59014104 5.88662242,10.3080184 6.34985448,10.8674414 L7.15129381,10.0656655 C6.80944989,9.60233234 6.60409556,9.00830338 6.60409556,8.36061793 L6.60409556,5.68030896 C6.60409556,4.2000152 7.67677852,3 9,3 C10.3232215,3 11.3959044,4.2000152 11.3959044,5.68030896 L11.395,5.821 L14.1172004,3.09980984 C12.7466221,1.91008809 10.9574039,1.19 9,1.19 Z"  fill="#010505"></path>
    </g>
</svg>
