<svg xmlns="http://www.w3.org/2000/svg" width="18" height="18" viewBox="0 0 18 18">
    <g fill="none"  fill-rule="evenodd">
        <g fill="#010505">
            <path d="M9 2c4.14 0 7.5 3.133 7.5 6.996 0 1.594-.585 3.063-1.55 4.243l.57 2.134c.1.37-.24.71-.61.61l-2.625-.705c-.995.454-2.105.714-3.285.714-4.14 0-7.5-3.133-7.5-6.996C1.5 5.133 4.86 2 9 2zM5.995 8.491c-.415 0-.75.335-.75.75s.335.75.75.75c.069 0 .136-.01.2-.027l.092-.032c.27-.114.458-.38.458-.691 0-.415-.335-.75-.75-.75zm3 0c-.415 0-.75.335-.75.75s.335.75.75.75c.069 0 .136-.01.2-.027l.092-.032c.27-.114.458-.38.458-.691 0-.415-.335-.75-.75-.75zm3 0c-.415 0-.75.335-.75.75s.335.75.75.75c.069 0 .136-.01.2-.027l.092-.032c.27-.114.458-.38.458-.691 0-.415-.335-.75-.75-.75z" transform="translate(-488.000000, -960.000000) translate(488.000000, 960.000000)"/>
        </g>
    </g>
</svg>
