<svg width="18" height="18" viewBox="0 0 18 18" xmlns="http://www.w3.org/2000/svg">
    <path d="M8.886 2.11c-3.817 0-6.95 2.631-6.95 5.93s3.133 5.93 6.95 5.93l.347-.01a7.952 7.952 0 0 0 1.028-.116l.051-.011-.229-.181a7.41 7.41 0 0 0 2.634 1.403.87.87 0 0 0 .99-1.292l-.155-.277a5.486 5.486 0 0 1-.261-.585l-.068-.194.201-.136a5.76 5.76 0 0 0 2.412-4.513c0-3.317-3.132-5.948-6.95-5.948zm0 1.2c3.197 0 5.75 2.145 5.75 4.73a4.554 4.554 0 0 1-2.403 3.861.6.6 0 0 0-.299.674l.087.316c.064.21.137.416.22.618l.048.111-.113-.05a6.199 6.199 0 0 1-1.326-.842.6.6 0 0 0-.516-.123 6.75 6.75 0 0 1-1.45.165c-3.195 0-5.748-2.145-5.748-4.73 0-2.585 2.553-4.73 5.75-4.73z" fill="#010505" fill-rule="evenodd"/>
</svg>
