<svg xmlns="http://www.w3.org/2000/svg" width="18" height="18" viewBox="0 0 18 18">
    <g fill="none" fill-rule="evenodd">
        <g fill="#010505">
            <g>
                <path d="M4.25 8c.69 0 1.25.56 1.25 1.25s-.56 1.25-1.25 1.25S3 9.94 3 9.25 3.56 8 4.25 8zm5 0c.69 0 1.25.56 1.25 1.25s-.56 1.25-1.25 1.25S8 9.94 8 9.25 8.56 8 9.25 8zm5 0c.69 0 1.25.56 1.25 1.25s-.56 1.25-1.25 1.25S13 9.94 13 9.25 13.56 8 14.25 8z" transform="translate(-929 -1220) translate(929 1220) rotate(90 9.25 9.25)"/>
            </g>
        </g>
    </g>
</svg>
