<svg xmlns="http://www.w3.org/2000/svg" width="18" height="18" viewBox="0 0 18 18">
    <g fill="none" fill-rule="nonzero" transform="translate(1 1)">
        <rect width="16" height="16" fill="#12100E" rx="1.6"/>
        <path fill="#FFF" d="M3.932 5.435a.428.428 0 0 0-.135-.357L2.801 3.85v-.183h3.093l2.39 5.365 2.101-5.365h2.948v.183l-.851.836a.258.258 0 0 0-.095.244v6.14a.258.258 0 0 0 .095.244l.831.836v.183H9.13v-.183l.862-.856c.085-.087.085-.112.085-.245V6.087L7.68 12.313h-.323l-2.79-6.226v4.173a.584.584 0 0 0 .155.479l1.12 1.39v.184H2.668v-.183l1.12-1.391a.564.564 0 0 0 .145-.48V5.436z"/>
    </g>
</svg>
