<svg xmlns="http://www.w3.org/2000/svg" width="18" height="18" viewBox="0 0 18 18">
    <g fill="#AEB8BD" fill-rule="evenodd">
        <path d="M9.077 1.4a7.523 7.523 0 017.52 7.28l.003.243v7.523H7.923A7.523 7.523 0 01.456 8h1.211a6.323 6.323 0 006.024 7.243l.232.004H15.4V8.923a6.324 6.324 0 00-5.862-6.306l-.23-.013-.231-.004-1.078-.001v-1.2l1.078.001z"/>
        <path d="M5.462 8.615a.923.923 0 100 1.847.923.923 0 000-1.847zM8.462 8.615a.923.923 0 100 1.847.923.923 0 000-1.847zM11.462 8.615a.923.923 0 100 1.847.923.923 0 000-1.847z"/>
        <rect width="6" height="4" x="1" y="3" rx=".612"/>
        <path d="M4 .5a2.5 2.5 0 012.495 2.336L6.5 3h-1a1.5 1.5 0 00-2.993-.144L2.5 3h-1A2.5 2.5 0 014 .5z"/>
    </g>
</svg>
