<svg xmlns="http://www.w3.org/2000/svg" width="18" height="18" viewBox="0 0 18 18">
    <g fill="none"  fill-rule="evenodd">
        <g fill="#010505">
            <g>
                <g>
                    <path d="M11.2 5.29c.298 0 .546.218.592.503l.008.097v1.214C11.745 8.469 10.644 9.56 9.245 9.6c-1.313-.032-2.387-1.037-2.523-2.347L6.71 7.08V5.89c0-.331.269-.6.6-.6.298 0 .546.218.592.503l.008.097v1.166c.029.738.626 1.326 1.332 1.344.69-.02 1.255-.537 1.346-1.188l.012-.132V5.89c0-.331.269-.6.6-.6z" transform="translate(-517.000000, -1387.000000) translate(517.000000, 1387.000000) translate(0.000000, 0.000000)"/>
                    <path d="M13.41 2.1h-8.3l-.154.01c-1.016.108-1.79.915-1.852 1.908l-.002.068-.997 9.752c-.005 1.224.913 2.142 2.045 2.142h10.22c.551-.005 1.071-.225 1.452-.613s.593-.911.588-1.455l-.954-9.85C15.45 3.019 14.542 2.11 13.41 2.1zM5.141 3.9h8.261c.142.001.257.116.258.258l.954 9.85-.045.06c-.009.013-.019.025-.03.037-.047.048-.11.074-.177.075H4.15c-.138 0-.25-.112-.25-.25l.995-9.678.005-.1c-.001-.136.106-.248.241-.253z" transform="translate(-517.000000, -1387.000000) translate(517.000000, 1387.000000) translate(0.000000, 0.000000)"/>
                </g>
            </g>
        </g>
    </g>
</svg>
