<svg width="18" height="18" viewBox="0 0 18 18" xmlns="http://www.w3.org/2000/svg">
    <path d="M13.68 8.02c.3 0 .549.223.588.513l.006.08v.193a5.08 5.08 0 0 1-4.679 5.064v2.588a.594.594 0 0 1-1.182.08l-.005-.08V13.87a5.08 5.08 0 0 1-4.675-4.882l-.003-.182v-.192a.594.594 0 0 1 1.182-.08l.006.08v.192a3.892 3.892 0 0 0 3.718 3.888l.174.004h.384a3.892 3.892 0 0 0 3.888-3.72l.004-.172v-.192c0-.328.266-.594.594-.594zM9.002 2c1.55 0 2.807 1.406 2.807 3.14v3.14c0 1.734-1.257 3.14-2.807 3.14s-2.807-1.406-2.807-3.14V5.14C6.195 3.406 7.452 2 9.002 2z" fill="#010505" fill-rule="evenodd" />
</svg>
