<svg width="18" height="18" viewBox="0 0 18 18" xmlns="http://www.w3.org/2000/svg">
    <path d="M9.16 4C6.33 4 4 5.954 4 8.41c0 2.455 2.328 4.4 5.16 4.4l.318-.007c.211-.011.423-.033.632-.066l.078-.014-.187-.148a5.5 5.5 0 0 0 1.925 1.034.702.702 0 0 0 .81-1.014l-.118-.21a3.907 3.907 0 0 1-.194-.434l-.034-.098.017-.01a4.26 4.26 0 0 0 1.913-3.416C14.32 5.954 11.99 4 9.16 4zm0 1c2.313 0 4.16 1.549 4.16 3.41a3.254 3.254 0 0 1-1.751 2.767.5.5 0 0 0-.255.56l.078.285c.029.094.06.187.095.28l.03.073-.02-.009a4.509 4.509 0 0 1-.858-.56.5.5 0 0 0-.423-.105 5 5 0 0 1-1.054.109C6.844 11.81 5 10.269 5 8.41 5 6.549 6.847 5 9.16 5z" fill="#010505" fill-rule="evenodd" fill-opacity=".86"/>
</svg>
