<svg xmlns="http://www.w3.org/2000/svg" width="18" height="18" viewBox="0 0 18 18">
    <g fill="none" fill-rule="evenodd">
        <path fill="#AEB8BD" fill-rule="nonzero" d="M14.154 7.193l.005.22-.001 2.579 1.05.887c.212.18.357.421.417.687l.022.134.008.138v.632c0 .654-.502 1.189-1.14 1.253l-.13.007h-2.592c-.228 1.535-1.348 2.625-2.793 2.625s-2.565-1.09-2.793-2.625H3.615l-.096-.006 1.314-1.305 9.512.001v-.556L12.85 10.6V7.413c0-.849-.247-1.636-.67-2.287l.945-.937c.61.844.986 1.88 1.03 3.004zm-3.708 6.604H7.553l.004.015c.178.661.62 1.103 1.178 1.209l.13.018.135.006c.634 0 1.163-.41 1.397-1.084l.049-.164zM9 2.045c1.265 0 2.42.473 3.315 1.255l-.931.926A3.712 3.712 0 009 3.355c-2.056 0-3.741 1.7-3.845 3.85l-.005.208v3.001l-1.254 1.244-.242.206v.035L2.49 13.055a1.243 1.243 0 01-.138-.456l-.007-.129v-.632c0-.323.126-.632.346-.864l.1-.095 1.05-.887V7.413c0-2.805 2.072-5.122 4.729-5.35l.217-.013L9 2.045z"/>
        <path stroke="#AEB8BD" stroke-linecap="round" stroke-width="1.2" d="M2 15.6L16 1.7" transform="translate(0 .48)"/>
    </g>
</svg>
