<svg xmlns="http://www.w3.org/2000/svg" width="18" height="18" viewBox="0 0 18 18">
    <g fill="none" fill-rule="evenodd">
        <g fill="#010505">
            <g>
                <path d="M10.5 15c0 1.2-.672 2-1.5 2s-1.5-.8-1.5-2h3zM9 2c2.706 0 4.88 2.451 4.88 5.452v3.334l1.388 1.253c.147.132.232.326.232.53v.731c0 .387-.298.7-.666.7H3.166c-.368 0-.666-.313-.666-.7v-.73c0-.205.085-.399.232-.531l1.388-1.253V7.452C4.12 4.452 6.294 2 9 2z" transform="translate(-540.000000, -573.000000) translate(540.000000, 573.000000)"/>
            </g>
        </g>
    </g>
</svg>
