<svg xmlns="http://www.w3.org/2000/svg" width="18" height="18" viewBox="0 0 18 18">
    <defs>
        <linearGradient id="sot4s1w4xa" x1="50%" x2="50%" y1="0%" y2="100%">
            <stop offset="0%" stop-color="#85C33F"/>
            <stop offset="100%" stop-color="#14A349"/>
        </linearGradient>
    </defs>
    <g fill="none" fill-rule="evenodd">
        <g>
            <g>
                <path fill="url(#sot4s1w4xa)" d="M4.014 0C1.612 0 0 1.628 0 3.844v10.208c0 2.215 1.612 3.843 4.014 3.843h9.866c2.403 0 4.015-1.628 4.015-3.843V3.844C17.895 1.628 16.283 0 13.88 0H4.014z" transform="translate(-159 -2367) translate(159 2367)"/>
                <path fill="#FFF" d="M7.68 10.325c0-.7.567-1.267 1.268-1.267.7 0 1.267.567 1.267 1.267s-.567 1.268-1.267 1.268-1.268-.568-1.268-1.268m1.268 4.357c-2.406 0-4.356-1.95-4.356-4.357V4.398c0-.64.514-1.159 1.149-1.159.634 0 1.148.519 1.148 1.16l-.002 5.875c0 1.139.921 2.114 2.06 2.114 1.14 0 2.064-.923 2.064-2.063 0-1.139-.924-2.062-2.063-2.062-.478 0-.918.163-1.268.436v-.883c.381-.193.811-.302 1.268-.302 1.552 0 2.811 1.258 2.811 2.811s-1.259 2.812-2.811 2.812c-1.553 0-2.812-1.259-2.812-2.812V4.361c0-.194-.177-.378-.395-.378-.219 0-.396.184-.396.378v5.964c0 .09.005.18.011.27.138 1.863 1.692 3.333 3.592 3.333 1.99 0 3.602-1.613 3.602-3.603 0-1.989-1.613-3.602-3.602-3.602-.447 0-.874.082-1.268.23v-.796c.401-.122.827-.188 1.268-.188 2.405 0 4.356 1.95 4.356 4.356 0 2.406-1.95 4.357-4.356 4.357m0-9.503c-.438 0-.863.055-1.268.157v-.975c0-.022-.003-.045-.007-.067C7.592 3.223 6.758 2.43 5.74 2.43c-1.018 0-1.852.793-1.933 1.864-.005.022-.007 3.663-.007 3.663V10.375c.027 2.82 2.32 5.097 5.147 5.097 2.842 0 5.147-2.304 5.147-5.147 0-2.842-2.305-5.146-5.147-5.146" transform="translate(-159 -2367) translate(159 2367)"/>
            </g>
        </g>
    </g>
</svg>
