<svg xmlns="http://www.w3.org/2000/svg" width="18" height="18" viewBox="0 0 18 18">
    <defs>
        <filter id="kac83anz0a">
            <feColorMatrix in="SourceGraphic" values="0 0 0 0 0.003922 0 0 0 0 0.019608 0 0 0 0 0.019608 0 0 0 1.000000 0"/>
        </filter>
    </defs>
    <g fill="none" fill-rule="evenodd">
        <g>
            <g filter="url(#kac83anz0a)" transform="translate(-519 -663) translate(519 663)">
                <g>
                    <path fill="#979797" fill-rule="nonzero" d="M4.06.428c.423-.355 1.054-.3 1.409.123l2.42 2.884c.1.119.225.213.368.274l2.402 1.042c.507.22.74.808.52 1.315-.062.142-.156.268-.275.368L8.695 8.287l2.689 3.202.187.72c.028.107-.036.217-.143.245-.045.011-.092.007-.134-.012l-.676-.31L7.929 8.93l-2.207 1.852c-.423.355-1.053.3-1.408-.123-.1-.12-.17-.26-.207-.41l-.608-2.547c-.036-.151-.107-.292-.207-.41L.872 4.407c-.354-.423-.3-1.054.124-1.409L4.06.428zm.643.766L1.639 3.765l2.42 2.884c.159.19.281.408.36.642l.052.178.609 2.547 5.181-4.348L7.86 4.627c-.228-.099-.435-.24-.61-.413l-.127-.137-2.419-2.883z" transform="translate(3 3)"/>
                </g>
            </g>
        </g>
    </g>
</svg>
