<svg xmlns="http://www.w3.org/2000/svg" width="18" height="18" viewBox="0 0 18 18">
    <g fill="none" fill-rule="evenodd">
        <g fill="#010505">
            <g>
                <path d="M14 1.375H4C2.55 1.375 1.375 2.55 1.375 4v10c0 1.45 1.175 2.625 2.625 2.625h10c1.45 0 2.625-1.175 2.625-2.625V4c0-1.45-1.175-2.625-2.625-2.625zM4 2.625h10c.76 0 1.375.616 1.375 1.375v10c0 .76-.616 1.375-1.375 1.375H4c-.76 0-1.375-.616-1.375-1.375V4c0-.76.616-1.375 1.375-1.375z" transform="translate(-929 -1451) translate(929 1451)"/>
                <path d="M10.5 4.375c1.45 0 2.625 1.175 2.625 2.625 0 1.394-1.087 2.534-2.459 2.62l-.166.005H7.125V13c0 .314-.231.574-.533.618l-.092.007c-.314 0-.574-.231-.618-.533L5.875 13V5c0-.314.231-.574.533-.618l.092-.007h4zm-3.375 4H10.5c.76 0 1.375-.616 1.375-1.375 0-.715-.545-1.302-1.243-1.369l-.132-.006H7.125v2.75z" transform="translate(-929 -1451) translate(929 1451)"/>
            </g>
        </g>
    </g>
</svg>
