<svg width="18" height="18" viewBox="0 0 18 18" xmlns="http://www.w3.org/2000/svg">
    <path d="m8.99 2.19.093.01.05.012.086.032.045.023 5.52 3.1.012.007.047.03-.06-.037a.6.6 0 0 1 .23.228l.005.01a.6.6 0 0 1 .027.058l-.032-.068a.603.603 0 0 1 .068.192l.002.011.006.05v.026l.001.016v6.22a.6.6 0 0 1-.23.472l-.076.051-5.52 3.1a.605.605 0 0 1-.083.039l.083-.039a.6.6 0 0 1-.492.044l-.002-.001-.011-.004a.597.597 0 0 1-.077-.036l-.006-.003-5.52-3.1a.6.6 0 0 1-.299-.431l-.007-.092V5.89c0-.03.002-.052.004-.074l-.004.074a.6.6 0 0 1 .077-.295l.013-.02a.6.6 0 0 1 .03-.045l-.043.065a.603.603 0 0 1 .153-.177l.022-.017a.598.598 0 0 1 .036-.024l.018-.01 5.52-3.1.045-.023.087-.032.049-.011.041-.007.051-.004h.042zM4.05 6.916v4.842l4.32 2.425V9.35L5.975 8.002a.6.6 0 0 1-.11-.061L4.05 6.916zm9.84 0L9.57 9.35v4.833l4.32-2.425V6.916zm-2.16-1.889-4.294 2.42 1.533.864 4.298-2.42-1.536-.864zM8.97 3.478 4.673 5.89l1.54.868 4.294-2.418-1.537-.862z" fill="#010505" fill-rule="evenodd"/>
</svg>
