<svg width="18" height="18" viewBox="0 0 18 18" xmlns="http://www.w3.org/2000/svg">
    <path d="M9 2a7 7 0 1 1 0 14A7 7 0 0 1 9 2zm0 10a.746.746 0 0 0-.743.75c0 .414.332.75.742.75s.743-.336.743-.75A.746.746 0 0 0 9 12zm.059-7.5c-.785 0-1.416.25-1.876.75-.456.497-.683.947-.683 1.744v.135c0 .37.3.67.67.67a.677.677 0 0 0 .677-.67l.001-.126c.016-.418.08-.528.186-.733.179-.35.497-.522.989-.522.4 0 .668.1.821.29.168.209.251.452.251.74 0 .2-.057.393-.172.583a1.495 1.495 0 0 1-.261.322l-.414.412c-.412.409-.684.778-.813 1.113-.127.33-.189.754-.189 1.272v.122a.674.674 0 1 0 1.349 0v-.122c0-.406.044-.706.127-.896.084-.19.28-.442.59-.745.461-.451.77-.795.93-1.04.173-.266.258-.605.258-1.01 0-.663-.226-1.217-.675-1.647-.447-.429-1.04-.642-1.766-.642z" fill="#FB2942" fill-rule="evenodd"/>
</svg>
