<svg xmlns="http://www.w3.org/2000/svg" width="18" height="18" viewBox="0 0 18 18">
    <path fill="#59646A" fill-rule="evenodd" d="M15.808 2.161c-1.57-1.548-4.287-1.548-5.856 0-.785.774-1.22 1.792-1.22 2.882 0 .803.232 1.563.668 2.208l-7.15 7.068c-.334.33-.334.874 0 1.218.175.172.393.258.611.258.218 0 .45-.086.61-.258l.407-.401 1.7 1.677c.175.172.393.258.61.258.219 0 .451-.086.61-.258.335-.33.335-.874 0-1.218l-1.685-1.678.829-.817 1.7 1.678c.16.172.392.258.61.258.218 0 .45-.086.61-.258.334-.33.334-.875 0-1.22l-1.685-1.662 3.458-3.412c.668.43 1.439.66 2.238.66 1.104 0 2.15-.43 2.92-1.19C16.579 7.178 17 6.16 17 5.056c.014-1.104-.407-2.122-1.192-2.896zm-1.235 4.56c-.901.888-2.485.888-3.386 0-.93-.918-.93-2.424 0-3.341.916-.889 2.485-.889 3.386 0 .93.917.93 2.423 0 3.34z"/>
</svg>
