<svg xmlns="http://www.w3.org/2000/svg" width="18" height="18" viewBox="0 0 18 18">
    <g fill="none" fill-rule="evenodd">
        <g fill="#FFF">
            <g>
                <path d="M7.5 1.227c-.171.222-.152.54.056.743l1.025.99-.171.011c-1.267.101-2.48.535-3.527 1.272-1.512 1.064-2.506 2.636-2.797 4.425-.6 3.692 2.016 7.166 5.828 7.746.363.056.726.083 1.09.083 3.418 0 6.373-2.419 6.91-5.72.398-2.438-.608-4.894-2.623-6.41-.25-.188-.608-.144-.803.1-.2.247-.153.608.102.8 1.68 1.262 2.516 3.305 2.186 5.33-.5 3.072-3.498 5.18-6.686 4.699-3.184-.485-5.364-3.38-4.865-6.45.242-1.487 1.069-2.795 2.33-3.683l.21-.14c.844-.543 1.805-.86 2.802-.93l.122-.006-1.133 1.095c-.23.222-.23.585 0 .807.11.106.255.163.405.163.15 0 .295-.057.404-.163l2.219-2.144c.148-.144.152-.38.009-.53L8.365 1.163c-.224-.217-.584-.217-.809 0l-.057.064z" transform="translate(-731 -1759) translate(731 1759)"/>
            </g>
        </g>
    </g>
</svg>
