<svg xmlns="http://www.w3.org/2000/svg" width="18" height="18" viewBox="0 0 18 18">
    <g fill="none" fill-rule="evenodd">
        <g>
            <g>
                <g>
                    <g transform="translate(-1097.000000, -444.000000) translate(72.000000, 26.000000) translate(1025.000000, 418.000000) translate(1.000000, 1.000000)">
                        <circle cx="8" cy="8" r="8" fill="#FFF" transform="translate(8.000000, 8.000000) rotate(-90.000000) translate(-8.000000, -8.000000)"/>
                        <circle cx="8" cy="8" r="8" fill="#FFF" transform="translate(8.000000, 8.000000) rotate(-90.000000) translate(-8.000000, -8.000000)"/>
                        <circle cx="8" cy="8" r="8" fill="#E9EDF0" transform="translate(8.000000, 8.000000) rotate(-90.000000) translate(-8.000000, -8.000000)"/>
                        <path fill="#010505" d="M5.16 6.16c.193-.194.496-.212.71-.053l.06.052L8.46 8.683l2.519-2.523c.193-.194.496-.212.71-.053l.061.052c.194.194.212.497.053.71l-.052.062L8.846 9.84c-.193.194-.496.212-.71.053l-.061-.052L5.16 6.93c-.213-.212-.213-.558 0-.77z" transform="translate(8.454545, 8.000000) scale(1, -1) rotate(-90.000000) translate(-8.454545, -8.000000)"/>
                    </g>
                </g>
            </g>
        </g>
    </g>
</svg>
