<svg width="18" height="18" viewBox="0 0 18 18" xmlns="http://www.w3.org/2000/svg">
    <path d="M7.5 1.227a.559.559 0 0 0 .056.743l1.025.99-.171.011a7.09 7.09 0 0 0-3.527 1.272C3.371 5.307 2.377 6.879 2.086 8.668c-.6 3.692 2.016 7.166 5.828 7.746.363.056.726.083 1.09.083 3.418 0 6.373-2.419 6.91-5.72.398-2.438-.608-4.894-2.623-6.41a.583.583 0 0 0-.803.1.559.559 0 0 0 .102.8c1.68 1.262 2.516 3.305 2.186 5.33-.5 3.072-3.498 5.18-6.686 4.699-3.184-.485-5.364-3.38-4.865-6.45.242-1.487 1.069-2.795 2.33-3.683l.21-.14a5.936 5.936 0 0 1 2.802-.93l.122-.006-1.133 1.095a.559.559 0 0 0 0 .807.581.581 0 0 0 .81 0l2.218-2.144a.374.374 0 0 0 .009-.53L8.365 1.163a.584.584 0 0 0-.809 0l-.057.064z" fill="#010505" fill-rule="evenodd"/>
</svg>
