<svg xmlns="http://www.w3.org/2000/svg" width="18" height="18" viewBox="0 0 18 18">
    <g fill="none" fill-rule="evenodd">
        <g>
            <g>
                <path fill="#FF4500" d="M17.991 8.996c0 4.968-4.027 8.995-8.995 8.995C4.027 17.991 0 13.964 0 8.996 0 4.027 4.027 0 8.996 0c4.968 0 8.995 4.027 8.995 8.996z" transform="translate(-193 -2367) translate(193 2367)"/>
                <path fill="#FFF" d="M11.064 10.83c-.497 0-.901-.406-.901-.902s.404-.901.9-.901c.497 0 .902.405.902.9.02.497-.367.916-.863.936h-.045l.007-.034zm.16 1.54c-.639.48-1.421.726-2.222.693-.8.033-1.583-.213-2.222-.693-.085-.103-.07-.257.033-.342.09-.074.217-.074.309 0 .54.395 1.2.597 1.871.565.671.036 1.333-.156 1.88-.548.1-.096.26-.093.356.005.096.098.094.26-.004.355v-.035zM6 9.897c0-.497.405-.901.901-.901.497 0 .901.404.901.9 0 .497-.404.902-.9.902-.5-.005-.902-.405-.902-.901zm8.996-.901c-.027-.725-.635-1.29-1.362-1.266-.322.011-.628.143-.86.364-1.025-.697-2.228-1.08-3.464-1.106l.583-2.807 1.925.405c.054.494.497.852.991.798.494-.053.852-.496.798-.99-.053-.494-.496-.852-.99-.798-.284.029-.54.194-.68.44l-2.205-.44c-.15-.034-.3.06-.333.212v.004l-.664 3.122c-1.252.02-2.47.405-3.508 1.107-.528-.497-1.36-.472-1.856.058-.497.528-.472 1.36.058 1.856.103.096.221.179.353.237-.009.132-.009.264 0 .396 0 2.014 2.348 3.653 5.244 3.653 2.895 0 5.243-1.637 5.243-3.653.009-.132.009-.264 0-.396.452-.226.736-.691.727-1.196z" transform="translate(-193 -2367) translate(193 2367)"/>
            </g>
        </g>
    </g>
</svg>
