<?xml version="1.0" encoding="UTF-8"?>
<svg width="18px" height="18px" viewBox="0 0 18 18" version="1.1" xmlns="http://www.w3.org/2000/svg" xmlns:xlink="http://www.w3.org/1999/xlink">
    <title>8B576576-D8C2-42BC-B5BE-DB5C41CBB893</title>
    <g id="⚪️Base/Iconograyphy" stroke="none" stroke-width="1" fill="none" fill-rule="evenodd" fill-opacity="0.86">
        <g id="Element/Icons/18*18" transform="translate(-672.000000, -1285.000000)" fill="#010505">
            <g id="ic/18/18_right-tail-arrow_g" transform="translate(672.000000, 1285.000000)">
                <g transform="translate(0.000000, 0.000000)" id="Combined-Shape">
                    <path d="M9.54082678,5.04992701 C9.79491375,4.79633264 10.2064708,4.79673198 10.4600652,5.05081895 L10.4600652,5.05081895 L14.4600652,9.05858886 L14.528524,9.13922373 C14.711043,9.39340807 14.6878514,9.7495933 14.4591724,9.97782811 L14.4591724,9.97782811 L10.4591724,13.9700582 L10.3785375,14.0385168 C10.1243531,14.2210352 9.76816848,14.1978432 9.53993398,13.9691645 C9.28634009,13.7150771 9.28674019,13.30352 9.54082764,13.0499261 L9.54082764,13.0499261 L12.495,10.0999922 L3.5,10.1 C3.16862915,10.1 2.9,9.83137085 2.9,9.5 C2.9,9.20176624 3.11758961,8.95435325 3.40267688,8.90785299 L3.5,8.9 L12.465,8.89999217 L9.53993484,5.9691654 L9.47147604,5.88853063 C9.28895722,5.63434664 9.3121485,5.27816194 9.54082678,5.04992701 Z"></path>
                </g>
            </g>
        </g>
    </g>
</svg>