<svg width="18" height="19" viewBox="0 0 18 19" xmlns="http://www.w3.org/2000/svg">
    <path d="M7.5 1.295a.614.614 0 0 0 .056.784l1.025 1.045-.171.012A6.86 6.86 0 0 0 4.883 4.48a7.128 7.128 0 0 0-2.797 4.67c-.6 3.898 2.016 7.565 5.828 8.177a6.85 6.85 0 0 0 1.09.088c3.418 0 6.373-2.553 6.91-6.039.398-2.573-.608-5.166-2.623-6.765a.563.563 0 0 0-.803.104.611.611 0 0 0 .102.845 6.02 6.02 0 0 1 2.186 5.627c-.5 3.242-3.498 5.468-6.686 4.96-3.184-.513-5.364-3.568-4.865-6.808a5.933 5.933 0 0 1 2.33-3.888l.21-.148a5.727 5.727 0 0 1 2.802-.981l.122-.007L7.556 5.47a.613.613 0 0 0 0 .852.565.565 0 0 0 .81 0l2.218-2.264a.41.41 0 0 0 .009-.558L8.365 1.227a.562.562 0 0 0-.809 0l-.057.068z" fill="#010505" fill-rule="evenodd" />
</svg>
