<svg xmlns="http://www.w3.org/2000/svg" width="18" height="18" viewBox="0 0 18 18">
    <g fill="none" fill-rule="evenodd">
        <path d="M0 0h18v18H0z"/>
        <path d="M0 0h18v18H0z"/>
        <g fill="#AEB8BD" stroke="#AEB8BD" stroke-width=".5">
            <path fill-rule="nonzero" d="M5.005 8.215a.315.315 0 0 0-.313.314v5.966c0 .172.14.313.313.313h7.85a.315.315 0 0 0 .314-.313V8.529a.314.314 0 0 0-.313-.314h-1.731a.474.474 0 0 1-.468-.47c0-.26.219-.472.468-.472h1.73c.694 0 1.255.563 1.255 1.256v5.966c0 .693-.564 1.255-1.254 1.255H5.005a1.256 1.256 0 0 1-1.255-1.255V8.529c0-.694.564-1.256 1.255-1.256h1.73c.23 0 .421.173.461.389l.007.082c0 .26-.218.471-.467.471H5.005z"/>
            <path d="M9.263 2.388a.47.47 0 0 0-.666 0L6.086 4.9a.47.47 0 1 0 .666.665l1.707-1.707v6.398a.472.472 0 0 0 .942 0V3.858l1.708 1.707a.47.47 0 0 0 .666 0 .47.47 0 0 0 0-.665L9.263 2.388z"/>
        </g>
    </g>
</svg>
