<svg xmlns="http://www.w3.org/2000/svg" width="18" height="18" viewBox="0 0 18 18">
    <g fill="none" fill-rule="evenodd">
        <path d="M0 0h18v18H0z"/>
        <path fill="#AEB8BD" d="M12.572 2.25A2.132 2.132 0 1 1 11 5.82L6.76 8.268a2.127 2.127 0 0 1 0 1.463L11 12.179a2.132 2.132 0 1 1-.5.941l-4.348-2.509a2.132 2.132 0 1 1-.001-3.223l4.348-2.51a2.132 2.132 0 0 1 2.073-2.629zm0 10.362a1.007 1.007 0 1 0 0 2.013 1.007 1.007 0 0 0 0-2.013zM4.757 7.993a1.007 1.007 0 1 0 0 2.014 1.007 1.007 0 0 0 0-2.014zm7.815-4.618a1.007 1.007 0 1 0 0 2.013 1.007 1.007 0 0 0 0-2.013z"/>
    </g>
</svg>
