<?xml version="1.0" encoding="UTF-8"?>
<svg width="18px" height="18px" viewBox="0 0 18 18" version="1.1" xmlns="http://www.w3.org/2000/svg" xmlns:xlink="http://www.w3.org/1999/xlink">
    <title>4EBBB1E7-C09A-45AA-B8A9-641E03191868</title>
    <g id="⚪️Base/Iconograyphy" stroke="none" stroke-width="1" fill="none" fill-rule="evenodd" fill-opacity="0.86">
        <g id="Element/Icons/18*18" transform="translate(-492.000000, -1336.000000)" fill="#010505">
            <g id="ic/18/18_star_fill" transform="translate(492.000000, 1336.000000)">
                <g transform="translate(0.000000, -0.000000)" id="Path">
                    <path d="M12.9963483,14.9632718 L8.99634829,13.2232718 L8.83634829,13.2232718 L4.83634829,15.0432718 C4.79073911,15.0652101 4.7368404,15.0608241 4.69537816,15.0318006 C4.65391592,15.002777 4.63134636,14.9536352 4.63634829,14.9032718 L5.03634829,10.5332718 C5.0508988,10.5015264 5.0508988,10.4650173 5.03634829,10.4332718 L2.03634829,7.18327182 C2.00321836,7.14678013 1.99171765,7.09555583 2.00606821,7.04840397 C2.02041878,7.00125212 2.05850626,6.96511987 2.10634829,6.95327182 L6.39634829,5.95327182 C6.43552617,5.94504079 6.46872674,5.91921813 6.48634829,5.88327182 L8.65634829,2.08327182 C8.68166074,2.04114937 8.72720543,2.01538285 8.77634829,2.01538285 C8.82549115,2.01538285 8.87103585,2.04114937 8.89634829,2.08327182 L11.1463483,5.86327182 C11.1639698,5.89921813 11.1971704,5.92504079 11.2363483,5.93327182 L15.5463483,6.81327182 C15.5959082,6.8223653 15.6367585,6.85738952 15.6533118,6.90498016 C15.6698651,6.9525708 15.6595675,7.0053856 15.6263483,7.04327182 L12.7363483,10.3332718 C12.7166987,10.3673059 12.7166987,10.4092377 12.7363483,10.4432718 L13.2263483,14.8132718 C13.2511748,14.8752463 13.2287864,14.9461283 13.1728656,14.9825984 C13.1169449,15.0190684 13.0430527,15.0109781 12.9963483,14.9632718 L12.9963483,14.9632718 Z"></path>
                </g>
            </g>
        </g>
    </g>
</svg>