<svg xmlns="http://www.w3.org/2000/svg" width="18" height="18" viewBox="0 0 18 18">
    <g fill="none" fill-rule="evenodd">
        <g fill="#010505">
            <g>
                <path d="M6.274 1.013c.523-.064 1.08.104 1.498.576.4.45.97.642 1.516.575.394-.049.774-.231 1.066-.55l.12-.12c.282-.256.608-.396.94-.436.995-.123 2.029.65 1.958 1.833-.062 1.033.78 1.888 1.808 1.844 1.638-.069 2.455 1.952 1.231 3.037-.774.686-.784 1.886-.026 2.582 1.123 1.031.467 2.835-.94 3.008-.108.013-.22.017-.336.01-.113-.007-.22-.003-.323.01-.88.108-1.56.878-1.521 1.798v.17c-.041.914-.751 1.54-1.54 1.637-.522.064-1.079-.104-1.497-.576-.4-.45-.97-.642-1.516-.575-.394.049-.774.231-1.066.55l-.12.12c-.282.256-.609.396-.94.437-.995.122-2.029-.65-1.958-1.834.062-1.032-.78-1.888-1.808-1.844-1.638.069-2.455-1.951-1.232-3.037.774-.686.785-1.886.027-2.582-1.123-1.031-.467-2.835.94-3.008.108-.013.22-.017.336-.01.113.007.22.003.323-.01.88-.107 1.56-.878 1.521-1.798v-.17c.041-.914.751-1.54 1.54-1.637zm1.49 4.925c-1.693.683-2.51 2.609-1.826 4.3.683 1.692 2.609 2.51 4.3 1.826 1.692-.684 2.51-2.609 1.826-4.3-.683-1.693-2.609-2.51-4.3-1.826z" transform="translate(-519 -650) translate(519 650)"/>
            </g>
        </g>
    </g>
</svg>
