<svg xmlns="http://www.w3.org/2000/svg" width="18" height="18" viewBox="0 0 18 18">
    <g fill="none" fill-rule="evenodd">
        <g stroke="#979797" stroke-width="1.136">
            <g>
                <path d="M6.251.868c.669.73 1.41.945 2.106.86.449-.056.884-.242 1.243-.56.405-.383.635-.516.883-.547.335-.04.676.069.93.286.227.195.382.48.394.825-.035.742.215 1.378.624 1.83.443.49 1.075.77 1.773.74.253-.01.479.051.664.165.203.124.358.308.453.518.098.214.135.455.096.69-.035.21-.132.414-.297.589-.547.498-.82 1.124-.85 1.733-.032.658.217 1.304.731 1.776.178.163.292.354.346.555.06.218.05.444-.016.653-.068.216-.194.414-.369.562-.156.133-.352.225-.577.254-.838.07-1.444.308-1.863.628-.538.41-.798.964-.825 1.585-.014.43-.125.768-.314 1.008-.188.24-.45.371-.726.405-.312.038-.642-.048-.908-.291-.669-.73-1.41-.945-2.106-.86-.45.056-.884.242-1.243.56-.405.383-.636.517-.883.547-.335.041-.676-.069-.93-.286-.228-.195-.382-.48-.394-.825.035-.742-.215-1.378-.624-1.83-.443-.49-1.075-.77-1.773-.74-.254.01-.479-.051-.665-.165-.202-.124-.357-.308-.453-.518-.097-.214-.134-.455-.095-.69.035-.21.132-.414.297-.589.547-.498.82-1.124.85-1.733.032-.658-.217-1.303-.731-1.776-.178-.163-.292-.354-.346-.555-.06-.218-.05-.444.016-.653.067-.216.194-.414.369-.562.156-.133.352-.225.576-.254.838-.07 1.445-.307 1.864-.627.538-.411.798-.965.825-1.585.014-.431.125-.77.314-1.01.188-.239.45-.37.726-.404.312-.038.642.048.908.291zm3.263 3.569c-.912-.388-1.972-.427-2.964-.026-.99.4-1.726 1.165-2.113 2.077C4.05 7.4 4.01 8.46 4.41 9.45c.4.992 1.165 1.727 2.077 2.114.912.387 1.972.426 2.963.026.992-.4 1.727-1.165 2.114-2.077.387-.912.426-1.972.026-2.964-.4-.991-1.165-1.726-2.077-2.113z" transform="translate(-929 -1639) translate(929 1639) translate(1 1)"/>
            </g>
        </g>
    </g>
</svg>
