<svg xmlns="http://www.w3.org/2000/svg" width="18" height="19" viewBox="0 0 18 19">
    <g fill="none" fill-rule="evenodd">
        <g>
            <g>
                <g>
                    <path fill="#36C5F0" d="M6.599 4.809H1.8c-.995 0-1.8.808-1.8 1.803-.001.995.804 1.802 1.8 1.803h4.799c.994 0 1.8-.808 1.8-1.802 0-.996-.806-1.803-1.8-1.804M6.599 0c-.995 0-1.8.808-1.8 1.803 0 .995.805 1.802 1.8 1.803h1.8V1.804C8.4.809 7.594 0 6.6 0" transform="translate(-125 -2367) translate(125 2367)"/>
                    <path fill="#2EB67D" d="M13.198 6.612v-4.81c0-.993-.805-1.8-1.8-1.802-.994 0-1.8.808-1.8 1.803v4.809c0 .995.805 1.802 1.8 1.803.995 0 1.8-.808 1.8-1.803" transform="translate(-125 -2367) translate(125 2367)"/>
                    <path fill="#ECB22E" d="M11.398 13.224h4.8c.994-.001 1.8-.809 1.8-1.803 0-.995-.805-1.803-1.8-1.804h-4.8c-.994 0-1.8.808-1.8 1.803 0 .995.805 1.803 1.8 1.804" transform="translate(-125 -2367) translate(125 2367)"/>
                    <path fill="#E01E5A" d="M4.8 11.42v4.81c-.002.994.804 1.802 1.799 1.803.994 0 1.8-.808 1.8-1.803v-4.808c.001-.995-.805-1.802-1.8-1.804-.995 0-1.8.808-1.8 1.803M0 11.42c0 .995.805 1.803 1.8 1.804.995-.001 1.8-.809 1.8-1.803V9.618H1.8c-.995 0-1.8.808-1.8 1.803" transform="translate(-125 -2367) translate(125 2367)"/>
                    <path fill="#2EB67D" d="M17.997 6.612c0-.995-.805-1.802-1.8-1.803-.995 0-1.8.808-1.8 1.803v1.803h1.8c.995 0 1.8-.808 1.8-1.803" transform="translate(-125 -2367) translate(125 2367)"/>
                    <path fill="#ECB22E" d="M11.398 18.033c.995 0 1.8-.808 1.8-1.803 0-.995-.805-1.802-1.8-1.803h-1.8v1.803c0 .994.805 1.802 1.8 1.803" transform="translate(-125 -2367) translate(125 2367)"/>
                </g>
            </g>
        </g>
    </g>
</svg>
