<svg xmlns="http://www.w3.org/2000/svg" width="18" height="18" viewBox="0 0 18 18">
    <g fill="none" fill-opacity=".86" fill-rule="evenodd">
        <g fill="#010505">
            <g>
                <path d="M8.836 4.253l1.32 2.22c.196.32.514.543.88.62l2.52.52-1.74 1.92c-.236.277-.351.638-.32 1l.29 2.55-2.36-1c-.167-.07-.348-.108-.53-.11-.193 0-.384.04-.56.12l-2.34 1.11.24-2.57c.027-.367-.1-.73-.35-1l-1.74-1.92 2.51-.57c.363-.071.68-.293.87-.61l1.27-2.28m-.06-2.25c-.051.003-.098.033-.12.08l-2.13 3.82c-.017.036-.05.062-.09.07l-4.29 1c-.047.012-.086.048-.1.095-.014.048-.003.099.03.135l3 3.25c.015.032.015.069 0 .1l-.4 4.38c-.005.04.007.082.034.112.026.031.065.049.106.048h.06l4-1.82h.11l4 1.74h.05c.041 0 .08-.017.107-.048.027-.03.04-.071.033-.112l-.4-4.41c-.02-.034-.02-.076 0-.11l2.9-3.3c.034-.038.044-.09.027-.138-.016-.048-.057-.083-.107-.092l-4.32-.88c-.039-.008-.072-.034-.09-.07l-2.25-3.78c-.033-.055-.097-.083-.16-.07z" transform="translate(-542.000000, -1336.000000) translate(542.000000, 1336.000000) translate(-0.000000, -0.000000)"/>
            </g>
        </g>
    </g>
</svg>
