<svg xmlns="http://www.w3.org/2000/svg" width="18" height="18" viewBox="0 0 18 18">
    <path fill="#AEB8BD" fill-rule="evenodd" d="M5.2 6.303c0-.499.404-.903.903-.903h6.194c.499 0 .903.404.903.903v5.16a.903.903 0 0 1-.903.903l-5.394-.001-1.511 1.014a.123.123 0 0 1-.033.016l-.036.005a.123.123 0 0 1-.123-.123V6.303zm2.004 3.085l-.108.013c-.207.053-.363.26-.365.511-.002.26.163.477.381.524l.084.01 2.688.023.107-.013c.208-.053.364-.262.365-.512.002-.26-.162-.477-.38-.524l-.085-.009-2.687-.023zm3.996-1.9h-4l-.107.014c-.208.055-.362.265-.362.515 0 .26.166.476.385.521l.084.009h4l.107-.014c.208-.055.362-.265.362-.516 0-.292-.21-.53-.469-.53z"/>
</svg>
