<svg width="18" height="18" viewBox="0 0 18 18" xmlns="http://www.w3.org/2000/svg">
    <g fill="#010505" fill-rule="evenodd">
        <path d="M7.103 9.76 5.15 13.47a.6.6 0 0 1-.72.29l-.09-.039a.6.6 0 0 1-.29-.72l.038-.09 4.4-8.36a.6.6 0 0 1 1.01-.083l.054.086 4.34 8.36a.6.6 0 0 1-1.014.635l-.052-.083-1.924-3.706h-3.8zm1.913-3.636L7.734 8.56h2.546L9.016 6.124z"/>
        <path d="M15.37 2.25H2.64a.4.4 0 0 0-.4.4v12.73c0 .22.18.4.4.4h12.73a.4.4 0 0 0 .4-.4V2.65a.4.4 0 0 0-.4-.4zm-.401.8v11.93H3.039V3.05h11.93z"/>
    </g>
</svg>
