<svg xmlns="http://www.w3.org/2000/svg" width="18" height="18" viewBox="0 0 18 18">
    <path fill="#AEB8BD" fill-rule="evenodd" d="M2.6 4.154c0-.748.606-1.354 1.354-1.354h10.092c.748 0 1.354.606 1.354 1.354v8.437c0 .748-.606 1.354-1.354 1.354H5.323l-2.436 1.634c-.02.014-.042.023-.066.028l-.036.004c-.102 0-.185-.083-.185-.185V4.154zM5.806 9.18l-.172.02c-.332.078-.581.387-.584.758-.003.396.277.726.642.781l.102.008 4.3.035.172-.02c.332-.078.581-.386.584-.757.003-.397-.277-.727-.642-.782l-.102-.008-4.3-.035zM12.2 6.14H5.8l-.172.021c-.331.081-.578.392-.578.763 0 .397.282.725.648.777l.102.007h6.4l.172-.021c.331-.081.578-.392.578-.763 0-.433-.336-.784-.75-.784z"/>
</svg>
