<svg xmlns="http://www.w3.org/2000/svg" width="18" height="18" viewBox="0 0 18 18">
    <g fill="none"  fill-rule="evenodd">
        <g fill="#010505">
            <g>
                <g transform="translate(-540.000000, -656.000000) translate(540.000000, 656.000000) translate(0.000000, 0.000000)">
                    <path d="M9 3.375c3.59 0 6.5 2.938 6.5 6.563 0 3.624-2.91 6.562-6.5 6.562s-6.5-2.938-6.5-6.563c0-3.624 2.91-6.562 6.5-6.562zm0 2.82c-.385 0-.696.314-.696.703v2.994l.007.1c.027.196.137.373.303.485l2.4 1.616.09.051c.307.146.682.048.876-.246l.05-.09c.146-.31.048-.69-.243-.885l-2.09-1.407V6.898l-.007-.096c-.046-.343-.337-.607-.69-.607z"/>
                    <rect width="5.571" height="1.406" x="6.214" y="1.5" rx=".696" transform="translate(9.000000, 2.203125) rotate(-360.000000) translate(-9.000000, -2.203125)"/>
                </g>
            </g>
        </g>
    </g>
</svg>
