<svg width="18" height="18" viewBox="0 0 18 18" xmlns="http://www.w3.org/2000/svg">
    <g fill="#010505" fill-rule="nonzero">
        <path d="M8.379 3.2c.18 0 .34.06.46.17l5.62 5.62c.16.16.18.35.17.49-.01.24-.12.47-.31.66l-4.18 4.18c-.2.2-.45.31-.7.31-.13 0-.31-.03-.46-.18l-5.61-5.6c-.14-.14-.2-.34-.17-.57l.52-3.77c.06-.4.37-.72.78-.78l3.77-.52h.12m0-1.2c-.09 0-.18 0-.28.02l-3.77.52c-.94.13-1.67.87-1.8 1.8l-.52 3.77c-.08.6.1 1.18.51 1.58l5.62 5.62c.35.35.82.53 1.3.53.55 0 1.11-.22 1.55-.66l4.18-4.18c.82-.82.88-2.1.13-2.85l-5.62-5.63c-.34-.34-.81-.53-1.3-.53v.01z"/>
        <path d="M6.529 5.76a.78.78 0 0 0 0 1.56.78.78 0 0 0 0-1.56z"/>
    </g>
</svg>
