<?xml version="1.0" encoding="UTF-8"?>
<svg width="18px" height="18px" viewBox="0 0 18 18" version="1.1" xmlns="http://www.w3.org/2000/svg" xmlns:xlink="http://www.w3.org/1999/xlink">
    <title>ic/18/18_template</title>
    <g id="ic/18/18_template" stroke="none" stroke-width="1" fill="none" fill-rule="evenodd" >
        <path d="M14.3857,2 C15.2687,2 15.9857,2.716 15.9857,3.6 L15.9857,3.6 L15.9857,14.386 C15.9857,15.27 15.2687,15.986 14.3857,15.986 L14.3857,15.986 L3.5997,15.986 C2.7167,15.986 1.9997,15.27 1.9997,14.386 L1.9997,14.386 L1.9997,3.6 C1.9997,2.716 2.7167,2 3.5997,2 L3.5997,2 Z M14.3857,3.2 L3.5997,3.2 C3.3797,3.2 3.1997,3.379 3.1997,3.6 L3.1997,3.6 L3.1997,14.386 C3.1997,14.606 3.3797,14.786 3.5997,14.786 L3.5997,14.786 L14.3857,14.786 C14.6057,14.786 14.7847,14.606 14.7847,14.386 L14.7847,14.386 L14.7847,3.6 C14.7847,3.379 14.6057,3.2 14.3857,3.2 L14.3857,3.2 Z M13.1678,11.9738 C13.4991708,11.9738 13.7678,12.2424292 13.7678,12.5738 C13.7678,12.8720338 13.5502104,13.1194468 13.2651231,13.165947 L13.1678,13.1738 L4.7968,13.1738 C4.46542915,13.1738 4.1968,12.9051708 4.1968,12.5738 C4.1968,12.2755662 4.41438961,12.0281532 4.69947688,11.981653 L4.7968,11.9738 L13.1678,11.9738 Z M13.168,8.4853 C13.4993708,8.4853 13.768,8.75392915 13.768,9.0853 C13.768,9.38353376 13.5504104,9.63094675 13.2653231,9.67744701 L13.168,9.6853 L10.586,9.6853 C10.2546292,9.6853 9.986,9.41667085 9.986,9.0853 C9.986,8.78706624 10.2035896,8.53965325 10.4886769,8.49315299 L10.586,8.4853 L13.168,8.4853 Z M8.5289,5.0452 C8.82713376,5.0452 9.07454675,5.26278961 9.12104701,5.54787688 L9.1289,5.6452 L9.1289,6.4092 C9.1289,6.74057085 8.86027085,7.0092 8.5289,7.0092 C8.23066624,7.0092 7.98325325,6.79161039 7.93675299,6.50652312 L7.9289,6.4092 L7.928,6.245 L7.2989,6.2442 L7.2989,8.4852 L7.6689,8.4853 C8.00027085,8.4853 8.2689,8.75392915 8.2689,9.0853 C8.2689,9.38353376 8.05131039,9.63094675 7.76622312,9.67744701 L7.6689,9.6853 L5.7619,9.6853 C5.43052915,9.6853 5.1619,9.41667085 5.1619,9.0853 C5.1619,8.78706624 5.37948961,8.53965325 5.66457688,8.49315299 L5.7619,8.4853 L6.0989,8.4852 L6.0989,6.2442 L5.396,6.245 L5.3969,6.4092 C5.3969,6.70743376 5.17931039,6.95484675 4.89422312,7.00134701 L4.7969,7.0092 C4.49866624,7.0092 4.25125325,6.79161039 4.20475299,6.50652312 L4.1969,6.4092 L4.1969,5.6452 C4.1969,5.34696624 4.41448961,5.09955325 4.69957688,5.05305299 L4.7969,5.0452 L8.5289,5.0452 Z M13.168,5.0456 C13.4993708,5.0456 13.768,5.31422915 13.768,5.6456 C13.768,5.94383376 13.5504104,6.19124675 13.2653231,6.23774701 L13.168,6.2456 L10.586,6.2456 C10.2546292,6.2456 9.986,5.97697085 9.986,5.6456 C9.986,5.34736624 10.2035896,5.09995325 10.4886769,5.05345299 L10.586,5.0456 L13.168,5.0456 Z" id="Combined-Shape" fill="#010505"></path>
    </g>
</svg>