<svg xmlns="http://www.w3.org/2000/svg" width="18" height="18" viewBox="0 0 18 18">
    <path fill="#AEB8BD" fill-rule="evenodd" d="M15.318 4.227c.377 0 .682.306.682.682 0 .377-.305.682-.682.682l-.464-.001-.825 10.285c-.025.318-.258.57-.553.617l-.101.008h-8.75c-.307 0-.568-.22-.638-.522l-.016-.103L3.146 5.59h-.464C2.305 5.59 2 5.287 2 4.91c0-.377.305-.683.682-.683h12.636zm-1.782 1.364H4.463l.766 9.545h7.541l.766-9.545zM7.25 6.727c.362 0 .656.294.656.657v5.96c0 .362-.294.656-.656.656-.362 0-.656-.294-.656-.656v-5.96c0-.363.294-.657.656-.657zm3.5 0c.362 0 .656.294.656.657v5.96c0 .362-.294.656-.656.656-.362 0-.656-.294-.656-.656v-5.96c0-.363.294-.657.656-.657zM11.818 1.5c.377 0 .682.305.682.682 0 .376-.305.682-.682.682H6.182c-.377 0-.682-.306-.682-.682 0-.377.305-.682.682-.682h5.636z"/>
</svg>
