<svg xmlns="http://www.w3.org/2000/svg" width="18" height="18" viewBox="0 0 18 18">
    <g fill="none" fill-rule="evenodd">
        <g fill="#429AD5">
            <g>
                <path d="M16.84 3.524c-.583.258-1.21.433-1.867.511.672-.402 1.187-1.039 1.43-1.797-.628.372-1.324.642-2.064.788C13.746 2.395 12.9 2 11.967 2c-1.795 0-3.25 1.455-3.25 3.25 0 .254.029.502.084.74C6.1 5.855 3.706 4.56 2.103 2.594c-.28.48-.44 1.039-.44 1.634 0 1.128.574 2.123 1.445 2.705-.532-.017-1.033-.163-1.471-.406v.04c0 1.575 1.12 2.889 2.606 3.187-.273.074-.56.114-.856.114-.21 0-.413-.02-.611-.058.413 1.291 1.613 2.23 3.035 2.257-1.112.872-2.513 1.39-4.036 1.39-.262 0-.52-.015-.775-.044 1.438.921 3.146 1.46 4.982 1.46 5.977 0 9.246-4.953 9.246-9.247 0-.14-.003-.28-.01-.42.635-.458 1.186-1.03 1.622-1.682" transform="translate(-295 -2367) translate(295 2367)"/>
            </g>
        </g>
    </g>
</svg>
