<?xml version="1.0" encoding="UTF-8"?>
<svg width="18px" height="18px" viewBox="0 0 18 18" version="1.1" xmlns="http://www.w3.org/2000/svg" xmlns:xlink="http://www.w3.org/1999/xlink">
    <title>ic/18/18_USDC</title>
    <g id="⚪️Base/Iconograyphy" stroke="none" stroke-width="1" fill="none" fill-rule="evenodd">
        <g id="Element/Icons/18*18" transform="translate(-98.000000, -1905.000000)" fill-rule="nonzero">
            <g id="ic/18/18_USDC" transform="translate(98.000000, 1905.000000)">
                <g transform="translate(0.550000, 0.550000)" id="Group">
                    <g>
                        <path d="M8.45,16.9 C13.1327365,16.9 16.9,13.1327365 16.9,8.45 C16.9,3.7672635 13.1327365,0 8.45,0 C3.7672635,0 0,3.7672635 0,8.45 C0,13.1327365 3.7672635,16.9 8.45,16.9 Z" id="Path" fill="#2775CA"></path>
                        <path d="M10.77375,9.7878885 C10.77375,8.555625 10.034375,8.133125 8.555625,7.9571115 C7.499375,7.81625 7.288125,7.5346115 7.288125,7.0416385 C7.288125,6.5486655 7.6402365,6.231875 8.344375,6.231875 C8.978125,6.231875 9.3302365,6.443125 9.50625,6.97125 C9.5414865,7.076875 9.6471115,7.1472635 9.7527365,7.1472635 L10.3160135,7.1472635 C10.456875,7.1472635 10.5625,7.0416385 10.5625,6.9008615 L10.5625,6.865625 C10.4216385,6.0910135 9.7878885,5.4925 8.978125,5.4221115 L8.978125,4.5771115 C8.978125,4.43625 8.8725,4.330625 8.6964865,4.2953885 L8.1683615,4.2953885 C8.0275,4.2953885 7.921875,4.4010135 7.8866385,4.5771115 L7.8866385,5.386875 C6.8303885,5.5277365 6.1614865,6.231875 6.1614865,7.1121115 C6.1614865,8.2739865 6.865625,8.7316385 8.344375,8.9077365 C9.3302365,9.08375 9.6471115,9.295 9.6471115,9.8583615 C9.6471115,10.421723 9.1541385,10.8089865 8.4852365,10.8089865 C7.5697635,10.8089865 7.2528885,10.4216385 7.1472635,9.8935135 C7.1121115,9.7527365 7.0064865,9.6822635 6.9008615,9.6822635 L6.3022635,9.6822635 C6.1614865,9.6822635 6.0558615,9.7878885 6.0558615,9.92875 L6.0558615,9.9639865 C6.1966385,10.8441385 6.76,11.4778885 7.921875,11.6539865 L7.921875,12.4989865 C7.921875,12.6397635 8.0275,12.7453885 8.2035135,12.780625 L8.7316385,12.780625 C8.8725,12.780625 8.978125,12.675 9.0133615,12.4989865 L9.0133615,11.6539865 C10.0696115,11.4778885 10.77375,10.7385135 10.77375,9.7878885 L10.77375,9.7878885 Z" id="Path" fill="#FFFFFF"></path>
                        <path d="M6.654375,13.4847635 C3.908125,12.4989865 2.4997635,9.4358615 3.5208615,6.7247635 C4.0489865,5.2460135 5.2108615,4.119375 6.654375,3.59125 C6.7952365,3.5208615 6.865625,3.4152365 6.865625,3.2391385 L6.865625,2.74625 C6.865625,2.6053885 6.7952365,2.4997635 6.654375,2.4646115 C6.6191385,2.4646115 6.54875,2.4646115 6.5135135,2.4997635 C3.16875,3.5560135 1.3378885,7.1121115 2.3941385,10.456875 C3.0278885,12.4285135 4.541875,13.9425 6.5135135,14.57625 C6.654375,14.6466385 6.7952365,14.57625 6.8303885,14.4353885 C6.865625,14.4002365 6.865625,14.365 6.865625,14.2946115 L6.865625,13.8016385 C6.865625,13.6960135 6.76,13.5552365 6.654375,13.4847635 Z M10.3864865,2.4997635 C10.245625,2.429375 10.1047635,2.4997635 10.0696115,2.640625 C10.034375,2.6758615 10.034375,2.7110135 10.034375,2.7814865 L10.034375,3.274375 C10.034375,3.4152365 10.14,3.5560135 10.245625,3.6264865 C12.991875,4.6122635 14.4002365,7.6753885 13.3791385,10.3864865 C12.8510135,11.8652365 11.6891385,12.991875 10.245625,13.52 C10.1047635,13.5903885 10.034375,13.6960135 10.034375,13.8721115 L10.034375,14.365 C10.034375,14.5058615 10.1047635,14.6114865 10.245625,14.6466385 C10.2808615,14.6466385 10.35125,14.6466385 10.3864865,14.6114865 C13.73125,13.5552365 15.5621115,9.9991385 14.5058615,6.654375 C13.8721115,4.6475 12.3228885,3.1335135 10.3864865,2.4997635 Z" id="Shape" fill="#FFFFFF"></path>
                    </g>
                    <g>
                        <path d="M8.45,16.9 C13.1327365,16.9 16.9,13.1327365 16.9,8.45 C16.9,3.7672635 13.1327365,0 8.45,0 C3.7672635,0 0,3.7672635 0,8.45 C0,13.1327365 3.7672635,16.9 8.45,16.9 Z" id="Path" fill="#2775CA"></path>
                        <path d="M10.77375,9.7878885 C10.77375,8.555625 10.034375,8.133125 8.555625,7.9571115 C7.499375,7.81625 7.288125,7.5346115 7.288125,7.0416385 C7.288125,6.5486655 7.6402365,6.231875 8.344375,6.231875 C8.978125,6.231875 9.3302365,6.443125 9.50625,6.97125 C9.5414865,7.076875 9.6471115,7.1472635 9.7527365,7.1472635 L10.3160135,7.1472635 C10.456875,7.1472635 10.5625,7.0416385 10.5625,6.9008615 L10.5625,6.865625 C10.4216385,6.0910135 9.7878885,5.4925 8.978125,5.4221115 L8.978125,4.5771115 C8.978125,4.43625 8.8725,4.330625 8.6964865,4.2953885 L8.1683615,4.2953885 C8.0275,4.2953885 7.921875,4.4010135 7.8866385,4.5771115 L7.8866385,5.386875 C6.8303885,5.5277365 6.1614865,6.231875 6.1614865,7.1121115 C6.1614865,8.2739865 6.865625,8.7316385 8.344375,8.9077365 C9.3302365,9.08375 9.6471115,9.295 9.6471115,9.8583615 C9.6471115,10.421723 9.1541385,10.8089865 8.4852365,10.8089865 C7.5697635,10.8089865 7.2528885,10.4216385 7.1472635,9.8935135 C7.1121115,9.7527365 7.0064865,9.6822635 6.9008615,9.6822635 L6.3022635,9.6822635 C6.1614865,9.6822635 6.0558615,9.7878885 6.0558615,9.92875 L6.0558615,9.9639865 C6.1966385,10.8441385 6.76,11.4778885 7.921875,11.6539865 L7.921875,12.4989865 C7.921875,12.6397635 8.0275,12.7453885 8.2035135,12.780625 L8.7316385,12.780625 C8.8725,12.780625 8.978125,12.675 9.0133615,12.4989865 L9.0133615,11.6539865 C10.0696115,11.4778885 10.77375,10.7385135 10.77375,9.7878885 L10.77375,9.7878885 Z" id="Path" fill="#FFFFFF"></path>
                        <path d="M6.654375,13.4847635 C3.908125,12.4989865 2.4997635,9.4358615 3.5208615,6.7247635 C4.0489865,5.2460135 5.2108615,4.119375 6.654375,3.59125 C6.7952365,3.5208615 6.865625,3.4152365 6.865625,3.2391385 L6.865625,2.74625 C6.865625,2.6053885 6.7952365,2.4997635 6.654375,2.4646115 C6.6191385,2.4646115 6.54875,2.4646115 6.5135135,2.4997635 C3.16875,3.5560135 1.3378885,7.1121115 2.3941385,10.456875 C3.0278885,12.4285135 4.541875,13.9425 6.5135135,14.57625 C6.654375,14.6466385 6.7952365,14.57625 6.8303885,14.4353885 C6.865625,14.4002365 6.865625,14.365 6.865625,14.2946115 L6.865625,13.8016385 C6.865625,13.6960135 6.76,13.5552365 6.654375,13.4847635 Z M10.3864865,2.4997635 C10.245625,2.429375 10.1047635,2.4997635 10.0696115,2.640625 C10.034375,2.6758615 10.034375,2.7110135 10.034375,2.7814865 L10.034375,3.274375 C10.034375,3.4152365 10.14,3.5560135 10.245625,3.6264865 C12.991875,4.6122635 14.4002365,7.6753885 13.3791385,10.3864865 C12.8510135,11.8652365 11.6891385,12.991875 10.245625,13.52 C10.1047635,13.5903885 10.034375,13.6960135 10.034375,13.8721115 L10.034375,14.365 C10.034375,14.5058615 10.1047635,14.6114865 10.245625,14.6466385 C10.2808615,14.6466385 10.35125,14.6466385 10.3864865,14.6114865 C13.73125,13.5552365 15.5621115,9.9991385 14.5058615,6.654375 C13.8721115,4.6475 12.3228885,3.1335135 10.3864865,2.4997635 Z" id="Shape" fill="#FFFFFF"></path>
                    </g>
                </g>
            </g>
        </g>
    </g>
</svg>