<svg width="18" height="18" viewBox="0 0 18 18" xmlns="http://www.w3.org/2000/svg">
    <g fill="#8E8E93" fill-rule="evenodd">
        <path d="M6.567 6.75a.6.6 0 0 1 .774-.064l.075.063 4.32 4.321a.6.6 0 0 1-.773.912l-.075-.063-4.321-4.321a.6.6 0 0 1 0-.849zM5.192 8.207a.6.6 0 0 1 .912.774l-.063.074-1.41 1.41c-1.12 1.12-1.234 2.78-.311 3.701.886.887 2.454.816 3.57-.187l.131-.125 1.41-1.409a.6.6 0 0 1 .911.774l-.063.075-1.41 1.409c-1.564 1.565-3.98 1.73-5.398.312-1.374-1.374-1.262-3.684.17-5.25l.142-.149 1.41-1.41zM9.433 3.965c1.566-1.565 3.981-1.73 5.4-.312 1.374 1.374 1.261 3.684-.17 5.25l-.143.15-1.408 1.408a.6.6 0 0 1-.912-.775l.063-.074 1.409-1.408c1.12-1.121 1.234-2.78.312-3.703-.886-.886-2.455-.815-3.57.188l-.132.125-1.409 1.408a.6.6 0 0 1-.911-.774l.063-.074 1.408-1.409z"/>
    </g>
</svg>
