<svg xmlns="http://www.w3.org/2000/svg" width="18" height="18" viewBox="0 0 18 18">
    <g fill="none" fill-rule="evenodd">
        <g fill="#979797">
            <g>
                <path d="M15.003 3.327c.182.209.16.525-.049.706L11.67 6.887l1.99.864c.507.22.74.808.52 1.315-.062.142-.156.268-.275.368l-2.209 1.853 2.689 3.202.187.72c.028.107-.036.217-.143.245-.045.011-.092.007-.134-.012l-.676-.31-2.689-3.202-2.207 1.852c-.423.355-1.053.3-1.408-.123-.1-.12-.17-.26-.207-.41l-.474-1.984-3 2.609c-.208.18-.524.159-.705-.05-.178-.204-.16-.512.038-.695l11.35-9.865.055-.039c.204-.12.471-.083.632.102zm-4.17 4.287l-3.349 2.911.596 2.49 2.207-1.851.766-.643 2.208-1.853-2.402-1.041-.026-.013zM8.47 3.551l1.683 2.006-.755.656-1.694-2.019-3.064 2.571 1.738 2.073-.754.656-1.75-2.086c-.355-.423-.3-1.054.123-1.409L7.06 3.428c.423-.355 1.054-.3 1.409.123z" transform="translate(-519 -678) translate(519 678)"/>
            </g>
        </g>
    </g>
</svg>
