<svg xmlns="http://www.w3.org/2000/svg" width="18" height="18" viewBox="0 0 18 18">
    <g fill="none"  fill-rule="evenodd">
        <g fill="#010505">
            <path d="M13.45 6.95c-.275-.395-.728-.63-1.21-.63h-1.59l.5-1.33c.141-.391.12-.823-.06-1.2-.162-.344-.459-.608-.82-.73-.585-.192-1.228.009-1.6.5l-2.1 2.76h-2c-.153 0-.3.062-.406.171-.108.11-.167.257-.164.41v4.51c-.003.152.056.3.164.41.107.108.253.17.406.17h7.31c.25-.001.473-.157.56-.39l1.2-3.31c.16-.451.09-.952-.19-1.34zm-7.13 4H5.04V7.32h1.28v3.63z" transform="translate(-488.000000, -1122.000000) translate(488.000000, 1122.000000)"/>
        </g>
    </g>
</svg>
