<svg xmlns="http://www.w3.org/2000/svg" width="18" height="18" viewBox="0 0 18 18">
    <g fill="none" fill-rule="evenodd">
        <g fill="#010505">
            <g>
                <g>
                    <path d="M9.001 6.08c-1.656 0-3 1.343-3 3s1.344 3 3 3c1.657 0 3-1.343 3-3s-1.343-3-3-3zm0 1.2c.995 0 1.8.806 1.8 1.8s-.805 1.8-1.8 1.8c-.994 0-1.8-.806-1.8-1.8s.806-1.8 1.8-1.8z" transform="translate(-542 -1214) translate(542 1214)"/>
                    <path d="M9.001 3.21c-2.297 0-4.4 1.718-6.217 4.25-.701.965-.701 2.275.002 3.243 1.798 2.52 3.914 4.247 6.215 4.247 2.298 0 4.4-1.718 6.218-4.25.69-.97.69-2.27.001-3.238C13.401 4.928 11.3 3.21 9.001 3.21zm0 1.2c1.788 0 3.634 1.51 5.243 3.75.392.55.392 1.29-.001 1.842C12.635 12.241 10.789 13.75 9 13.75c-1.79 0-3.649-1.516-5.241-3.748-.4-.552-.4-1.292-.003-1.84C5.367 5.92 7.214 4.41 9 4.41z" transform="translate(-542 -1214) translate(542 1214)"/>
                </g>
            </g>
        </g>
    </g>
</svg>
