<svg width="18px" height="18px" viewBox="0 0 18 18" version="1.1" xmlns="http://www.w3.org/2000/svg">
    <g stroke="none" stroke-width="1" fill="none" fill-rule="evenodd">
        <path d="M9,0 C13.9705627,0 18,4.02943725 18,9 C18,13.9705627 13.9705627,18 9,18 C4.02943725,18 0,13.9705627 0,9 C0,4.02943725 4.02943725,0 9,0 Z M14.9546207,3.94618239 L11.296,7.604 L11.2966102,12.1966102 C11.2966102,12.638438 10.938438,12.9966102 10.4966102,12.9966102 L5.904,12.996 L3.94618239,14.9546207 C5.30832286,16.1118396 7.07262938,16.81 9,16.81 C13.3133439,16.81 16.81,13.3133439 16.81,9 C16.81,7.07262938 16.1118396,5.30832286 14.9546207,3.94618239 Z M9,1.19 C4.6866561,1.19 1.19,4.6866561 1.19,9 C1.19,10.9574039 1.91008809,12.7466221 3.09980984,14.1172004 L4.224,12.992 L4.1996497,12.990377 C3.80518815,12.9410118 3.5,12.6044512 3.5,12.1966102 L3.5,6 C3.5,5.5581722 3.8581722,5.2 4.3,5.2 L10.4966102,5.2 C10.9129479,5.2 11.2550042,5.51803678 11.2930865,5.92441784 L14.1172004,3.09980984 C12.7466221,1.91008809 10.9574039,1.19 9,1.19 Z M14.9615239,7.03066987 C14.9870501,7.12001134 15,7.21247447 15,7.305391 L15,10.8912192 C15,11.4435039 14.5522847,11.8912192 14,11.8912192 C13.9070835,11.8912192 13.8146203,11.8782692 13.7252789,11.8527431 L12.9964653,11.6445107 C12.5671638,11.5218531 12.2711864,11.1294671 12.2711864,10.6829867 L12.2711864,7.51362345 C12.2711864,7.06714309 12.5671638,6.67475709 12.9964653,6.5520995 L13.7252789,6.34386705 C14.2563139,6.19214276 14.8097997,6.49963486 14.9615239,7.03066987 Z" fill="#010505"></path>
    </g>
</svg>
