<svg width="18" height="18" viewBox="0 0 18 18" xmlns="http://www.w3.org/2000/svg">
    <path d="M11.917 2.75c.92 0 1.666.746 1.666 1.667v1.071l1.223-.61a1.459 1.459 0 0 1 1.888.529l.069.123c.08.162.13.337.148.517l.006.135v5.636a1.458 1.458 0 0 1-1.987 1.36l-.124-.055-1.223-.612v1.072c0 .92-.746 1.667-1.666 1.667H2.75c-.92 0-1.667-.746-1.667-1.667V4.417c0-.92.747-1.667 1.667-1.667h9.167zm0 1.25H2.75a.417.417 0 0 0-.41.342l-.007.075v9.166c0 .205.148.375.342.41L2.75 14h9.167a.417.417 0 0 0 .41-.342l.006-.075V4.417a.417.417 0 0 0-.341-.41L11.917 4zM4.75 5.924a.839.839 0 0 1 1.265-.072l.636.636a.841.841 0 0 1 .013 1.19.71.71 0 0 0 .012 1.004l1.198 1.199a.71.71 0 0 0 1.005.01.841.841 0 0 1 1.19.014l.635.636c.365.365.331.961-.072 1.265-.96.674-2.274.549-3.117-.294L5.045 9.04c-.844-.843-.97-2.157-.298-3.11zm10.668.053-.053.019-1.666.833a.208.208 0 0 0-.107.129l-.009.057v3.97c0 .06.026.115.068.154l.048.032 1.666.834a.208.208 0 0 0 .294-.131l.008-.056V6.182a.208.208 0 0 0-.249-.205z" fill="#010505" fill-rule="evenodd" />
</svg>
