<svg width="18" height="18" viewBox="0 0 18 18" xmlns="http://www.w3.org/2000/svg">
    <path d="M8 1.3a6.7 6.7 0 0 1 5.207 10.917l2.788 2.788a.7.7 0 0 1-.903 1.064l-.087-.074-2.788-2.788A6.7 6.7 0 1 1 8 1.3zm0 1.4a5.3 5.3 0 1 0 0 10.6A5.3 5.3 0 0 0 8 2.7zm0 2.029a.7.7 0 0 1 .694.605l.006.095L8.699 7.3h1.872a.7.7 0 0 1 .095 1.394l-.095.006L8.7 8.699l.001 1.872a.7.7 0 0 1-1.394.095l-.006-.095V8.7L5.429 8.7a.7.7 0 0 1-.095-1.394l.095-.006H7.3V5.429a.7.7 0 0 1 .7-.7z" fill="#010505" fill-rule="evenodd" />
</svg>
