<svg width="18" height="18" viewBox="0 0 18 18" xmlns="http://www.w3.org/2000/svg">
    <g fill="none" fill-rule="evenodd">
        <path d="M12 5.341V13a1 1 0 0 1-1 1H3.31L12 5.341zm4.712.71a1 1 0 0 1 .038.275v5.348a1 1 0 0 1-1.275.962l-1.5-.429a1 1 0 0 1-.725-.961V6.754a1 1 0 0 1 .725-.961l1.5-.429a1 1 0 0 1 1.237.687zM10.158 4 2 12.131 2 5a1 1 0 0 1 1-1h7.158z"  fill="#010505"/>
        <path d="M2.083 14.427a.562.562 0 0 1-.849-.734l.055-.063L12.445 2.512a.562.562 0 0 1 .849.734l-.055.063L2.083 14.427z" fill="#FB2942"/>
    </g>
</svg>
