<svg xmlns="http://www.w3.org/2000/svg" width="18" height="18" viewBox="0 0 18 18">
    <g fill="none" fill-rule="evenodd">
        <g fill="#010505">
            <path d="M12.964 4c.776 0 1.52.31 2.063.857.55.547.86 1.29.86 2.066 0 .706-.256 1.384-.715 1.911l-.144.154-5.41 5.4c-.207.207-.528.23-.762.071l-.083-.068-5.412-5.322C2.81 8.52 2.5 7.775 2.5 6.999c0-.778.31-1.523.862-2.072 1.096-1.086 2.836-1.13 4.01-.102l.144.134.555.636.17.2c.215.252.184.63-.068.845-.225.191-.549.188-.769.008l-.077-.076-.165-.194-.52-.599c-.675-.668-1.761-.668-2.435 0-.324.322-.507.761-.507 1.22 0 .4.14.786.39 1.09l.115.126 4.986 4.903 4.99-4.98c.284-.282.459-.651.498-1.045l.008-.17c0-.456-.182-.893-.509-1.217-.321-.324-.758-.506-1.214-.506-.399 0-.783.14-1.091.394l-.127.116L8.9 8.527c-.238.238-.238.624.001.864.115.116.271.181.434.181.13 0 .256-.042.363-.12l.076-.066 2.08-2.05c.236-.233.616-.23.848.006.207.21.228.533.064.766l-.07.083-2.075 2.044c-.34.344-.803.537-1.286.537s-.946-.193-1.285-.535c-.666-.667-.703-1.725-.108-2.438l.111-.122 2.846-2.816C11.444 4.31 12.188 4 12.964 4z" transform="translate(-517.000000, -1420.000000) translate(517.000000, 1420.000000)"/>
        </g>
    </g>
</svg>
