<svg xmlns="http://www.w3.org/2000/svg" width="18" height="18" viewBox="0 0 18 18">
    <g fill="none"  fill-rule="evenodd">
        <g fill="#010505">
            <path d="M9.974 6.571c.768-.761 2.006-.761 2.774 0 .37.366.577.865.577 1.385 0 .463-.164.908-.457 1.255l-.115.125-3.39 3.46c-.075.077-.173.127-.278.144l-.08.006h-.08c-.107 0-.21-.034-.296-.097l-.06-.052-3.348-3.409c-.762-.768-.762-2.006.003-2.777.727-.721 1.877-.76 2.674-.086l.13.119.27.32c.178.21.151.526-.06.704-.187.159-.458.155-.64.004l-.064-.063-.24-.288c-.378-.375-.988-.375-1.363-.003-.346.35-.373.896-.079 1.276l.08.092 3.033 3.086 3.079-3.141c.15-.149.245-.342.273-.55l.008-.125c0-.253-.101-.496-.281-.675-.35-.346-.896-.372-1.274-.08l-.09.079L8.907 9.05c-.05.05-.077.116-.077.185 0 .07.027.136.08.188.049.05.115.077.185.077.046 0 .091-.012.13-.034l.05-.039 1.29-1.33c.193-.198.51-.203.708-.01.176.17.2.44.067.636l-.056.07-1.294 1.334c-.237.239-.559.373-.895.373-.337 0-.659-.134-.892-.37-.239-.236-.373-.559-.373-.895 0-.288.098-.566.276-.788l.095-.105L9.974 6.57z" transform="translate(-542.000000, -1420.000000) translate(542.000000, 1420.000000)"/>
        </g>
    </g>
</svg>
