<svg xmlns="http://www.w3.org/2000/svg" width="18" height="18" viewBox="0 0 18 18">
    <g fill="none" fill-rule="evenodd">
        <g fill="#010505">
            <path d="M12.779 3.8c.857 0 1.679.342 2.279.945.607.603.95 1.423.95 2.279 0 .785-.288 1.54-.802 2.122l-.146.154-5.42 5.42c-.14.141-.323.23-.518.256l-.118.008h-.1c-.2 0-.392-.066-.549-.187l-.09-.078L2.95 9.372C2.342 8.768 2 7.946 2 7.09s.342-1.679.946-2.28c.604-.607 1.426-.949 2.283-.949.786 0 1.542.287 2.163.842l.166.157.41.48c.323.378.279.947-.1 1.27-.346.295-.852.282-1.183-.013L6.6 6.51l-.364-.43c-.267-.268-.629-.419-1.007-.419-.378 0-.74.15-1.01.422-.268.267-.419.63-.419 1.007 0 .33.115.65.326.905l.096.105 4.734 4.76 4.834-4.834c.234-.232.378-.536.41-.86l.007-.141c0-.376-.15-.736-.421-1.005-.267-.268-.629-.419-1.007-.419-.33 0-.65.115-.907.328l-.106.097-2.839 2.798c-.125.129-.125.334-.014.448.11.107.277.122.4.048l.058-.044 2.08-2.06c.353-.35.923-.347 1.272.006.321.323.346.83.075 1.18l-.08.092-2.085 2.064c-.828.81-2.15.81-2.992-.014-.77-.786-.808-2.02-.106-2.86l.117-.13 2.844-2.804c.604-.607 1.426-.949 2.283-.949z" transform="translate(-492.000000, -1420.000000) translate(492.000000, 1420.000000)"/>
        </g>
    </g>
</svg>
