<svg xmlns="http://www.w3.org/2000/svg" width="18" height="18" viewBox="0 0 18 18">
    <defs>
        <linearGradient id="26ky15pw3a" x1="50%" x2="50%" y1="0%" y2="100.004%">
            <stop offset="0%" stop-color="#61FD7D"/>
            <stop offset="100%" stop-color="#2BB826"/>
        </linearGradient>
    </defs>
    <g fill="none" fill-rule="evenodd">
        <g fill-rule="nonzero">
            <g>
                <path fill="url(#26ky15pw3a)" d="M17.996 13.43c0 .099 0 .313-.01.477-.007.39-.038.778-.094 1.163-.065.338-.174.665-.326.974-.333.658-.868 1.193-1.527 1.525-.31.152-.64.262-.98.326-.382.055-.767.086-1.153.093-.166.006-.379.009-.477.009H4.567c-.099 0-.312 0-.477-.01-.39-.007-.778-.039-1.163-.094-.337-.065-.665-.175-.974-.326-.658-.334-1.192-.87-1.525-1.528-.152-.31-.262-.64-.326-.98-.055-.382-.086-.767-.093-1.153C0 13.74 0 13.527 0 13.426V4.567c0-.099 0-.312.009-.477.016-.401.048-.925.096-1.163.065-.337.174-.665.326-.974.334-.658.868-1.192 1.527-1.525.31-.152.64-.262.98-.326C3.32.047 3.705.016 4.09.009 4.257 0 4.471 0 4.57 0h8.86c.1 0 .314 0 .478.009.404.015.925.046 1.163.095.338.065.665.174.974.325.658.334 1.193.869 1.525 1.527.152.31.262.64.326.98.055.382.086.768.093 1.154.006.165.009.379.009.477l-.001 8.863z" transform="translate(-227 -2367) translate(227 2367)"/>
                <g fill="#FFF">
                    <path d="M11.111 1.897C8.821-.39 5.191-.629 2.622 1.34.052 3.31-.66 6.876.953 9.682l-.915 3.343 3.421-.897c.947.514 2.007.783 3.084.782 2.61 0 4.961-1.572 5.96-3.981 1-2.41.45-5.185-1.392-7.032zm-4.565 9.926c-.96 0-1.903-.258-2.73-.747l-.201-.116-2.03.532.544-1.976-.128-.202c-1.3-2.073-1.034-4.762.647-6.54C4.33.999 7 .585 9.141 1.768c2.14 1.184 3.21 3.666 2.599 6.035-.612 2.369-2.748 4.024-5.194 4.024v-.003zm2.942-4.016c-.161-.08-.954-.47-1.102-.524-.147-.054-.255-.08-.363.08-.107.162-.416.525-.51.632-.095.107-.188.122-.35.04-.475-.188-.914-.459-1.296-.799-.352-.325-.655-.7-.898-1.113-.094-.162-.01-.249.074-.33.083-.08.162-.187.242-.282.066-.081.12-.172.161-.269.044-.09.04-.196-.013-.282-.04-.08-.363-.874-.497-1.197-.134-.323-.267-.275-.362-.28-.095-.005-.202-.006-.31-.006-.165.004-.32.077-.43.202-.147.16-.564.551-.564 1.345 0 .794.578 1.56.658 1.667.08.108 1.138 1.736 2.756 2.434.298.13.604.243.914.34.33.1.677.122 1.016.064.31-.047.954-.39 1.088-.767.135-.376.135-.699.095-.767-.04-.068-.148-.107-.309-.188z" transform="translate(-227 -2367) translate(227 2367) translate(2.656 2.36)"/>
                </g>
            </g>
        </g>
    </g>
</svg>
