<svg xmlns="http://www.w3.org/2000/svg" xmlns:xlink="http://www.w3.org/1999/xlink" width="18" height="18" viewBox="0 0 18 18">
    <defs>
        <path id="qrrudpy7aa" d="M0.006 0.004L16.006 0.004 16.006 11.004 0.006 11.004z"/>
    </defs>
    <g fill="none" fill-rule="evenodd">
        <g>
            <g>
                <g transform="translate(-91 -2367) translate(91 2367) translate(1 3.5)">
                    <mask id="dnwz1y7tsb" fill="#fff">
                        <use xlink:href="#qrrudpy7aa"/>
                    </mask>
                    <path fill="#D9252A" d="M14.251.328C13.003 0 8 0 8 0S2.997 0 1.749.328C1.06.51.519 1.042.334 1.718 0 2.943 0 5.5 0 5.5s0 2.557.334 3.782c.184.676.727 1.209 1.415 1.39C2.997 11 8 11 8 11s5.003 0 6.251-.328c.689-.181 1.23-.714 1.415-1.39C16 8.057 16 5.5 16 5.5s0-2.557-.334-3.782c-.184-.676-.726-1.209-1.415-1.39z" mask="url(#dnwz1y7tsb)"/>
                    <path fill="#FFF" d="M6.468 8.147L10.718 5.729 6.468 3.311 6.468 8.147" mask="url(#dnwz1y7tsb)"/>
                </g>
            </g>
        </g>
    </g>
</svg>
