<svg xmlns="http://www.w3.org/2000/svg" width="24" height="24" viewBox="0 0 24 24">
    <g fill="none"  fill-rule="evenodd">
        <g fill="#010505">
            <g>
                <path d="M11.808 3.623c1.881-1.68 4.561-2.087 6.85-1.077.39.172.482.683.177.98l-3.083 2.996.384 1.816 1.807.435 3.08-2.997c.282-.274.736-.204.931.117l.043.086c.98 2.4.43 5.176-1.456 7.011-1.655 1.61-4.011 2.17-6.184 1.56l-.133-.04-6.98 6.802c-1.176 1.145-3.03 1.163-4.228.076l-.14-.136c-1.19-1.223-1.164-3.179.059-4.369l6.981-6.803-.036-.133c-.528-2.104.028-4.35 1.543-5.95l.186-.189zm5.456-.284c-1.698-.401-3.52.068-4.818 1.33C11 6.074 10.524 8.17 11.164 10.063c.074.219.016.46-.15.622l-7.242 7.057c-.748.728-.764 1.924-.036 2.672.727.748 1.923.765 2.67.037l7.242-7.056c.166-.161.41-.213.626-.133 1.876.692 3.984.274 5.43-1.133 1.297-1.261 1.817-3.07 1.463-4.779l-.009-.033-2.616 2.546c-.123.12-.29.18-.458.169l-.1-.015-2.496-.601c-.225-.055-.399-.233-.446-.46l-.531-2.51c-.043-.201.02-.41.168-.554l2.618-2.546zm-11.17 14.77c.228.235.223.611-.012.84-.236.23-.612.224-.842-.012-.23-.235-.223-.612.012-.84.235-.23.612-.225.842.011z" transform="translate(-1775 -253) translate(1775 253)"/>
            </g>
        </g>
    </g>
</svg>
