<?xml version="1.0" encoding="UTF-8"?>
<svg width="24px" height="24px" viewBox="0 0 24 24" version="1.1" xmlns="http://www.w3.org/2000/svg" xmlns:xlink="http://www.w3.org/1999/xlink">
    <!-- Generator: sketchtool 62 (101010) - https://sketch.com -->
    <title>7FFF33A5-6074-4DDF-83B6-60D29057DCAB</title>
    <desc>Created with sketchtool.</desc>
    <g id="⚪️Element/Icons" stroke="none" stroke-width="1" fill="none" fill-rule="evenodd">
        <g id="Element/Icons" transform="translate(-1652.000000, -2025.000000)" fill="#AEB8BD">
            <g id="ic/24/24_attachment_g" transform="translate(1652.000000, 2025.000000)">
                <g id="Combined-Shape">
                    <path d="M13.9591265,4 C14.0672846,4 14.1708327,4.0437997 14.2461615,4.12141259 L18.3870349,8.38784849 C18.4594803,8.46249061 18.5,8.56241774 18.5,8.66643591 L18.5,18.8 C18.5,19.4627417 17.9627417,20 17.3,20 L7.7,20 C7.0372583,20 6.5,19.4627417 6.5,18.8 L6.5,5.2 C6.5,4.5372583 7.0372583,4 7.7,4 L13.9591265,4 Z M13.699,4.799 L7.7,4.8 C7.4790861,4.8 7.3,4.9790861 7.3,5.2 L7.3,18.8 C7.3,19.0209139 7.4790861,19.2 7.7,19.2 L17.3,19.2 C17.5209139,19.2 17.7,19.0209139 17.7,18.8 L17.7,8.962 L14.5,8.9624343 C14.092159,8.9624343 13.7555984,8.65724615 13.7062331,8.2627846 L13.7,8.1624343 L13.699,4.799 Z"></path>
                </g>
            </g>
        </g>
    </g>
</svg>