<svg xmlns="http://www.w3.org/2000/svg" width="24" height="24" viewBox="0 0 24 24">
    <path fill="#AEB8BD" d="M17.85 12.75c.46 0 .833.373.833.833v3.333h3.334c.46 0 .833.374.833.834 0 .46-.373.833-.833.833h-3.334v3.334c0 .46-.373.833-.833.833-.46 0-.833-.373-.833-.833l-.001-3.334h-3.333c-.46 0-.833-.373-.833-.833 0-.46.373-.833.833-.833l3.333-.001v-3.333c0-.46.374-.833.834-.833zM12 11.919c1.477 0 2.882.168 4.15.471-.114.15-.182.323-.204.52l-.009.151.001.82c-1.175-.29-2.509-.462-3.938-.462-4.84 0-8.59 1.966-8.745 3.897l-.005.123v1.3c0 .653.496 1.19 1.131 1.254l.13.007 11.426-.001V21.5H4.51c-1.524 0-2.76-1.236-2.76-2.76v-1.3c0-2.993 4.42-5.43 9.937-5.519L12 11.92zm.032-9.419c2.29 0 4.145 1.856 4.145 4.145 0 2.29-1.856 4.146-4.145 4.146h-.087C9.656 10.79 7.8 8.935 7.8 6.645S9.656 2.5 11.945 2.5h.087zm0 1.5h-.087C10.485 4 9.3 5.184 9.3 6.645c0 1.405 1.095 2.554 2.478 2.64l.167.006h.087c1.461 0 2.645-1.185 2.645-2.646 0-1.46-1.184-2.645-2.645-2.645z"/>
</svg>
