<svg xmlns="http://www.w3.org/2000/svg" width="24" height="24" viewBox="0 0 24 24">
    <g fill="none" fill-rule="evenodd">
        <g fill="#010505">
            <g>
                <path d="M11.8 6.25c1.63 0 2.95 1.32 2.95 2.95 0 1.571-1.228 2.855-2.777 2.945l-.173.005-3.05-.001V15c0 .38-.282.693-.648.743L8 15.75c-.38 0-.693-.282-.743-.648L7.25 15V7c0-.38.282-.693.648-.743L8 6.25h3.8zm-3.05 4.399l3.05.001c.8 0 1.45-.65 1.45-1.45 0-.754-.575-1.373-1.31-1.443l-.14-.007H8.75v2.899zM18 15c.414 0 .75.336.75.75v1.5h1.5c.414 0 .75.336.75.75s-.336.75-.75.75h-1.5v1.5c0 .414-.336.75-.75.75s-.75-.336-.75-.75v-1.5h-1.5c-.414 0-.75-.336-.75-.75s.336-.75.75-.75h1.5v-1.5c0-.414.336-.75.75-.75z" transform="translate(-1340 -253) translate(1340 253)"/>
                <path d="M18 2.25c1.463 0 2.658 1.142 2.745 2.582L20.75 5v7.666C22.68 13.664 24 15.678 24 18c0 3.314-2.686 6-6 6-2.322 0-4.336-1.32-5.334-3.25H5c-1.463 0-2.658-1.142-2.745-2.582L2.25 18V5c0-1.463 1.142-2.658 2.582-2.745L5 2.25h13zm0 11.25c-2.485 0-4.5 2.015-4.5 4.5s2.015 4.5 4.5 4.5 4.5-2.015 4.5-4.5-2.015-4.5-4.5-4.5zm.128-9.744L18 3.75H5c-.647 0-1.18.492-1.244 1.122L3.75 5v13c0 .647.492 1.18 1.122 1.244L5 19.25h7.13c-.085-.403-.13-.821-.13-1.25 0-3.314 2.686-6 6-6 .429 0 .847.045 1.25.13V5c0-.647-.492-1.18-1.122-1.244z" transform="translate(-1340 -253) translate(1340 253)"/>
            </g>
        </g>
    </g>
</svg>
