<svg xmlns="http://www.w3.org/2000/svg" width="24" height="24" viewBox="0 0 24 24">
    <g fill="none" fill-rule="evenodd">
        <path d="M0 0h24v24H0z"/>
        <path fill="#1F262A" d="M12 4.067c.501 0 .907.406.907.907v6.118h6.119c.459.001.838.342.899.785l.008.123c0 .501-.406.907-.907.907h-6.119v6.119a.908.908 0 0 1-.784.899l-.123.008a.905.905 0 0 1-.907-.907v-6.119H4.974a.905.905 0 0 1-.552-.187l-.089-.079a.906.906 0 0 1 .641-1.548h6.118V4.973c.001-.459.342-.838.785-.899z"/>
    </g>
</svg>
