<svg xmlns="http://www.w3.org/2000/svg" width="24" height="24" viewBox="0 0 24 24">
    <g fill="none" fill-rule="evenodd">
        <path d="M0 0h24v24H0z"/>
        <path fill="#FFF" fill-opacity="0" d="M4 4h15.714v15.714H4z"/>
        <g fill="#FFF" stroke="#FFF">
            <path fill-rule="nonzero" stroke-width=".988" d="M13.002 17.245c-.059.247-.162.46-.304.63-.21.251-.502.4-.827.4-.326 0-.619-.149-.828-.4a1.528 1.528 0 0 1-.304-.63h2.263z"/>
            <path stroke-width="1.318" d="M17.418 14.754l-10.741.641-.33-.683 1.5-1.307v-3.382c0-1.215.452-2.32 1.192-3.118.72-.777 1.713-1.264 2.818-1.264 1.104 0 2.097.487 2.817 1.264.74.799 1.193 1.903 1.193 3.118v3.382l1.55 1.35z"/>
        </g>
    </g>
</svg>
