<?xml version="1.0" encoding="UTF-8"?>
<svg width="24px" height="24px" viewBox="0 0 24 24" version="1.1" xmlns="http://www.w3.org/2000/svg" xmlns:xlink="http://www.w3.org/1999/xlink">
    <!-- Generator: sketchtool 62 (101010) - https://sketch.com -->
    <title>B2F03BC5-CA8F-47FC-A576-DB568EFCB9FA</title>
    <desc>Created with sketchtool.</desc>
    <g id="⚪️Element/Icons" stroke="none" stroke-width="1" fill="none" fill-rule="evenodd">
        <g id="Element/Icons" transform="translate(-1839.000000, -2471.000000)" fill="#17CEDF">
            <g id="ic/24/24_bold_b" transform="translate(1839.000000, 2471.000000)">
                <g id="ic/24/24_bold_g">
                    <path d="M13.2,21 C17.12,21 19.5,19.0540541 19.5,15.8856549 C19.5,13.5031185 18.429305,11.7442827 15.9347595,11.5072765 C15.8924306,11.5113324 15.8712662,11.4957144 15.8712662,11.4604224 C15.8712662,11.4251304 15.8924306,11.4074844 15.9347595,11.4074844 C17.8183959,11.1081081 18.6090909,9.42411642 18.6090909,7.49064449 C18.6090909,4.75883576 16.4581818,3 13.1236364,3 L6.2,3 C5.81340068,3 5.5,3.31340068 5.5,3.7 L5.5,20.3 C5.5,20.6865993 5.81340068,21 6.2,21 L13.2,21 L13.2,21 Z M11.7872727,10.4850089 L9.08363636,10.4850089 C8.91795094,10.4850089 8.78363636,10.3506943 8.78363636,10.1850089 L8.78363636,5.80727651 C8.78363636,5.64159108 8.91795094,5.50727651 9.08363636,5.50727651 L12.2963636,5.50727651 L12.2963636,5.50727651 C14.2563636,5.50727651 15.3636364,6.39293139 15.3636364,7.96465696 C15.3636364,9.63617464 14.0781818,10.4850089 11.7872727,10.4850089 Z M12.4490909,18.4927235 L9.08363636,18.4927235 C8.91795094,18.4927235 8.78363636,18.3584089 8.78363636,18.1927235 L8.78363636,13.3145751 C8.78363636,13.1488897 8.91795094,13.0145751 9.08363636,13.0145751 L12.3090909,13.0145751 L12.3090909,13.0145751 C14.8290909,13.0145751 16.1527273,13.8274428 16.1527273,15.6611227 C16.1527273,17.5072765 14.8672727,18.4927235 12.4490909,18.4927235 Z" id="B"></path>
                </g>
            </g>
        </g>
    </g>
</svg>