<?xml version="1.0" encoding="UTF-8"?>
<svg width="25px" height="24px" viewBox="0 0 25 24" version="1.1" xmlns="http://www.w3.org/2000/svg" xmlns:xlink="http://www.w3.org/1999/xlink">
    <title>1581B5C5-901D-40B1-A0BB-FA3A3FC2D98E</title>
    <g id="⚪️Base/Iconograyphy" stroke="none" stroke-width="1" fill="none" fill-rule="evenodd" fill-opacity="0.38">
        <g id="Element/Icons/24*24" transform="translate(-1358.000000, -2743.000000)" fill="#010505">
            <g id="ic/24/24_blocks_g_export" transform="translate(1358.858000, 2743.000000)">
                <g id="ic/18/18_blocks_g" transform="translate(-0.000000, 0.000000)">
                    <path d="M6.48933333,5.86666667 L6.35401161,5.87506729 C5.82199247,5.94159959 5.40933333,6.39521787 5.40933333,6.94533333 L5.408,8.89333333 L4.27866667,8.89466667 C3.68350553,8.89466667 3.2,9.3781722 3.2,9.97333333 L3.2,17.3586667 C3.2,17.9471611 3.6781722,18.4253333 4.26666667,18.4253333 L20.508,18.4253333 C21.1054265,18.4253333 21.5866667,17.9409061 21.5866667,17.3453333 L21.5866667,9.96133333 L21.5783458,9.82765273 C21.5124489,9.30210333 21.0632257,8.89466667 20.52,8.89466667 L19.376,8.89333333 L19.3773333,6.94533333 C19.3773333,6.3501722 18.8938278,5.86666667 18.2986667,5.86666667 L14.6253333,5.86666667 L14.4913906,5.87496565 C13.9649672,5.94069507 13.5586667,6.3888769 13.5586667,6.93333333 L13.5573333,8.89333333 L11.228,8.89333333 L11.2293333,6.94533333 C11.2293333,6.34870561 10.7456982,5.86666667 10.1506667,5.86666667 L6.48933333,5.86666667 Z M17.776,7.46533333 L17.7773333,9.69466667 L17.787804,9.82443082 C17.8498043,10.2045472 18.1796883,10.4946667 18.5773333,10.4946667 L19.9853333,10.4933333 L19.9853333,16.824 L4.79866667,16.824 L4.79866667,10.4933333 L6.20933333,10.4946667 L6.33909749,10.484196 C6.71921385,10.4221957 7.00933333,10.0923117 7.00933333,9.69466667 L7.008,7.46533333 L9.628,7.46533333 L9.62933333,9.69466667 C9.62933333,10.1364945 9.98750553,10.4946667 10.4293333,10.4946667 L14.3586667,10.4946667 L14.4884308,10.484196 C14.8685472,10.4221957 15.1586667,10.0923117 15.1586667,9.69466667 L15.1573333,7.46533333 L17.776,7.46533333 Z" id="Stroke-1"></path>
                </g>
            </g>
        </g>
    </g>
</svg>