<svg xmlns="http://www.w3.org/2000/svg" width="24" height="24" viewBox="0 0 24 24">
    <g fill="none" fill-opacity=".86" fill-rule="evenodd">
        <g fill="#010505">
            <g>
                <g>
                    <path d="M16.703 2.302L7.02 2.301c-1.478.046-2.658 1.209-2.72 2.671L4.3 20.622c.004.31.16.59.416.75.255.161.575.182.849.055l.128-.078L11.95 16.6l6.246 4.749.142.084c.27.118.579.097.83-.055.25-.152.411-.418.43-.71L19.6 4.972c-.065-1.536-1.36-2.73-2.896-2.67zm-9.66 1.399l9.825.002c.729.039 1.302.608 1.333 1.328L18.2 19.593l-6.25-4.75L5.7 19.587 5.7 5.002c.03-.7.619-1.279 1.343-1.301z" transform="translate(-501.000000, -1824.000000) translate(501.000000, 1824.000000) translate(0.000000, 0.000000)"/>
                </g>
            </g>
        </g>
    </g>
</svg>
