<?xml version="1.0" encoding="UTF-8"?>
<svg width="24px" height="24px" viewBox="0 0 24 24" version="1.1" xmlns="http://www.w3.org/2000/svg" xmlns:xlink="http://www.w3.org/1999/xlink">
    <title>ic/24/24_bookmark_fill</title>
    <g id="ic/24/24_bookmark_fill" stroke="none" stroke-width="1" fill="none" fill-rule="evenodd" >
        <g id="ic-24-24_bookmark2-fill" transform="translate(4.000000, 2.000000)" fill="#010505">
            <path d="M12.255809,0 L3.06419102,0 C1.37206088,0 0.000318371668,1.34314575 0.000318371668,3 L0.000318371668,18.82 C-0.00910646444,19.2203592 0.191248792,19.5976255 0.531389631,19.82 C0.72207584,19.9528799 0.950987485,20.0230342 1.1850158,20.02 C1.3428838,20.0210952 1.49930256,19.9904636 1.64459669,19.93 L7.66,15.17 L13.4302935,19.79 L13.6754033,19.93 C14.0407153,20.0856601 14.4624273,20.0439892 14.7886104,19.82 C15.1287512,19.5976255 15.3291065,19.2203592 15.3196816,18.82 L15.3196816,3 C15.3196816,1.34314575 13.9479391,0 12.255809,0 Z" id="Path"></path>
        </g>
    </g>
</svg>