<svg xmlns="http://www.w3.org/2000/svg" width="24" height="24" viewBox="0 0 24 24">
    <g fill="none"  fill-rule="evenodd">
        <g fill="#010505">
            <path d="M12.6 20c3.36 0 5.4-1.73 5.4-4.546 0-2.118-.918-3.681-3.056-3.892-.036.004-.054-.01-.054-.042 0-.031.018-.047.054-.047 1.615-.266 2.292-1.763 2.292-3.481C17.236 5.563 15.393 4 12.535 4H6.622C6.28 4 6 4.279 6 4.622v14.756c0 .343.279.622.622.622H12.6zm-1.21-9.347H9.08c-.147 0-.266-.119-.266-.266V6.495c0-.147.119-.266.266-.266h2.744c1.68 0 2.63.787 2.63 2.184 0 1.486-1.102 2.24-3.066 2.24zm.566 7.118H9.081c-.147 0-.266-.12-.266-.266v-4.336c0-.148.119-.267.266-.267h2.755c2.16 0 3.295.722 3.295 2.352 0 1.641-1.102 2.517-3.175 2.517z" transform="translate(-1358.000000, -388.000000) translate(1358.000000, 388.000000)"/>
        </g>
    </g>
</svg>
