<svg xmlns="http://www.w3.org/2000/svg" width="24" height="24" viewBox="0 0 24 24">
    <g fill="none" fill-rule="evenodd">
        <g fill="#010505">
            <g transform="translate(-465.000000, -1901.000000) translate(465.000000, 1901.000000) translate(-0.000000, -0.000000)">
                <path d="M5.87 2.97c.404 0 .764.244.92.608l.04.113.602 2.069 13.061.002c.284.012.554.124.762.313l.099.102c.218.25.323.58.291.91l-.035.185-1.742 5.934-.01.08c-.241 1.36-1.385 2.382-2.766 2.469l-.182.006H8.852c-.57.012-1.07-.382-1.183-.911L5.78 7.18l-.032-.07-.04-.11-.59-2.03H3c-.513 0-.936-.385-.993-.883L2 3.971c0-.513.386-.936.883-.993L3 2.97h2.87zm13.512 4.79H7.985l1.475 6h7.447c.467 0 .865-.325.97-.77l.02-.114.033-.167 1.452-4.95z"/>
                <circle cx="10.73" cy="18.391" r="1.34"/>
                <circle cx="16.42" cy="18.391" r="1.34"/>
            </g>
        </g>
    </g>
</svg>
