<?xml version="1.0" encoding="UTF-8"?>
<svg width="24px" height="24px" viewBox="0 0 24 24" version="1.1" xmlns="http://www.w3.org/2000/svg" xmlns:xlink="http://www.w3.org/1999/xlink">
    <!-- Generator: sketchtool 62 (101010) - https://sketch.com -->
    <title>072F4273-7AFA-4DCB-9116-74D915BD3DF7</title>
    <desc>Created with sketchtool.</desc>
    <g id="⚪️Element/Icons" stroke="none" stroke-width="1" fill="none" fill-rule="evenodd">
        <g id="Element/Icons" transform="translate(-1652.000000, -1861.000000)" fill="#AEB8BD" stroke="#AEB8BD" stroke-width="0.6">
            <g id="ic/24/24_close_bold_g" transform="translate(1652.000000, 1861.000000)">
                <g id="ic_appbar_close">
                    <path d="M12.9359559,11.9998824 L19.3061029,5.62968845 C19.5646324,5.37115714 19.5646324,4.95203641 19.3061029,4.6935051 C19.0480147,4.43541497 18.6288971,4.43541497 18.3703676,4.6935051 L12.0002206,11.0641402 L5.62963235,4.6935051 C5.37154412,4.43541497 4.95242647,4.43541497 4.69389706,4.6935051 C4.43536765,4.95203641 4.43536765,5.37115714 4.69389706,5.62968845 L11.0644853,11.9998824 L4.69389706,18.3700763 C4.43536765,18.6286076 4.43536765,19.0477283 4.69389706,19.3062596 C4.82316176,19.4355253 4.99257353,19.4999375 5.16198529,19.4999375 C5.33139706,19.4999375 5.50036765,19.4355253 5.62963235,19.3062596 L12.0002206,12.9356245 L18.3703676,19.3062596 C18.4996324,19.4355253 18.6690441,19.4999375 18.8384559,19.4999375 C19.0078676,19.4999375 19.1768382,19.4355253 19.3061029,19.3062596 C19.5646324,19.0477283 19.5646324,18.6286076 19.3061029,18.3700763 L12.9359559,11.9998824 Z"></path>
                </g>
            </g>
        </g>
    </g>
</svg>