<svg xmlns="http://www.w3.org/2000/svg" width="24" height="24" viewBox="0 0 24 24">
    <g fill="none" fill-rule="evenodd">
        <g fill="#010505">
            <g transform="translate(-501.000000, -1901.000000) translate(501.000000, 1901.000000) translate(0.000000, 0.000000)">
                <path d="M5.87 3.27c.277 0 .524.163.636.41l.036.095.665 2.285 13.273.001c.208.01.405.09.56.225l.088.087c.164.189.243.437.219.685l-.025.13-1.748 5.954-.013.097c-.219 1.22-1.243 2.135-2.481 2.216l-.17.006H8.845c-.426.009-.8-.286-.885-.683L6.064 7.072l-.03-.058-.036-.098-.654-2.245H3c-.354 0-.647-.264-.694-.605L2.3 3.97c0-.355.263-.647.605-.694L3 3.271h2.87zm13.912 4.19H7.602l1.623 6.6h7.683c.614-.001 1.137-.432 1.265-1.021l.022-.129.023-.116 1.564-5.334z"/>
                <circle cx="10.73" cy="18.391" r="1.34"/>
                <circle cx="16.42" cy="18.391" r="1.34"/>
            </g>
        </g>
    </g>
</svg>
