<svg xmlns="http://www.w3.org/2000/svg" width="24" height="24" viewBox="0 0 24 24">
    <g fill="none" fill-rule="evenodd">
        <path d="M0 0H24V24H0z"/>
        <circle cx="12" cy="12" r="12" fill="#1A1F23" fill-opacity=".4"/>
        <path fill="#FFF" stroke="#FFF" stroke-width=".6" d="M12.624 12l4.247-4.247c.172-.172.172-.452 0-.624s-.452-.172-.624 0L12 11.376 7.753 7.13c-.172-.172-.451-.172-.624 0-.172.172-.172.452 0 .624L11.376 12 7.13 16.247c-.172.172-.172.451 0 .624.086.086.2.129.312.129.113 0 .226-.043.312-.13L12 12.625l4.247 4.247c.086.086.199.129.312.129.113 0 .226-.043.312-.13.172-.172.172-.45 0-.623L12.624 12z"/>
    </g>
</svg>
