<svg xmlns="http://www.w3.org/2000/svg" width="24" height="24" viewBox="0 0 24 24">
    <g fill="none" fill-rule="evenodd">
        <g fill="#010505">
            <g>
                <g transform="translate(-428.000000, -1901.000000) translate(428.000000, 1901.000000) translate(-0.000000, -0.000000) translate(2.000000, 4.000000)">
                    <circle cx="8.73" cy="15.391" r="1.34"/>
                    <circle cx="14.42" cy="15.391" r="1.34"/>
                    <path d="M19.35 3.13c-.228-.258-.555-.407-.9-.41h-13l-.59-2c-.128-.44-.54-.737-1-.72H1C.448 0 0 .45 0 1c0 .553.448 1 1 1h2.12l.59 2 2 7.83c.133.532.612.904 1.16.9h8.04c1.493.018 2.771-1.064 3-2.54l1.7-5.96v-.16c.045-.335-.049-.675-.26-.94z"/>
                </g>
            </g>
        </g>
    </g>
</svg>
