<?xml version="1.0" encoding="UTF-8"?>
<svg width="24px" height="24px" viewBox="0 0 24 24" version="1.1" xmlns="http://www.w3.org/2000/svg" xmlns:xlink="http://www.w3.org/1999/xlink">
    <!-- Generator: sketchtool 62 (101010) - https://sketch.com -->
    <title>7A75F486-D610-4556-BA7F-D3D93F43B081</title>
    <desc>Created with sketchtool.</desc>
    <g id="⚪️Element/Icons" stroke="none" stroke-width="1" fill="none" fill-rule="evenodd">
        <g id="Element/Icons" transform="translate(-1652.000000, -1814.000000)">
            <g id="ic/24/24_delete_g" transform="translate(1652.000000, 1814.000000)">
                <g>
                    <circle id="Oval" fill="#1F262A" cx="12" cy="12" r="9"></circle>
                    <path d="M8.84193043,8.14432634 L12.0001091,11.3025283 L15.158162,8.14423348 C15.3508162,7.9519067 15.6630873,7.9519067 15.8555055,8.14432634 C16.0481648,8.33698708 16.0481648,8.64933019 15.8555055,8.84199093 L12.6975477,11.999972 L15.8555055,15.157953 C16.0481648,15.3506137 16.0481648,15.6629568 15.8555055,15.8556176 C15.7618274,15.9492964 15.6367582,16 15.5069004,16 C15.3770116,16 15.2517323,15.9492815 15.1580653,15.8556138 L12.0001091,12.6974157 L8.84193043,15.8556176 C8.74825233,15.9492964 8.62318311,16 8.49332535,16 C8.36343657,16 8.23815724,15.9492815 8.14449402,15.8556176 C7.9518347,15.6629568 7.9518347,15.3506137 8.14449779,15.1579492 L11.3026705,11.999972 L8.14449402,8.84199093 C7.9518347,8.64933019 7.9518347,8.33698708 8.14458696,8.14423348 C8.33724109,7.9519067 8.64951221,7.9519067 8.84193043,8.14432634 Z" id="Combined-Shape" fill="white"></path>
                </g>
            </g>
        </g>
    </g>
</svg>
