<svg xmlns="http://www.w3.org/2000/svg" width="24" height="24" viewBox="0 0 24 24">
    <g fill="none" fill-opacity=".86" fill-rule="evenodd">
        <g fill="#010505">
            <g>
                <g>
                    <path d="M20.66 11.705c-.543-.77-1.427-1.23-2.37-1.23H14.1l1.33-3.56c.29-.767.255-1.62-.1-2.36-.316-.676-.9-1.19-1.61-1.42-1.15-.368-2.407.033-3.13 1l-4.84 6.36H2.81c-.215 0-.42.086-.573.237-.152.152-.237.358-.237.573v10.28c0 .448.363.81.81.81h14.71c.386-.002.73-.24.87-.6l2.64-7.42c.326-.896.188-1.896-.37-2.67zM5.4 20.995h-2v-9.1h2v9.1zm14.31-7.09l-2.52 7.09H6.8v-9.56l4.9-6.46c.374-.481 1.01-.677 1.59-.49.344.118.626.37.78.7.175.402.175.858 0 1.26l-1.58 4.36c-.09.252-.052.53.1.75l.29.34h5.41c.49-.002.95.237 1.23.64.29.396.36.91.19 1.37z" transform="translate(-501.000000, -1687.000000) translate(501.000000, 1687.000000) translate(0.000000, 0.000000) translate(11.601965, 12.697603) rotate(-180.000000) translate(-11.601965, -12.697603)"/>
                </g>
            </g>
        </g>
    </g>
</svg>
