<?xml version="1.0" encoding="UTF-8"?>
<svg width="24px" height="24px" viewBox="0 0 24 24" version="1.1" xmlns="http://www.w3.org/2000/svg" xmlns:xlink="http://www.w3.org/1999/xlink">
    <!-- Generator: sketchtool 62 (101010) - https://sketch.com -->
    <title>EC30A67A-5737-46E4-A909-27A99BEC0CE3</title>
    <desc>Created with sketchtool.</desc>
    <g id="⚪️Element/Icons" stroke="none" stroke-width="1" fill="none" fill-rule="evenodd">
        <g id="Element/Icons" transform="translate(-1243.000000, -1634.000000)">
            <g id="ic/24/24_downarrow_b" transform="translate(1243.000000, 1634.000000)">
                <g id="Group-2">
                    <g transform="translate(12.000000, 12.000000) scale(-1, 1) translate(-12.000000, -12.000000) ">
                        <rect id="48" x="0" y="0" width="24" height="24"></rect>
                        <rect id="14" x="5" y="5" width="14" height="14"></rect>
                        <path d="M14.7087684,5.72905127 C15.004226,5.42360183 15.483805,5.42360183 15.7795392,5.72933784 C16.07351,6.03429004 16.07351,6.5277621 15.7793963,6.83286246 L15.7793963,6.83286246 L9.82389772,12.9999367 L15.7795392,19.1671591 C16.07351,19.4721113 16.07351,19.9655834 15.7794009,20.2706789 C15.6358116,20.419378 15.4435114,20.5 15.2440155,20.5 C15.0445195,20.5 14.8522194,20.419378 14.70863,20.2706789 L14.70863,20.2706789 L8.22046075,13.5516249 C7.92649004,13.2466727 7.92649004,12.7532007 8.22059905,12.4481051 L8.22059905,12.4481051 Z" id="Combined-Shape" fill="#1F262A" transform="translate(12.000000, 13.000000) rotate(-90.000000) translate(-12.000000, -13.000000) "></path>
                    </g>
                </g>
            </g>
        </g>
    </g>
</svg>