<?xml version="1.0" encoding="UTF-8"?>
<svg width="24px" height="24px" viewBox="0 0 24 24" version="1.1" xmlns="http://www.w3.org/2000/svg" xmlns:xlink="http://www.w3.org/1999/xlink">
    <!-- Generator: sketchtool 62 (101010) - https://sketch.com -->
    <title>75890EA9-AE38-4ED3-807E-BCADB3CBC1EA</title>
    <desc>Created with sketchtool.</desc>
    <g id="⚪️Element/Icons" stroke="none" stroke-width="1" fill="none" fill-rule="evenodd">
        <g id="Element/Icons" transform="translate(-1652.000000, -1766.000000)" fill="#AEB8BD">
            <g id="ic/24/24_direction_g" transform="translate(1652.000000, 1766.000000)">
                <g id="Group-Copy">
                    <g transform="translate(12.000000, 12.500000) scale(-1, -1) rotate(-45.000000) translate(-12.000000, -12.500000) translate(5.000000, 5.500000)">
                        <path d="M2.52077562,11.5955679 L2.52077562,1.47368421 C2.52077562,0.895391592 2.05197683,0.426592798 1.47368421,0.426592798 C0.895391592,0.426592798 0.426592798,0.895391592 0.426592798,1.47368421 L0.426592798,12.6426593 C0.426592798,13.2209519 0.895391592,13.6897507 1.47368421,13.6897507 L12.6426593,13.6897507 C13.2209519,13.6897507 13.6897507,13.2209519 13.6897507,12.6426593 C13.6897507,12.0643667 13.2209519,11.5955679 12.6426593,11.5955679 L2.52077562,11.5955679 Z" id="Line-3"></path>
                        <path d="M2.56425506,13.0328976 L12.7996884,2.76601295 C13.2079753,2.35647151 13.2069582,1.69349067 12.7974168,1.28520381 C12.3878753,0.876916949 11.7248945,0.877933986 11.3166076,1.28747543 L1.08117431,11.55436 C0.672887445,11.9639015 0.673904481,12.6268823 1.08344592,13.0351692 C1.49298736,13.443456 2.15596819,13.442439 2.56425506,13.0328976 Z" id="Line"></path>
                    </g>
                </g>
            </g>
        </g>
    </g>
</svg>