<?xml version="1.0" encoding="UTF-8"?>
<svg width="24px" height="24px" viewBox="0 0 24 24" version="1.1" xmlns="http://www.w3.org/2000/svg" xmlns:xlink="http://www.w3.org/1999/xlink">
    <!-- Generator: sketchtool 62 (101010) - https://sketch.com -->
    <title>7B712F05-1934-4DC5-B273-B197DB57A796</title>
    <desc>Created with sketchtool.</desc>
    <g id="⚪️Element/Icons" stroke="none" stroke-width="1" fill="none" fill-rule="evenodd">
        <g id="Element/Icons" transform="translate(-1456.000000, -1718.000000)" fill="#FFFFFF">
            <g id="ic/24/24_download_w" transform="translate(1456.000000, 1718.000000)">
                <g id="Combined-Shape">
                    <path d="M20.66127,16.2998279 C21.0570047,16.2998279 21.3806167,16.6152598 21.3907463,17.0108648 L21.4238519,18.303792 L21.42254,18.3272879 C21.42254,19.3172032 20.6120157,20.1223679 19.6158438,20.1223679 L4.12923619,20.1223679 C3.15644385,20.1223679 2.36068728,19.3545531 2.32387127,18.3966727 L2.32080396,18.3506933 L2.32080396,18.3506933 L2.32114808,18.303792 L2.35425375,17.0108648 C2.36438329,16.6152598 2.68799531,16.2998279 3.08373,16.2998279 C3.44436437,16.2998279 3.74288631,16.5669072 3.79170836,16.9144493 L3.79869161,17.0110883 L3.80524933,18.2745578 L3.80714472,18.3140109 L3.80706822,18.3263449 L3.80706822,18.3263449 L3.80660366,18.3272879 C3.80660366,18.5037206 3.95129622,18.6474564 4.12923619,18.6474564 L19.6158438,18.6474564 C19.7937838,18.6474564 19.9384764,18.5037206 19.9384764,18.3272879 L19.9383936,18.2942647 L19.9397507,18.2745578 L19.9463084,17.0110883 C19.9483503,16.6176743 20.2678507,16.2998279 20.66127,16.2998279 Z M11.9582703,4.0000009 L12.0687802,4.00827983 C12.4293571,4.06225296 12.7056206,4.37355555 12.7050445,4.7490698 L12.7050445,4.7490698 L12.6919618,13.6484795 L17.0535609,9.28568548 L17.1374463,9.21326849 C17.4302445,8.9960175 17.845754,9.0201565 18.111283,9.28568548 C18.4033649,9.57776736 18.4033649,10.0513257 18.111283,10.3434075 L18.111283,10.3434075 L12.4700987,15.9845918 L12.3862133,16.0570088 C12.0934151,16.2742598 11.6779056,16.2501208 11.4123766,15.9845918 L11.4123766,15.9845918 L5.77119234,10.3434075 L5.69877535,10.2595221 C5.48152436,9.96672395 5.50566336,9.55121446 5.77119234,9.28568548 L5.77119234,9.28568548 L5.84778353,9.21875005 C6.14094035,8.99563195 6.56117267,9.01794376 6.8289144,9.28568548 L6.8289144,9.28568548 L11.1964309,13.652015 L11.2092014,4.74677512 L11.2161847,4.64529707 C11.2662695,4.28031197 11.5796268,3.99942005 11.9582703,4.0000009 L11.9582703,4.0000009 Z"></path>
                </g>
            </g>
        </g>
    </g>
</svg>