<svg xmlns="http://www.w3.org/2000/svg" width="24" height="24" viewBox="0 0 24 24">
    <path fill="#AEB8BD" d="M18.041 11.5c3.019 0 5.459 2.466 5.459 5.5s-2.44 5.5-5.459 5.5l-.302-.004C14.823 22.379 12.5 19.96 12.5 17c0-3.034 2.44-5.5 5.459-5.5zM12 11.919c.723 0 1.428.04 2.109.117-.667.59-1.103 1.057-1.31 1.402-.261-.013-.528-.02-.799-.02-4.84 0-8.59 1.967-8.745 3.898l-.005.123v1.3c0 .653.496 1.19 1.131 1.254l.13.007 7.853-.002c.19.277.462.611.814 1.002.166.183.324.35.477.501L4.51 21.5c-1.524 0-2.76-1.236-2.76-2.76v-1.3c0-2.993 4.42-5.43 9.937-5.519L12 11.92zM18.041 13l-.28.005C15.667 13.109 14 14.858 14 17c0 2.21 1.772 4 3.959 4h.082C20.228 21 22 19.21 22 17s-1.772-4-3.959-4zm-2.291 3.25h4.5c.414 0 .75.336.75.75s-.336.75-.75.75h-4.5c-.414 0-.75-.336-.75-.75s.336-.75.75-.75zM12.032 2.5c2.29 0 4.145 1.856 4.145 4.145 0 2.29-1.856 4.146-4.145 4.146h-.087C9.656 10.79 7.8 8.935 7.8 6.645S9.656 2.5 11.945 2.5h.087zm0 1.5h-.087C10.485 4 9.3 5.184 9.3 6.645c0 1.405 1.095 2.554 2.478 2.64l.167.006h.087c1.461 0 2.645-1.185 2.645-2.646 0-1.46-1.184-2.645-2.645-2.645z"/>
</svg>
