<svg xmlns="http://www.w3.org/2000/svg" width="24" height="24" viewBox="0 0 24 24">
    <g fill="none"  fill-rule="evenodd">
        <g fill="#010505">
            <g>
                <g>
                    <path d="M21.26 11.623c-.504-.72-1.33-1.147-2.21-1.14h-4.47l1.43-3.83c.263-.717.227-1.51-.1-2.2-.294-.625-.833-1.103-1.49-1.32-1.063-.352-2.232.01-2.91.9l-4.9 6.45h-3c-.337 0-.61.274-.61.61v10.27c0 .337.273.61.61.61h14.67c.306-.006.577-.201.68-.49l2.64-7.43c.293-.816.166-1.725-.34-2.43zm-14.9 9.35h-2.4v-9.49h2.4v9.49zm14.3-7.22l-2.57 7.22H7.36v-9.83l5-6.51c.418-.552 1.142-.777 1.8-.56.396.134.721.423.9.8.21.447.231.958.06 1.42l-1.63 4.36c-.068.188-.042.396.07.56l.24.26h5.3c.553 0 1.071.269 1.39.72.311.46.375 1.044.17 1.56z" transform="translate(-535.000000, -1687.000000) translate(535.000000, 1687.000000) translate(0.000000, 0.000000) translate(12.377474, 12.486737) rotate(-180.000000) translate(-12.377474, -12.486737)"/>
                </g>
            </g>
        </g>
    </g>
</svg>
