<?xml version="1.0" encoding="UTF-8"?>
<svg width="24px" height="24px" viewBox="0 0 24 24" version="1.1" xmlns="http://www.w3.org/2000/svg" xmlns:xlink="http://www.w3.org/1999/xlink">
    <title>ic/24/24_dotmenu_b</title>
    <g id="ic/24/24_dotmenu_b" stroke="none" stroke-width="1" fill="none" fill-rule="evenodd">
        <path d="M4.85294118,3 C5.87629233,3 6.70588235,3.82959002 6.70588235,4.85294118 C6.70588235,5.87629233 5.87629233,6.70588235 4.85294118,6.70588235 C3.82959002,6.70588235 3,5.87629233 3,4.85294118 C3,3.82959002 3.82959002,3 4.85294118,3 Z M4.85294118,10.1470588 C5.87629233,10.1470588 6.70588235,10.9766488 6.70588235,12 C6.70588235,13.0233512 5.87629233,13.8529412 4.85294118,13.8529412 C3.82959002,13.8529412 3,13.0233512 3,12 C3,10.9766488 3.82959002,10.1470588 4.85294118,10.1470588 Z M12,3 C13.0233512,3 13.8529412,3.82959002 13.8529412,4.85294118 C13.8529412,5.87629233 13.0233512,6.70588235 12,6.70588235 C10.9766488,6.70588235 10.1470588,5.87629233 10.1470588,4.85294118 C10.1470588,3.82959002 10.9766488,3 12,3 Z M12,10.1470588 C13.0233512,10.1470588 13.8529412,10.9766488 13.8529412,12 C13.8529412,13.0233512 13.0233512,13.8529412 12,13.8529412 C10.9766488,13.8529412 10.1470588,13.0233512 10.1470588,12 C10.1470588,10.9766488 10.9766488,10.1470588 12,10.1470588 Z M19.1470588,3 C20.17041,3 21,3.82959002 21,4.85294118 C21,5.87629233 20.17041,6.70588235 19.1470588,6.70588235 C18.1237077,6.70588235 17.2941176,5.87629233 17.2941176,4.85294118 C17.2941176,3.82959002 18.1237077,3 19.1470588,3 Z M19.1470588,10.1470588 C20.17041,10.1470588 21,10.9766488 21,12 C21,13.0233512 20.17041,13.8529412 19.1470588,13.8529412 C18.1237077,13.8529412 17.2941176,13.0233512 17.2941176,12 C17.2941176,10.9766488 18.1237077,10.1470588 19.1470588,10.1470588 Z M4.85294118,17.2941176 C5.87629233,17.2941176 6.70588235,18.1237077 6.70588235,19.1470588 C6.70588235,20.17041 5.87629233,21 4.85294118,21 C3.82959002,21 3,20.17041 3,19.1470588 C3,18.1237077 3.82959002,17.2941176 4.85294118,17.2941176 Z M12,17.2941176 C13.0233512,17.2941176 13.8529412,18.1237077 13.8529412,19.1470588 C13.8529412,20.17041 13.0233512,21 12,21 C10.9766488,21 10.1470588,20.17041 10.1470588,19.1470588 C10.1470588,18.1237077 10.9766488,17.2941176 12,17.2941176 Z M19.1470588,17.2941176 C20.17041,17.2941176 21,18.1237077 21,19.1470588 C21,20.17041 20.17041,21 19.1470588,21 C18.1237077,21 17.2941176,20.17041 17.2941176,19.1470588 C17.2941176,18.1237077 18.1237077,17.2941176 19.1470588,17.2941176 Z" id="Combined-Shape" fill="#010505"></path>
    </g>
</svg>