<?xml version="1.0" encoding="UTF-8"?>
<svg width="24px" height="24px" viewBox="0 0 24 24" version="1.1" xmlns="http://www.w3.org/2000/svg" xmlns:xlink="http://www.w3.org/1999/xlink">
    <title>ic/24/24_downcircle_g</title>
    <g id="ic/24/24_downcircle_g" stroke="none" stroke-width="1" fill="none" fill-rule="evenodd">
        <rect id="24" x="0" y="0" width="24" height="24"></rect>
        <circle id="Oval" fill-opacity="0.66" fill="#010505" transform="translate(12.000000, 12.000000) rotate(-90.000000) translate(-12.000000, -12.000000) " cx="12" cy="12" r="11"></circle>
        <path d="M7.46915559,10.4701847 C7.73516367,10.2036599 8.15180367,10.1790496 8.4456264,10.3966191 L8.52981526,10.4691556 L12.006,13.939 L15.4691546,10.4701857 C15.7351622,10.2036604 16.1518021,10.1790493 16.4456253,10.3966182 L16.5298143,10.4691546 C16.7963396,10.7351622 16.8209507,11.1518021 16.6033818,11.4456253 L16.5308454,11.5298143 L12.5386153,15.5298143 C12.2726074,15.7963399 11.8559668,15.8209507 11.5621436,15.603381 L11.4779547,15.5308444 L7.47018474,11.5308444 C7.17700747,11.2382355 7.1765467,10.763362 7.46915559,10.4701847 Z" id="back" fill="#FFFFFF" transform="translate(12.000000, 13.000000) scale(1, -1) rotate(180.000000) translate(-12.000000, -13.000000) "></path>
    </g>
</svg>