<svg xmlns="http://www.w3.org/2000/svg" width="24" height="24" viewBox="0 0 24 24">
    <g fill="none" fill-rule="evenodd">
        <g fill="#010505">
            <path d="M15.247 3.049c.608-.608 1.593-.608 2.201 0l3.993 3.993c.608.607.608 1.593 0 2.201L9.678 21.006c-.272.272-.635.434-1.02.454l-4.435.23c-.747.04-1.385-.535-1.424-1.282l-.001-.089.232-4.487c.02-.385.182-.748.454-1.02zm-2.481 4.6l-8.221 8.223c-.01.01-.016.024-.017.038l-.222 4.273 4.285-.223.026-.015 8.375-8.375-4.226-3.92zm3.622-3.54c-.022-.022-.058-.022-.08 0l-2.48 2.479 4.226 3.92 2.326-2.326c.015-.014.02-.035.015-.054l-.015-.026z" transform="translate(-1775 -703) translate(1775 703)"/>
        </g>
    </g>
</svg>
