<svg xmlns="http://www.w3.org/2000/svg" width="24" height="24" viewBox="0 0 24 24">
    <g fill="none" fill-rule="evenodd">
        <g fill="#010505">
            <g>
                <path d="M12 2.5c5.238 0 9.5 4.261 9.5 9.5 0 5.238-4.262 9.5-9.5 9.5S2.5 17.238 2.5 12c0-5.239 4.262-9.5 9.5-9.5zM12 4c-4.411 0-8 3.588-8 8 0 4.411 3.589 8 8 8s8-3.589 8-8c0-4.412-3.589-8-8-8z" transform="translate(-1358.000000, -832.000000) translate(1358.000000, 832.000000)"/>
                <path d="M10.636 10.416c0 .549-.445.994-.994.994-.548 0-.994-.445-.994-.994 0-.549.446-.994.994-.994.549 0 .994.445.994.994M15.352 10.416c0 .549-.445.994-.994.994-.548 0-.993-.445-.993-.994 0-.549.445-.994.993-.994.55 0 .994.445.994.994M12 16.573c-1.876 0-3.571-1.126-4.216-2.803-.148-.386.045-.82.431-.969.384-.147.821.043.97.431.423 1.101 1.554 1.841 2.815 1.841s2.392-.74 2.815-1.84c.15-.389.584-.578.97-.432.386.15.579.583.431.97-.645 1.676-2.34 2.802-4.216 2.802" transform="translate(-1358.000000, -832.000000) translate(1358.000000, 832.000000)"/>
            </g>
        </g>
    </g>
</svg>
