<svg xmlns="http://www.w3.org/2000/svg" width="24" height="24" viewBox="0 0 24 24">
    <g fill="none" fill-rule="evenodd">
        <g fill="#010505">
            <path d="M5.512 12.218c.283 0 .512.24.512.536v4.437l4.219-4.292c.18-.183.456-.2.654-.052l.07.063c.197.211.193.55-.01.757l-4.19 4.262h4.209c.251 0 .46.19.504.44l.008.096c0 .295-.23.535-.512.535H5.512C5.23 19 5 18.76 5 18.465v-5.711c0-.296.23-.536.512-.536zM18.488 5c.251 0 .46.19.504.44l.008.095v5.711c0 .296-.23.536-.512.536-.252 0-.46-.19-.504-.44l-.008-.096V6.831l-4.303 4.51c-.177.187-.453.208-.653.064l-.071-.062c-.178-.186-.199-.474-.06-.683l.059-.074 4.306-4.515h-4.23c-.251 0-.46-.19-.504-.44l-.008-.096c0-.262.181-.481.42-.526L13.024 5h5.464z" transform="translate(-1754 -1670) translate(1754 1670)"/>
        </g>
    </g>
</svg>
