<?xml version="1.0" encoding="UTF-8"?>
<svg width="24px" height="24px" viewBox="0 0 24 24" version="1.1" xmlns="http://www.w3.org/2000/svg" xmlns:xlink="http://www.w3.org/1999/xlink">
    <!-- Generator: sketchtool 62 (101010) - https://sketch.com -->
    <title>3C6F3CDA-D711-4AFD-A48C-BB4771FE0A7E</title>
    <desc>Created with sketchtool.</desc>
    <g id="⚪️Element/Icons" stroke="none" stroke-width="1" fill="none" fill-rule="evenodd">
        <g id="Element/Icons" transform="translate(-1839.000000, -1622.000000)">
            <g id="ic/24/24_file_b" transform="translate(1839.000000, 1622.000000)">
                <g id="ic/24/24_file_g">
                    <g id="ic_clip" transform="translate(1.500000, 1.500000)">
                        <rect opacity="0.5" x="0" y="0" width="21" height="21"></rect>
                        <path d="M11.5715958,2.11972006 C13.2170648,0.433961521 15.8633534,0.274429787 17.5756409,1.80814269 C19.4622768,3.49820469 19.5529517,6.46217878 17.790277,8.26799751 L17.790277,8.26799751 L9.60974526,16.4953681 C8.5300823,17.6014668 6.80241358,17.7451544 5.65441045,16.7790244 C4.33285276,15.6656625 4.24273577,13.640485 5.44441641,12.4089057 L5.44441641,12.4089057 L11.294694,6.63974638 C11.5797025,6.34701077 12.0448454,6.34701077 12.330361,6.63951725 C12.612061,6.92811472 12.612061,7.39440394 12.3269858,7.68639362 L12.3269858,7.68639362 L6.51100274,13.4209105 C6.01494902,13.9291101 5.91521381,14.7215792 6.2844463,15.2947454 C6.79370614,16.0853815 7.85494779,16.1887851 8.49253421,15.5351778 L8.49253421,15.5351778 L16.6792973,7.30142335 C17.7320733,6.22287002 17.8841449,4.51460466 17.0070018,3.35071586 C15.940105,1.93600894 13.9255395,1.81238551 12.7086423,3.05862258 L12.7086423,3.05862258 L4.00570459,11.9751438 C2.44900085,13.5699637 2.30236754,16.130019 3.7078398,17.77632 C5.29677835,19.6377221 8.24153433,19.8585798 9.86181064,18.1990851 L9.86181064,18.1990851 L18.5026987,9.34662412 C18.7877071,9.0538885 19.25285,9.0538885 19.5381419,9.34616612 C19.8205821,9.63478187 19.8205821,10.1007525 19.5383656,10.3898791 L19.5383656,10.3898791 L11.0065201,19.130628 C8.99385967,21.1925687 5.49113704,21.2909126 3.25630862,19.395505 C0.737886617,17.2595406 0.571624892,13.3885358 2.86243767,11.0416322 L2.86243767,11.0416322 Z" id="Combined-Shape" fill-opacity="0.85" fill="#17CEDF"></path>
                    </g>
                </g>
            </g>
        </g>
    </g>
</svg>