<?xml version="1.0" encoding="UTF-8"?>
<svg width="24px" height="24px" viewBox="0 0 24 24" version="1.1" xmlns="http://www.w3.org/2000/svg" xmlns:xlink="http://www.w3.org/1999/xlink">
    <title>ic/24/24_file_g</title>
    <g id="ic/24/24_file_g" stroke="none" stroke-width="1" fill="none" fill-rule="evenodd" >
        <path d="M10.3189141,3 C12.432823,3 14.1229904,4.83669354 14.2333195,7.10982544 L14.2390499,7.34647645 L14.2390499,16.2756953 C14.2390499,17.6595997 13.2192759,18.8154155 11.9118892,18.8154155 C10.664822,18.8154155 9.67922374,17.7620238 9.59220048,16.4628729 L9.58595014,16.2756953 L9.58595014,7.78625485 C9.58595014,7.38145001 9.91410929,7.05329086 10.3189141,7.05329086 C10.6832385,7.05329086 10.9854798,7.31909977 11.0422849,7.66736428 L11.0518781,7.78625485 L11.0518781,16.2756953 C11.0518781,16.8878679 11.4589485,17.3494875 11.9118892,17.3494875 C12.3310315,17.3494875 12.710204,16.9562748 12.7660581,16.4141795 L12.7731219,16.2756953 L12.7731219,7.34647645 C12.7731219,5.73699887 11.6522172,4.46592798 10.3189141,4.46592798 C9.04389679,4.46592798 7.96372302,5.62856476 7.87220511,7.13850008 L7.86592798,7.34647645 L7.86592798,15.3802576 C7.86592798,17.9876684 9.69892725,20.0663407 11.9118892,20.0663407 C14.0537537,20.0663407 15.8403597,18.11932 15.9533958,15.6308567 L15.959072,15.3802576 L15.959072,7.78625485 C15.959072,7.38145001 16.2872312,7.05329086 16.692036,7.05329086 C17.0563604,7.05329086 17.3586017,7.31909977 17.4154067,7.66736428 L17.425,7.78625485 L17.425,15.3802576 C17.425,18.7588915 14.9785376,21.5322687 11.9118892,21.5322687 C8.9282867,21.5322687 6.53263793,18.9069818 6.40532281,15.6528483 L6.4,15.3802576 L6.4,7.34647645 C6.4,4.96535494 8.13224723,3 10.3189141,3 Z" id="Stroke-1" fill="#010505" transform="translate(11.912500, 12.266134) scale(-1, 1) translate(-11.912500, -12.266134) "></path>
    </g>
</svg>