<?xml version="1.0" encoding="UTF-8"?>
<svg width="24px" height="24px" viewBox="0 0 24 24" version="1.1" xmlns="http://www.w3.org/2000/svg" xmlns:xlink="http://www.w3.org/1999/xlink">
    <!-- Generator: sketchtool 62 (101010) - https://sketch.com -->
    <title>D6859002-F079-4594-A4E8-FD916A6B9552</title>
    <desc>Created with sketchtool.</desc>
    <g id="⚪️Element/Icons" stroke="none" stroke-width="1" fill="none" fill-rule="evenodd">
        <g id="Element/Icons" transform="translate(-1207.000000, -896.000000)" fill="#1A1F23">
            <g id="ic/24/24_forum_lock_b" transform="translate(1207.000000, 896.000000)">
                <g id="ic/24/24_forum_lock">
                    <g id="Group-4" transform="translate(2.000000, 3.000000)">
                        <g id="Group-2" transform="translate(0.000000, 0.555556)">
                            <g id="Group">
                                <path d="M17.1506173,4 C18.4210797,4 19.4614517,4.98513446 19.5495172,6.2331874 L19.5555556,6.40493827 L19.5555556,15.9654321 C19.5555556,17.2358945 18.5704211,18.2762665 17.3223682,18.364332 L17.1506173,18.3703704 L6.40493827,18.3703704 C5.13447583,18.3703704 4.09410388,17.3852359 4.00603838,16.137183 L4,15.9654321 L4,14.7775608 L5.33333333,14.7775608 L5.33333333,15.9654321 C5.33333333,16.5149895 5.74701591,16.9679262 6.2799665,17.0298276 L6.40493827,17.037037 L17.1506173,17.037037 C17.7001747,17.037037 18.1531114,16.6233545 18.2150128,16.0904039 L18.2222222,15.9654321 L18.2222222,6.40493827 C18.2222222,5.85538085 17.8085396,5.40244418 17.2755891,5.3405428 L17.1506173,5.33333333 L15.8669705,5.33333333 L15.8669705,4 L17.1506173,4 Z" id="Rectangle-Copy-4"></path>
                                <path d="M13.5950617,0.444444444 C14.9232725,0.444444444 16,1.52117198 16,2.84938272 L16,2.84938272 L16,12.4098765 C16,13.7380873 14.9232725,14.8148148 13.5950617,14.8148148 L13.5950617,14.8148148 L2.84938272,14.8148148 C1.52117198,14.8148148 0.444444444,13.7380873 0.444444444,12.4098765 L0.444444444,12.4098765 L0.444444444,7.77728571 L1.77744444,7.77728571 L1.77777778,12.4098765 C1.77777778,12.9622522 2.19571413,13.4170136 2.73261955,13.4751934 L2.84938272,13.4814815 L13.5950617,13.4814815 C14.1868928,13.4814815 14.6666667,13.0017076 14.6666667,12.4098765 L14.6666667,12.4098765 L14.6666667,2.84938272 C14.6666667,2.25755165 14.1868928,1.77777778 13.5950617,1.77777778 L13.5950617,1.77777778 L8.88844444,1.77728571 L8.88844444,0.444285714 Z" id="Combined-Shape"></path>
                            </g>
                            <path d="M11.7777778,5.31851852 C12.0723296,5.31851852 12.3111111,5.55729999 12.3111111,5.85185185 C12.3111111,6.11367573 12.1224443,6.33143411 11.8736451,6.37659247 L11.7777778,6.38518519 L8.9026331,6.38518519 L8.9026331,5.31851852 L11.7777778,5.31851852 Z" id="Line-2"></path>
                            <path d="M4.67080091,8.8740901 L9.44857869,8.91112714 C9.7431217,8.91341041 9.98004503,9.15403567 9.97777812,9.44857869 C9.97573217,9.7103947 9.785383,9.92668405 9.53624127,9.96991243 L9.4403102,9.97776175 L4.66253242,9.94072472 C4.36798941,9.93844144 4.13106608,9.69781618 4.13333299,9.40327316 C4.13537894,9.14145715 4.32572811,8.9251678 4.57486984,8.88193942 L4.67080091,8.8740901 Z" id="Line-2-Copy"></path>
                        </g>
                        <rect id="Rectangle" x="1.11111111" y="2.77777778" width="6.66666667" height="4.44444444" rx="0.679999987"></rect>
                        <path d="M4.44444444,0 C5.91720378,0 7.12226519,1.14615104 7.21631369,2.59513812 L7.22222222,2.77777778 L6.11111111,2.77777778 C6.11111111,1.85730319 5.36491903,1.11111111 4.44444444,1.11111111 C3.57811543,1.11111111 2.86616814,1.77209787 2.78540731,2.61726665 L2.77777778,2.77777778 L1.66666667,2.77777778 C1.66666667,1.24365347 2.91032014,0 4.44444444,0 Z" id="Path-4"></path>
                    </g>
                </g>
            </g>
        </g>
    </g>
</svg>