<?xml version="1.0" encoding="UTF-8"?>
<svg width="24px" height="24px" viewBox="0 0 24 24" version="1.1" xmlns="http://www.w3.org/2000/svg" xmlns:xlink="http://www.w3.org/1999/xlink">
    <!-- Generator: sketchtool 62 (101010) - https://sketch.com -->
    <title>AA8A1DFE-C869-4333-B7FA-030C7CB8C578</title>
    <desc>Created with sketchtool.</desc>
    <g id="⚪️Element/Icons" stroke="none" stroke-width="1" fill="none" fill-rule="evenodd">
        <g id="Element/Icons" transform="translate(-1243.000000, -896.000000)" fill="#1A1F23">
            <g id="ic/24/24_forum_b" transform="translate(1243.000000, 896.000000)">
                <g id="ic/24/24_forum_g">
                    <g id="Group-2" transform="translate(3.000000, 4.000000)">
                        <g id="Group">
                            <path d="M16.24,2.925 C17.5310208,2.925 18.5873777,3.929716 18.6698206,5.19989808 L18.675,5.36 L18.675,15.04 C18.675,16.3310208 17.670284,17.3873777 16.4001019,17.4698206 L16.24,17.475 L5.36,17.475 C4.06897917,17.475 3.01262233,16.470284 2.93017942,15.2001019 L2.925,15.04 L2.925,13.8372803 L4.275,13.8372803 L4.275,15.04 C4.275,15.5992804 4.69816056,16.0597263 5.2417773,16.1186334 L5.36,16.125 L16.24,16.125 C16.7992804,16.125 17.2597263,15.7018394 17.3186334,15.1582227 L17.325,15.04 L17.325,5.36 C17.325,4.80071964 16.9018394,4.34027373 16.3582227,4.28136663 L16.24,4.275 L14.9403076,4.275 L14.9403076,2.925 L16.24,2.925 Z" id="Rectangle-Copy-4"></path>
                            <path d="M12.64,-0.675 L1.76,-0.675 C0.415186634,-0.675 -0.675,0.415186634 -0.675,1.76 L-0.675,11.44 C-0.675,12.7848134 0.415186634,13.875 1.76,13.875 L12.64,13.875 C13.9848134,13.875 15.075,12.7848134 15.075,11.44 L15.075,1.76 C15.075,0.415186634 13.9848134,-0.675 12.64,-0.675 Z M1.76,0.675 L12.64,0.675 C13.239229,0.675 13.725,1.16077105 13.725,1.76 L13.725,11.44 C13.725,12.039229 13.239229,12.525 12.64,12.525 L1.76,12.525 C1.16077105,12.525 0.675,12.039229 0.675,11.44 L0.675,1.76 C0.675,1.16077105 1.16077105,0.675 1.76,0.675 Z" id="Rectangle-Copy-5"></path>
                        </g>
                        <path d="M10.8,4.26 C11.0982338,4.26 11.34,4.50176624 11.34,4.8 C11.34,5.06841039 11.1441693,5.29108208 10.8875908,5.33293231 L10.8,5.34 L3.6,5.34 C3.30176624,5.34 3.06,5.09823376 3.06,4.8 C3.06,4.53158961 3.25583065,4.30891792 3.5124092,4.26706769 L3.6,4.26 L10.8,4.26 Z" id="Line-2"></path>
                        <path d="M3.60418592,7.86001622 L8.44168592,7.89751622 C8.73991073,7.89982804 8.9797956,8.14346112 8.97750035,8.44168592 C8.97540314,8.71008824 8.77785229,8.93123522 8.52095704,8.97109528 L8.43331408,8.97748378 L3.59581408,8.93998378 C3.29758927,8.93767196 3.0577044,8.69403888 3.05999965,8.39581408 C3.06209686,8.12741176 3.25964771,7.90626478 3.51654296,7.86640472 L3.60418592,7.86001622 Z" id="Line-2-Copy"></path>
                    </g>
                </g>
            </g>
        </g>
    </g>
</svg>