<svg xmlns="http://www.w3.org/2000/svg" width="24" height="24" viewBox="0 0 24 24">
    <g fill="none" fill-rule="evenodd">
        <path fill="#1F262A" fill-rule="nonzero" stroke="#1F262A" stroke-width=".75" d="M19.385 8.597h-3.341l.643-3.892a.607.607 0 1 0-1.198-.196l-.675 4.088h-4.527l.647-3.892a.607.607 0 1 0-1.197-.196l-.675 4.088H5.393a.599.599 0 1 0 0 1.197h3.47l-.723 4.543H4.599a.599.599 0 0 0 0 1.198h3.345l-.647 3.892a.603.603 0 0 0 .495.69h.1a.595.595 0 0 0 .587-.502l.679-4.088H13.7l-.647 3.892a.603.603 0 0 0 .495.69h.1a.595.595 0 0 0 .587-.502l.678-4.088h3.665a.599.599 0 1 0 0-1.198h-3.47l.751-4.543h3.541a.599.599 0 0 0 0-1.197l-.016.016zm-5.505 5.74H9.337l.75-4.543h4.544l-.75 4.543z"/>
        <path d="M0 0h24v24H0z"/>
    </g>
</svg>
