<svg xmlns="http://www.w3.org/2000/svg" width="24" height="24" viewBox="0 0 24 24">
    <g fill="none"  fill-rule="evenodd">
        <g fill="#010505">
            <g>
                <path d="M14.666 17.939h-3.441L13.838 5.52h3.443c.42 0 .76-.34.76-.76S17.7 4 17.28 4H8.874c-.42 0-.761.34-.761.76s.34.76.76.76h3.442L9.704 17.94H6.261c-.42 0-.761.34-.761.76s.34.76.76.76h8.406c.42 0 .761-.34.761-.76s-.34-.76-.76-.76" transform="translate(-1358.000000, -1056.000000) translate(1358.000000, 1056.000000) translate(-0.000000, 0.000000)"/>
            </g>
        </g>
    </g>
</svg>
