<?xml version="1.0" encoding="UTF-8"?>
<svg width="24px" height="24px" viewBox="0 0 24 24" version="1.1" xmlns="http://www.w3.org/2000/svg" xmlns:xlink="http://www.w3.org/1999/xlink">
    <!-- Generator: sketchtool 62 (101010) - https://sketch.com -->
    <title>AEAE0EE3-9419-417D-B8C4-6B1523B97355</title>
    <desc>Created with sketchtool.</desc>
    <g id="⚪️Element/Icons" stroke="none" stroke-width="1" fill="none" fill-rule="evenodd">
        <g id="Element/Icons" transform="translate(-1652.000000, -1478.000000)" fill="#AEB8BD">
            <g id="ic/24/24_internetlost_g" transform="translate(1652.000000, 1478.000000)">
                <g id="Combined-Shape">
                    <path d="M19.3726316,3.73263158 C19.6231579,3.48210526 20.0168421,3.48210526 20.2673684,3.73263158 C20.5178947,3.98315789 20.5178947,4.37684211 20.2673684,4.62736842 L20.2673684,4.62736842 L18.4421053,6.45263158 C19.7126316,7.93789474 20.5,9.88842105 20.5,12 C20.5,16.6884211 16.6884211,20.5 12,20.5 C9.88842105,20.5 7.93789474,19.7305263 6.45263158,18.4421053 L6.45263158,18.4421053 L4.62736842,20.2673684 C4.50210526,20.3926316 4.34105263,20.4463158 4.18,20.4463158 C4.01894737,20.4463158 3.85789474,20.3926316 3.73263158,20.2673684 C3.48210526,20.0168421 3.48210526,19.6231579 3.73263158,19.3726316 L3.73263158,19.3726316 Z M14.6663158,15.4536842 L9.44105263,15.4536842 L9.36947368,15.5252632 C9.92421053,17.8157895 10.9978947,19.2473684 12,19.2473684 C13.0021053,19.2473684 14.0936842,17.7978947 14.6663158,15.4536842 L14.6663158,15.4536842 Z M8.34947368,16.5452632 L7.34736842,17.5473684 C7.93789474,18.0305263 8.61789474,18.4421053 9.35157895,18.7284211 C8.95789474,18.1378947 8.61789474,17.3863158 8.34947368,16.5452632 L8.34947368,16.5452632 Z M18.3526316,15.4536842 L15.9368421,15.4536842 C15.6505263,16.76 15.2031579,17.8694737 14.6484211,18.7284211 C16.2410526,18.1021053 17.5473684,16.9389474 18.3526316,15.4536842 L18.3526316,15.4536842 Z M12,3.5 C13.7715789,3.5 15.4178947,4.05473684 16.7957895,4.98526316 L16.7957895,4.98526316 L15.8831579,5.89789474 C15.4894737,5.64736842 15.0778947,5.43263158 14.6484211,5.27157895 C14.8810526,5.62947368 15.0957895,6.04105263 15.2926316,6.48842105 L15.2926316,6.48842105 L14.3263158,7.45473684 C13.7357895,5.77263158 12.8410526,4.77052632 12,4.77052632 C10.9978947,4.77052632 9.90631579,6.22 9.35157895,8.54631579 L9.35157895,8.54631579 L13.2168421,8.54631579 L11.9642105,9.79894737 L9.10105263,9.79894737 C9.01157895,10.4789474 8.95789474,11.2126316 8.95789474,12 C8.95789474,12.2684211 8.95789474,12.5368421 8.97578947,12.8231579 L8.97578947,12.8231579 L7.81263158,13.9863158 C7.74105263,13.36 7.70526316,12.6978947 7.70526316,12.0178947 C7.70526316,11.2484211 7.75894737,10.5147368 7.84842105,9.81684211 L7.84842105,9.81684211 L5.11052632,9.81684211 C4.89578947,10.5147368 4.77052632,11.2484211 4.77052632,12.0178947 C4.77052632,12.7873684 4.89578947,13.5210526 5.11052632,14.2189474 L5.11052632,14.2189474 L7.56210526,14.2189474 L6.30947368,15.4715789 L5.64736842,15.4715789 C5.71894737,15.6147368 5.80842105,15.74 5.89789474,15.8831579 L5.89789474,15.8831579 L4.98526316,16.7957895 C4.05473684,15.4178947 3.5,13.7715789 3.5,12 C3.5,7.31157895 7.31157895,3.5 12,3.5 Z M14.9168421,9.97789474 L10.6936842,14.2010526 L14.8989474,14.2010526 C14.9884211,13.5210526 15.0421053,12.7873684 15.0421053,12 C15.0421053,11.2842105 14.9884211,10.6042105 14.9168421,9.97789474 L14.9168421,9.97789474 Z M18.9073684,9.79894737 L16.1694737,9.79894737 C16.2589474,10.4968421 16.3126316,11.2305263 16.3126316,12 C16.3126316,12.7694737 16.2589474,13.5031579 16.1694737,14.2010526 L16.1694737,14.2010526 L18.9073684,14.2010526 C19.1221053,13.5031579 19.2473684,12.7694737 19.2473684,12 C19.2473684,11.2305263 19.1221053,10.4968421 18.9073684,9.79894737 L18.9073684,9.79894737 Z M9.35157895,5.27157895 C7.75894737,5.89789474 6.45263158,7.06105263 5.64736842,8.54631579 L5.64736842,8.54631579 L8.06315789,8.54631579 C8.34947368,7.24 8.79684211,6.13052632 9.35157895,5.27157895 Z M17.5473684,7.34736842 L16.3484211,8.52842105 L18.3526316,8.52842105 C18.12,8.11684211 17.8515789,7.72315789 17.5473684,7.34736842 L17.5473684,7.34736842 Z"></path>
                </g>
            </g>
        </g>
    </g>
</svg>