<?xml version="1.0" encoding="UTF-8"?>
<svg width="24px" height="24px" viewBox="0 0 24 24" version="1.1" xmlns="http://www.w3.org/2000/svg" xmlns:xlink="http://www.w3.org/1999/xlink">
    <!-- Generator: sketchtool 62 (101010) - https://sketch.com -->
    <title>95B80EEB-AB5B-4920-B137-BA8F11219A0A</title>
    <desc>Created with sketchtool.</desc>
    <g id="⚪️Element/Icons" stroke="none" stroke-width="1" fill="none" fill-rule="evenodd" fill-opacity="0.85">
        <g id="Element/Icons" transform="translate(-1839.000000, -2519.000000)" fill="#17CEDF">
            <g id="ic/24/24_italic_b" transform="translate(1839.000000, 2519.000000)">
                <g id="ic/24/24_italic_g">
                    <path d="M18.9513514,4 C19.3095901,4 19.6,4.29040989 19.6,4.64864865 C19.6,5.00688741 19.3095901,5.2972973 18.9513514,5.2972973 L13.683,5.297 L10.834,18.702 L15.9243243,18.7027027 C16.2825631,18.7027027 16.572973,18.9931126 16.572973,19.3513514 C16.572973,19.7095901 16.2825631,20 15.9243243,20 L4.24864865,20 C3.89040989,20 3.6,19.7095901 3.6,19.3513514 C3.6,18.9931126 3.89040989,18.7027027 4.24864865,18.7027027 L9.422,18.702 L12.271,5.297 L7.27567568,5.2972973 C6.91743692,5.2972973 6.62702703,5.00688741 6.62702703,4.64864865 C6.62702703,4.29040989 6.91743692,4 7.27567568,4 L18.9513514,4 Z" id="Combined-Shape"></path>
                </g>
            </g>
        </g>
    </g>
</svg>