<svg xmlns="http://www.w3.org/2000/svg" width="24" height="24" viewBox="0 0 24 24">
    <g fill="none"  fill-rule="evenodd">
        <g fill="#010505">
            <g>
                <path d="M20 4c1.105 0 2 .895 2 2v12c0 1.105-.895 2-2 2H4c-1.105 0-2-.895-2-2V6c0-1.105.895-2 2-2h16zm0 1.5H4c-.245 0-.45.177-.492.41L3.5 6v12c0 .245.177.45.41.492L4 18.5h16c.245 0 .45-.177.492-.41L20.5 18V6c0-.245-.177-.45-.41-.492L20 5.5z" transform="translate(-1775 -1088) translate(1775 1088)"/>
                <path d="M4.568 7.183c.223-.303.631-.39.955-.22l.094.059 6.376 4.672 6.293-4.67c.302-.224.718-.187.977.072l.072.084c.225.302.188.718-.071.976l-.084.073-6.737 5c-.235.174-.546.194-.799.06l-.091-.057-6.823-5c-.334-.245-.406-.715-.162-1.049z" transform="translate(-1775 -1088) translate(1775 1088)"/>
            </g>
        </g>
    </g>
</svg>
