<svg xmlns="http://www.w3.org/2000/svg" width="24" height="24" viewBox="0 0 24 24">
    <g fill="none"  fill-rule="evenodd">
        <g fill="#010505">
            <g>
                <path d="M18.107 3.276c1.446 0 2.617 1.171 2.617 2.617v12.214c0 1.446-1.171 2.617-2.617 2.617H5.893c-1.446 0-2.617-1.171-2.617-2.617V5.893c0-1.446 1.171-2.617 2.617-2.617h12.214zm-8.745 9.04l-4.778 4.779v1.012c0 .723.586 1.309 1.309 1.309h12.214c.723 0 1.309-.586 1.309-1.309v-.663c-.025-.013-.05-.028-.073-.045l-.082-.069-2.63-2.616-2.173 1.848c-.23.196-.561.206-.801.036l-.085-.072-4.21-4.21zm8.745-7.732H5.893c-.723 0-1.309.586-1.309 1.309v9.35L8.9 10.93c.23-.23.588-.253.844-.07l.081.07 4.245 4.245 2.173-1.847c.23-.195.56-.205.8-.036l.085.071 2.288 2.276V5.893c0-.723-.586-1.309-1.309-1.309zm-1.882 2.18c.677 0 1.225.547 1.225 1.224 0 .676-.548 1.224-1.225 1.224-.676 0-1.224-.548-1.224-1.224 0-.677.548-1.225 1.224-1.225z" transform="translate(-1358.000000, -1024.000000) translate(1358.000000, 1024.000000) translate(-0.000000, 0.000000)"/>
            </g>
        </g>
    </g>
</svg>
