<?xml version="1.0" encoding="UTF-8"?>
<svg width="24px" height="24px" viewBox="0 0 24 24" version="1.1" xmlns="http://www.w3.org/2000/svg" xmlns:xlink="http://www.w3.org/1999/xlink">
    <!-- Generator: sketchtool 62 (101010) - https://sketch.com -->
    <g id="⚪️Element/Icons" stroke="none" stroke-width="1" fill="none" fill-rule="evenodd">
        <g id="Element/Icons" transform="translate(-1652.000000, -1526.000000)" fill="#AEB8BD">
            <g id="ic/24/24_info_g" transform="translate(1652.000000, 1526.000000)">
                <g id="Group-3-Copy-24">
                    <g transform="translate(2.500000, 2.500000)">
                        <g id="ic_information">
                            <path d="M9.5,0 C14.7467051,0 19,4.25329488 19,9.5 C19,14.7467051 14.7467051,19 9.5,19 C4.25329488,19 0,14.7467051 0,9.5 C0,4.25329488 4.25329488,0 9.5,0 Z M9.5,1.26044226 C4.94941792,1.26044226 1.26044226,4.94941792 1.26044226,9.5 C1.26044226,14.0505821 4.94941792,17.7395577 9.5,17.7395577 C14.0505821,17.7395577 17.7395577,14.0505821 17.7395577,9.5 C17.7395577,4.94941792 14.0505821,1.26044226 9.5,1.26044226 Z M9.5,8 C9.96944204,8 10.35,8.38055796 10.35,8.85 L10.35,14.15 C10.35,14.619442 9.96944204,15 9.5,15 C9.03055796,15 8.65,14.619442 8.65,14.15 L8.65,8.85 C8.65,8.38055796 9.03055796,8 9.5,8 Z M9.5,5 C10.0522847,5 10.5,5.44771525 10.5,6 C10.5,6.55228475 10.0522847,7 9.5,7 C8.94771525,7 8.5,6.55228475 8.5,6 C8.5,5.44771525 8.94771525,5 9.5,5 Z" id="Combined-Shape"></path>
                        </g>
                    </g>
                </g>
            </g>
        </g>
    </g>
</svg>
