<?xml version="1.0" encoding="UTF-8"?>
<svg width="24px" height="24px" viewBox="0 0 24 24" version="1.1" xmlns="http://www.w3.org/2000/svg" xmlns:xlink="http://www.w3.org/1999/xlink">
    <!-- Generator: sketchtool 62 (101010) - https://sketch.com -->
    <title>E7ABAF1B-37A0-48BF-A29A-EDE2E51708BE</title>
    <desc>Created with sketchtool.</desc>
    <g id="⚪️Element/Icons" stroke="none" stroke-width="1" fill="none" fill-rule="evenodd">
        <g id="Element/Icons" transform="translate(-1456.000000, -1574.000000)" fill="#FFFFFF">
            <g id="ic/24/24_image_w" transform="translate(1456.000000, 1574.000000)">
                <g id="Combined-Shape">
                    <path d="M18.1074829,3.2755102 C19.5528159,3.2755102 20.7244898,4.44748136 20.7244898,5.89251709 L20.7244898,18.1074829 C20.7244898,19.5528159 19.5525186,20.7244898 18.1074829,20.7244898 L5.89251709,20.7244898 C4.4471841,20.7244898 3.2755102,19.5525186 3.2755102,18.1074829 L3.2755102,5.89251709 C3.2755102,4.4471841 4.44748136,3.2755102 5.89251709,3.2755102 L18.1074829,3.2755102 Z M9.36236355,12.3166865 L4.5835102,17.0945102 L4.58418367,18.1074829 C4.58418367,18.8298839 5.17007014,19.4158163 5.89251709,19.4158163 L18.1074829,19.4158163 C18.8298839,19.4158163 19.4158163,18.8299299 19.4158163,18.1074829 L19.4157825,17.4442515 C19.3906121,17.4308762 19.3661298,17.4157407 19.3425169,17.3988444 L19.2612302,17.3300633 L16.6317745,14.7143774 L14.4580368,16.5618284 C14.2271674,16.7580434 13.8967778,16.7675019 13.6569289,16.5979021 L13.5716008,16.5259238 L9.36236355,12.3166865 Z M18.1074829,4.58418367 L5.89251709,4.58418367 C5.17011611,4.58418367 4.58418367,5.17007014 4.58418367,5.89251709 L4.5835102,15.2435102 L8.89967761,10.9286287 C9.12965856,10.6986478 9.48824217,10.6756497 9.74394365,10.8596344 L9.82504949,10.9286287 L14.0703093,15.1738885 L16.2428375,13.3274655 C16.4732601,13.1316303 16.8029066,13.1217862 17.0427111,13.2905239 L17.1280573,13.362157 L19.4155102,15.6375102 L19.4158163,5.89251709 C19.4158163,5.17011611 18.8299299,4.58418367 18.1074829,4.58418367 Z M16.2252907,6.76325937 C16.9015577,6.76325937 17.4497805,7.31148213 17.4497805,7.98774917 C17.4497805,8.66401621 16.9015577,9.21223897 16.2252907,9.21223897 C15.5490237,9.21223897 15.0008009,8.66401621 15.0008009,7.98774917 C15.0008009,7.31148213 15.5490237,6.76325937 16.2252907,6.76325937 Z"></path>
                </g>
            </g>
        </g>
    </g>
</svg>