<?xml version="1.0" encoding="UTF-8"?>
<svg width="24px" height="24px" viewBox="0 0 24 24" version="1.1" xmlns="http://www.w3.org/2000/svg" xmlns:xlink="http://www.w3.org/1999/xlink">
    <!-- Generator: sketchtool 62 (101010) - https://sketch.com -->
    <title>F0479449-25BC-4E3B-8C58-8D572B37E0A0</title>
    <desc>Created with sketchtool.</desc>
    <g id="⚪️Element/Icons" stroke="none" stroke-width="1" fill="none" fill-rule="evenodd">
        <g id="Element/Icons" transform="translate(-1652.000000, -2766.000000)" fill="#AEB8BD">
            <g id="ic/24/24_keyboardcollapse_g" transform="translate(1652.000000, 2766.000000)">
                <g id="Combined-Shape">
                    <path d="M10.2339284,20.1470518 L10.3180468,20.2196699 L12.206,22.107062 L14.0937179,20.2196699 C14.3866111,19.9267767 14.8614849,19.9267767 15.1543781,20.2196699 C15.4206447,20.4859365 15.4448507,20.9026002 15.2269962,21.1962117 L15.1543781,21.2803301 L12.80289,23.6341079 C12.784063,23.6582274 12.7635551,23.6814607 12.7413663,23.7036496 C12.608233,23.8367828 12.4375004,23.909401 12.2633497,23.921504 L12.148415,23.921504 C11.9742643,23.909401 11.8035317,23.8367828 11.6703984,23.7036496 L11.604,23.627062 L9.25738662,21.2803301 C8.9644934,20.9874369 8.9644934,20.5125631 9.25738662,20.2196699 C9.52365318,19.9534034 9.94031686,19.9291973 10.2339284,20.1470518 Z M20.4931517,2 C22.1537881,2 23.5,3.33663106 23.5,5.00947762 L23.5,14.9905224 C23.5,16.652611 22.1640085,18 20.4931517,18 L3.50684834,18 C1.84621185,18 0.5,16.6633689 0.5,14.9905224 L0.5,5.00947762 C0.5,3.34738902 1.83599155,2 3.50684834,2 L20.4931517,2 Z M20.4931517,3.5 L3.50684834,3.5 C2.71557848,3.5 2.07485795,4.09868855 2.00610897,4.87139726 L2,5.00947762 L2,14.9905224 C2,15.7840133 2.59796362,16.4251048 3.36906147,16.4938881 L3.50684834,16.5 L20.4931517,16.5 C21.2844215,16.5 21.925142,15.9013115 21.993891,15.1286027 L22,14.9905224 L22,5.00947762 C22,4.21598674 21.4020364,3.5748952 20.6309385,3.50611185 L20.4931517,3.5 Z M16.7439255,13 C17.1266965,13 17.4430333,13.2797273 17.4930979,13.6476228 L17.5,13.75 C17.5,14.1642136 17.1587297,14.5 16.7439255,14.5 L7.25607455,14.5 C6.83850611,14.5 6.5,14.1671014 6.5,13.75 C6.5,13.3357864 6.84127033,13 7.25607455,13 L16.7439255,13 Z M9.5,9 C10.0522847,9 10.5,9.44771525 10.5,10 C10.5,10.5522847 10.0522847,11 9.5,11 C8.94771525,11 8.5,10.5522847 8.5,10 C8.5,9.44771525 8.94771525,9 9.5,9 Z M14.5,9 C15.0522847,9 15.5,9.44771525 15.5,10 C15.5,10.5522847 15.0522847,11 14.5,11 C13.9477153,11 13.5,10.5522847 13.5,10 C13.5,9.44771525 13.9477153,9 14.5,9 Z M7,6 C7.55228475,6 8,6.44771525 8,7 C8,7.55228475 7.55228475,8 7,8 C6.44771525,8 6,7.55228475 6,7 C6,6.44771525 6.44771525,6 7,6 Z M12,6 C12.5522847,6 13,6.44771525 13,7 C13,7.55228475 12.5522847,8 12,8 C11.4477153,8 11,7.55228475 11,7 C11,6.44771525 11.4477153,6 12,6 Z M17,6 C17.5522847,6 18,6.44771525 18,7 C18,7.55228475 17.5522847,8 17,8 C16.4477153,8 16,7.55228475 16,7 C16,6.44771525 16.4477153,6 17,6 Z"></path>
                </g>
            </g>
        </g>
    </g>
</svg>