<?xml version="1.0" encoding="UTF-8"?>
<svg width="24px" height="24px" viewBox="0 0 24 24" version="1.1" xmlns="http://www.w3.org/2000/svg" xmlns:xlink="http://www.w3.org/1999/xlink">
    <defs>
        <filter color-interpolation-filters="auto" id="filter-1">
            <feColorMatrix in="SourceGraphic" type="matrix" values="0 0 0 0 0.003922 0 0 0 0 0.019608 0 0 0 0 0.019608 0 0 0 0.860000 0"></feColorMatrix>
        </filter>
    </defs>
    <g id="⚪️Base/Iconograyphy" stroke="none" stroke-width="1" fill="none" fill-rule="evenodd">
        <g id="Element/Icons/24*24" transform="translate(-465.000000, -1756.000000)">
            <g id="ic/24/24_Like2_export" transform="translate(465.000000, 1756.000000)">
                <g id="ic/24/24_-Like2" transform="translate(0.000000, -0.000000)" filter="url(#filter-1)">
                    <g transform="translate(3.000000, 4.000000)">
                        <path d="M12.3816466,-0.993460548 C11.1043274,-0.932563132 9.88588402,-0.44827065 8.917069,0.378585279 L8.817,0.467 L8.68262877,0.346988327 C7.67729383,-0.507331788 6.35271462,-1 4.97618946,-1 C3.41612762,-1 1.92278745,-0.367195052 0.837702065,0.753689717 C-1.43761435,3.11509746 -1.6134745,6.7775579 0.38602186,9.33999315 L0.552911718,9.5453002 C1.01927269,10.128384 1.5885984,10.7579216 2.21074124,11.3882952 L2.68646802,11.8605193 C2.76714517,11.9390119 2.84845169,12.0173393 2.93028965,12.0954125 L3.42691105,12.5600881 L3.93158552,13.0143855 C4.18515247,13.2382269 4.43997632,13.4565727 4.69341256,13.6670172 L5.19765135,14.0766587 C5.28112161,14.1429389 5.3642418,14.2081629 5.44691397,14.2722418 L5.93678734,14.6422596 C7.06362426,15.4702427 8.06425656,16.0388397 8.66992435,16.1035675 L8.77618946,16.1092297 L8.85618946,16.1092297 L8.96245457,16.1035675 C9.78443228,16.0157226 11.3338702,14.999833 12.9413484,13.6641228 L13.4501216,13.2323978 L13.9580689,12.7836669 C14.1267264,12.6317286 14.2944655,12.4776653 14.4605054,12.3221866 L14.9527465,11.8522132 L15.4301076,11.3780031 C15.5081676,11.2988515 15.5854123,11.2197007 15.6617442,11.1406395 L16.1080015,10.6680552 C16.397163,10.3546609 16.6685966,10.0455362 16.9160563,9.74635633 L17.0970583,9.52392474 C19.2538258,6.9764791 19.1314883,3.17891929 16.7963017,0.755372138 C15.7095915,-0.367195052 14.2162513,-1 12.6561895,-1 L12.3816466,-0.993460548 Z M12.6561895,1 C13.6745632,1 14.6493824,1.41308101 15.3577021,2.14476968 C16.9252628,3.7716488 17.0569795,6.29259389 15.6987368,8.0718148 L15.4012903,8.43927551 C15.0709545,8.83794116 14.6831414,9.26433804 14.2630049,9.69765196 L13.8330256,10.1325007 L13.3870871,10.5673354 L12.9307792,10.9975307 C12.8541743,11.0685863 12.7773702,11.1392559 12.7004835,11.2094432 L12.2391023,11.6240069 L11.781326,12.0223677 C11.7056409,12.087154 11.630339,12.1510725 11.5555366,12.2140267 L11.1136486,12.5794108 L10.68934,12.9170287 L10.2882006,13.2222549 C10.2235853,13.2701697 10.1601683,13.3165421 10.0980661,13.3612758 L9.74216114,13.609242 C9.40389635,13.8360017 9.12134687,13.9968288 8.91966662,14.0709092 L8.815,14.102 L8.71316918,14.0710792 C8.41992269,13.9635003 7.95550091,13.6723231 7.3976307,13.2619626 L7.01272599,12.9714389 C6.94655216,12.9203112 6.87943788,12.8678887 6.81148979,12.8142599 L6.39464835,12.4787184 L5.96291304,12.1184666 L5.52140166,11.7377458 C5.44728609,11.6728222 5.37297642,11.6072224 5.29857927,11.5410349 L4.85199972,11.1375631 L4.40843865,10.7242256 L3.97301389,10.3052637 L3.55084325,9.88491875 C3.48187031,9.81498163 3.41366287,9.7451636 3.34632754,9.67555304 L2.95363399,9.26108596 C2.82679327,9.12423135 2.70429398,8.98891344 2.58698911,8.85583912 L2.25151072,8.46405381 L2.09705827,8.27453465 C0.568022809,6.46751527 0.653062288,3.82774808 2.27630173,2.14308726 C2.98299648,1.41308101 3.95781576,1 4.97618946,1 C5.99456316,1 6.96938244,1.41308101 7.67770207,2.14476968 L8.81618946,3.17778229 L9.90710278,2.19076548 C10.6629965,1.41308101 11.6378158,1 12.6561895,1 Z" id="Path" fill="#FFF" fill-rule="nonzero"></path>
                    </g>
                </g>
            </g>
        </g>
    </g>
</svg>
