<svg width="24" height="24" viewBox="0 0 24 24" xmlns="http://www.w3.org/2000/svg">
    <path d="M15.382 4.007a5.76 5.76 0 0 0-3.465 1.372l-.1.088-.134-.12A5.75 5.75 0 0 0 7.976 4a5.76 5.76 0 0 0-4.138 1.754 6.56 6.56 0 0 0-.452 8.586l.167.205a24.302 24.302 0 0 0 1.658 1.843l.475.473.244.234.497.465.505.454c.253.224.508.443.761.653l.505.41.249.195.49.37c1.127.828 2.127 1.397 2.733 1.462l.106.005h.08l.106-.005c.822-.088 2.372-1.104 3.98-2.44l.508-.432.508-.448c.169-.152.336-.306.503-.462l.492-.47.477-.474.232-.237.446-.473c.29-.313.56-.622.808-.922l.181-.222c2.157-2.548 2.034-6.345-.3-8.769A5.761 5.761 0 0 0 15.656 4l-.275.007zM15.656 6a3.76 3.76 0 0 1 2.702 1.145 4.56 4.56 0 0 1 .34 5.927l-.297.367c-.33.399-.718.825-1.138 1.259l-.43.435-.446.434-.456.43-.23.212-.462.415-.458.398c-.075.065-.15.13-.225.192l-.442.365-.425.338-.4.305-.19.14-.357.247c-.338.227-.62.388-.822.462l-.105.031-.102-.03c-.293-.108-.757-.4-1.315-.81l-.385-.29a24.725 24.725 0 0 1-.202-.158l-.416-.335-.432-.36-.442-.381a38.69 38.69 0 0 1-.222-.197l-.447-.403-.444-.414-.435-.419-.422-.42a30.27 30.27 0 0 1-.205-.21l-.392-.414a21.95 21.95 0 0 1-.367-.405l-.335-.392-.155-.19a4.567 4.567 0 0 1 .18-6.13 3.759 3.759 0 0 1 5.4 0l1.14 1.034 1.09-.987C13.663 6.413 14.637 6 15.657 6z" fill="#010505" fill-rule="evenodd" />
</svg>
