<svg xmlns="http://www.w3.org/2000/svg" width="24" height="24" viewBox="0 0 24 24">
    <g fill="none" fill-rule="evenodd">
        <g>
            <g>
                <path d="M0 0H24V24H0z" transform="translate(-1358.000000, -1312.000000) translate(1358.000000, 1312.000000)"/>
                <g fill="#010505">
                    <path d="M13.447 9.07c.414 0 .75.335.75.75 0 .38-.282.693-.648.743l-.102.006H6.19c-.414 0-.75-.335-.75-.75 0-.38.283-.693.649-.743l.101-.007h7.257z" transform="translate(-1358.000000, -1312.000000) translate(1358.000000, 1312.000000) translate(2.353786, 2.475221) translate(9.818872, 9.819375) rotate(-45.000000) translate(-9.818872, -9.819375)"/>
                    <path d="M9.966 9.106c.415 0 .75.336.75.75 0 .38-.282.694-.648.743l-.102.007H6.563c-1.862 0-3.333 1.283-3.333 2.81 0 1.471 1.368 2.715 3.135 2.802l.198.005h3.403c.415 0 .75.336.75.75 0 .38-.282.693-.648.743l-.102.007H6.563c-2.648 0-4.833-1.904-4.833-4.308 0-2.335 2.062-4.2 4.607-4.304l.226-.005h3.403z" transform="translate(-1358.000000, -1312.000000) translate(1358.000000, 1312.000000) translate(2.353786, 2.475221) translate(6.223490, 13.414589) rotate(-45.000000) translate(-6.223490, -13.414589)"/>
                    <path d="M13.074 1.916c2.648 0 4.834 1.904 4.834 4.307 0 2.337-2.062 4.2-4.608 4.305l-.226.004H9.671c-.414 0-.75-.336-.75-.75 0-.38.282-.693.648-.743l.102-.007h3.403c1.863 0 3.334-1.282 3.334-2.809 0-1.47-1.369-2.716-3.136-2.803l-.198-.004H9.671c-.414 0-.75-.336-.75-.75 0-.38.282-.694.648-.744l.102-.006h3.403z" transform="translate(-1358.000000, -1312.000000) translate(1358.000000, 1312.000000) translate(2.353786, 2.475221) translate(13.414505, 6.223910) rotate(-45.000000) translate(-13.414505, -6.223910)"/>
                </g>
            </g>
        </g>
    </g>
</svg>
