<?xml version="1.0" encoding="UTF-8"?>
<svg width="24px" height="24px" viewBox="0 0 24 24" version="1.1" xmlns="http://www.w3.org/2000/svg" xmlns:xlink="http://www.w3.org/1999/xlink">
    <!-- Generator: sketchtool 62 (101010) - https://sketch.com -->
    <title>BEB72A52-B8F7-4076-9C45-8C8447C90F80</title>
    <desc>Created with sketchtool.</desc>
    <g id="⚪️Element/Icons" stroke="none" stroke-width="1" fill="none" fill-rule="evenodd">
        <g id="Element/Icons" transform="translate(-1652.000000, -938.000000)" fill="#AEB8BD" fill-rule="nonzero">
            <g id="ic/24/24_linkchannel_g" transform="translate(1652.000000, 938.000000)">
                <g id="Path">
                    <path d="M20.2536923,14.3095385 C19.8541355,14.3095385 19.5302308,14.6334432 19.5302308,15.033 L19.5302308,18.0791538 C19.530234,18.8804715 18.8818529,19.5307105 18.0805385,19.533 L5.89592308,19.533 C5.09460867,19.5307105 4.4462275,18.8804715 4.44623077,18.0791538 L4.44623077,5.89453846 C4.4496535,5.09538442 5.09745626,4.44881851 5.89661538,4.44692308 L8.94276923,4.44692308 C9.34232601,4.44692308 9.66623077,4.12301831 9.66623077,3.72346154 C9.66623077,3.32390476 9.34232601,3 8.94276923,3 L5.89661538,3 C4.29764962,3.00190739 3.00190739,4.29764962 3,5.89661538 L3,18.0812308 C3.00190739,19.6801965 4.29764962,20.9759388 5.89661538,20.9778462 L18.0812308,20.9778462 C19.6801965,20.9759388 20.9759388,19.6801965 20.9778491,18.0812308 L20.9778491,15.0350769 C20.9783985,14.8427234 20.9023256,14.6580689 20.7664405,14.5219239 C20.6305554,14.385779 20.4460466,14.3093536 20.2536923,14.3095385 Z"></path>
                    <path d="M20.9210769,3.44723077 C20.8085357,3.17772142 20.5457508,3.00162281 20.2536923,3 L13.2939231,3 C13.0354552,3 12.796621,3.13789098 12.667387,3.36173076 C12.538153,3.58557055 12.538153,3.86135253 12.667387,4.08519231 C12.796621,4.30903209 13.0354552,4.44692308 13.2939231,4.44692308 L18.507,4.44692308 L12.7823077,10.1716154 C12.5103787,10.4558933 12.5154437,10.9053588 12.7937098,11.1834366 C13.0719759,11.4615144 13.5214447,11.4662752 13.8055385,11.1941538 L19.5302308,5.46946154 L19.5302308,10.6846154 C19.5302308,11.0841722 19.8541355,11.4080769 20.2536923,11.4080769 C20.6532491,11.4080769 20.9771538,11.0841722 20.9771538,10.6846154 L20.9771538,3.72346154 C20.9768797,3.6285856 20.9578209,3.53470306 20.9210769,3.44723077 Z"></path>
                </g>
            </g>
        </g>
    </g>
</svg>