<svg xmlns="http://www.w3.org/2000/svg" width="24" height="24" viewBox="0 0 24 24">
    <g fill="none" fill-opacity=".86" fill-rule="evenodd">
        <g fill="#010505">
            <g>
                <path d="M15.378 4.007c-1.309.066-2.554.589-3.517 1.478l-.133.128.041.04C10.746 4.605 9.304 4 7.8 4c-1.505 0-2.947.606-4 1.68-2.224 2.308-2.4 5.882-.452 8.386l.168.207c.117.144.24.291.368.44l.4.453.211.23.44.464.46.467c.077.078.156.156.236.233l.482.463.245.23.495.45c.249.222.499.439.747.649l.494.409.486.386c1.282.993 2.43 1.694 3.068 1.76l.092.004c.716-.073 1.995-.863 3.388-1.959l.495-.399.25-.208.501-.43.5-.445.248-.227.489-.46.476-.467c.625-.623 1.204-1.25 1.691-1.839l.178-.218c2.112-2.497 1.99-6.207-.292-8.574C18.606 4.605 17.164 4 15.66 4l-.281.007zm.281 1.393c1.129 0 2.21.454 3 1.26 1.724 1.789 1.867 4.566.366 6.522l-.311.384c-.397.478-.868.992-1.378 1.51l-.445.443-.46.442-.466.435-.47.424-.235.207-.466.399-.455.378-.44.35-.214.165-.409.304c-.659.477-1.202.799-1.522.876l-.05.008.015.004c-.239-.026-.693-.28-1.269-.685l-.36-.26-.384-.293-.405-.321-.21-.17-.427-.359-.437-.377-.443-.394-.443-.405-.439-.414-.43-.419-.42-.42-.203-.208-.391-.415-.368-.406-.34-.394-.157-.191c-1.668-1.974-1.574-4.873.21-6.723C5.59 5.854 6.67 5.4 7.8 5.4s2.21.454 3 1.26l.93.846.9-.817c.82-.835 1.901-1.289 3.03-1.289z" transform="translate(-501.000000, -1756.000000) translate(501.000000, 1756.000000)"/>
            </g>
        </g>
    </g>
</svg>
