<?xml version="1.0" encoding="UTF-8"?>
<svg width="24px" height="24px" viewBox="0 0 24 24" version="1.1" xmlns="http://www.w3.org/2000/svg" xmlns:xlink="http://www.w3.org/1999/xlink">
    <!-- Generator: sketchtool 62 (101010) - https://sketch.com -->
    <title>0A64C04A-31AA-46C1-96C6-1DCE9210E36B</title>
    <desc>Created with sketchtool.</desc>
    <g id="⚪️Element/Icons" stroke="none" stroke-width="1" fill="none" fill-rule="evenodd">
        <g id="Element/Icons" transform="translate(-1620.000000, -938.000000)">
            <g id="ic/24/24_linkchannel_lock_g" transform="translate(1620.000000, 938.000000)">
                <g id="ic/24/24_linkchannel_lock">
                    <g id="Group" transform="translate(2.000000, 2.000000)">
                        <path d="M2.55364706,8.94117647 L2.55442534,16.0982443 C2.55442209,16.8943246 3.19856548,17.5403137 3.99464253,17.5425882 L3.99464253,17.5425882 L16.0996199,17.5425882 C16.895697,17.5403137 17.5398404,16.8943246 17.5398371,16.0982443 L17.5398371,16.0982443 L17.5398371,13.072 C17.5398371,12.6750547 17.8616248,12.353267 18.2585701,12.353267 C18.4496672,12.3530833 18.6329701,12.4290092 18.7679671,12.5642643 C18.902964,12.6995194 18.9785396,12.882967 18.9779939,13.0740633 L18.9779939,13.0740633 L18.9779939,16.1003077 C18.976096,17.6888227 17.6888227,18.976096 16.1003077,18.977991 L16.1003077,18.977991 L3.99533032,18.977991 C2.4068153,18.976096 1.11954199,17.6888227 1.11764706,16.1003077 L1.11764706,16.1003077 L1.11764706,8.94117647 L2.55364706,8.94117647 Z" id="Combined-Shape" fill="#AEB8BD"></path>
                        <path d="M18.9215928,1.56195475 C18.8097871,1.2942069 18.5487198,1.11925926 18.2585701,1.11764706 L11.3442896,1.11764706 C11.087511,1.11764706 10.8502378,1.25463679 10.7218485,1.47701357 C10.5934592,1.69939035 10.5934592,1.97336983 10.7218485,2.19574661 C10.8502378,2.41812339 11.087511,2.55511313 11.3442896,2.55511312 L16.5232941,2.55511312 L10.8360181,8.24238914 C10.5658664,8.52480902 10.5708983,8.97133681 10.8473457,9.24759713 C11.123793,9.52385745 11.5703241,9.5285871 11.8525611,9.25824434 L17.5398371,3.57096833 L17.5398371,8.7520362 C17.5398371,9.14898149 17.8616248,9.47076923 18.2585701,9.47076923 C18.6555154,9.47076923 18.9773032,9.14898149 18.9773032,8.7520362 L18.9773032,1.83638009 C18.9770308,1.74212426 18.9580965,1.64885533 18.9215928,1.56195475 Z" id="Path" fill="#AEB8BD"></path>
                        <g id="Group-Copy-5">
                            <g id="Group-3"></g>
                        </g>
                        <rect id="Rectangle" fill="#AEB8BD" x="1.11764706" y="3.35294118" width="6.70588235" height="4.47058824" rx="0.683999987"></rect>
                        <path d="M4.47058824,0.558823529 C5.95201086,0.558823529 7.16416087,1.71171663 7.25876259,3.16922717 L7.26470588,3.35294118 L6.14705882,3.35294118 C6.14705882,2.42705204 5.39647737,1.67647059 4.47058824,1.67647059 C3.59916316,1.67647059 2.88302795,2.3413455 2.80179206,3.19148587 L2.79411765,3.35294118 L1.67647059,3.35294118 C1.67647059,1.80979261 2.92743967,0.558823529 4.47058824,0.558823529 Z" id="Path-4" fill="#AEB8BD"></path>
                    </g>
                </g>
            </g>
        </g>
    </g>
</svg>