<svg xmlns="http://www.w3.org/2000/svg" width="24" height="24" viewBox="0 0 24 24">
    <g fill="none" fill-rule="evenodd">
        <g fill="#000" fill-rule="nonzero">
            <g>
                <path d="M18.511 4.203c.935-.245 1.892.314 2.137 1.249.038.145.057.294.057.444v9.882c0 .966-.784 1.75-1.75 1.75-.15 0-.299-.02-.444-.058L9.67 15.151l.793 3.626c.196.895-.33 1.78-1.19 2.045l-.145.039c-.123.027-.249.04-.374.04h-.601c-.823 0-1.534-.572-1.71-1.376l-1.015-4.639H4.6c-.867 0-1.587-.63-1.726-1.458l-.018-.148-.006-.143v-4.6c0-.967.784-1.75 1.75-1.75l4.06-.001zM8.152 15.23H7.038l.87 3.975c.02.091.09.162.177.187l.068.01h.6l.054-.007c.135-.03.22-.162.19-.297l-.845-3.868zm10.797-9.584l-.057.008-9.387 2.46v5.443l9.387 2.462c.01.003.02.005.031.006l.032.003c.138 0 .25-.112.25-.25V5.896c0-.022-.003-.043-.008-.064-.035-.133-.172-.213-.305-.178zM8.005 8.286H4.6c-.138 0-.25.113-.25.25v4.6c0 .139.112.25.25.25h3.405v-5.1z" transform="translate(-1340 -711) translate(1340 711)"/>
            </g>
        </g>
    </g>
</svg>
