<svg xmlns="http://www.w3.org/2000/svg" width="24" height="24" viewBox="0 0 24 24">
    <g fill="none"  fill-rule="evenodd">
        <g fill="#010505">
            <g>
                <g>
                    <path d="M15.688 3.507c-1.352.068-2.633.642-3.586 1.614l-.073.065-.093-.086C10.94 4.084 9.55 3.5 8.1 3.5c-1.452 0-2.842.584-3.858 1.62-2.213 2.297-2.33 5.891-.274 8.324.462.569 1.02 1.182 1.626 1.798l.464.462.477.458.487.451.491.44.492.425c1.635 1.386 3.204 2.451 3.963 2.53l.072.003c.594-.06 1.638-.677 2.816-1.568l.478-.37c.08-.063.162-.128.243-.194l.491-.407.247-.21.495-.434.246-.222.487-.452.478-.459c.706-.691 1.363-1.394 1.903-2.046l.176-.216c2.048-2.422 1.93-6.016-.28-8.31C18.8 4.085 17.41 3.5 15.96 3.5l-.272.007zm.272.993c1.182 0 2.315.476 3.142 1.32 1.795 1.862 1.943 4.75.382 6.784l-.32.394c-.414.5-.907 1.036-1.44 1.575l-.466.462-.48.459-.487.45-.245.222-.49.43-.243.207-.479.398c-.078.065-.156.128-.234.19l-.455.355c-.89.68-1.646 1.153-2.064 1.251l-.069.012c-.308-.032-.927-.395-1.69-.955l-.394-.296-.414-.325-.429-.35-.44-.372-.447-.39-.45-.404-.447-.414-.442-.422-.43-.425c-.142-.141-.28-.283-.416-.424l-.397-.42-.19-.207-.359-.406c-.115-.134-.225-.265-.33-.393-1.731-2.049-1.632-5.064.223-6.988C5.784 4.976 6.917 4.5 8.1 4.5c1.182 0 2.315.476 3.142 1.32l.788.716.766-.695c.848-.865 1.981-1.341 3.164-1.341z" transform="translate(-535 -1756) translate(535 1756)"/>
                </g>
            </g>
        </g>
    </g>
</svg>
