<svg xmlns="http://www.w3.org/2000/svg" width="24" height="24" viewBox="0 0 24 24">
    <g fill="none"  fill-rule="evenodd">
        <g fill="#010505">
            <g>
                <g>
                    <path d="M14.933 7.053c.398 0 .728.29.79.67l.01.13v1.619c-.072 1.82-1.542 3.274-3.406 3.328-1.752-.043-3.183-1.382-3.364-3.13l-.016-.23V7.853c0-.441.358-.8.8-.8.397 0 .727.29.79.67l.01.13-.001 1.555c.04.984.836 1.768 1.777 1.792.92-.027 1.673-.716 1.794-1.584l.016-.176V7.853c0-.441.359-.8.8-.8z" transform="translate(-465.000000, -1942.000000) translate(465.000000, 1942.000000) translate(0.000000, 0.000000)"/>
                    <path d="M17.88 2.8H6.813l-.205.014c-1.354.143-2.385 1.219-2.47 2.543l-.002.091-1.33 13.003c-.006 1.632 1.218 2.856 2.727 2.856H19.16c.735-.007 1.428-.3 1.936-.818.508-.517.79-1.214.784-1.94L20.608 5.418C20.6 4.025 19.388 2.813 17.88 2.8zM6.855 5.2H17.87c.189.002.342.155.343.344l1.273 13.132-.06.082c-.012.016-.026.033-.042.049-.062.063-.146.099-.234.1H5.533c-.184 0-.333-.15-.333-.334L6.527 5.67l.006-.133c-.001-.181.141-.33.322-.337z" transform="translate(-465.000000, -1942.000000) translate(465.000000, 1942.000000) translate(0.000000, 0.000000)"/>
                </g>
            </g>
        </g>
    </g>
</svg>
