<svg xmlns="http://www.w3.org/2000/svg" width="24" height="24" viewBox="0 0 24 24">
    <g fill="none" fill-rule="evenodd">
        <g fill="#010505">
            <g>
                <g>
                    <path d="M15.013 7.187c.328 0 .6.236.656.546l.011.12v1.614c-.072 1.788-1.544 3.201-3.35 3.2-1.684-.041-3.06-1.33-3.234-3.006L9.08 9.44V7.853c0-.368.298-.666.667-.666.327 0 .6.236.656.546l.01.12v1.56c.042 1.055.895 1.895 1.934 1.92 1.011.001 1.853-.75 1.984-1.71l.016-.183V7.853c0-.368.298-.666.666-.666z" transform="translate(-501.000000, -1942.000000) translate(501.000000, 1942.000000) translate(0.000000, 0.000000)"/>
                    <path d="M17.973 2.84H6.533c-1.325 0-2.4 1.075-2.4 2.4l-1.33 13.535C2.8 20.18 3.876 21.253 5.2 21.253h14.107c1.325 0 2.4-1.074 2.4-2.4L20.37 5.162c.003-1.247-1.071-2.322-2.397-2.322zm-11.44 1.6h11.44c.442 0 .8.358.8.8l1.337 13.691c-.003.364-.362.722-.803.722H5.2c-.442 0-.8-.358-.8-.8L5.73 5.318c.003-.52.362-.878.803-.878z" transform="translate(-501.000000, -1942.000000) translate(501.000000, 1942.000000) translate(0.000000, 0.000000)"/>
                </g>
            </g>
        </g>
    </g>
</svg>
