<svg xmlns="http://www.w3.org/2000/svg" width="24" height="24" viewBox="0 0 24 24">
    <g fill="none" fill-rule="evenodd">
        <g fill="#010505">
            <g>
                <path d="M11.998 3c5.248 0 9.502 4.253 9.502 9.5l-.003.064c.002.023.003.046.003.07 0 1.888-1.531 3.42-3.42 3.42-1.034 0-1.96-.46-2.587-1.185-.759 1.118-2.04 1.852-3.494 1.852-2.332 0-4.221-1.89-4.221-4.221 0-2.332 1.89-4.221 4.22-4.221 1.01 0 1.938.354 2.664.945v-.283c0-.432.35-.783.782-.783.389 0 .712.284.772.656l.01.127v3.692c0 1.025.83 1.855 1.854 1.855s1.855-.83 1.855-1.855l.002-.066c-.002-.022-.003-.045-.003-.067 0-4.382-3.553-7.935-7.936-7.935-4.381 0-7.933 3.552-7.933 7.935 0 4.382 3.552 7.934 7.933 7.934 1.405 0 2.755-.364 3.945-1.047.375-.216.853-.086 1.068.289.216.375.086.853-.289 1.068-1.426.818-3.044 1.256-4.724 1.256C6.752 22 2.5 17.747 2.5 12.5S6.752 3 11.998 3zm0 6.844c-1.466 0-2.655 1.189-2.655 2.656s1.189 2.655 2.656 2.655 2.657-1.188 2.657-2.655c0-1.467-1.19-2.656-2.657-2.656z" transform="translate(-1358.000000, -1504.000000) translate(1358.000000, 1504.000000) translate(0.000000, -0.000000)"/>
            </g>
        </g>
    </g>
</svg>
