<?xml version="1.0" encoding="UTF-8"?>
<svg width="24px" height="24px" viewBox="0 0 24 24" version="1.1" xmlns="http://www.w3.org/2000/svg" xmlns:xlink="http://www.w3.org/1999/xlink">
    <!-- Generator: sketchtool 62 (101010) - https://sketch.com -->
    <title>46A023B7-F50C-4086-85BE-22F738CD2EEF</title>
    <desc>Created with sketchtool.</desc>
    <g id="⚪️Element/Icons" stroke="none" stroke-width="1" fill="none" fill-rule="evenodd">
        <g id="Element/Icons" transform="translate(-1652.000000, -1242.000000)" fill="#AEB8BD">
            <g id="ic/24/24_move_g" transform="translate(1652.000000, 1242.000000)">
                <g id="Combined-Shape">
                    <path d="M19.0847458,16.1694915 C19.5902267,16.1694915 20,16.5792648 20,17.0847458 C20,17.5902267 19.5902267,18 19.0847458,18 L4.91525424,18 C4.40977328,18 4,17.5902267 4,17.0847458 C4,16.5792648 4.40977328,16.1694915 4.91525424,16.1694915 L19.0847458,16.1694915 Z M19.0847458,11.0847458 C19.5902267,11.0847458 20,11.494519 20,12 C20,12.505481 19.5902267,12.9152542 19.0847458,12.9152542 L4.91525424,12.9152542 C4.40977328,12.9152542 4,12.505481 4,12 C4,11.494519 4.40977328,11.0847458 4.91525424,11.0847458 L19.0847458,11.0847458 Z M19.0847458,6 C19.5902267,6 20,6.40977328 20,6.91525424 C20,7.42073519 19.5902267,7.83050847 19.0847458,7.83050847 L4.91525424,7.83050847 C4.40977328,7.83050847 4,7.42073519 4,6.91525424 C4,6.40977328 4.40977328,6 4.91525424,6 L19.0847458,6 Z"></path>
                </g>
            </g>
        </g>
    </g>
</svg>