<?xml version="1.0" encoding="UTF-8"?>
<svg width="24px" height="24px" viewBox="0 0 24 24" version="1.1" xmlns="http://www.w3.org/2000/svg" xmlns:xlink="http://www.w3.org/1999/xlink">
    <!-- Generator: sketchtool 62 (101010) - https://sketch.com -->
    <title>70DE7B0A-274B-4997-B07B-3F3C863890F8</title>
    <desc>Created with sketchtool.</desc>
    <g id="⚪️Element/Icons" stroke="none" stroke-width="1" fill="none" fill-rule="evenodd">
        <g id="Element/Icons" transform="translate(-1207.000000, -856.000000)" fill="#1A1F23">
            <g id="ic/24/24_message_lock_b" transform="translate(1207.000000, 856.000000)">
                <g id="ic/24/24_message_lock">
                    <g id="Group" transform="translate(3.000000, 3.000000)">
                        <path d="M9.62482224,0.998319328 C14.1482497,0.998319328 17.8310727,4.59737512 17.9659223,9.08811787 L17.9697479,9.34324499 L17.9697479,17.6881707 L8.34492566,17.6881707 C3.73615048,17.6881707 -1.00491044e-13,13.9520202 -1.00491044e-13,9.34324499 C-1.00491044e-13,8.99667118 0.0211273389,8.65503192 0.0621643408,8.31954489 L1.40531579,8.31918722 C1.35641449,8.65346367 1.33109244,8.99539719 1.33109244,9.34324499 C1.33109244,13.1361774 4.3418138,16.2259182 8.10380035,16.3530112 L8.34492566,16.3570782 L16.6386555,16.3569076 L16.6386555,9.34324499 C16.6386555,5.63627882 13.7628626,2.60099005 10.1205581,2.34665983 L9.88195147,2.3340375 L9.62482224,2.32941176 L8.43,2.32915294 L8.43,0.998152941 L9.62482224,0.998319328 Z" id="Combined-Shape"></path>
                        <path d="M5.61447964,9.00193924 C5.04898575,9.00193924 4.59056238,9.46036261 4.59056238,10.0258565 C4.59056238,10.5913504 5.04898575,11.0497738 5.61447964,11.0497738 C6.17997353,11.0497738 6.6383969,10.5913504 6.6383969,10.0258565 C6.6383969,9.46036261 6.17997353,9.00193924 5.61447964,9.00193924 Z" id="Path"></path>
                        <path d="M8.94221073,9.00193924 C8.37671684,9.00193924 7.91829347,9.46036261 7.91829347,10.0258565 C7.91829347,10.5913504 8.37671684,11.0497738 8.94221073,11.0497738 C9.50770462,11.0497738 9.96612799,10.5913504 9.96612799,10.0258565 C9.96612799,9.46036261 9.50770462,9.00193924 8.94221073,9.00193924 Z" id="Path"></path>
                        <path d="M12.2699418,9.00193924 C11.7044479,9.00193924 11.2460246,9.46036261 11.2460246,10.0258565 C11.2460246,10.5913504 11.7044479,11.0497738 12.2699418,11.0497738 C12.8354357,11.0497738 13.2938591,10.5913504 13.2938591,10.0258565 C13.2938591,9.46036261 12.8354357,9.00193924 12.2699418,9.00193924 Z" id="Path"></path>
                        <rect id="Rectangle" x="0.665546218" y="2.77310924" width="6.65546218" height="4.43697479" rx="0.67885713"></rect>
                        <path d="M3.99327731,0 C5.46356142,0 6.66659752,1.14422474 6.76048795,2.59077655 L6.76638655,2.77310924 L5.65714286,2.77310924 C5.65714286,1.85418168 4.91220488,1.1092437 3.99327731,1.1092437 C3.12840431,1.1092437 2.41765357,1.76911955 2.33702847,2.61286789 L2.32941176,2.77310924 L1.22016807,2.77310924 C1.22016807,1.2415633 2.46173137,0 3.99327731,0 Z" id="Path-4"></path>
                    </g>
                </g>
            </g>
        </g>
    </g>
</svg>