<?xml version="1.0" encoding="UTF-8"?>
<svg width="24px" height="24px" viewBox="0 0 24 24" version="1.1" xmlns="http://www.w3.org/2000/svg" xmlns:xlink="http://www.w3.org/1999/xlink">
    <!-- Generator: sketchtool 62 (101010) - https://sketch.com -->
    <title>1ED17264-AF24-4EB7-95B9-BB3232FCF872</title>
    <desc>Created with sketchtool.</desc>
    <g id="⚪️Element/Icons" stroke="none" stroke-width="1" fill="none" fill-rule="evenodd">
        <g id="Element/Icons" transform="translate(-1839.000000, -1334.000000)" fill="#17CEDF">
            <g id="ic/24/24_mention_b" transform="translate(1839.000000, 1334.000000)">
                <g id="ic/24/24_mention_g">
                    <g id="noun_mention_2303158" transform="translate(2.500000, 2.500000)">
                        <path d="M9.50054329,12.5605463 C7.80989331,12.5605463 6.44025285,11.1907913 6.44025285,9.50133764 C6.44025285,7.8105463 7.80989331,6.44079131 9.50054329,6.44079131 C11.1898557,6.44079131 12.5594962,7.8105463 12.5594962,9.50133764 C12.5594962,11.1907913 11.1898557,12.5605463 9.50054329,12.5605463 M9.50188083,0 L9.50054329,0 C8.56694066,0 7.07692164,0.137778092 5.45314865,0.901577023 C4.74692778,1.23331456 3.38665008,1.98106167 2.18687713,3.43375106 C0.0468138835,6.02478174 0,8.94487467 0,9.50133764 C0.00267507906,13.4848634 2.52928724,15.9769079 2.9439245,16.3728527 C3.05627782,16.4798648 5.74205719,18.9705717 9.50054329,19 L9.5687578,19 C11.0587768,19 12.2558747,18.6174317 12.4672059,18.5478738 C13.5773637,18.182695 14.4106509,17.6690369 14.9536919,17.2757674 C15.3161651,17.0269642 15.4084554,16.5226696 15.1583355,16.1601661 C15.0045184,15.9354407 14.7517235,15.8150521 14.4949158,15.8150521 C14.3384237,15.8150521 14.180594,15.8605323 14.0428275,15.9555055 C13.5412502,16.318009 12.7173259,16.8249789 11.5951302,17.1299634 C11.438638,17.1727682 10.6026758,17.3948183 9.57544546,17.3948183 L9.50054329,17.3948183 C6.25165972,17.3613771 3.98988041,15.15559 3.98988041,15.15559 C1.65186132,12.8789074 1.60638497,9.9922557 1.60638497,9.50133764 C1.60638497,9.15221063 1.65052378,6.36320757 3.73441036,4.1146156 C4.56234733,3.22106449 5.44378588,2.70339341 5.98816449,2.43318784 C7.43939484,1.70951845 8.77292173,1.60785695 9.50054329,1.60651929 L9.51258112,1.60651929 C11.1992185,1.60651929 12.4498179,2.14425514 12.9741334,2.39974655 C13.3031681,2.56026472 14.7169474,3.2812588 15.9260831,4.91185581 C16.5988655,5.81744579 17.3947016,7.60989862 17.3947016,9.5 C17.3947016,10.3868628 16.6657425,11.1158828 15.7789538,11.1158828 C14.8935026,11.1158828 14.1645436,10.3868628 14.1645436,9.5 C14.1645436,8.51950157 14.0455026,7.97909041 13.44896,7.00795553 C13.2737423,6.72169811 13.0971871,6.52238809 12.9915214,6.40467472 C12.3093763,5.6408758 11.5590166,5.29977472 11.3008715,5.1927626 C11.029351,5.07906226 10.3739566,4.83694731 9.50054329,4.83560971 L9.49653065,4.83560971 C8.68598167,4.83560971 8.08007627,5.04428333 7.84199425,5.13390592 C7.6199627,5.2195156 7.11704784,5.43086453 6.5806945,5.86292591 C5.66715498,6.60264715 5.28194359,7.48415938 5.16691519,7.77175445 C5.04252402,8.08208956 4.83654293,8.69740915 4.83520539,9.5 C4.83520539,10.3654605 5.07328743,11.0209096 5.20302876,11.3245564 C5.35149565,11.6790341 5.73269441,12.4521966 6.54725596,13.1156716 C7.79116775,14.1269361 9.16214576,14.165728 9.49653065,14.165728 L9.50054329,14.165728 C9.91919316,14.1643903 10.8608209,14.1082089 11.8532753,13.5276683 C12.8296791,12.9578288 13.3392817,12.1846663 13.5479379,11.8208251 C13.7351934,12.0000704 14.0495152,12.2595748 14.5016036,12.4562095 C14.6928717,12.5391439 15.1636856,12.7197268 15.769591,12.7197268 L15.7789538,12.7197268 C17.0977678,12.7157139 17.9711811,11.8542664 18.0714966,11.7526049 C18.9649729,10.8416643 18.9984114,9.73007603 18.999749,9.5 C19.0238247,6.48760915 17.3090991,4.02231766 16.8770737,3.49929597 C16.3821841,2.89869051 14.9256036,1.28147001 12.4631933,0.472190935 C11.894739,0.28491974 10.8434329,0 9.50188083,0" id="Shape"></path>
                    </g>
                </g>
            </g>
        </g>
    </g>
</svg>