<svg xmlns="http://www.w3.org/2000/svg" width="24" height="24" viewBox="0 0 24 24">
    <g fill="none" fill-opacity=".86" fill-rule="evenodd">
        <g fill="#010505">
            <g>
                <g>
                    <path d="M11.83 2C6.468 2 2 5.743 2 10.35c0 4.608 4.47 8.36 9.83 8.36l.407-.008c.542-.02 1.083-.079 1.616-.178l.066-.013-.266-.213c1.08.898 2.329 1.572 3.673 1.982.455.117.904-.037 1.172-.383.27-.347.307-.82.096-1.204l-.18-.303c-.228-.406-.415-.823-.563-1.25l-.046-.145c2.301-1.419 3.757-3.897 3.855-6.62C21.66 5.743 17.192 2 11.83 2zm0 1.4c4.638 0 8.43 3.177 8.43 6.95-.086 2.39-1.463 4.571-3.604 5.69-.286.149-.433.475-.356.788l.105.387c.114.384.253.76.417 1.125l.158.335-.281-.118c-.768-.34-1.495-.79-2.152-1.335-.166-.139-.388-.192-.6-.145-.695.155-1.405.233-2.117.233-4.636 0-8.43-3.185-8.43-6.96 0-3.773 3.792-6.95 8.43-6.95z" transform="translate(-501.000000, -1790.000000) translate(501.000000, 1790.000000) translate(0.000000, 0.000000)"/>
                </g>
            </g>
        </g>
    </g>
</svg>
