<svg xmlns="http://www.w3.org/2000/svg" width="24" height="24" viewBox="0 0 24 24">
    <g fill="none" fill-rule="evenodd">
        <g fill="#010505">
            <g>
                <path d="M17.69 2c1.331 0 2.43 1.041 2.5 2.37l1.75 14.9c.033.685-.216 1.354-.688 1.85-.472.497-1.127.779-1.812.78H4.55c-.685-.001-1.34-.283-1.812-.78-.472-.496-.72-1.165-.688-1.85L3.8 4.37C3.87 3.042 4.969 2 6.3 2h11.39zm-3.26 4.51c-.387 0-.7.314-.7.7V8.5l-.008.173c-.038.4-.212.773-.496 1.059-.325.326-.766.509-1.226.509-.961 0-1.74-.78-1.74-1.74V7.21l-.006-.095c-.047-.342-.34-.605-.694-.605-.387 0-.7.313-.7.7V8.5l.005.178c.092 1.651 1.46 2.962 3.135 2.962.832 0 1.63-.332 2.218-.921.587-.59.915-1.39.912-2.222V7.211l-.006-.095c-.047-.342-.34-.605-.694-.605z" transform="translate(-428.000000, -1942.000000) translate(428.000000, 1942.000000) translate(-0.000000, -0.000000)"/>
            </g>
        </g>
    </g>
</svg>
