<?xml version="1.0" encoding="UTF-8"?>
<svg width="24px" height="24px" viewBox="0 0 24 24" version="1.1" xmlns="http://www.w3.org/2000/svg" xmlns:xlink="http://www.w3.org/1999/xlink">
    <!-- Generator: sketchtool 62 (101010) - https://sketch.com -->
    <title>7DFC8809-D108-491A-A866-560B82332CA4</title>
    <desc>Created with sketchtool.</desc>
    <g id="⚪️Element/Icons" stroke="none" stroke-width="1" fill="none" fill-rule="evenodd">
        <g id="Element/Icons" transform="translate(-1456.000000, -856.000000)">
            <g id="ic/24/24_message_w" transform="translate(1456.000000, 856.000000)">
                <g>
                    <g id="ic/24/message/w" opacity="0.5">
                        <g id="ic_messagetitle">
                            <polygon points="0 0 24 0 24 24 0 24"></polygon>
                        </g>
                    </g>
                    <g id="Group-3" transform="translate(2.000000, 3.000000)" stroke="#FFFFFF">
                        <path d="M9.23076923,0 L10.7692308,0 C15.8672438,-4.48920349e-15 20,4.13275616 20,9.23076923 L20,18.4615385 L20,18.4615385 L20,18.4615385 L9.30100661,18.4615385 L9.23076923,18.4615385 C4.13275616,18.4615385 6.24326539e-16,14.3287823 0,9.23076923 C-6.24326539e-16,4.13275616 4.13275616,-8.3986703e-16 9.23076923,0 Z" id="Rectangle" stroke-width="1.6"></path>
                        <circle id="Oval" stroke-width="1.23076923" fill="#FFFFFF" cx="5.94871795" cy="10.0512821" r="1"></circle>
                        <circle id="Oval-Copy" stroke-width="1.23076923" fill="#FFFFFF" cx="9.94871795" cy="10.0512821" r="1"></circle>
                        <circle id="Oval-Copy-2" stroke-width="1.23076923" fill="#FFFFFF" cx="13.9487179" cy="10.0512821" r="1"></circle>
                    </g>
                </g>
            </g>
        </g>
    </g>
</svg>