<?xml version="1.0" encoding="UTF-8"?>
<svg width="24px" height="24px" viewBox="0 0 24 24" version="1.1" xmlns="http://www.w3.org/2000/svg" xmlns:xlink="http://www.w3.org/1999/xlink">
    <!-- Generator: sketchtool 62 (101010) - https://sketch.com -->
    <title>42B193E6-6962-4814-B60A-730D69BC6AD7</title>
    <desc>Created with sketchtool.</desc>
    <g id="⚪️Element/Icons" stroke="none" stroke-width="1" fill="none" fill-rule="evenodd">
        <g id="Element/Icons" transform="translate(-1652.000000, -550.000000)" fill="#AEB8BD">
            <g id="ic/24/24_more_g" transform="translate(1652.000000, 550.000000)">
                <g id="Combined-Shape">
                    <path d="M6,10.5 C6.82842712,10.5 7.5,11.1715729 7.5,12 C7.5,12.8284271 6.82842712,13.5 6,13.5 C5.17157288,13.5 4.5,12.8284271 4.5,12 C4.5,11.1715729 5.17157288,10.5 6,10.5 Z M12,10.5 C12.8284271,10.5 13.5,11.1715729 13.5,12 C13.5,12.8284271 12.8284271,13.5 12,13.5 C11.1715729,13.5 10.5,12.8284271 10.5,12 C10.5,11.1715729 11.1715729,10.5 12,10.5 Z M18,10.5 C18.8284271,10.5 19.5,11.1715729 19.5,12 C19.5,12.8284271 18.8284271,13.5 18,13.5 C17.1715729,13.5 16.5,12.8284271 16.5,12 C16.5,11.1715729 17.1715729,10.5 18,10.5 Z"></path>
                </g>
            </g>
        </g>
    </g>
</svg>