<svg xmlns="http://www.w3.org/2000/svg" width="24" height="24" viewBox="0 0 24 24">
    <g fill="none" fill-opacity=".86" fill-rule="evenodd">
        <g fill="#010505">
            <g>
                <g>
                    <path d="M12.13 2.5c-5.259 0-9.63 3.663-9.63 8.15 0 4.49 4.373 8.16 9.63 8.16l.48-.01c.479-.022.956-.074 1.428-.158l.232-.046-.19-.151c1.06.88 2.286 1.541 3.604 1.943.37.095.737-.03.956-.314.22-.283.251-.67.078-.985l-.181-.307c-.232-.413-.424-.839-.575-1.276l-.096-.301.138-.082c2.24-1.382 3.66-3.8 3.756-6.455 0-4.505-4.371-8.168-9.63-8.168zm0 1c4.742 0 8.63 3.258 8.63 7.15-.09 2.468-1.506 4.715-3.711 5.867-.205.107-.31.34-.254.563l.102.378c.185.626.44 1.23.759 1.799l.051.087.247.082c-1.17-.358-2.276-.955-3.235-1.75-.119-.1-.277-.138-.428-.104-.71.158-1.434.238-2.161.238-4.74 0-8.63-3.266-8.63-7.16 0-3.892 3.888-7.15 8.63-7.15z" transform="translate(-535 -1790) translate(535 1790)"/>
                </g>
            </g>
        </g>
    </g>
</svg>
