<?xml version="1.0" encoding="UTF-8"?>
<svg width="24px" height="24px" viewBox="0 0 24 24" version="1.1" xmlns="http://www.w3.org/2000/svg" xmlns:xlink="http://www.w3.org/1999/xlink">
    <!-- Generator: sketchtool 62 (101010) - https://sketch.com -->
    <title>C7CC8365-AB7D-451D-BCD8-08D261FB4BBF</title>
    <desc>Created with sketchtool.</desc>
    <g id="⚪️Element/Icons" stroke="none" stroke-width="1" fill="none" fill-rule="evenodd">
        <g id="Element/Icons" transform="translate(-1652.000000, -1286.000000)" fill="#AEB8BD">
            <g id="ic/24/24_menu_g" transform="translate(1652.000000, 1286.000000)">
                <g id="Combined-Shape">
                    <path d="M19.1,16.8 C19.5970563,16.8 20,17.2029437 20,17.7 C20,18.1970563 19.5970563,18.6 19.1,18.6 L4.9,18.6 C4.40294373,18.6 4,18.1970563 4,17.7 C4,17.2029437 4.40294373,16.8 4.9,16.8 L19.1,16.8 Z M15.1,11 C15.5970563,11 16,11.4029437 16,11.9 C16,12.3970563 15.5970563,12.8 15.1,12.8 L4.9,12.8 C4.40294373,12.8 4,12.3970563 4,11.9 C4,11.4029437 4.40294373,11 4.9,11 L15.1,11 Z M19.1,5.2 C19.5970563,5.2 20,5.60294373 20,6.1 C20,6.59705627 19.5970563,7 19.1,7 L4.9,7 C4.40294373,7 4,6.59705627 4,6.1 C4,5.60294373 4.40294373,5.2 4.9,5.2 L19.1,5.2 Z"></path>
                </g>
            </g>
        </g>
    </g>
</svg>