<?xml version="1.0" encoding="UTF-8"?>
<svg width="24px" height="24px" viewBox="0 0 24 24" version="1.1" xmlns="http://www.w3.org/2000/svg" xmlns:xlink="http://www.w3.org/1999/xlink">
    <!-- Generator: sketchtool 62 (101010) - https://sketch.com -->
    <title>157A51FE-DA37-483E-B3F1-9A265E006787</title>
    <desc>Created with sketchtool.</desc>
    <g id="⚪️Element/Icons" stroke="none" stroke-width="1" fill="none" fill-rule="evenodd">
        <g id="Element/Icons" transform="translate(-1827.000000, -385.000000)">
            <g id="ic/24/24_notioff_g" transform="translate(1827.000000, 385.000000)">
                <g>
                    <path d="M18.2808196,9.65759588 L18.2847703,9.89178238 L18.284,13.191 L19.6547392,14.3489658 C19.892288,14.5497249 20.0546546,14.8205149 20.1209911,15.117874 L20.1460604,15.2685665 L20.1545455,15.4224799 L20.1545455,16.2125796 C20.1545455,16.948103 19.5880946,17.5487107 18.8681873,17.6168254 L18.7315072,17.6232597 L15.3486539,17.6242096 C15.122467,19.539952 13.7629637,20.9045455 12,20.9045455 C10.2370363,20.9045455 8.87753298,19.539952 8.65134613,17.6242096 L5.26849283,17.6232597 C5.14629475,17.6232597 5.02760123,17.6079575 4.91429114,17.5791618 L6.17845455,16.3134545 L18.7315072,16.3141688 C18.7804712,16.3141688 18.8200846,16.2872365 18.836831,16.2511117 L18.8454545,16.2125796 L18.8454545,15.4224799 C18.8454545,15.4043034 18.8398972,15.3863397 18.8293151,15.3705715 L18.80974,15.3488134 L16.9756794,13.7987975 L16.9756794,9.89178238 C16.9756794,8.64939796 16.5653249,7.5092472 15.8799956,6.61220576 L16.812362,5.68031034 C17.6870044,6.76423267 18.2297825,8.14716892 18.2808196,9.65759588 Z M14.011,17.707 L9.988,17.707 L9.99945087,17.7696245 C10.210218,18.7679097 10.862927,19.4406793 11.6966335,19.5719563 L11.8550108,19.5901724 L12,19.5954545 C12.9220483,19.5954545 13.6766281,18.9627525 13.9562054,17.9518864 L14.0005491,17.7696245 L14.011,17.707 Z M12,3.34545455 C13.4500933,3.34545455 14.7821592,3.85522687 15.8431022,4.71052337 L14.9094669,5.64249471 C14.090927,5.02067029 13.0857322,4.65454545 12,4.65454545 C9.32509796,4.65454545 7.13903783,6.87682917 7.02869083,9.67010446 L7.02432056,9.89178238 L7.02345455,13.5284545 L5.27945455,15.2724545 L5.19026003,15.3488134 C5.17602422,15.3608445 5.16581598,15.3755727 5.16005001,15.3914544 L3.91186477,16.6399977 C3.8820331,16.5468093 3.86169572,16.4493818 3.85199181,16.3488121 L3.84545455,16.2125796 L3.84545455,15.4224799 C3.84545455,15.0605298 3.98562094,14.7150248 4.23284808,14.45498 L4.34526079,14.3489658 L5.715,13.191 L5.71522965,9.89178238 C5.71522965,6.44287577 8.27883867,3.60242061 11.549756,3.36194418 L11.7738473,3.34960033 L12,3.34545455 Z" id="Combined-Shape" fill="#AEB8BD" fill-rule="nonzero"></path>
                    <line x1="3.4" y1="20" x2="19.4" y2="4" id="Line" stroke="#AEB8BD" stroke-width="1.37142857" stroke-linecap="round"></line>
                </g>
            </g>
        </g>
    </g>
</svg>