<svg xmlns="http://www.w3.org/2000/svg" width="24" height="24" viewBox="0 0 24 24">
    <g fill="none"  fill-rule="evenodd">
        <g fill="#010505">
            <g>
                <g>
                    <path d="M19.885 3.515c.24.241.265.617.072.885l-.072.085-2.334 2.333c.435.853.695 1.817.73 2.84l.004.234-.001 3.299 1.37 1.158c.238.2.4.472.467.769l.025.15.009.154v.79c0 .736-.567 1.337-1.287 1.405l-.136.006-3.383.001c-.227 1.916-1.586 3.28-3.349 3.28-1.763 0-3.122-1.364-3.349-3.28l-1.905-.002-2.861 2.863c-.268.268-.702.268-.97 0-.24-.241-.265-.617-.072-.885l.072-.085 16-16c.268-.268.702-.268.97 0zM14.01 17.707H9.988l.011.063c.211.998.864 1.67 1.698 1.802l.158.018.145.005c.922 0 1.677-.632 1.956-1.643l.045-.182.01-.063zM12 3.345c1.45 0 2.782.51 3.843 1.366l-.934.931c-.818-.621-1.823-.987-2.909-.987-2.675 0-4.861 2.222-4.971 5.015l-.005.222v3.636l-1.745 1.744-.089.077c-.014.012-.024.027-.03.042L3.912 16.64c-.03-.093-.05-.19-.06-.291l-.007-.136v-.79c0-.362.14-.708.388-.968l.112-.106 1.37-1.158v-3.3c0-3.448 2.564-6.289 5.835-6.53l.224-.011.226-.005zm4.566 4.46l-8.51 8.508 10.676.001c.048 0 .088-.027.105-.063l.008-.038v-.79c0-.019-.005-.037-.016-.052l-.02-.022-1.833-1.55V9.892c0-.742-.147-1.448-.41-2.087z" transform="translate(-1340 -1059) translate(1340 1059)"/>
                </g>
            </g>
        </g>
    </g>
</svg>
