<svg xmlns="http://www.w3.org/2000/svg" width="24" height="24" viewBox="0 0 24 24">
    <path fill="#1F262A" fill-rule="evenodd" d="M12 3.345c3.407 0 6.163 2.815 6.28 6.313l.005.234-.001 3.299 1.37 1.158c.238.2.4.472.467.769l.025.15.009.154v.79c0 .736-.567 1.337-1.287 1.405l-.136.006-3.383.001c-.227 1.916-1.586 3.28-3.349 3.28-1.763 0-3.122-1.364-3.349-3.28H5.268c-.737 0-1.347-.558-1.416-1.275l-.007-.136v-.79c0-.362.14-.708.388-.968l.112-.106 1.37-1.158v-3.3c0-3.448 2.564-6.289 5.835-6.53l.224-.011.226-.005zm2.011 14.362H9.988l.011.063c.211.998.864 1.67 1.698 1.802l.158.018.145.005c.922 0 1.677-.632 1.956-1.643l.045-.182.01-.063zM12 4.655c-2.675 0-4.861 2.222-4.971 5.015l-.005.222v3.907l-1.834 1.55c-.015.013-.026.03-.031.047l-.004.026v.79c0 .04.027.078.068.094l.045.008h13.464c.048 0 .088-.027.105-.063l.008-.038v-.79c0-.019-.005-.037-.016-.052l-.02-.022-1.833-1.55V9.892c0-2.897-2.23-5.237-4.976-5.237z"/>
</svg>
