<svg xmlns="http://www.w3.org/2000/svg" width="24" height="24" viewBox="0 0 24 24">
    <g fill="none" fill-rule="evenodd">
        <g fill="#010505">
            <g>
                <g>
                    <path fill-opacity=".14" fill-rule="nonzero" d="M11-.5C4.649-.5-.5 4.649-.5 11S4.649 22.5 11 22.5 22.5 17.351 22.5 11 17.351-.5 11-.5zm0 1C16.799.5 21.5 5.201 21.5 11S16.799 21.5 11 21.5.5 16.799.5 11 5.201.5 11 .5z" transform="translate(-1775 -1503) translate(1775 1503) translate(1 1)"/>
                    <path d="M5.47 8.47c.265-.266.682-.291.976-.073l.084.072 3.476 3.47 3.463-3.469c.266-.266.683-.291.977-.073l.084.072c.266.266.291.683.073.977l-.072.084-3.992 4c-.266.266-.683.291-.977.073l-.084-.072-4.008-4c-.293-.293-.293-.768 0-1.06z" transform="translate(-1775 -1503) translate(1775 1503) translate(1 1) matrix(0 -1 -1 0 21 21)"/>
                </g>
            </g>
        </g>
    </g>
</svg>
