<svg xmlns="http://www.w3.org/2000/svg" width="24" height="24" viewBox="0 0 24 24">
    <g fill="none" fill-rule="evenodd">
        <g>
            <g>
                <g transform="translate(-1775 -1503) translate(1775 1503) translate(1 1)">
                    <circle cx="11" cy="11" r="11" stroke="#010505" stroke-opacity=".14"/>
                    <path fill="#010505" fill-opacity=".66" d="M5.47 8.47c.265-.266.682-.291.976-.073l.084.072 3.476 3.47 3.463-3.469c.266-.266.683-.291.977-.073l.084.072c.266.266.291.683.073.977l-.072.084-3.992 4c-.266.266-.683.291-.977.073l-.084-.072-4.008-4c-.293-.293-.293-.768 0-1.06z" transform="matrix(0 -1 -1 0 21 21)"/>
                </g>
            </g>
        </g>
    </g>
</svg>
