<svg xmlns="http://www.w3.org/2000/svg" width="24" height="24" viewBox="0 0 24 24">
    <g fill="none" fill-rule="evenodd">
        <g fill="#AEB8BD">
            <path d="M14.06 18.283c0 1.33-.896 2.217-2 2.217-1.106 0-2.002-.887-2.002-2.217h4.003zM12 4c3.122 0 5.63 2.735 5.63 6.082v3.72l1.602 1.397c.17.149.268.365.268.593v.815c0 .431-.344.78-.768.78H5.268c-.424 0-.768-.349-.768-.78v-.815c0-.228.098-.444.268-.593l1.602-1.397v-3.72C6.37 6.735 8.878 4 12 4z" transform="translate(-1754 -359) translate(1754 359)"/>
        </g>
    </g>
</svg>
