<svg xmlns="http://www.w3.org/2000/svg" width="24" height="24" viewBox="0 0 24 24">
    <g fill="none"  fill-rule="evenodd">
        <g fill="#010505">
            <g>
                <g>
                    <path d="M11.2 3.398c-.35.467-.635.988-.839 1.547l-.011.005c-1.873.692-3.235 2.53-3.321 4.72l-.005.222v3.907l-1.834 1.55c-.015.013-.026.03-.031.047l-.004.026v.79c0 .04.027.078.068.094l.045.008h13.464c.048 0 .088-.027.105-.063l.008-.038v-.79c0-.019-.005-.037-.016-.052l-.02-.022-1.833-1.55v-.878c.455-.075.893-.2 1.308-.371v.641l1.37 1.158c.238.2.4.472.467.769l.025.15.009.154v.79c0 .736-.567 1.337-1.287 1.405l-.136.006-3.383.001c-.227 1.916-1.586 3.28-3.349 3.28-1.763 0-3.122-1.364-3.349-3.28H5.268c-.737 0-1.347-.558-1.416-1.275l-.007-.136v-.79c0-.362.14-.708.388-.968l.112-.106 1.37-1.158v-3.3c0-3.324 2.383-6.084 5.486-6.493zm2.811 14.309H9.988l.011.063c.211.998.864 1.67 1.698 1.802l.158.018.145.005c.922 0 1.677-.632 1.956-1.643l.045-.182.01-.063zM16 2.5c2.485 0 4.5 2.015 4.5 4.5s-2.015 4.5-4.5 4.5-4.5-2.015-4.5-4.5 2.015-4.5 4.5-4.5zm-2.475 2.025c-.106.107-.174.237-.203.374l-.015.104v.105l.015.104c.022.102.065.202.13.29l.073.084 1.413 1.413-1.413 1.415c-.293.293-.293.768 0 1.06.266.267.683.291.977.073l.084-.072 1.413-1.415 1.415 1.415c.293.293.768.293 1.06 0 .267-.266.291-.683.073-.977l-.072-.084L17.06 7l1.415-1.413c.293-.293.293-.768 0-1.06-.266-.267-.683-.291-.977-.073l-.084.072L16 5.938l-1.413-1.413c-.293-.293-.768-.293-1.06 0z" transform="translate(-1340 -1025) translate(1340 1025)"/>
                </g>
            </g>
        </g>
    </g>
</svg>
