<?xml version="1.0" encoding="UTF-8"?>
<svg width="24px" height="24px" viewBox="0 0 24 24" version="1.1" xmlns="http://www.w3.org/2000/svg" xmlns:xlink="http://www.w3.org/1999/xlink">
    <!-- Generator: sketchtool 62 (101010) - https://sketch.com -->
    <title>BCC8D80A-ADDA-43F1-AA88-F9475E87A140</title>
    <desc>Created with sketchtool.</desc>
    <g id="⚪️Element/Icons" stroke="none" stroke-width="1" fill="none" fill-rule="evenodd">
        <g id="Element/Icons" transform="translate(-1652.000000, -1154.000000)" fill="#AEB8BD" fill-rule="nonzero">
            <g id="ic/24/24_private_g" transform="translate(1652.000000, 1154.000000)">
                <g id="Combined-Shape">
                    <path d="M12,2.5 C15.3667846,2.5 17.2993538,4.77741182 17.6355233,9.07375728 L18.1388889,9.07470692 C19.4428945,9.07470692 20.5,10.1445133 20.5,11.4641864 L20.5,19.1105206 C20.5,20.4301936 19.4428945,21.5 18.1388889,21.5 L5.86111111,21.5 C4.55710545,21.5 3.5,20.4301936 3.5,19.1105206 L3.5,11.4641864 C3.5,10.1445133 4.55710545,9.07470692 5.86111111,9.07470692 L6.36447674,9.07375728 C6.70064623,4.77741182 8.63321544,2.5 12,2.5 Z M18.1388889,10.5083946 L5.86111111,10.5083946 C5.33950885,10.5083946 4.91666667,10.9363171 4.91666667,11.4641864 L4.91666667,19.1105206 C4.91666667,19.6383898 5.33950885,20.0663123 5.86111111,20.0663123 L18.1388889,20.0663123 C18.6604912,20.0663123 19.0833333,19.6383898 19.0833333,19.1105206 L19.0833333,11.4641864 C19.0833333,10.9363171 18.6604912,10.5083946 18.1388889,10.5083946 Z M12,3.99326724 C9.37243873,3.99326724 8.14605545,5.65701179 7.88273404,9.07405793 L16.1914893,9.07405793 C15.9220584,5.65701179 14.6275613,3.99326724 12,3.99326724 Z"></path>
                </g>
            </g>
        </g>
    </g>
</svg>