<?xml version="1.0" encoding="UTF-8"?>
<svg width="24px" height="24px" viewBox="0 0 24 24" version="1.1" xmlns="http://www.w3.org/2000/svg" xmlns:xlink="http://www.w3.org/1999/xlink">
    <g  stroke="none" stroke-width="1" fill="none" fill-rule="evenodd">
        <g transform="translate(-1652.000000, -1201.000000)" fill="#AEB8BD">
            <g  transform="translate(1652.000000, 1201.000000)">
                <g>
                    <g transform="translate(2.500000, 2.500000)">
                        <path d="M13.4362232,0.961001204 L18.009862,5.53592946 C18.9427653,6.37998481 19.0524828,7.83374172 18.2178673,8.75612692 C17.5940978,9.46306574 16.6267793,9.68963106 15.7400234,9.40196143 L12.3367647,12.8052202 C12.6485839,13.6808979 12.4026774,14.65525 11.6960159,15.2787015 C10.7788555,16.1085133 9.34559241,16.0147485 8.46580798,15.1349586 L6.50809805,13.1894303 L1.34499553,18.4426456 C1.08778248,18.704292 0.682018824,18.7313453 0.394132607,18.521529 L0.311569494,18.4514757 C0.0237584019,18.1685414 0.0198050184,17.7058608 0.302739365,17.4180497 L0.302739365,17.4180497 L5.47109805,12.1604303 L3.83396824,10.5331902 C2.95249791,9.65171991 2.85873304,8.21845684 3.68247795,7.3080865 C4.30683535,6.60048144 5.30527344,6.34803272 6.16262131,6.65995253 L9.55577962,3.26679421 L9.52242313,3.16198802 C9.27649895,2.32040578 9.53167853,1.40902349 10.2043294,0.815577815 C11.1214898,-0.0142339956 12.5547529,0.0795308779 13.4362232,0.961001204 Z M11.1781049,1.90542778 C10.926249,2.12765358 10.8353527,2.45433945 10.9276339,2.75982861 L10.9763412,2.90053577 C11.111642,3.37408852 11.0063105,3.88319084 10.6400913,4.24941002 L7.12237705,7.7671243 C6.75844067,8.13106068 6.16864945,8.24901892 5.69068044,8.04415893 C5.39656208,7.92031962 5.01299149,8.00919573 4.77232791,8.28186205 C4.48321805,8.60140452 4.51920562,9.1515001 4.8657461,9.49804606 L9.49758584,14.0998144 C9.84581222,14.4480408 10.3959078,14.4840283 10.7222403,14.1888516 C10.9934698,13.9495315 11.0780243,13.5890624 10.9549733,13.2808499 C10.7451574,12.7912796 10.8412781,12.2337792 11.230188,11.8448693 L14.7779682,8.29708912 C15.1131993,7.96185808 15.6400618,7.83533259 16.0979928,7.97898929 L16.1829835,8.00910613 L16.2589553,8.03134857 C16.5880765,8.11446953 16.9132976,8.02562201 17.1280174,7.78235137 C17.3987805,7.48308691 17.3791851,6.99480922 17.0651754,6.65620458 L12.4027594,1.99446496 C12.0545331,1.64623858 11.5044375,1.61025102 11.1781049,1.90542778 Z" id="Combined-Shape"></path>
                    </g>
                </g>
            </g>
        </g>
    </g>
</svg>
