<svg width="24" height="24" viewBox="0 0 24 24" xmlns="http://www.w3.org/2000/svg">
    <path d="m12.074 2.302.098.015.097.029.094.044 8 4.5.028.016c.017.011.034.022.05.035l-.078-.051a.7.7 0 0 1 .267.267l.009.016a.7.7 0 0 1 .026.056l-.035-.072a.704.704 0 0 1 .081.232v.004l.005.035c.002.019.004.038.004.058V16.5a.7.7 0 0 1-.268.55l-.089.06-8 4.5-.024.013c-.02.01-.04.02-.061.028l.085-.04a.7.7 0 0 1-.343.089h-.026a.7.7 0 0 1-.05-.004l.076.004a.704.704 0 0 1-.25-.046l-.03-.013a.697.697 0 0 1-.034-.015l-.03-.016-8-4.5a.7.7 0 0 1-.348-.503L3.32 16.5V7.479c0-.022.002-.043.005-.064L3.32 7.5a.7.7 0 0 1 .09-.343l.016-.027a.7.7 0 0 1 .033-.048l-.05.075a.704.704 0 0 1 .179-.208l.01-.008a.697.697 0 0 1 .045-.031l.034-.02 8.018-4.51.09-.04.094-.026.087-.012h.108zM4.72 8.697v7.393l6.6 3.712V12.41l-6.6-3.713zm14.6 0-6.6 3.712v7.393l6.6-3.713V8.697zm-3.3-2.644L9.448 9.749l2.572 1.447L18.59 7.5l-2.57-1.447zm-4-2.25L5.448 7.499 8.02 8.946l6.57-3.697-2.57-1.446z" fill="#010505" fill-rule="evenodd" fill-opacity=".86"/>
</svg>
