<?xml version="1.0" encoding="UTF-8"?>
<svg width="24px" height="24px" viewBox="0 0 24 24" version="1.1" xmlns="http://www.w3.org/2000/svg" xmlns:xlink="http://www.w3.org/1999/xlink">
    <title>ic/24/24_recievecoin2</title>
    <g id="⚪️Base/Iconograyphy" stroke="none" stroke-width="1" fill="none" fill-rule="evenodd">
        <g id="Element/Icons/24*24" transform="translate(-465.000000, -2378.000000)" fill="#0096ff">
            <g id="ic/24/24_recievecoin2" transform="translate(465.000000, 2378.000000)">
                <g transform="translate(2.830000, 2.230000)" id="Combined-Shape">
                    <path d="M9.41,0 C14.8051453,0 19.18,4.37148688 19.18,9.77 C19.18,15.1718278 14.8118278,19.54 9.41,19.54 C8.14722519,19.54 6.91448638,19.2978549 5.76042956,18.8317935 C5.35074834,18.6663453 5.15275834,18.2001108 5.31820653,17.7904296 C5.48365472,17.3807483 5.94988922,17.1827583 6.35957044,17.3482065 C7.32425535,17.7377908 8.3536839,17.94 9.41,17.94 C13.9281722,17.94 17.58,14.2881722 17.58,9.77 C17.58,5.25541843 13.9217654,1.6 9.41,1.6 C8.30143522,1.6 7.22528918,1.81891622 6.23013746,2.23743797 C5.82286172,2.40872216 5.35384622,2.21741321 5.18256203,1.81013746 C5.01127784,1.40286172 5.20258679,0.933846224 5.60986254,0.762562034 C6.80056797,0.261798068 8.08751215,0 9.41,0 Z M12.2464463,9.20507644 C12.2741188,9.23340554 12.2939153,9.25614894 12.3123963,9.27996427 L12.2464463,9.20507644 C12.2768357,9.23554783 12.3042587,9.26785683 12.3287157,9.30164469 C12.3904596,9.38705773 12.4358784,9.48540253 12.4600833,9.59181294 C12.4630646,9.60527499 12.465671,9.6182601 12.4679532,9.6312908 C12.4714334,9.65077235 12.4741823,9.67088319 12.4761699,9.69121723 C12.4776783,9.70689572 12.4787602,9.72263326 12.4793792,9.73838548 C12.4797873,9.74851353 12.48,9.75923192 12.48,9.77 L12.4795246,9.79766284 C12.4789022,9.81576362 12.4776687,9.8338473 12.4758242,9.8518803 L12.48,9.77 C12.48,9.81708582 12.4759321,9.86322153 12.4681287,9.90807489 C12.4654237,9.92323622 12.462294,9.93856031 12.4587123,9.95379964 C12.453437,9.97650332 12.4472307,9.99850398 12.4401297,10.0200987 C12.4367436,10.0302796 12.4331449,10.0405411 12.4293308,10.0507402 C12.4038956,10.1187477 12.3692531,10.1826266 12.3270057,10.2406097 C12.3225674,10.2467924 12.3182534,10.2525375 12.313852,10.2582368 C12.2947467,10.2829366 12.2740952,10.3066958 12.2521307,10.3291663 C12.2499592,10.3313912 12.2474516,10.3339251 12.2449236,10.3364463 L8.52492356,14.0464463 C8.21208393,14.3584449 7.7055524,14.3577632 7.39355373,14.0449236 C7.08155507,13.7320839 7.08223681,13.2255524 7.39507644,12.9135537 L9.744,10.57 L0.8,10.57 C0.3581722,10.57 -4.4408921e-16,10.2118278 -4.4408921e-16,9.77 C-4.4408921e-16,9.3281722 0.3581722,8.97 0.8,8.97 L9.749,8.97 L7.39431458,6.61568542 C7.08189514,6.30326599 7.08189514,5.79673401 7.39431458,5.48431458 C7.70673401,5.17189514 8.21326599,5.17189514 8.52568542,5.48431458 L12.2464463,9.20507644 Z"></path>
                </g>
            </g>
        </g>
    </g>
</svg>