<svg xmlns="http://www.w3.org/2000/svg" width="24" height="24" viewBox="0 0 24 24">
    <g fill="none" fill-rule="evenodd">
        <g fill="#FFF">
            <g>
                <path d="M21.203 11H6.633l6.63-6.63c.31-.31.31-.82 0-1.13-.31-.31-.82-.31-1.13 0l-8 8c-.31.31-.31.82 0 1.13l8 8c.16.15.37.23.57.23.2 0 .41-.08.57-.23.31-.31.31-.82 0-1.13l-6.64-6.64h14.57c.44 0 .8-.36.8-.8 0-.44-.36-.8-.8-.8z" transform="translate(-2327 -870) translate(2327 870) matrix(-1 0 0 1 25.902 0)"/>
            </g>
        </g>
    </g>
</svg>
