<svg xmlns="http://www.w3.org/2000/svg" width="24" height="24" viewBox="0 0 24 24">
    <defs>
        <filter id="0l86k1lqaa">
            <feColorMatrix in="SourceGraphic" values="0 0 0 0 1.000000 0 0 0 0 1.000000 0 0 0 0 1.000000 0 0 0 1.000000 0"/>
        </filter>
    </defs>
    <g fill="none" fill-opacity=".38" fill-rule="evenodd">
        <g filter="url(#0l86k1lqaa)" transform="translate(-1601 -2711)">
            <path fill="#010505" d="M9.845 1.803c-.228.297-.202.723.076.992l1.37 1.323-.23.015c-1.691.135-3.312.715-4.71 1.699-2.02 1.421-3.348 3.52-3.736 5.91-.803 4.932 2.692 9.572 7.784 10.347.485.074.97.111 1.457.111 4.565 0 8.512-3.23 9.23-7.641.53-3.256-.813-6.537-3.504-8.561-.334-.251-.812-.193-1.073.132-.267.33-.205.813.137 1.069 2.242 1.686 3.36 4.415 2.92 7.12-.669 4.103-4.673 6.92-8.93 6.276-4.254-.648-7.167-4.514-6.5-8.614.323-1.988 1.428-3.734 3.113-4.92l.28-.188c1.127-.725 2.41-1.148 3.743-1.241l.162-.009-1.513 1.463c-.306.296-.306.782 0 1.078.147.141.34.217.541.217.2 0 .394-.076.54-.217L13.966 5.3c.198-.192.204-.509.012-.707l-2.976-2.876c-.3-.29-.78-.29-1.08 0l-.077.086z" transform="translate(1601 2711)"/>
        </g>
    </g>
</svg>
