<?xml version="1.0" encoding="UTF-8"?>
<svg width="24px" height="24px" viewBox="0 0 24 24" version="1.1" xmlns="http://www.w3.org/2000/svg" xmlns:xlink="http://www.w3.org/1999/xlink">
    <!-- Generator: sketchtool 62 (101010) - https://sketch.com -->
    <title>1CF695DC-F058-40E8-81C4-360D398EF729</title>
    <desc>Created with sketchtool.</desc>
    <g id="⚪️Element/Icons" stroke="none" stroke-width="1" fill="none" fill-rule="evenodd">
        <g id="Element/Icons" transform="translate(-1652.000000, -1106.000000)" fill="#AEB8BD" fill-rule="nonzero">
            <g id="ic/24/24_reaction_g" transform="translate(1652.000000, 1106.000000)">
                <g id="Combined-Shape">
                    <path d="M17.85,12.75 C18.3102373,12.75 18.6833333,13.123096 18.6833333,13.5833333 L18.683,16.916 L22.0166667,16.9166667 C22.476904,16.9166667 22.85,17.2897627 22.85,17.75 C22.85,18.2102373 22.476904,18.5833333 22.0166667,18.5833333 L18.683,18.583 L18.6833333,21.9166667 C18.6833333,22.376904 18.3102373,22.75 17.85,22.75 C17.3897627,22.75 17.0166667,22.376904 17.0166667,21.9166667 L17.016,18.583 L13.6833333,18.5833333 C13.223096,18.5833333 12.85,18.2102373 12.85,17.75 C12.85,17.2897627 13.223096,16.9166667 13.6833333,16.9166667 L17.016,16.916 L17.0166667,13.5833333 C17.0166667,13.123096 17.3897627,12.75 17.85,12.75 Z M10.25,2 C14.8063492,2 18.5,5.69365081 18.5,10.25 C18.5,10.6642136 18.1642136,11 17.75,11 C17.3357864,11 17,10.6642136 17,10.25 C17,6.52207794 13.9779221,3.5 10.25,3.5 C6.52207794,3.5 3.5,6.52207794 3.5,10.25 C3.5,13.9779221 6.52207794,17 10.25,17 C10.6642136,17 11,17.3357864 11,17.75 C11,18.1642136 10.6642136,18.5 10.25,18.5 C5.69365081,18.5 2,14.8063492 2,10.25 C2,5.69365081 5.69365081,2 10.25,2 Z M15.0840025,9.75002439 L15.1830471,9.75839204 C15.5490069,9.81718823 15.7991748,10.1689378 15.7418126,10.5440467 C15.3295032,13.2402672 12.9985325,15.25 10.2468939,15.25 C7.51215391,15.25 5.19091712,13.2644438 4.7591004,10.5893813 C4.69863198,10.2147853 4.94587603,9.86087048 5.31133544,9.79889034 C5.67679484,9.73691019 6.02207757,9.99033539 6.08254599,10.3649314 C6.40647567,12.3716442 8.16401966,13.8750248 10.2468939,13.8750248 C12.3425614,13.8750248 14.1072914,12.3534974 14.4165549,10.3311269 C14.4634875,10.0242196 14.7017463,9.79676379 14.9872736,9.75640146 L15.0840025,9.75002439 Z M7.75,7.25 C8.30228475,7.25 8.75,7.69771525 8.75,8.25 C8.75,8.80228475 8.30228475,9.25 7.75,9.25 C7.19771525,9.25 6.75,8.80228475 6.75,8.25 C6.75,7.69771525 7.19771525,7.25 7.75,7.25 Z M12.75,7.25 C13.3022847,7.25 13.75,7.69771525 13.75,8.25 C13.75,8.80228475 13.3022847,9.25 12.75,9.25 C12.1977153,9.25 11.75,8.80228475 11.75,8.25 C11.75,7.69771525 12.1977153,7.25 12.75,7.25 Z"></path>
                </g>
            </g>
        </g>
    </g>
</svg>