<svg xmlns="http://www.w3.org/2000/svg" width="24" height="25" viewBox="0 0 24 25">
    <g fill="none" fill-rule="evenodd">
        <path d="M0 0H24V25H0z"/>
        <g fill="#1F262A" >
            <path d="M4.231 6.977H1.923C.863 6.977 0 7.875 0 8.98v8.286c0 1.106.861 2.004 1.923 2.004h10.468c1.06 0 1.923-.899 1.923-2.004V8.98c0-1.106-.861-2.004-1.923-2.004h-2.308c-.485 0-.874.409-.874.914 0 .507.39.915.874.915h2.308c.092 0 .167.078.167.175v8.286c0 .095-.077.175-.167.175H1.923c-.092 0-.167-.079-.167-.175V8.98c0-.095.077-.175.167-.175h2.308c.485 0 .874-.41.874-.915l-.008-.116c-.065-.465-.43-.798-.866-.798z" transform="translate(4.75 2.865)"/>
            <path d="M6.536.268L3.187 3.756c-.343.357-.343.936 0 1.293l.09.082c.344.273.837.246 1.152-.082l1.849-1.927v8.258c0 .503.395.914.879.914l.11-.007c.432-.057.768-.442.768-.907l-.001-8.258 1.851 1.927c.167.174.39.268.62.268.232 0 .455-.094.622-.268.342-.357.342-.936 0-1.293L7.777.268c-.342-.357-.898-.357-1.24 0z" transform="translate(4.75 2.865)"/>
        </g>
    </g>
</svg>
