<svg xmlns="http://www.w3.org/2000/svg" width="24" height="24" viewBox="0 0 24 24">
    <g fill="none"  fill-rule="evenodd">
        <g fill="#010505">
            <g>
                <path d="M4.045 4.448c.247-.494.848-.694 1.342-.447l7.028 3.513 7.182 3.592c.194.097.35.254.447.447.247.494.047 1.095-.447 1.342l-7.182 3.591L5.387 20c-.213.106-.458.133-.69.075-.536-.134-.861-.676-.727-1.212l1.505-6.022h5.818l.114-.007c.41-.056.727-.408.727-.834 0-.464-.377-.841-.841-.841H5.475L3.97 5.138c-.047-.186-.039-.38.02-.559z" transform="translate(-1358.000000, -1856.000000) translate(1358.000000, 1856.000000) translate(0.000000, -0.000000)"/>
            </g>
        </g>
    </g>
</svg>
