<?xml version="1.0" encoding="UTF-8"?>
<svg width="24px" height="24px" viewBox="0 0 24 24" version="1.1" xmlns="http://www.w3.org/2000/svg" xmlns:xlink="http://www.w3.org/1999/xlink">
    <!-- Generator: sketchtool 62 (101010) - https://sketch.com -->
    <title>A82522BE-5717-41A1-83BA-0188EFADC4E5</title>
    <desc>Created with sketchtool.</desc>
    <g id="⚪️Element/Icons" stroke="none" stroke-width="1" fill="none" fill-rule="evenodd">
        <g id="Element/Icons" transform="translate(-1652.000000, -704.000000)">
            <g id="ic/24/24_shareandr_g" transform="translate(1652.000000, 704.000000)">
                <g id="ic/24/shareandr/b">
                    <g>
                        <g id="ic_appbar_share">
                            <rect x="0" y="0" width="24" height="24"></rect>
                        </g>
                        <g id="share" transform="translate(2.500000, 3.000000)" fill="#AEB8BD">
                            <g id="Group" transform="translate(0.421053, 0.000000)">
                                <path d="M13.8421053,0 C15.4117567,0 16.6842105,1.27245387 16.6842105,2.84210526 C16.6842105,4.41175666 15.4117567,5.68421053 13.8421053,5.68421053 C13.0122248,5.68421053 12.2654192,5.32852454 11.745819,4.76128306 L6.09119886,8.02415325 C6.20245059,8.32848129 6.26315789,8.65715117 6.26315789,9 C6.26315789,9.34247617 6.20258249,9.6708042 6.09156146,9.97485429 L11.745819,13.2387169 C12.2654192,12.6714755 13.0122248,12.3157895 13.8421053,12.3157895 C15.4117567,12.3157895 16.6842105,13.5882433 16.6842105,15.1578947 C16.6842105,16.7275461 15.4117567,18 13.8421053,18 C12.2724539,18 11,16.7275461 11,15.1578947 C11,14.9292531 11.0269989,14.7069174 11.0779825,14.4939019 L5.28189021,11.1482783 C4.78330299,11.5805306 4.13272482,11.8421053 3.42105263,11.8421053 C1.85140124,11.8421053 0.578947368,10.5696514 0.578947368,9 C0.578947368,7.43034861 1.85140124,6.15789474 3.42105263,6.15789474 C4.13272482,6.15789474 4.78330299,6.41946937 5.28189021,6.85172171 L11.0777456,3.5051073 C11.0269153,3.29239317 11,3.07039241 11,2.84210526 C11,1.27245387 12.2724539,0 13.8421053,0 Z M13.8421053,13.8157895 C13.100881,13.8157895 12.5,14.4166705 12.5,15.1578947 C12.5,15.899119 13.100881,16.5 13.8421053,16.5 C14.5833295,16.5 15.1842105,15.899119 15.1842105,15.1578947 C15.1842105,14.4166705 14.5833295,13.8157895 13.8421053,13.8157895 Z M3.42105263,7.65789474 C2.67982836,7.65789474 2.07894737,8.25877573 2.07894737,9 C2.07894737,9.74122427 2.67982836,10.3421053 3.42105263,10.3421053 C4.1622769,10.3421053 4.76315789,9.74122427 4.76315789,9 C4.76315789,8.25877573 4.1622769,7.65789474 3.42105263,7.65789474 Z M13.8421053,1.5 C13.100881,1.5 12.5,2.10088099 12.5,2.84210526 C12.5,3.58332953 13.100881,4.18421053 13.8421053,4.18421053 C14.5833295,4.18421053 15.1842105,3.58332953 15.1842105,2.84210526 C15.1842105,2.10088099 14.5833295,1.5 13.8421053,1.5 Z" id="Combined-Shape"></path>
                            </g>
                        </g>
                    </g>
                </g>
            </g>
        </g>
    </g>
</svg>