<?xml version="1.0" encoding="UTF-8"?>
<svg width="24px" height="24px" viewBox="0 0 24 24" version="1.1" xmlns="http://www.w3.org/2000/svg" xmlns:xlink="http://www.w3.org/1999/xlink">
    <!-- Generator: sketchtool 62 (101010) - https://sketch.com -->
    <title>FE98A071-E9BD-46E1-84F8-72FFD0D04667</title>
    <desc>Created with sketchtool.</desc>
    <g id="⚪️Element/Icons" stroke="none" stroke-width="1" fill="none" fill-rule="evenodd">
        <g id="Element/Icons" transform="translate(-1839.000000, -1058.000000)" fill="#17CEDF">
            <g id="ic/24/24_send_b" transform="translate(1839.000000, 1058.000000)">
                <g id="ic/24/24_send_g">
                    <path d="M6.4245849,3.24985058 L19.7095737,9.89647087 C20.5045048,10.2965626 21,11.1147801 21,12.0026742 C21,12.8905683 20.5045048,13.7087859 19.7054135,14.1109637 L6.42019226,20.7482548 C5.55859782,21.1830719 4.52403984,21.0456991 3.80313534,20.4052231 C3.10124377,19.7816389 2.83118312,18.8016716 3.10561658,17.9049215 L3.1446405,17.7774053 L5.82606449,12.4480634 C5.96814544,12.1656768 5.96833923,11.8327379 5.82658711,11.5501862 L3.15365044,6.22227413 L3.11489632,6.09563957 C2.84046286,5.19888938 3.11052351,4.21892209 3.81241508,3.59533789 C4.53331958,2.95486196 5.56787756,2.81748918 6.4245849,3.24985058 Z M4.85705699,4.77107996 C4.61727369,4.98411155 4.52358562,5.32407682 4.61886355,5.63541092 L7.417,11.213 L14.1844744,11.2139012 C14.5826015,11.2139012 14.9116291,11.5097411 14.9637023,11.8935735 L14.9708812,12.0002805 C14.9708812,12.4345858 14.6187949,12.7866599 14.1844744,12.7866599 L14.1844744,12.7866599 L7.416,12.786 L4.60958381,18.3651501 L4.58476443,18.4697752 C4.5369291,18.750465 4.63463654,19.0401197 4.84777725,19.2294811 C5.08756054,19.4425126 5.42730739,19.4876256 5.71155288,19.3441767 L19.0024598,12.7040307 L19.0854688,12.6553525 C19.2969307,12.5124191 19.4271864,12.2678609 19.4271864,12.0026742 C19.4271864,11.7043392 19.2623315,11.4321121 19.0024598,11.3013178 L5.72083262,4.65638435 L5.62424177,4.6155235 C5.36232195,4.52503359 5.07019769,4.58171856 4.85705699,4.77107996 Z" id="Combined-Shape"></path>
                </g>
            </g>
        </g>
    </g>
</svg>