<svg xmlns="http://www.w3.org/2000/svg" width="24" height="24" viewBox="0 0 24 24">
    <g fill="none" fill-rule="evenodd">
        <g fill="#010505">
            <g>
                <g>
                    <path d="M10.903 2.113l.153.162-.027-.032c.316.356.777.525 1.24.468.285-.035.55-.154.782-.362l.094-.091c.486-.53 1.107-.847 1.78-.93 1.72-.21 3.296 1.107 3.294 2.899l-.005.18c-.048.802.563 1.471 1.342 1.513h.14c2.692-.113 4.064 3.139 2.197 4.984l-.136.126c-.593.527-.635 1.427-.1 2.026l.086.09c1.847 1.696.83 4.754-1.596 5.052-.135.016-.273.024-.44.019l-.178-.009.058.006c-.088-.005-.176-.002-.263.008-.682.084-1.206.65-1.243 1.34l.002.32c-.025 1.5-1.145 2.67-2.584 2.847-.875.107-1.74-.178-2.386-.82l-.143-.151c-.315-.356-.776-.524-1.239-.468-.285.035-.55.154-.76.34l-.116.114c-.486.53-1.108.847-1.78.93-1.72.21-3.297-1.107-3.295-2.89l.006-.198c.048-.794-.563-1.463-1.347-1.504l-.14-.001c-2.687.114-4.059-3.138-2.154-5.016l.13-.12-.033.027c.594-.527.636-1.428.132-1.998l-.118-.118C.41 9.16 1.427 6.1 3.852 5.804c.121-.015.244-.023.365-.023l.196.006c.09.006.178.003.263-.007.682-.084 1.206-.651 1.243-1.336v-.139c-.064-1.53.999-2.751 2.411-3.006l.171-.026.188-.017c.805-.048 1.59.239 2.214.857zm-2.068.638l-.15.01-.138.023c-.63.136-1.094.648-1.128 1.312v.145c.065 1.532-1.06 2.843-2.56 3.027-.117.015-.235.022-.35.022l-.19-.006c-.1-.005-.193-.003-.284.008-1.123.138-1.625 1.53-.865 2.36l.106.103c1.23 1.13 1.257 3.046.063 4.24l-.137.129.031-.027c-.966.858-.377 2.429.876 2.485h.137c1.668-.07 3.043 1.268 3.044 2.905l-.007.195c-.055.921.736 1.61 1.609 1.503.274-.034.53-.15.745-.342l.118-.118c.476-.519 1.11-.84 1.794-.923.883-.109 1.77.187 2.407.817l.14.148c.33.371.765.529 1.22.473.698-.086 1.229-.624 1.265-1.34v-.145l-.002-.173c.025-1.453 1.12-2.672 2.562-2.849.132-.016.266-.023.426-.019l.171.009-.06-.006c.1.006.196.003.286-.008 1.124-.138 1.626-1.53.834-2.389l-.205-.203c-1.099-1.141-1.083-2.96.032-4.08l.142-.133c.966-.857.377-2.428-.87-2.485h-.137c-1.674.071-3.05-1.268-3.05-2.915l.006-.177c.055-.929-.735-1.617-1.608-1.51-.275.034-.53.15-.766.364l-.097.095c-.476.52-1.11.84-1.793.924-.884.108-1.77-.188-2.436-.85l-.14-.148.027.032c-.292-.33-.668-.49-1.068-.483zm1.013 3.92c2.943-1.19 6.294.233 7.483 3.177 1.19 2.944-.233 6.294-3.176 7.483-2.944 1.19-6.294-.233-7.484-3.177-1.19-2.944.233-6.293 3.177-7.483zm6.093 3.739c-.88-2.176-3.356-3.228-5.531-2.348-2.176.879-3.227 3.355-2.348 5.53.879 2.176 3.355 3.227 5.53 2.348 2.176-.879 3.227-3.355 2.349-5.53z" transform="translate(-1775 -1824) translate(1775 1824)"/>
                </g>
            </g>
        </g>
    </g>
</svg>
