<?xml version="1.0" encoding="UTF-8"?>
<svg width="24px" height="24px" viewBox="0 0 24 24" version="1.1" xmlns="http://www.w3.org/2000/svg" xmlns:xlink="http://www.w3.org/1999/xlink">
    <!-- Generator: sketchtool 62 (101010) - https://sketch.com -->
    <title>7897E875-C312-4694-8763-13495AEBF55D</title>
    <desc>Created with sketchtool.</desc>
    <g id="⚪️Element/Icons" stroke="none" stroke-width="1" fill="none" fill-rule="evenodd">
        <g id="Element/Icons" transform="translate(-1652.000000, -754.000000)">
            <g id="ic/24/24_shareios_g" transform="translate(1652.000000, 754.000000)">
                <g id="ic/24/shareios/b">
                    <g>
                        <g id="Group">
                            <g id="ic_appbar_share">
                                <rect x="0" y="0" width="24" height="24"></rect>
                            </g>
                            <g id="ic_appbar_share_white">
                                <g>
                                    <rect x="0" y="0" width="24" height="24"></rect>
                                </g>
                            </g>
                            <g id="share" transform="translate(5.000000, 3.000000)" fill="#AEB8BD" stroke="#AEB8BD" stroke-width="0.5">
                                <path d="M1.67316289,7.95348837 C1.44460656,7.95348837 1.25581395,8.14208511 1.25581395,8.37145284 L1.25581395,16.3262216 C1.25581395,16.5566464 1.44321082,16.744186 1.67316289,16.744186 L12.1407906,16.744186 C12.3693469,16.744186 12.5581395,16.5555893 12.5581395,16.3262216 L12.5581395,8.37145284 C12.5581395,8.14102799 12.3707427,7.95348837 12.1407906,7.95348837 L9.83279401,7.95348837 C9.48844906,7.95348837 9.20930233,7.67478255 9.20930233,7.3255814 C9.20930233,6.97879795 9.4857985,6.69767442 9.83279401,6.69767442 L12.1407906,6.69767442 C13.0648529,6.69767442 13.8139535,7.44800455 13.8139535,8.37145284 L13.8139535,16.3262216 C13.8139535,17.2506239 13.0614453,18 12.1407906,18 L1.67316289,18 C0.749100541,18 8.52651283e-14,17.2496699 8.52651283e-14,16.3262216 L8.52651283e-14,8.37145284 C8.52651283e-14,7.44705054 0.752508222,6.69767442 1.67316289,6.69767442 L3.98115948,6.69767442 C4.29420034,6.69767442 4.55335838,6.92800981 4.59789091,7.23224897 L4.60465116,7.3255814 C4.60465116,7.67236484 4.32815499,7.95348837 3.98115948,7.95348837 L1.67316289,7.95348837 Z" id="Combined-Shape" fill-rule="nonzero"></path>
                                <path d="M7.35090698,0.183973337 C7.10560465,-0.0613244458 6.70834884,-0.0613244458 6.46304651,0.183973337 L3.1142093,3.53274853 C2.86890698,3.77804632 2.86890698,4.17529477 3.1142093,4.42059256 C3.35951163,4.66589034 3.75676744,4.66589034 4.00206977,4.42059256 L6.27886047,2.14384402 L6.27886047,10.6744302 C6.27886047,11.0197727 6.5614186,11.3023256 6.90676744,11.3023256 C7.25253488,11.3023256 7.53467442,11.0197727 7.53467442,10.6744302 L7.53467442,2.14384402 L9.81188372,4.42059256 C9.93453488,4.54324145 10.0952791,4.60477519 10.2556047,4.60477519 C10.4163488,4.60477519 10.577093,4.54324145 10.6997442,4.42059256 C10.9450465,4.17529477 10.9450465,3.77804632 10.6997442,3.53274853 L7.35090698,0.183973337 Z" id="Fill-1"></path>
                            </g>
                        </g>
                    </g>
                </g>
            </g>
        </g>
    </g>
</svg>