<?xml version="1.0" encoding="UTF-8"?>
<svg width="24px" height="24px" viewBox="0 0 24 24" version="1.1" xmlns="http://www.w3.org/2000/svg" xmlns:xlink="http://www.w3.org/1999/xlink">
    <title>ic/24/24_sendcoin2</title>
    <g id="⚪️Base/Iconograyphy" stroke="none" stroke-width="1" fill="none" fill-rule="evenodd">
        <g id="Element/Icons/24*24" transform="translate(-465.000000, -2412.000000)" fill="#010505">
            <g id="ic/24/24_sendcoin2" transform="translate(465.000000, 2412.000000)">
                <g transform="translate(2.200000, 2.200000)" id="Combined-Shape">
                    <path d="M9.77,-4.4408921e-16 C11.0327748,-4.4408921e-16 12.2655136,0.242145124 13.4195704,0.70820653 C13.8292517,0.873654716 14.0272417,1.33988922 13.8617935,1.74957044 C13.6963453,2.15925166 13.2301108,2.35724166 12.8204296,2.19179347 C11.8557447,1.80220918 10.8263161,1.6 9.77,1.6 C5.25604389,1.6 1.6,5.24760037 1.6,9.76 C1.6,14.2745816 5.25823463,17.93 9.77,17.93 C10.8785648,17.93 11.9547108,17.7110838 12.9498625,17.292562 C13.3571383,17.1212778 13.8261538,17.3125868 13.997438,17.7198625 C14.1687222,18.1271383 13.9774132,18.5961538 13.5701375,18.767438 C12.379432,19.2682019 11.0924878,19.53 9.77,19.53 C4.37485474,19.53 0,15.1585131 0,9.76 C0,4.36311557 4.37321537,-4.4408921e-16 9.77,-4.4408921e-16 Z M15.2364463,5.48507644 L18.9464463,9.20507644 C18.9741188,9.23340554 18.9939153,9.25614894 19.0123963,9.27996427 L18.9464463,9.20507644 C18.9768357,9.23554783 19.0042587,9.26785683 19.0287157,9.30164469 C19.0904596,9.38705773 19.1358784,9.48540253 19.1600833,9.59181294 C19.1630646,9.60527499 19.165671,9.6182601 19.1679532,9.6312908 C19.1714334,9.65077235 19.1741823,9.67088319 19.1761699,9.69121723 C19.1776783,9.70689572 19.1787602,9.72263326 19.1793792,9.73838548 C19.1797873,9.74851353 19.18,9.75923192 19.18,9.77 L19.1795246,9.79766284 C19.1789022,9.81576362 19.1776687,9.8338473 19.1758242,9.8518803 L19.18,9.77 C19.18,9.81708582 19.1759321,9.86322153 19.1681287,9.90807489 C19.1654237,9.92323622 19.162294,9.93856031 19.1587123,9.95379964 C19.153437,9.97650332 19.1472307,9.99850398 19.1401297,10.0200987 C19.1367436,10.0302796 19.1331449,10.0405411 19.1293308,10.0507402 C19.1038956,10.1187477 19.0692531,10.1826266 19.0270057,10.2406097 C19.0225674,10.2467924 19.0182534,10.2525375 19.013852,10.2582368 C18.9947467,10.2829366 18.9740952,10.3066958 18.9521307,10.3291663 L15.2356854,14.0456854 C14.923266,14.3581049 14.416734,14.3581049 14.1043146,14.0456854 C13.7918951,13.733266 13.7918951,13.226734 14.1043146,12.9143146 L16.448,10.57 L7.51,10.57 C7.0681722,10.57 6.71,10.2118278 6.71,9.77 C6.71,9.3281722 7.0681722,8.97 7.51,8.97 L16.453,8.97 L14.1035537,6.61492356 C13.7915551,6.30208393 13.7922368,5.7955524 14.1050764,5.48355373 C14.4179161,5.17155507 14.9244476,5.17223681 15.2364463,5.48507644 Z"></path>
                </g>
            </g>
        </g>
    </g>
</svg>