<?xml version="1.0" encoding="UTF-8"?>
<svg width="24px" height="24px" viewBox="0 0 24 24" version="1.1" xmlns="http://www.w3.org/2000/svg" xmlns:xlink="http://www.w3.org/1999/xlink">
    <title>ic/24/24_swapcoin2</title>
    <g id="⚪️Base/Iconograyphy" stroke="none" stroke-width="1" fill="none" fill-rule="evenodd">
        <g id="Element/Icons/24*24" transform="translate(-465.000000, -2480.000000)" fill="#010505">
            <g id="ic/24/24_swapcoin2" transform="translate(465.000000, 2480.000000)">
                <g transform="translate(1.199996, 4.200947)" id="Combined-Shape">
                    <path d="M3.43719606,5.25770914 L3.48901707,5.27651135 C3.54176683,5.29774955 3.59277112,5.32486816 3.64104625,5.35790481 C3.67446577,5.38086614 3.70538843,5.40558073 3.73480154,5.43293379 L6.30480154,7.82293379 C6.62834579,8.12381735 6.64671591,8.63001612 6.34583234,8.95356037 C6.04494878,9.27710462 5.53875001,9.29547474 5.21520576,8.99459117 L4.0135225,7.87771459 C3.83452639,10.7073038 5.53298629,13.3965678 8.28555066,14.407714 C10.9839877,15.397725 13.9922148,14.4996315 15.7037172,12.2538506 C15.9715266,11.9024393 16.4735042,11.8346666 16.8249155,12.102476 C17.1763268,12.3702854 17.2440996,12.872263 16.9762901,13.2236743 C14.8418052,16.0244799 11.0955037,17.1429224 7.73414968,15.9096983 C4.39393544,14.6826808 2.30038329,11.4699987 2.40416918,8.04252929 L1.38688617,9.14242497 C1.08662967,9.46655124 0.580467425,9.4859015 0.256341158,9.185645 C-0.067785109,8.8853885 -0.0871353759,8.37922625 0.213121127,8.05509999 L2.5980433,5.48063179 L2.651,5.429 L2.6898229,5.39426949 C2.75063886,5.34543496 2.81709576,5.30672025 2.88686186,5.27821449 C2.94542281,5.25441656 3.00475123,5.2380426 3.06500447,5.22855337 C3.11502611,5.22070683 3.16519411,5.21758798 3.21527685,5.21914982 C3.29126783,5.22166606 3.3655021,5.23447415 3.43719606,5.25770914 Z M13.0858576,0.497826671 C16.4241206,1.72412736 18.5171776,4.93377341 18.4160178,8.35898922 L19.4342543,7.26387932 C19.7351849,6.94037887 20.2413863,6.92208243 20.5648868,7.22301309 C20.8883873,7.52394374 20.9066837,8.03014518 20.605753,8.35364563 L18.205753,10.9336456 C18.0689664,11.0806913 17.8897684,11.1646783 17.7045952,11.1842896 L17.5931822,11.1883247 C17.4070754,11.1821602 17.2222713,11.1113564 17.0752058,10.9745912 L14.5052058,8.58459117 C14.1816615,8.28370761 14.1632914,7.77750884 14.464175,7.45396459 C14.7650585,7.13042033 15.2712573,7.11205022 15.5948015,7.41293379 L16.8059393,8.53834431 C16.9888947,5.70562978 15.2897881,3.01197361 12.5344566,1.99981098 C9.83601963,1.00979999 6.82779249,1.90789347 5.11629012,4.15367435 C4.84848069,4.50508567 4.3465031,4.57285838 3.99509178,4.30504895 C3.64368046,4.03723952 3.57590774,3.53526193 3.84371717,3.18385061 C5.97820206,0.383045049 9.72450364,-0.735397425 13.0858576,0.497826671 Z"></path>
                </g>
            </g>
        </g>
    </g>
</svg>