<svg xmlns="http://www.w3.org/2000/svg" width="24" height="24" viewBox="0 0 24 24">
    <g fill="none" fill-rule="evenodd">
        <g fill="#010505">
            <g>
                <g>
                    <path d="M8 7.63c.387 0 .7.313.7.7 0 .354-.263.647-.605.694L8 9.03H7c-.673 0-1.227.512-1.293 1.167l-.007.133v9c0 .673.512 1.227 1.167 1.293L7 20.63h9.78c.673 0 1.227-.512 1.293-1.167l.007-.133v-9c0-.673-.512-1.227-1.167-1.293l-.133-.007h-.81c-.387 0-.7-.313-.7-.7 0-.354.263-.647.605-.694l.095-.006h.81c1.434 0 2.607 1.118 2.695 2.53l.005.17v9c0 1.434-1.118 2.607-2.53 2.695l-.17.005H7c-1.434 0-2.607-1.118-2.695-2.53l-.005-.17v-9c0-1.434 1.118-2.607 2.53-2.695L7 7.63h1zm4.309-5.225l.092.068 2.43 2.13c.291.256.32.698.065.989-.23.261-.61.31-.896.132l-.092-.068-1.268-1.112v8.476c0 .387-.313.7-.7.7-.354 0-.647-.263-.694-.605l-.006-.095V4.544L9.972 5.656c-.291.255-.733.226-.988-.064-.23-.262-.23-.646-.015-.907l.08-.081 2.43-2.13c.234-.206.572-.229.83-.07z" transform="translate(-501.000000, -1866.000000) translate(501.000000, 1866.000000) translate(0.000000, 0.000000)"/>
                </g>
            </g>
        </g>
    </g>
</svg>
