<?xml version="1.0" encoding="UTF-8"?>
<svg width="24px" height="24px" viewBox="0 0 24 24" version="1.1" xmlns="http://www.w3.org/2000/svg" xmlns:xlink="http://www.w3.org/1999/xlink">
    <!-- Generator: sketchtool 62 (101010) - https://sketch.com -->
    <title>BEF8D7E0-E619-4221-9A4C-1D7867EC720B</title>
    <desc>Created with sketchtool.</desc>
    <g id="⚪️Element/Icons" stroke="none" stroke-width="1" fill="none" fill-rule="evenodd">
        <g id="Element/Icons" transform="translate(-1827.000000, -805.000000)">
            <g id="ic/24/24_star_fill" transform="translate(1827.000000, 805.000000)">
                <g id="ic/24/star/fill">
                    <g>
                        <g id="ic_appbar_maininterest_s">
                            <rect fill-opacity="0" fill="#FFFFFF" x="0" y="0" width="24" height="24"></rect>
                            <path d="M21.0188336,8.95631068 L15.4164444,8.13938974 L12.9059398,3.07975035 C12.7209552,2.71081831 12.3509861,2.5 11.9545907,2.5 C11.5581952,2.5 11.1882261,2.7371706 11.0032416,3.07975035 L8.49273697,8.13938974 L2.89034777,8.95631068 C2.4939523,9.00901526 2.15040957,9.29889043 2.04470411,9.66782247 C1.93899866,10.0367545 2.01827775,10.4583911 2.30896775,10.7482663 L6.37862783,14.7011096 L5.42727872,20.2614424 C5.34799963,20.6567268 5.53298418,21.0520111 5.85010055,21.2891817 C6.16721692,21.5263523 6.61646511,21.5527046 6.96000785,21.3682386 L11.981017,18.7330097 L17.0020262,21.3682386 C17.1605844,21.4472954 17.3191426,21.5 17.5041271,21.5 C17.7155381,21.5 17.9533753,21.4209431 18.1383599,21.2891817 C18.4554763,21.0520111 18.6140344,20.6567268 18.5611817,20.2614424 L17.6098326,14.7011096 L21.6794927,10.7482663 C21.9701827,10.4583911 22.0758881,10.0367545 21.9437563,9.66782247 C21.7323454,9.27253814 21.415229,9.00901526 21.0188336,8.95631068 Z" id="Shape" fill="#FCBA02" fill-rule="nonzero"></path>
                        </g>
                    </g>
                </g>
            </g>
        </g>
    </g>
</svg>