<svg xmlns="http://www.w3.org/2000/svg" width="24" height="24" viewBox="0 0 24 24">
    <g fill="none" fill-rule="evenodd">
        <g fill="#AEB8BD">
            <path d="M12 0c6.627 0 12 5.373 12 12s-5.373 12-12 12S0 18.627 0 12 5.373 0 12 0zM8.817 8.005c-1.057.006-1.85.657-2.073 1.687-.105.487-.197.976-.29 1.465-.147.77-.31 1.536-.429 2.31-.1.652.09 1.226.638 1.638.39.293.836.46 1.332.462.597.004 1.194.001 1.813.001v.164c0 .534-.004 1.07.001 1.604.008.753.387 1.285 1.09 1.527.357.123.728.154 1.105.129.487-.032.84-.384.86-.87.006-.14-.007-.281-.008-.422-.006-.607.053-1.205.298-1.769.232-.533.593-.943 1.176-1.112.054-.016.134-.003.182.027.202.131.416.23.66.233.415.006 1.16.02 1.574.001.683-.03 1.164-.53 1.166-1.21.006-1.495.006-2.99 0-4.486-.002-.705-.522-1.212-1.231-1.218h-1.126l-.188-.002c-.266-.005-.515.045-.75.171-.034.018-.098.015-.13-.006-.342-.21-.712-.325-1.114-.326-1.519-.002-3.038-.007-4.556.002zm7.81 1.446v4.337h-1.288V9.45h1.287z" transform="translate(-2016 -2553) translate(2016 2553)"/>
        </g>
    </g>
</svg>
