<svg xmlns="http://www.w3.org/2000/svg" width="24" height="24" viewBox="0 0 24 24">
    <g fill="none" fill-rule="evenodd">
        <g fill="#AEB8BD">
            <path d="M12 0c6.627 0 12 5.373 12 12s-5.373 12-12 12S0 18.627 0 12 5.373 0 12 0zm-.088 6.008c-.487.032-.84.384-.86.87-.006.14.008.281.009.422.005.607-.053 1.205-.298 1.769-.232.533-.593.943-1.176 1.112-.054.016-.134.003-.182-.027-.203-.131-.416-.23-.66-.233-.415-.006-1.16-.02-1.574-.001-.683.03-1.164.53-1.167 1.21-.005 1.495-.005 2.99 0 4.486.003.705.523 1.212 1.232 1.218H8.36l.189.002c.266.005.515-.045.75-.171.034-.018.098-.015.13.006.342.21.712.325 1.114.326 1.518.002 3.037.007 4.556-.002 1.057-.006 1.85-.657 2.072-1.687.105-.487.197-.976.29-1.465.148-.77.311-1.536.43-2.31.099-.652-.091-1.226-.639-1.638-.39-.293-.835-.46-1.331-.462-.597-.004-1.194-.001-1.813-.001v-.164c0-.534.004-1.07-.001-1.604-.008-.753-.388-1.285-1.09-1.527-.357-.123-.728-.154-1.106-.129zm-3.334 5.204v4.337H7.29v-4.337h1.287z" transform="translate(-2016 -2525) translate(2016 2525)"/>
        </g>
    </g>
</svg>
