<svg xmlns="http://www.w3.org/2000/svg" width="24" height="24" viewBox="0 0 24 24">
    <g fill="none" fill-rule="evenodd">
        <g fill="#010505">
            <g>
                <path d="M16.626 9.451H15.34v4.337h1.287V9.45zm-9.963 5.654c.39.293.836.46 1.332.462.597.004 1.194.001 1.813.001v.164c0 .534-.004 1.07.001 1.604.008.753.387 1.285 1.09 1.527.357.123.728.154 1.105.129.487-.032.84-.384.86-.87.006-.14-.007-.281-.008-.422-.006-.607.053-1.205.298-1.769.232-.533.593-.943 1.176-1.112.054-.016.134-.003.182.027.202.131.416.23.66.233.415.006 1.16.02 1.574.001.683-.03 1.164-.53 1.166-1.21.006-1.495.006-2.99 0-4.486-.002-.705-.522-1.212-1.231-1.218-.328-.003-.986.004-1.314-.002-.266-.005-.515.045-.75.171-.034.018-.098.015-.13-.006-.342-.21-.712-.325-1.114-.326-1.519-.002-3.038-.007-4.556.002-1.057.006-1.85.657-2.073 1.687-.105.487-.197.976-.29 1.465-.147.77-.31 1.536-.429 2.31-.1.652.09 1.226.638 1.638z" transform="translate(-1754 -2553) translate(1754 2553)"/>
            </g>
        </g>
    </g>
</svg>
