<svg xmlns="http://www.w3.org/2000/svg" width="24" height="24" viewBox="0 0 24 24">
    <g fill="none"  fill-rule="evenodd">
        <g fill="#010505">
            <g>
                <g>
                    <path d="M19.358 2c1.381 0 2.5 1.119 2.5 2.5v14.858c0 1.38-1.119 2.5-2.5 2.5H4.5c-1.381 0-2.5-1.12-2.5-2.5V4.5C2 3.119 3.119 2 4.5 2zm0 1.4H4.5c-.607 0-1.1.494-1.1 1.1v14.858c0 .607.493 1.1 1.1 1.1h14.858c.606 0 1.1-.493 1.1-1.1V4.5c0-.606-.494-1.1-1.1-1.1zm-1.5 12.913c.386 0 .7.314.7.7 0 .355-.264.648-.606.694l-.095.006H5.971c-.386 0-.7-.313-.7-.7 0-.354.264-.647.605-.693l.095-.007h11.886zM11.27 6.476c.355 0 .648.264.694.605l.006.095V8.26c0 .387-.313.7-.7.7-.354 0-.647-.263-.693-.605l-.007-.095v-.384H9.371v3.483l.679.001c.386 0 .7.314.7.7 0 .354-.264.647-.605.694l-.095.006H7.342c-.387 0-.7-.313-.7-.7 0-.354.263-.647.605-.694l.095-.006h.63V7.874l-1.301.001v.384c0 .355-.263.648-.605.694l-.095.006c-.354 0-.647-.263-.693-.605l-.006-.095V7.176c0-.354.263-.647.605-.693l.095-.007h5.298zm6.587 4.884c.387 0 .7.314.7.7 0 .354-.263.647-.605.694l-.095.006h-3.666c-.386 0-.7-.313-.7-.7 0-.354.264-.647.605-.694l.095-.006h3.666zm0-4.884c.387 0 .7.313.7.7 0 .354-.263.647-.605.694l-.095.006h-3.666c-.386 0-.7-.313-.7-.7 0-.354.264-.647.605-.694l.095-.006h3.666z" transform="translate(-1358.000000, -2177.000000) translate(1358.000000, 2177.000000) translate(0.000000, 0.000000)"/>
                </g>
            </g>
        </g>
    </g>
</svg>
