<?xml version="1.0" encoding="UTF-8"?>
<svg width="24px" height="24px" viewBox="0 0 24 24" version="1.1" xmlns="http://www.w3.org/2000/svg" xmlns:xlink="http://www.w3.org/1999/xlink">
    <title>E88E28CE-1864-48B1-8018-4802BCB8CDFA</title>
    <g id="⚪️Base/Iconograyphy" stroke="none" stroke-width="1" fill="none" fill-rule="evenodd" >
        <g id="Element/Icons" transform="translate(-1754.000000, -2525.000000)" fill="#010505">
            <g id="Combined-Shape" transform="translate(1754.000000, 2525.000000)">
                <path d="M7.29058219,15.5489933 L8.57773748,15.5489933 L8.57773748,11.2121485 L7.29058219,11.2121485 L7.29058219,15.5489933 Z M17.2534536,9.89549346 C16.8630527,9.60225581 16.4178279,9.43556304 15.9218361,9.43278483 C15.3249136,9.42946187 14.7279363,9.43202218 14.1088649,9.43202218 L14.1088649,9.26832552 C14.1088101,8.73354677 14.1131412,8.19871355 14.1077136,7.66398928 C14.0999834,6.91131149 13.7204925,6.37892963 13.0184726,6.13706169 C12.6608015,6.01383977 12.289589,5.98311601 11.9124554,6.0079565 C11.4251807,6.04004213 11.0723889,6.3919491 11.0521041,6.87851768 C11.0462928,7.01851782 11.059615,7.15917166 11.0608211,7.2996076 C11.0661938,7.90667435 11.0076968,8.50502514 10.7627436,9.06867551 C10.5307837,9.60236476 10.1696588,10.012015 9.58677118,10.1814315 C9.53255035,10.1971747 9.45272677,10.1842642 9.4050848,10.1535404 C9.20223641,10.0229099 8.98858771,9.92474641 8.74440211,9.92098765 C8.32960456,9.91450515 7.58504131,9.90192148 7.17095646,9.91995263 C6.48757668,9.9498048 6.00671634,10.450101 6.00419444,11.1291834 C5.99865723,12.624788 5.9986024,14.1203926 6.00402997,15.6159428 C6.00660669,16.3206283 6.52683058,16.8277339 7.23564866,16.8339984 C7.56398893,16.8368856 8.2213822,16.8301852 8.54972247,16.8359051 C8.81550869,16.8405899 9.06501222,16.7913447 9.3002067,16.6648543 C9.3337041,16.6468776 9.39757393,16.650473 9.43057791,16.670901 C9.77207592,16.8818273 10.1419179,16.9962788 10.543777,16.996769 C12.0624536,16.9985667 13.581185,17.0037418 15.0998616,16.9953527 C16.1570854,16.9894694 16.950113,16.3379513 17.1724239,15.307888 C17.2774665,14.8212104 17.3694609,14.3317002 17.4628809,13.8426258 C17.6098089,13.0733877 17.7730744,12.3065465 17.8912747,11.5328959 C17.9909446,10.8809964 17.8010346,10.306669 17.2534536,9.89549346 L17.2534536,9.89549346 Z"></path>
            </g>
        </g>
    </g>
</svg>