<svg width="25" height="24" viewBox="0 0 25 24" xmlns="http://www.w3.org/2000/svg">
    <path d="M18.458 12a5 5 0 1 1 0 10 5 5 0 0 1 0-10zm-6.5-1.2c1.364 0 2.658.297 3.822.83a6.01 6.01 0 0 0-1.388.958 7.768 7.768 0 0 0-2.434-.388l-.247.004a7.802 7.802 0 0 0-7.492 6.818l-.029.278h8.725c.21.506.487.976.82 1.4H3.457a.7.7 0 0 1-.7-.71l.004-.255C2.908 14.76 6.98 10.8 11.958 10.8zm9.565 4.311-4.954 4.954a3.6 3.6 0 0 0 4.954-4.954zM18.458 13.4a3.6 3.6 0 0 0-2.915 5.713l5.028-5.028a3.584 3.584 0 0 0-2.113-.685zm-6.5-11.1a3.533 3.533 0 1 1 0 7.067 3.533 3.533 0 0 1 0-7.067zm0 1.4a2.133 2.133 0 1 0 0 4.267 2.133 2.133 0 0 0 0-4.267z" fill="#010505" fill-rule="evenodd" />
</svg>
