<?xml version="1.0" encoding="UTF-8"?>
<svg width="24px" height="24px" viewBox="0 0 24 24" version="1.1" xmlns="http://www.w3.org/2000/svg" xmlns:xlink="http://www.w3.org/1999/xlink">
    <!-- Generator: sketchtool 62 (101010) - https://sketch.com -->
    <title>4FFCFEF3-94D4-48C5-8D81-C37857F319C1</title>
    <desc>Created with sketchtool.</desc>
    <g id="⚪️Element/Icons" stroke="none" stroke-width="1" fill="none" fill-rule="evenodd">
        <g id="Element/Icons" transform="translate(-1652.000000, -2097.000000)">
            <g id="ic/24/24_uploadphoto" transform="translate(1652.000000, 2097.000000)">
                <g id="ic/uploadphoto">
                    <g>
                        <g id="Group-4">
                            <rect id="48" x="0" y="0" width="24" height="24"></rect>
                            <circle id="Oval" fill-opacity="0.5" fill="#000000" cx="12" cy="12" r="11"></circle>
                            <g id="camera-icon" transform="translate(5.500000, 7.000000)" stroke="#FFFFFF" stroke-width="0.866666667">
                                <path d="M12.5666667,8.85925926 C12.5666667,9.16506137 12.4427159,9.44191322 12.2423145,9.64231455 C12.0419132,9.84271587 11.7650614,9.96666667 11.4592593,9.96666667 L1.54074074,9.96666667 C1.23493863,9.96666667 0.958086777,9.84271587 0.757685453,9.64231455 C0.557284129,9.44191322 0.433333333,9.16506137 0.433333333,8.85925926 L0.433333333,3.10925875 C0.433333333,2.84852255 0.524285351,2.60545045 0.67895098,2.41379519 C0.833616608,2.22213992 1.05199585,2.08190148 1.30706064,2.02678707 L3.81777928,1.48296611 C4.1561319,0.889387972 4.85442601,0.433333333 5.52633152,0.433333333 L7.72540415,0.433333333 C8.40899944,0.433333333 9.11816636,0.900853934 9.44992027,1.5111984 L11.7021393,2.01827527 C11.9548448,2.07508256 12.1709767,2.21568776 12.3239321,2.40684411 C12.4768876,2.59800047 12.5666667,2.83970796 12.5666667,3.09871983 L12.5666667,8.85925926 Z" id="Combined-Shape"></path>
                                <circle id="Oval-4" cx="6.5" cy="5.63333333" r="2.16666667"></circle>
                            </g>
                        </g>
                    </g>
                </g>
            </g>
        </g>
    </g>
</svg>