<?xml version="1.0" encoding="UTF-8"?>
<svg width="24px" height="24px" viewBox="0 0 24 24" version="1.1" xmlns="http://www.w3.org/2000/svg" xmlns:xlink="http://www.w3.org/1999/xlink">
    <title>ic/24/24_USDC</title>
    <g id="⚪️Base/Iconograyphy" stroke="none" stroke-width="1" fill="none" fill-rule="evenodd">
        <g id="Element/Icons/24*24" transform="translate(-79.000000, -2166.000000)" fill-rule="nonzero">
            <g id="ic/24/24_USDC" transform="translate(79.000000, 2166.000000)">
                <g transform="translate(0.730000, 0.730000)" id="Group">
                    <path d="M11.265,22.53 C17.5077251,22.53 22.53,17.5077251 22.53,11.265 C22.53,5.02227495 17.5077251,0 11.265,0 C5.02227495,0 0,5.02227495 0,11.265 C0,17.5077251 5.02227495,22.53 11.265,22.53 Z" id="Path" fill="#2775CA"></path>
                    <path d="M14.362875,13.0485875 C14.362875,11.4058125 13.3771875,10.8425625 11.4058125,10.6079126 C9.9976875,10.420125 9.7160625,10.0446626 9.7160625,9.38746245 C9.7160625,8.73026235 10.185475,8.3079375 11.1241875,8.3079375 C11.9690625,8.3079375 12.438475,8.5895625 12.673125,9.293625 C12.7201,9.4344375 12.8609125,9.52827495 13.001725,9.52827495 L13.7526499,9.52827495 C13.9404375,9.52827495 14.08125,9.38746245 14.08125,9.19978755 L14.08125,9.1528125 C13.8934624,8.12014995 13.0485874,7.32225 11.9690625,7.22841255 L11.9690625,6.10191255 C11.9690625,5.914125 11.82825,5.7733125 11.5936,5.72633745 L10.8895376,5.72633745 C10.70175,5.72633745 10.5609375,5.86714995 10.5139625,6.10191255 L10.5139625,7.1814375 C9.10583745,7.36922505 8.21410005,8.3079375 8.21410005,9.48141255 C8.21410005,11.0303501 9.1528125,11.6404625 11.1241875,11.8752251 C12.438475,12.109875 12.8609125,12.3915 12.8609125,13.1425376 C12.8609125,13.8935751 12.2037124,14.4098501 11.311975,14.4098501 C10.091525,14.4098501 9.66908745,13.8934625 9.52827495,13.1894 C9.48141255,13.0017251 9.34060005,12.907775 9.19978755,12.907775 L8.40177495,12.907775 C8.21410005,12.907775 8.07328755,13.0485875 8.07328755,13.236375 L8.07328755,13.2833501 C8.26096245,14.4567125 9.012,15.3015875 10.5609375,15.5363501 L10.5609375,16.6628501 C10.5609375,16.850525 10.70175,16.9913375 10.9364,17.0383125 L11.6404625,17.0383125 C11.82825,17.0383125 11.9690625,16.8975 12.0160375,16.6628501 L12.0160375,15.5363501 C13.4241625,15.3015875 14.362875,14.3159 14.362875,13.0485875 L14.362875,13.0485875 Z" id="Path" fill="#FFFFFF"></path>
                    <path d="M8.8711875,17.9770249 C5.2100625,16.66285 3.33252495,12.5792875 4.69378755,8.96502495 C5.39785005,6.99364995 6.94678755,5.4916875 8.8711875,4.787625 C9.05897505,4.69378755 9.1528125,4.55297505 9.1528125,4.31821245 L9.1528125,3.661125 C9.1528125,3.47333745 9.05897505,3.33252495 8.8711875,3.28566255 C8.82421245,3.28566255 8.730375,3.28566255 8.68339995,3.33252495 C4.224375,4.74064995 1.78358745,9.48141255 3.19171245,13.9404375 C4.03658745,16.5688999 6.0549375,18.58725 8.68339995,19.432125 C8.8711875,19.5259624 9.05897505,19.432125 9.10583745,19.2443374 C9.1528125,19.197475 9.1528125,19.1505 9.1528125,19.0566625 L9.1528125,18.3994624 C9.1528125,18.2586499 9.012,18.070975 8.8711875,17.9770249 Z M13.8466001,3.33252495 C13.6588125,3.2386875 13.471025,3.33252495 13.4241626,3.5203125 C13.3771875,3.56728755 13.3771875,3.61414995 13.3771875,3.70810005 L13.3771875,4.3651875 C13.3771875,4.55297505 13.518,4.74064995 13.6588125,4.83460005 C17.3199375,6.14877495 19.1974751,10.2323374 17.8362125,13.8466 C17.13215,15.817975 15.5832125,17.3199375 13.6588125,18.024 C13.471025,18.1178374 13.3771875,18.2586499 13.3771875,18.4934125 L13.3771875,19.1505 C13.3771875,19.3382875 13.471025,19.4791 13.6588125,19.5259624 C13.7057876,19.5259624 13.799625,19.5259624 13.8466001,19.4791 C18.305625,18.070975 20.7464126,13.3302124 19.3382876,8.8711875 C18.4934126,6.19575 16.4280875,4.17739995 13.8466001,3.33252495 Z" id="Shape" fill="#FFFFFF"></path>
                </g>
            </g>
        </g>
    </g>
</svg>