<svg xmlns="http://www.w3.org/2000/svg" width="24" height="24" viewBox="0 0 24 24">
    <g fill="none"  fill-rule="evenodd">
        <g fill="#010505">
            <g>
                <g>
                    <path d="M20.66 9.705c-.543-.77-1.427-1.23-2.37-1.23H14.1l1.33-3.56c.29-.767.255-1.62-.1-2.36-.316-.676-.9-1.19-1.61-1.42-1.15-.368-2.407.033-3.13 1l-4.84 6.36H2.81c-.215 0-.42.086-.573.237-.152.152-.237.358-.237.573v10.28c0 .448.363.81.81.81h14.71c.386-.002.73-.24.87-.6l2.64-7.42c.326-.896.188-1.896-.37-2.67zM5.4 18.995h-2v-9.1h2v9.1z" transform="translate(-428.000000, -1722.000000) translate(428.000000, 1722.000000) translate(-0.000000, 0.000000)"/>
                </g>
            </g>
        </g>
    </g>
</svg>
