<svg xmlns="http://www.w3.org/2000/svg" width="24" height="24" viewBox="0 0 24 24">
    <g fill="none" fill-rule="evenodd">
        <g fill="#010505">
            <g>
                <path d="M15.5 4.5c1.105 0 2 .895 2 2v1.286l1.468-.733c.819-.41 1.805-.117 2.274.65l.073.133c.098.194.158.404.178.62l.007.162v6.764c0 .967-.783 1.75-1.75 1.75-.217 0-.432-.04-.634-.119l-.148-.066-1.468-.733V17.5c0 1.105-.895 2-2 2h-11c-1.105 0-2-.895-2-2v-11c0-1.105.895-2 2-2h11zm0 1.5h-11c-.245 0-.45.177-.492.41L4 6.5v11c0 .245.177.45.41.492L4.5 18h11c.245 0 .45-.177.492-.41L16 17.5v-11c0-.245-.177-.45-.41-.492L15.5 6zM6.9 8.31c.365-.485 1.08-.525 1.518-.088l.763.763c.4.4.406 1.038.016 1.428-.33.33-.323.869.014 1.206l1.438 1.438c.336.336.876.343 1.205.013.39-.39 1.03-.383 1.428.017l.763.763c.438.437.397 1.152-.087 1.517-1.151.81-2.728.659-3.74-.353l-2.965-2.965c-1.011-1.011-1.162-2.588-.357-3.733zm12.802.063l-.064.022-2 1c-.067.033-.115.096-.132.168l-.006.055v4.764c0 .076.034.146.091.193l.047.03 2 1c.035.018.073.027.112.027.119 0 .218-.082.244-.193l.006-.057V8.618c0-.039-.009-.077-.026-.112-.052-.102-.165-.154-.272-.133z" transform="translate(-1358.000000, -2566.000000) translate(1358.000000, 2566.000000)"/>
            </g>
        </g>
    </g>
</svg>
