<svg xmlns="http://www.w3.org/2000/svg" width="24" height="24" viewBox="0 0 24 24">
    <g fill="none" fill-rule="evenodd">
        <g fill="#1F262A">
            <g>
                <g>
                    <path d="M7.778 2.435c.414 0 .75.335.75.75 0 .38-.282.693-.648.743l-.102.007H2.75c-.647 0-1.18.491-1.244 1.122l-.006.128v12c0 .647.492 1.18 1.122 1.243l.128.007h12c.647 0 1.18-.492 1.244-1.123l.006-.127v-5.116c0-.414.336-.75.75-.75.38 0 .693.282.743.648l.007.102v5.116c0 1.462-1.142 2.658-2.582 2.745l-.168.005h-12c-1.463 0-2.658-1.142-2.745-2.583L0 17.185v-12C0 3.722 1.142 2.526 2.582 2.44l.168-.005h5.028z" transform="translate(-2004 -332) translate(2004 332) translate(2.75 1.315)"/>
                    <path d="M12.572 0H8.654c-.86 0-1.557.697-1.557 1.557v12.408c0 .385.142.757.4 1.043l2.145 2.378.063.061c.556.501 1.413.457 1.914-.1l2.109-2.34c.258-.285.4-.657.4-1.042V1.557c0-.86-.697-1.557-1.556-1.557zM8.654 1.5h3.918c.03 0 .056.025.056.057v12.408l-.004.02-.01.018-2.002 2.22-2-2.22c-.01-.01-.015-.024-.015-.038V1.557c0-.032.025-.057.057-.057z" transform="translate(-2004 -332) translate(2004 332) translate(2.75 1.315) rotate(45 10.613 8.898)"/>
                </g>
            </g>
        </g>
    </g>
</svg>
