<svg xmlns="http://www.w3.org/2000/svg" width="24" height="24" viewBox="0 0 24 24">
    <defs>
        <filter id="7c7y30lfia" width="187.5%" height="187.5%" x="-43.8%" y="-43.8%" filterUnits="objectBoundingBox">
            <feOffset dy="1" in="SourceAlpha" result="shadowOffsetOuter1"/>
            <feGaussianBlur in="shadowOffsetOuter1" result="shadowBlurOuter1" stdDeviation="2"/>
            <feColorMatrix in="shadowBlurOuter1" result="shadowMatrixOuter1" values="0 0 0 0 0 0 0 0 0 0 0 0 0 0 0 0 0 0 0.24 0"/>
            <feMerge>
                <feMergeNode in="shadowMatrixOuter1"/>
                <feMergeNode in="SourceGraphic"/>
            </feMerge>
        </filter>
    </defs>
    <g fill="none" fill-rule="evenodd">
        <g fill="#FFF">
            <g>
                <g filter="url(#7c7y30lfia)" transform="translate(-429.000000, -1984.000000) translate(429.000000, 1984.000000) translate(0.000000, 0.000000)">
                    <path d="M17.577 5c1.18 0 2.31.472 3.136 1.306.83.829 1.297 1.954 1.297 3.127 0 1.096-.406 2.149-1.135 2.958l-.161.17-8 8c-.359.358-.923.388-1.315.087l-.094-.083-8.002-7.891C2.469 11.847 2 10.722 2 9.548c0-1.173.469-2.299 1.296-3.118.827-.834 1.952-1.303 3.126-1.303 1.095 0 2.149.408 2.991 1.179l.178.17.81.93c.363.417.319 1.049-.097 1.412-.385.334-.953.323-1.323-.008l-.088-.09-.767-.883c-.45-.454-1.064-.71-1.704-.71-.64 0-1.254.256-1.711.717C4.256 8.294 4 8.908 4 9.548c0 .577.207 1.131.579 1.564l.13.14L12 18.443l7.3-7.298c.408-.409.656-.949.702-1.52l.007-.193c0-.642-.255-1.258-.714-1.716-.454-.459-1.073-.717-1.72-.717-.58 0-1.14.21-1.58.589l-.143.132-4.139 4.13c-.308.308-.308.807 0 1.115.28.28.718.305 1.027.077l.089-.077 3-3c.39-.39 1.023-.39 1.414 0 .36.36.388.928.083 1.32l-.083.095-3 3c-1.09 1.088-2.855 1.088-3.945 0-1.043-1.045-1.086-2.71-.129-3.806l.13-.14 4.136-4.125c.83-.838 1.961-1.31 3.14-1.31z"/>
                </g>
            </g>
        </g>
    </g>
</svg>
