<svg xmlns="http://www.w3.org/2000/svg" width="24" height="24" viewBox="0 0 24 24">
    <g fill="none" fill-rule="evenodd">
        <g fill="#010505">
            <g>
                <path d="M14.844 6.227c1.658-1.636 4.324-1.636 5.985.002.804.8 1.257 1.887 1.257 3.021 0 1.054-.39 2.067-1.091 2.847l-.167.176-8.4 8.32c-.246.244-.629.267-.901.07l-.087-.073-8.213-8.213c-1.636-1.659-1.636-4.325.002-5.985.8-.805 1.887-1.257 3.021-1.257 1.054 0 2.067.39 2.878 1.124l.183.176.817.974.39.42c.263.283.247.726-.036.99-.255.236-.64.246-.906.04l-.084-.077-.413-.446-.8-.957c-.537-.54-1.267-.844-2.029-.844-.761 0-1.491.304-2.026.842-1.053 1.067-1.097 2.755-.135 3.871l.131.142 7.717 7.717 7.905-7.828c.49-.488.787-1.136.836-1.822l.008-.207c0-.761-.304-1.491-.842-2.026-1.068-1.053-2.756-1.097-3.872-.135l-.142.131-4.342 4.342c-.219.218-.342.514-.342.823 0 .31.123.606.343.824.427.424 1.098.455 1.558.093l.103-.09 3.15-3.16c.272-.275.716-.275.99-.002.246.245.271.629.075.903l-.074.086-3.152 3.163c-1.007 1-2.63 1-3.637 0-.484-.48-.756-1.135-.756-1.817 0-.614.22-1.205.616-1.666l.138-.149 4.344-4.343z" transform="translate(-501.000000, -1984.000000) translate(501.000000, 1984.000000) translate(-0.000000, 0.000000)"/>
            </g>
        </g>
    </g>
</svg>
