<?xml version="1.0" encoding="UTF-8"?>
<svg width="24px" height="24px" viewBox="0 0 24 24" version="1.1" xmlns="http://www.w3.org/2000/svg" xmlns:xlink="http://www.w3.org/1999/xlink">
    <title>ic/24/24_wallet2</title>
    <g id="⚪️Base/Iconograyphy" stroke="none" stroke-width="1" fill="none" fill-rule="evenodd">
        <g id="Element/Icons/24*24" transform="translate(-465.000000, -2446.000000)" fill="#0096ff">
            <g id="ic/24/24_wallet2" transform="translate(465.000000, 2446.000000)">
                <g transform="translate(2.200000, 3.200000)" id="Combined-Shape">
                    <path d="M15.07,-4.4408921e-16 C15.5118278,-4.4408921e-16 15.87,0.3581722 15.87,0.8 C15.87,1.2418278 15.5118278,1.6 15.07,1.6 L2.48,1.6 C2.0018278,1.6 1.61,1.9918278 1.61,2.47 C1.61,2.9481722 2.0018278,3.34 2.48,3.34 L16.42,3.34 C18.2418278,3.34 19.72,4.8181722 19.72,6.64 L19.72,14.52 C19.72,16.3418278 18.2418278,17.82 16.42,17.82 L3.3,17.82 C1.4781722,17.82 -4.4408921e-16,16.3418278 -4.4408921e-16,14.52 L-4.4408921e-16,2.48 C-4.4408921e-16,2.44601325 0.00211936213,2.4125215 0.00623313573,2.3796497 L0.015,2.337 L0.0152645375,2.3078529 C0.095568163,1.07489822 1.08489822,0.085568163 2.3178529,0.0052645375 L2.48,-4.4408921e-16 L15.07,-4.4408921e-16 Z M1.6,4.776 L1.6,14.52 C1.6,15.4581722 2.3618278,16.22 3.3,16.22 L16.42,16.22 C17.331116,16.22 18.0759123,15.5014796 18.1181132,14.6007144 L13.8,14.6 C11.701318,14.6 10,12.898682 10,10.8 C10,8.70131795 11.701318,7 13.8,7 L18.119,7 L18.12,6.64 C18.12,5.7018278 17.3581722,4.94 16.42,4.94 L2.48,4.94 C2.20763444,4.94 1.9454151,4.89567311 1.70017812,4.81385547 L1.6,4.776 Z M18,8.6 L13.8,8.6 C12.6378008,8.6 11.6860848,9.50118563 11.6055238,10.642885 L11.6,10.8 C11.6,12.0150264 12.5849736,13 13.8,13 L18,13 L18,8.6 Z M13.8,9.8 C14.3522847,9.8 14.8,10.2477153 14.8,10.8 C14.8,11.3522847 14.3522847,11.8 13.8,11.8 C13.2477153,11.8 12.8,11.3522847 12.8,10.8 C12.8,10.2477153 13.2477153,9.8 13.8,9.8 Z"></path>
                </g>
            </g>
        </g>
    </g>
</svg>