<svg width="37" height="36" viewBox="0 0 37 36" xmlns="http://www.w3.org/2000/svg">
    <g transform="translate(.25)" fill="none" fill-rule="evenodd">
        <path d="M0 0h36v36H0z"/>
        <circle fill-opacity=".52" fill="#010505" cx="18" cy="18" r="14"/>
        <path d="M9 9h18v18H9z"/>
        <path d="M12.935 13.15a.641.641 0 0 0 .053.846l4.105 4.105-4.105 4.106a.641.641 0 0 0 .453 1.095l.084-.006a.639.639 0 0 0 .37-.182L18 19.008l4.105 4.106a.64.64 0 0 0 .907 0l.054-.06a.641.641 0 0 0-.054-.847l-4.105-4.106 4.105-4.105a.641.641 0 0 0 0-.907l-.06-.053a.642.642 0 0 0-.846.053L18 17.195l-4.105-4.106a.641.641 0 0 0-.907 0l-.053.06z" fill="#FFF"/>
    </g>
</svg>
