<?xml version="1.0" encoding="UTF-8"?>
<svg width="36px" height="36px" viewBox="0 0 36 36" version="1.1" xmlns="http://www.w3.org/2000/svg" xmlns:xlink="http://www.w3.org/1999/xlink">
    <!-- Generator: sketchtool 62 (101010) - https://sketch.com -->
    <title>1B74FA0F-A943-4CCD-B56F-FCFB06DA80A1</title>
    <desc>Created with sketchtool.</desc>
    <g id="⚪️Element/Icons" stroke="none" stroke-width="1" fill="none" fill-rule="evenodd">
        <g id="Element/Icons" transform="translate(-2137.000000, -1808.000000)">
            <g id="@TEXT-_Symbols-(하나씩-다시적어야함..;)" transform="translate(595.000000, 226.000000)">
                <g id="ic/36/36_delete" transform="translate(1542.000000, 1582.000000)">
                    <g>
                        <path d="M0,0 L36,0 L36,36 L2,36 C0.8954305,36 1.3527075e-16,35.1045695 0,34 L0,0 L0,0 Z" id="Rectangle" fill-opacity="0.4" fill="#1A1F23"></path>
                        <path d="M18.7487647,17.9999559 L23.8448824,12.9038008 C24.0517059,12.6969757 24.0517059,12.3616791 23.8448824,12.1548541 C23.6384118,11.948382 23.3031176,11.948382 23.0962941,12.1548541 L18.0001765,17.2513621 L12.9037059,12.1548541 C12.6972353,11.948382 12.3619412,11.948382 12.1551176,12.1548541 C11.9482941,12.3616791 11.9482941,12.6969757 12.1551176,12.9038008 L17.2515882,17.9999559 L12.1551176,23.096111 C11.9482941,23.3029361 11.9482941,23.6382326 12.1551176,23.8450577 C12.2585294,23.9484702 12.3940588,24 12.5295882,24 C12.6651176,24 12.8002941,23.9484702 12.9037059,23.8450577 L18.0001765,18.7485496 L23.0962941,23.8450577 C23.1997059,23.9484702 23.3352353,24 23.4707647,24 C23.6062941,24 23.7414706,23.9484702 23.8448824,23.8450577 C24.0517059,23.6382326 24.0517059,23.3029361 23.8448824,23.096111 L18.7487647,17.9999559 Z" id="ic_appbar_close" stroke="#FFFFFF" stroke-width="0.5" fill="#FFFFFF"></path>
                    </g>
                </g>
            </g>
        </g>
    </g>
</svg>