<?xml version="1.0" encoding="UTF-8"?>
<svg width="36px" height="36px" viewBox="0 0 36 36" version="1.1" xmlns="http://www.w3.org/2000/svg" xmlns:xlink="http://www.w3.org/1999/xlink">
    <!-- Generator: sketchtool 62 (101010) - https://sketch.com -->
    <title>1C34A6E7-F7C2-4A80-8B40-CFBECE5FB193</title>
    <desc>Created with sketchtool.</desc>
    <g id="⚪️Element/Icons" stroke="none" stroke-width="1" fill="none" fill-rule="evenodd">
        <g id="Element/Icons" transform="translate(-2137.000000, -1424.000000)" fill="#AEB8BD">
            <g id="ic/36/36_deleteduser" transform="translate(2137.000000, 1424.000000)">
                <g>
                    <rect id="Rectangle" fill-opacity="0.1" x="0" y="0" width="36" height="36"></rect>
                    <path d="M24.3984375,12.3703704 C24.6974479,12.3703704 24.9455052,12.5930266 24.9921266,12.8691672 L25,12.962963 C25,13.2902428 24.7328327,13.5555556 24.3984375,13.5555556 L23.1992962,13.5550584 C23.1992821,13.5553948 23.1992678,13.5557312 23.1992534,13.5560677 L22.7174132,24.8143027 C22.6893867,25.4691452 22.144867,26 21.5034648,26 L14.4965352,26 C13.8541165,26 13.310466,25.4657024 13.2825868,24.8143027 L12.8007466,13.5560677 L12.8,13.555 L11.6015625,13.5555556 C11.2693287,13.5555556 11,13.2806713 11,12.962963 C11,12.6356831 11.2671673,12.3703704 11.6015625,12.3703704 L24.3984375,12.3703704 Z M22.0308333,13.5555556 L13.9685833,13.5555556 L14.4481523,24.7628215 C14.4488017,24.7779955 14.4672205,24.7996547 14.4827432,24.809536 L14.4965352,24.8148148 L21.5034648,24.8148148 C21.5156189,24.8148148 21.5362401,24.7976512 21.5461789,24.7800074 L21.5518477,24.7628215 L22.0308333,13.5555556 Z M16.8333333,15.9259259 C17.1554994,15.9259259 17.4166667,16.189533 17.4166667,16.504401 L17.4166667,21.8659694 C17.4166667,22.1535041 17.1974894,22.3920411 16.9256635,22.4368732 L16.8333333,22.4444444 C16.5111672,22.4444444 16.25,22.1808373 16.25,21.8659694 L16.25,16.504401 C16.25,16.2168663 16.4691772,15.9783293 16.7410032,15.9334972 L16.8333333,15.9259259 Z M19.1666667,15.9259259 C19.4888328,15.9259259 19.75,16.189533 19.75,16.504401 L19.75,21.8659694 C19.75,22.1535041 19.5308228,22.3920411 19.2589968,22.4368732 L19.1666667,22.4444444 C18.8445006,22.4444444 18.5833333,22.1808373 18.5833333,21.8659694 L18.5833333,16.504401 C18.5833333,16.2168663 18.8025106,15.9783293 19.0743365,15.9334972 L19.1666667,15.9259259 Z M20.3143686,10 C20.6137446,10 20.8621052,10.2226562 20.9087836,10.4987969 L20.9166667,10.5925926 C20.9166667,10.9198724 20.6508624,11.1851852 20.3143686,11.1851852 L15.6856314,11.1851852 C15.3529914,11.1851852 15.0833333,10.9103009 15.0833333,10.5925926 C15.0833333,10.2653127 15.3491376,10 15.6856314,10 L20.3143686,10 Z" id="Combined-Shape"></path>
                </g>
            </g>
        </g>
    </g>
</svg>