<?xml version="1.0" encoding="UTF-8"?>
<svg width="36px" height="36px" viewBox="0 0 36 36" version="1.1" xmlns="http://www.w3.org/2000/svg" xmlns:xlink="http://www.w3.org/1999/xlink">
    <!-- Generator: sketchtool 62 (101010) - https://sketch.com -->
    <title>F3DC30C2-0E15-4027-9991-DE653E3345EE</title>
    <desc>Created with sketchtool.</desc>
    <g id="⚪️Element/Icons" stroke="none" stroke-width="1" fill="none" fill-rule="evenodd">
        <g id="Element/Icons" transform="translate(-2137.000000, -963.000000)" fill="#AEB8BD">
            <g id="ic/36/36_link_off" transform="translate(2137.000000, 963.000000)">
                <g id="Path">
                    <path d="M29.922,21.336 C29.3448624,21.336 28.877,21.8038624 28.877,22.381 L28.877,26.781 C28.8770047,27.9384589 27.9404541,28.877693 26.783,28.881 L9.183,28.881 C8.02554586,28.877693 7.08899528,27.9384589 7.089,26.781 L7.089,9.181 C7.09394394,8.02666638 8.02965904,7.09273785 9.184,7.09 L13.584,7.09 C14.1611376,7.09 14.629,6.62213756 14.629,6.045 C14.629,5.46786244 14.1611376,5 13.584,5 L9.184,5 C6.87438278,5.00275512 5.00275512,6.87438278 5,9.184 L5,26.784 C5.00275512,29.0936172 6.87438278,30.9652449 9.184,30.968 L26.784,30.968 C29.0936172,30.9652449 30.9652449,29.0936172 30.9680043,26.784 L30.9680043,22.384 C30.9687978,22.106156 30.8589148,21.8394328 30.6626363,21.642779 C30.4663578,21.4461253 30.199845,21.335733 29.922,21.336 Z"></path>
                    <path d="M30.886,5.646 C30.7234405,5.25670871 30.3438623,5.00234406 29.922,5 L19.869,5 C19.4956575,5 19.1506747,5.19917587 18.9640034,5.52249999 C18.7773322,5.84582412 18.7773322,6.24417588 18.9640034,6.56750001 C19.1506747,6.89082413 19.4956575,7.09000001 19.869,7.09 L27.399,7.09 L19.13,15.359 C18.7372137,15.7696236 18.7445298,16.4188515 19.1464697,16.8205195 C19.5484096,17.2221875 20.1976423,17.2290641 20.608,16.836 L28.877,8.567 L28.877,16.1 C28.877,16.6771376 29.3448624,17.145 29.922,17.145 C30.4991376,17.145 30.967,16.6771376 30.967,16.1 L30.967,6.045 C30.966604,5.90795698 30.9390746,5.77234887 30.886,5.646 Z"></path>
                </g>
            </g>
        </g>
    </g>
</svg>