<svg xmlns="http://www.w3.org/2000/svg" width="36" height="36" viewBox="0 0 36 36">
    <g fill="none" fill-rule="evenodd">
        <path d="M0 0L36 0 36 36 0 36z" opacity=".5"/>
        <path fill="#AEB8BD" d="M19.077 3.95c7.717 0 13.973 6.256 13.973 13.973v13.973H16.923c-7.717 0-13.973-6.256-13.973-13.973 0-7.717 6.256-13.973 13.973-13.973zm0 2.1h-2.154c-6.557 0-11.873 5.316-11.873 11.873 0 6.557 5.316 11.873 11.873 11.873H30.95V17.923c0-6.456-5.153-11.71-11.571-11.87l-.302-.003zm-6.749 11.299c.952 0 1.723.771 1.723 1.723 0 .951-.771 1.723-1.723 1.723-.951 0-1.723-.772-1.723-1.723 0-.952.772-1.723 1.723-1.723zm5.6 0c.952 0 1.723.771 1.723 1.723 0 .951-.771 1.723-1.723 1.723-.951 0-1.723-.772-1.723-1.723 0-.952.772-1.723 1.723-1.723zm5.6 0c.952 0 1.723.771 1.723 1.723 0 .951-.771 1.723-1.723 1.723-.951 0-1.723-.772-1.723-1.723 0-.952.772-1.723 1.723-1.723z"/>
    </g>
</svg>
