<?xml version="1.0" encoding="UTF-8"?>
<svg width="36px" height="36px" viewBox="0 0 36 36" version="1.1" xmlns="http://www.w3.org/2000/svg" xmlns:xlink="http://www.w3.org/1999/xlink">
    <!-- Generator: sketchtool 61.1 (101010) - https://sketch.com -->
    <title>F42445E7-8A2D-42F2-A3A8-4D8B32272789</title>
    <desc>Created with sketchtool.</desc>
    <g id="⚪️Base/Icons" stroke="none" stroke-width="1" fill="none" fill-rule="evenodd">
        <g id="Base/Icons" transform="translate(-2137.000000, -844.000000)">
            <g id="ic/36/36_message_off_g" transform="translate(2137.000000, 844.000000)">
                <g id="ic/36/36_message_on">
                    <polygon id="ic_messagetitle" opacity="0.5" points="0 0 36 0 36 36 0 36"></polygon>
                    <g id="Group-3" transform="translate(2.000000, 3.000000)" fill="#AEB8BD">
                        <path d="M17.0769231,0.95 C24.7940404,0.95 31.05,7.20595963 31.05,14.9230769 L31.05,14.9230769 L31.05,28.8961538 L14.9230769,28.8961538 C7.20595963,28.8961538 0.95,22.6401942 0.95,14.9230769 C0.95,7.20595963 7.20595963,0.95 14.9230769,0.95 L14.9230769,0.95 Z M17.0769231,3.05 L14.9230769,3.05 C8.3657576,3.05 3.05,8.3657576 3.05,14.9230769 C3.05,21.4803962 8.3657576,26.7961538 14.9230769,26.7961538 L14.9230769,26.7961538 L28.95,26.7961538 L28.95,14.9230769 C28.95,8.46663944 23.796546,3.21385563 17.3786722,3.05375967 L17.3786722,3.05375967 L17.0769231,3.05 Z M10.3282051,14.3487179 C11.2798342,14.3487179 12.0512821,15.1201658 12.0512821,16.0717949 C12.0512821,17.023424 11.2798342,17.7948718 10.3282051,17.7948718 C9.37657602,17.7948718 8.60512821,17.023424 8.60512821,16.0717949 C8.60512821,15.1201658 9.37657602,14.3487179 10.3282051,14.3487179 Z M15.9282051,14.3487179 C16.8798342,14.3487179 17.6512821,15.1201658 17.6512821,16.0717949 C17.6512821,17.023424 16.8798342,17.7948718 15.9282051,17.7948718 C14.976576,17.7948718 14.2051282,17.023424 14.2051282,16.0717949 C14.2051282,15.1201658 14.976576,14.3487179 15.9282051,14.3487179 Z M21.5282051,14.3487179 C22.4798342,14.3487179 23.2512821,15.1201658 23.2512821,16.0717949 C23.2512821,17.023424 22.4798342,17.7948718 21.5282051,17.7948718 C20.576576,17.7948718 19.8051282,17.023424 19.8051282,16.0717949 C19.8051282,15.1201658 20.576576,14.3487179 21.5282051,14.3487179 Z" id="Combined-Shape"></path>
                    </g>
                </g>
            </g>
        </g>
    </g>
</svg>