<svg xmlns="http://www.w3.org/2000/svg" width="36" height="36" viewBox="0 0 36 36">
    <g fill="none" fill-rule="evenodd">
        <path d="M0 0h36v36H0z" opacity=".5"/>
        <path fill="#17CEDF" d="M18 5c7.18 0 13 5.82 13 13 0 2.144-.519 4.167-1.438 5.95l1.32 4.37c.424 1.402-.329 2.222-1.692 1.88l-.149-.04-4.022-1.216A12.94 12.94 0 0 1 18 31c-7.18 0-13-5.82-13-13S10.82 5 18 5zm9.544 18.765l.349-.676A11.066 11.066 0 0 0 29.123 18c0-6.143-4.98-11.122-11.123-11.122-6.143 0-11.122 4.98-11.122 11.122 0 6.143 4.98 11.122 11.122 11.122a11.06 11.06 0 0 0 6.004-1.758l.73-.468 4.134 1.25-1.324-4.381z"/>
        <path fill="#17CEDF" d="M13.667 16.556a1.444 1.444 0 1 1 0 2.888 1.444 1.444 0 0 1 0-2.888zm4.622 0a1.444 1.444 0 1 1 0 2.888 1.444 1.444 0 0 1 0-2.888zm4.622 0a1.444 1.444 0 1 1 0 2.888 1.444 1.444 0 0 1 0-2.888z"/>
    </g>
</svg>
