<svg xmlns="http://www.w3.org/2000/svg" width="36" height="36" viewBox="0 0 36 36">
    <g fill="none" fill-rule="evenodd">
        <path fill="#AEB8BD" fill-opacity=".1" d="M0 0H36V36H0z"/>
        <g>
            <path stroke="#AEB8BD" stroke-width="1.125" d="M9 9.501c-2.07 0-3.942.454-5.265 1.32-1.14.746-1.86 1.806-1.86 3.15 0 .418.173.797.476 1.067.314.281.76.444 1.289.446l10.977-.006c.42 0 .799-.181 1.062-.558.29-.414.446-1.027.446-1.84 0-.442-.172-.859-.466-1.241-.347-.451-.86-.852-1.49-1.192C12.846 9.934 11.017 9.5 9 9.5zm-.04-7.063c-.704 0-1.34.285-1.802.745-.46.461-.745 1.098-.745 1.801 0 .703.285 1.34.745 1.8.464.464 1.106.746 1.866.746.703 0 1.34-.285 1.8-.745.461-.461.746-1.098.746-1.801 0-.705-.286-1.343-.756-1.803-.47-.461-1.124-.744-1.855-.744z" transform="translate(9 9)"/>
        </g>
    </g>
</svg>
