<?xml version="1.0" encoding="UTF-8"?>
<svg width="48px" height="48px" viewBox="0 0 48 48" version="1.1" xmlns="http://www.w3.org/2000/svg" xmlns:xlink="http://www.w3.org/1999/xlink">
    <!-- Generator: sketchtool 62 (101010) - https://sketch.com -->
    <title>DD8745E8-4AFA-434E-AD45-80101D09BE2D</title>
    <desc>Created with sketchtool.</desc>
    <g id="⚪️Element/Icons" stroke="none" stroke-width="1" fill="none" fill-rule="evenodd">
        <g id="Element/Icons" transform="translate(-2715.000000, -238.000000)">
            <g id="ic/48/48_addgroups" transform="translate(2715.000000, 238.000000)">
                <g>
                    <g id="profile/group/icon/l_placholder" fill="#E9EDF0" fill-opacity="0.5">
                        <g id="Group/Profile/placeholder/xxl">
                            <rect id="Rectangle" x="0" y="0" width="48" height="48" rx="1.92"></rect>
                        </g>
                    </g>
                    <g id="ic/24/24_add_b" transform="translate(12.000000, 12.000000)">
                        <g id="ic/24/add/b">
                            <rect id="ic_appbar_addinterest" x="0" y="0" width="24" height="24"></rect>
                            <path d="M12.0003227,4.06700062 C12.500996,4.0674302 12.9070084,4.47344264 12.907438,4.97411591 L12.907438,4.97411591 L12.9079252,11.0920748 L19.025884,11.092562 C19.4848345,11.0929557 19.8642436,11.4341518 19.9246222,11.8771543 L19.9246222,11.8771543 L19.9329993,12.0003177 C19.9325738,12.5009934 19.5265609,12.9070062 19.0255677,12.9074319 L19.0255677,12.9074319 L12.907218,12.9072179 L12.9074946,19.0258224 C12.9071046,19.4847751 12.5659085,19.8641847 12.1231508,19.9245603 L12.1231508,19.9245603 L12.0000604,19.9329366 C11.7564555,19.9329356 11.5273861,19.8358906 11.3585284,19.6670329 C11.1896706,19.4981752 11.0926257,19.2691057 11.0926247,19.0255038 L11.0926247,19.0255038 L11.092782,12.9072179 L4.97449904,12.9073752 C4.77149501,12.9073744 4.57858502,12.839982 4.42220209,12.7197992 L4.42220209,12.7197992 L4.33296704,12.6414716 C4.1641093,12.4726138 4.06706435,12.2435444 4.0670635,11.9996193 C4.06748905,11.4989437 4.4735019,11.0929308 4.97449876,11.0925052 L4.97449876,11.0925052 L11.0920749,11.0920748 L11.0925682,4.97411464 C11.0929583,4.51516198 11.4341543,4.13575235 11.8771587,4.07537681 L11.8771587,4.07537681 Z" id="Combined-Shape" fill="#1F262A"></path>
                        </g>
                    </g>
                </g>
            </g>
        </g>
    </g>
</svg>