<svg xmlns="http://www.w3.org/2000/svg" width="48" height="48" viewBox="0 0 48 48">
    <g fill="none" fill-rule="evenodd">
        <g fill="#010505">
            <g>
                <path d="M25.587 3.308l.146.031 12 2.988c.84.21 1.442.93 1.51 1.78l.007.161v30.464c0 .865-.554 1.624-1.362 1.896l-.155.045-12 2.988c-.158.04-.32.06-.483.06-1.054 0-1.918-.816-1.995-1.851l-.005-.15V5.28c0-.163.02-.325.06-.483.254-1.024 1.254-1.665 2.277-1.489zM10 29.25c.38 0 .693.282.743.648l.007.102v9l.006.128c.06.588.528 1.056 1.116 1.116l.128.006h9l.102.007c.366.05.648.363.648.743s-.282.693-.648.743L21 41.75h-9l-.168-.005c-1.383-.083-2.49-1.189-2.577-2.57L9.25 39v-9l.007-.102c.05-.366.363-.648.743-.648zm4.811-11.103l.085.073 4.859 4.859c.266.266.29.683.072.976l-.072.084-4.86 4.86c-.292.292-.767.292-1.06 0-.266-.267-.29-.684-.073-.977l.073-.084 3.579-3.58H9.75c-.414 0-.75-.335-.75-.75 0-.379.282-.693.648-.742l.102-.007 7.662-.001-3.577-3.578c-.266-.266-.29-.683-.073-.976l.073-.084c.266-.267.683-.29.976-.073zM27 21.104c-.38 0-.693.282-.743.648l-.007.102v4.294c0 .414.336.75.75.75.38 0 .693-.283.743-.649l.007-.101v-4.294c0-.415-.336-.75-.75-.75zM21 5.25c.414 0 .75.336.75.75 0 .38-.282.693-.648.743L21 6.75h-9c-.647 0-1.18.492-1.244 1.122L10.75 8v9c0 .414-.336.75-.75.75-.38 0-.693-.282-.743-.648L9.25 17V8c0-1.463 1.142-2.658 2.582-2.745L12 5.25h9z" transform="translate(-3027 -684) translate(3027 684)"/>
            </g>
        </g>
    </g>
</svg>
