<?xml version="1.0" encoding="UTF-8"?>
<svg width="48px" height="48px" viewBox="0 0 48 48" version="1.1" xmlns="http://www.w3.org/2000/svg" xmlns:xlink="http://www.w3.org/1999/xlink">
    <title>0373CCEF-D807-426B-9DC7-31F959952720</title>
    <g id="⚪️Base/Iconograyphy" stroke="none" stroke-width="1" fill="none" fill-rule="evenodd">
        <g id="Element/Icons/else" transform="translate(-1627.000000, -1751.000000)" fill="#FB2942">
            <g id="ic/48/48_negative" transform="translate(1627.000000, 1751.000000)">
                <circle id="Oval" fill-opacity="0.14" cx="24" cy="24" r="20"></circle>
                <path d="M20.464,17.636 L23.99925,21.17125 L27.535,17.636 C28.2758421,16.8961053 29.4510776,16.8571634 30.236795,17.5191745 L30.364,17.636 C31.145,18.417 31.145,19.683 30.364,20.464 L26.82725,23.99925 L30.364,27.536 C31.1038947,28.2758947 31.1428366,29.4510803 30.4808255,30.2367952 L30.364,30.364 C29.583,31.145 28.317,31.145 27.536,30.364 L23.99925,26.82725 L20.464,30.364 C19.7241053,31.1038947 18.5489197,31.1428366 17.7632048,30.4808255 L17.636,30.364 C16.855,29.583 16.855,28.317 17.636,27.536 L21.17125,23.99925 L17.636,20.464 C16.8961053,19.7241053 16.8571634,18.5489197 17.5191745,17.7632048 L17.636,17.636 C18.417,16.855 19.683,16.855 20.464,17.636 Z" id="Combined-Shape"></path>
            </g>
        </g>
    </g>
</svg>