<svg width="48" height="48" xmlns="http://www.w3.org/2000/svg">
    <path d="M40 8a4 4 0 0 1 4 4v24a4 4 0 0 1-4 4H8a4 4 0 0 1-4-4V12a4 4 0 0 1 4-4h32zM18.347 27.92 7.53 37.945c.104.025.21.041.32.05L8 38h32c.161 0 .318-.019.468-.055L29.653 27.922l-.06.064-.435.443-.225.22-.46.435-.233.213-.473.415c-1.43 1.226-2.887 2.19-3.732 2.278l-.122.006-.167-.017c-.57-.092-1.506-.664-2.528-1.457l-.22-.173-.477-.39-.481-.415-.478-.43-.469-.444c-.257-.248-.508-.5-.746-.75zm23.585-16.44L31.776 21.636c.467 1.557.209 3.306-.822 4.765l10.965 10.163c.04-.133.065-.272.076-.415L42 36V12c0-.18-.024-.354-.068-.52zm-35.927.37L6 12v24a2 2 0 0 0 .08.562L17.045 26.4c-1.03-1.458-1.288-3.207-.821-4.763L6.068 11.48c-.032.12-.053.243-.063.37zm12.94 8.998c-1.19 1.223-1.283 3.134-.124 4.588.62.776 1.629 1.8 2.665 2.71l.283.246.357.298.087.071.086.07.332.262.309.234.28.203.248.17.209.134.164.096a.986.986 0 0 0 .114.055l.037.01.052-.007c.157-.038.469-.233.87-.53l.155-.116.332-.259.356-.29.374-.316.386-.337.393-.354.392-.365.385-.37.373-.373.355-.369.33-.36.298-.346.136-.167c1.159-1.454 1.067-3.365-.125-4.588-1.057-1.085-2.734-1.129-3.885-.087l-.142.136-.362.323a1 1 0 0 1-1.231.077l-.099-.077-.394-.353-.142-.138-.137-.117a2.752 2.752 0 0 0-3.716.236zM40 10H8c-.18 0-.354.024-.52.068l9.727 9.726c.096-.117.198-.231.306-.342a4.752 4.752 0 0 1 6.461-.35l.024.02.188-.149a4.75 4.75 0 0 1 5.946.149l.18.16.175.17c.108.11.21.224.306.341l9.725-9.725a1.995 1.995 0 0 0-.369-.063L40 10z" fill="#010505" fill-rule="nonzero" fill-opacity=".86"/>
</svg>
