<?xml version="1.0" encoding="UTF-8"?>
<svg width="48px" height="48px" viewBox="0 0 48 48" version="1.1" xmlns="http://www.w3.org/2000/svg" xmlns:xlink="http://www.w3.org/1999/xlink">
    <!-- Generator: sketchtool 62 (101010) - https://sketch.com -->
    <title>87000939-0CC8-4810-B03E-44C34954C9F9</title>
    <desc>Created with sketchtool.</desc>
    <g id="⚪️Element/Icons" stroke="none" stroke-width="1" fill="none" fill-rule="evenodd">
        <g id="Element/Icons" transform="translate(-2715.000000, -2049.000000)">
            <g id="ic/48/48_uploadphoto" transform="translate(2715.000000, 2049.000000)">
                <g id="ic/uploadphoto">
                    <g>
                        <g id="Group-4">
                            <rect id="48" x="0" y="0" width="48" height="48"></rect>
                            <circle id="Oval" fill-opacity="0.5" fill="#000000" cx="24" cy="24" r="22"></circle>
                            <g id="camera-icon" transform="translate(11.000000, 14.000000)" stroke="#FFFFFF" stroke-width="1.73333333">
                                <path d="M25.1333333,17.7185185 C25.1333333,18.3301227 24.8854317,18.8838264 24.4846291,19.2846291 C24.0838264,19.6854317 23.5301227,19.9333333 22.9185185,19.9333333 L3.08148148,19.9333333 C2.46987726,19.9333333 1.91617355,19.6854317 1.51537091,19.2846291 C1.11456826,18.8838264 0.866666667,18.3301227 0.866666667,17.7185185 L0.866666667,6.21851751 C0.866666667,5.69704509 1.0485707,5.21090091 1.35790196,4.82759037 C1.66723322,4.44427984 2.10399169,4.16380296 2.61379659,4.05364441 L7.63425888,2.96822824 C8.31045773,1.7799153 9.7079895,0.866666667 11.052663,0.866666667 L15.4508083,0.866666667 C16.81847,0.866666667 18.2373186,1.80233547 18.9005249,3.02366459 L23.4042786,4.03655054 C23.9096896,4.15016511 24.3419533,4.43137552 24.6478642,4.81368823 C24.9537752,5.19600093 25.1333333,5.67941593 25.1333333,6.19743967 L25.1333333,17.7185185 Z" id="Combined-Shape"></path>
                                <circle id="Oval-4" cx="13" cy="11.2666667" r="4.33333333"></circle>
                            </g>
                        </g>
                    </g>
                </g>
            </g>
        </g>
    </g>
</svg>