<svg xmlns="http://www.w3.org/2000/svg" width="48" height="48" viewBox="0 0 48 48">
    <g fill="none" fill-rule="evenodd">
        <g>
            <g transform="translate(-3027 -938) translate(3027 938)">
                <rect width="48" height="48" fill="#1F262A" rx="4"/>
                <path fill="#FFF" d="M28.567 13c1.62 0 2.933 1.313 2.933 2.933v16.134c0 1.62-1.313 2.933-2.933 2.933H12.433c-1.62 0-2.933-1.313-2.933-2.933V15.933c0-1.62 1.313-2.933 2.933-2.933h16.134zm11.856 5.102c.051.179.077.364.077.55v10.697c0 1.104-.895 2-2 2-.186 0-.37-.026-.55-.077l-3-.858c-.858-.245-1.45-1.03-1.45-1.923V19.51c0-.893.592-1.678 1.45-1.923l3-.858c1.063-.303 2.17.312 2.473 1.374zm-25.533-.858l-.007.011c-1.368 1.946-1.112 4.627.608 6.346l5.04 5.04c1.72 1.72 4.4 1.977 6.346.608l.011-.007c.823-.62.892-1.836.149-2.58l-1.298-1.297c-.678-.679-1.765-.69-2.427-.028-.56.56-1.477.549-2.05-.023l-2.444-2.445c-.572-.572-.583-1.49-.023-2.049.662-.662.65-1.749-.028-2.427l-1.297-1.297c-.744-.744-1.96-.676-2.58.148z"/>
            </g>
        </g>
    </g>
</svg>
