<?xml version="1.0" encoding="UTF-8"?>
<svg width="48px" height="48px" viewBox="0 0 48 48" version="1.1" xmlns="http://www.w3.org/2000/svg" xmlns:xlink="http://www.w3.org/1999/xlink">

    <g id="ic/48/48_video-chat" stroke="none" stroke-width="1" fill="none" fill-rule="evenodd">
        <path d="M44,0 C46.209139,-4.05812251e-16 48,1.790861 48,4 L48,44 C48,46.209139 46.209139,48 44,48 L4,48 C1.790861,48 2.705415e-16,46.209139 0,44 L0,4 C-2.705415e-16,1.790861 1.790861,4.05812251e-16 4,0 L44,0 Z M28.5666667,13 L12.4333333,13 C10.8711565,13 9.59419825,14.2211662 9.50497952,15.7609777 L9.5,15.9333333 L9.5,32.0666667 C9.5,33.6288435 10.7211662,34.9058017 12.2609777,34.9950205 L12.4333333,35 L28.5666667,35 C30.1288435,35 31.4058017,33.7788338 31.4950205,32.2390223 L31.5,32.0666667 L31.5,15.9333333 C31.5,14.3132981 30.1867019,13 28.5666667,13 Z M38.0955841,16.6926812 L37.9505577,16.7284121 L34.9505577,17.5855549 C34.1456173,17.8155379 33.5750359,18.5196529 33.5068575,19.3425458 L33.5,19.5086028 L33.5,28.4913972 C33.5,29.3285478 34.0202726,30.0706108 34.7927739,30.362232 L34.9505577,30.4144451 L37.9505577,31.2715879 C38.1292407,31.3226402 38.3141669,31.34854 38.5,31.34854 C39.5543618,31.34854 40.4181651,30.5326622 40.4945143,29.4978024 L40.5,29.34854 L40.5,18.65146 C40.5,18.4656269 40.4741002,18.2807006 40.4230479,18.1020177 C40.1333924,17.0882236 39.1116014,16.4817949 38.0955841,16.6926812 Z M14.8904182,17.2437886 C15.5097632,16.4204186 16.7263093,16.3516862 17.4702369,17.0956138 L17.4702369,17.0956138 L18.7672525,18.3926293 C19.4459476,19.0713245 19.4574164,20.1577041 18.7950976,20.820023 C18.2352482,21.3798724 18.2455066,22.2967476 18.8180255,22.8692665 L18.8180255,22.8692665 L21.2628548,25.3140957 C21.8346797,25.8859207 22.7522489,25.8968731 23.3120983,25.3370237 C23.9744171,24.6747049 25.0607968,24.6861736 25.7394919,25.3648688 L25.7394919,25.3648688 L27.0365075,26.6618843 C27.7804351,27.4058119 27.7110087,28.6216641 26.8883327,29.2417031 L26.8883327,29.2417031 L26.8767503,29.2491217 C24.9309077,30.6175876 22.2504943,30.3611525 20.5308557,28.6415139 L20.5308557,28.6415139 L15.4906074,23.6012656 C13.7709687,21.881627 13.5145336,19.2012135 14.8829996,17.2553709 L14.8829996,17.2553709 Z" id="Combined-Shape" fill="#17CEDF"></path>
    </g>
</svg>
