<?xml version="1.0" encoding="UTF-8"?>
<svg width="36px" height="36px" viewBox="0 0 36 36" version="1.1" xmlns="http://www.w3.org/2000/svg" xmlns:xlink="http://www.w3.org/1999/xlink">
    <!-- Generator: sketchtool 62 (101010) - https://sketch.com -->
    <title>0B5B3639-437C-49E9-BEDA-C71D5865A7F4</title>
    <desc>Created with sketchtool.</desc>
    <g id="⚪️Element/Icons" stroke="none" stroke-width="1" fill="none" fill-rule="evenodd">
        <g id="Element/Icons" transform="translate(-2374.000000, -2009.000000)" fill="#17CEDF">
            <g id="ic/36/attachment_file_b" transform="translate(2374.000000, 2009.000000)">
                <g id="ic/36/36_attachment_g">
                    <path d="M20.9182531,3 C21.1345693,3 21.3416655,3.08212444 21.4923229,3.2276486 L29.7740699,11.2272159 C29.9189606,11.3671699 30,11.5545333 30,11.7495673 L30,30.75 C30,31.9926407 28.9254834,33 27.6,33 L8.4,33 C7.0745166,33 6,31.9926407 6,30.75 L6,5.25 C6,4.00735931 7.0745166,3 8.4,3 L20.9182531,3 Z M20.4,4.5 L8.4,4.5 C7.9581722,4.5 7.6,4.83578644 7.6,5.25 L7.6,30.75 C7.6,31.1642136 7.9581722,31.5 8.4,31.5 L27.6,31.5 C28.0418278,31.5 28.4,31.1642136 28.4,30.75 L28.4,12.304 L21.9,12.3045643 C21.1203039,12.3045643 20.4795513,11.7096762 20.4068666,10.9490243 L20.4,10.8045643 L20.4,4.5 Z" id="Combined-Shape"></path>
                </g>
            </g>
        </g>
    </g>
</svg>