<?xml version="1.0" encoding="UTF-8"?>
<svg width="36px" height="36px" viewBox="0 0 36 36" version="1.1" xmlns="http://www.w3.org/2000/svg" xmlns:xlink="http://www.w3.org/1999/xlink">
    <!-- Generator: sketchtool 62 (101010) - https://sketch.com -->
    <title>33CECEEB-5428-4E07-BD33-C2C4D6294AD1</title>
    <desc>Created with sketchtool.</desc>
    <g id="⚪️Element/Icons" stroke="none" stroke-width="1" fill="none" fill-rule="evenodd">
        <g id="Element/Icons" transform="translate(-2374.000000, -1957.000000)" fill="#17CEDF">
            <g id="ic/36/attachment_image_b" transform="translate(2374.000000, 1957.000000)">
                <g id="ic/36/36_attachment_g">
                    <path d="M20.9182531,3 C21.1345693,3 21.3416655,3.08212444 21.4923229,3.2276486 L29.7740699,11.2272159 C29.9189606,11.3671699 30,11.5545333 30,11.7495673 L30,30.75 C30,31.9926407 28.9254834,33 27.6,33 L8.4,33 C7.0745166,33 6,31.9926407 6,30.75 L6,5.25 C6,4.00735931 7.0745166,3 8.4,3 L20.9182531,3 Z M20.4,4.5 L8.4,4.5 C7.9581722,4.5 7.6,4.83578644 7.6,5.25 L7.6,30.75 C7.6,31.1642136 7.9581722,31.5 8.4,31.5 L27.6,31.5 C28.0418278,31.5 28.4,31.1642136 28.4,30.75 L28.4,12.304 L21.9,12.3045643 C21.1203039,12.3045643 20.4795513,11.7096762 20.4068666,10.9490243 L20.4,10.8045643 L20.4,4.5 Z" id="Combined-Shape"></path>
                    <g id="ic/18/18_image_g" transform="translate(9.000000, 12.000000)">
                        <path d="M13.0716553,3 C14.1365854,3 15,3.8634823 15,4.92834473 L15,13.0716553 C15,14.1365854 14.1365177,15 13.0716553,15 L4.92834473,15 C3.86341455,15 3,14.1365177 3,13.0716553 L3,4.92834473 C3,3.86341455 3.8634823,3 4.92834473,3 L13.0716553,3 Z M7.2415757,9.47087788 L4.239,12.473 L4.23979592,13.0716553 C4.23979592,13.4246723 4.50568564,13.715784 4.84806301,13.7555702 L4.92834473,13.7602041 L13.0716553,13.7602041 C13.4246723,13.7602041 13.715784,13.4943144 13.7555702,13.151937 L13.7602041,13.0716553 L13.7591073,12.7265341 C13.742617,12.713192 13.7266508,12.6988783 13.7112848,12.6835928 L12.0780776,11.0589383 L10.7576386,12.1811741 C10.5115803,12.390298 10.1461962,12.3754984 9.91785713,12.1471593 L7.2415757,9.47087788 Z M13.0716553,4.23979592 L4.92834473,4.23979592 C4.5753277,4.23979592 4.28421603,4.50568564 4.24442975,4.84806301 L4.23979592,4.92834473 L4.239,10.719 L6.80324165,8.15587573 C7.04532686,7.91379051 7.43782454,7.91379051 7.67990975,8.15587573 L10.3903178,10.8662838 L11.709611,9.7450218 C11.9551929,9.5363027 12.3197456,9.55058941 12.5482402,9.7778874 L13.76,10.983 L13.7602041,4.92834473 C13.7602041,4.5753277 13.4943144,4.28421603 13.151937,4.24442975 L13.0716553,4.23979592 Z M11.8168605,5.50883958 C12.2677052,5.50883958 12.633187,5.87432142 12.633187,6.32516611 C12.633187,6.77601081 12.2677052,7.14149264 11.8168605,7.14149264 C11.3660158,7.14149264 11.0005339,6.77601081 11.0005339,6.32516611 C11.0005339,5.87432142 11.3660158,5.50883958 11.8168605,5.50883958 Z" id="Combined-Shape"></path>
                    </g>
                </g>
            </g>
        </g>
    </g>
</svg>