<svg width="18" height="18" viewBox="0 0 18 18" xmlns="http://www.w3.org/2000/svg">
    <g fill="none" fill-rule="evenodd">
        <circle fill="#FFF" cx="9" cy="9" r="9"/>
        <circle fill="#FFF" cx="9" cy="9" r="9"/>
        <circle fill="#FFF" cx="9" cy="9" r="9"/>
        <circle fill-opacity=".38" fill="#010505" cx="9" cy="9" r="9"/>
        <circle fill="#FFF" cx="9" cy="9" r="8.1"/>
        <path d="M11.267 10.353a2.857 2.857 0 0 0 .922-2.105V6.64A2.871 2.871 0 0 0 9.318 3.77h-.636a2.871 2.871 0 0 0-2.871 2.87v1.608c0 .833.355 1.582.922 2.106a1.236 1.236 0 0 1-.054 1.869c-.2.161-.427.291-.677.382-.95.344-2.146.852-3.03 1.474a.199.199 0 0 0-.032.293A8.079 8.079 0 0 0 9 17.1a8.079 8.079 0 0 0 6.06-2.728.199.199 0 0 0-.032-.293c-.884-.622-2.08-1.13-3.03-1.474-.25-.09-.478-.22-.677-.382a1.236 1.236 0 0 1-.054-1.87z" fill-opacity=".38" fill="#010505"/>
        <circle stroke="#FFF" stroke-width=".9" fill="#9EA0A0" cx="12.668" cy="12.15" r="2.813"/>
        <path d="M12.668 8.887a3.262 3.262 0 1 1 0 6.525 3.262 3.262 0 0 1 0-6.525zm2.074 2.131-3.207 3.206a2.363 2.363 0 0 0 3.207-3.205zm-2.075-1.23a2.363 2.363 0 0 0-1.828 3.858l3.324-3.325a2.353 2.353 0 0 0-1.495-.534z" fill="#FFF" fill-rule="nonzero"/>
    </g>
</svg>
