<svg width="80" height="80" viewBox="0 0 80 80" xmlns="http://www.w3.org/2000/svg">
    <g fill="none" fill-rule="evenodd">
        <circle fill="#FFF" cx="40" cy="40" r="40"/>
        <circle fill="#FFF" cx="40" cy="40" r="40"/>
        <circle fill-opacity=".38" fill="#010505" cx="40" cy="40" r="40"/>
        <circle fill="#FFF" cx="40" cy="40" r="36"/>
        <path d="M50.076 46.015a12.7 12.7 0 0 0 4.098-9.358v-7.142c0-7.047-5.713-12.76-12.762-12.76h-2.824c-7.048 0-12.762 5.713-12.762 12.76v7.142c0 3.702 1.579 7.03 4.098 9.36 2.463 2.275 2.366 6.198-.24 8.307a10.393 10.393 0 0 1-3.01 1.698c-4.217 1.531-9.538 3.785-13.464 6.553a.884.884 0 0 0-.145 1.301C19.66 71.31 29.28 76 40 76c10.72 0 20.34-4.69 26.935-12.124a.884.884 0 0 0-.145-1.3c-3.926-2.769-9.247-5.023-13.465-6.554a10.421 10.421 0 0 1-3.008-1.697c-2.607-2.11-2.703-6.033-.241-8.31z" fill-opacity=".38" fill="#010505"/>
        <circle fill="#9EA0A0" cx="56.3" cy="54" r="14"/>
        <path d="M56.3 39.5c8.008 0 14.5 6.492 14.5 14.5s-6.492 14.5-14.5 14.5S41.8 62.008 41.8 54s6.492-14.5 14.5-14.5zm9.217 9.466-14.252 14.25A10.453 10.453 0 0 0 56.3 64.5c5.799 0 10.5-4.701 10.5-10.5 0-1.824-.465-3.54-1.283-5.034zM56.3 43.5c-5.799 0-10.5 4.701-10.5 10.5 0 2.524.89 4.84 2.375 6.651L62.95 45.875A10.457 10.457 0 0 0 56.3 43.5z" fill="#FFF" fill-rule="nonzero"/>
    </g>
</svg>
