<svg width="24" height="24" viewBox="0 0 24 24" xmlns="http://www.w3.org/2000/svg">
    <g fill="none" fill-rule="evenodd">
        <circle fill="#FFF" cx="12" cy="12" r="12"/>
        <circle fill="#FFF" cx="12" cy="12" r="12"/>
        <circle fill="#FFF" cx="12" cy="12" r="12"/>
        <circle fill-opacity=".38" fill="#010505" cx="12" cy="12" r="12"/>
        <circle fill="#FFF" cx="12" cy="12" r="10.8"/>
        <path d="M15.023 13.805a3.81 3.81 0 0 0 1.23-2.808V8.855a3.828 3.828 0 0 0-3.83-3.829h-.847a3.829 3.829 0 0 0-3.828 3.829v2.142c0 1.11.473 2.11 1.23 2.808.738.683.709 1.86-.073 2.492a3.118 3.118 0 0 1-.903.51c-1.265.459-2.861 1.135-4.039 1.966a.265.265 0 0 0-.044.39A10.772 10.772 0 0 0 12 22.8c3.216 0 6.102-1.407 8.08-3.637a.265.265 0 0 0-.043-.39c-1.178-.83-2.774-1.507-4.04-1.966a3.126 3.126 0 0 1-.902-.51 1.648 1.648 0 0 1-.072-2.492z" fill-opacity=".38" fill="#010505"/>
        <circle fill="#9EA0A0" cx="16.89" cy="16.2" r="4.35"/>
        <path d="M16.89 11.85a4.35 4.35 0 1 1 0 8.7 4.35 4.35 0 0 1 0-8.7zm2.765 2.84-4.275 4.275a3.15 3.15 0 0 0 4.275-4.275zm-2.765-1.64a3.15 3.15 0 0 0-2.438 5.145l4.433-4.433a3.137 3.137 0 0 0-1.995-.712z" fill="#FFF" fill-rule="nonzero"/>
    </g>
</svg>
