<svg width="48" height="48" viewBox="0 0 48 48" xmlns="http://www.w3.org/2000/svg">
    <g fill="none" fill-rule="evenodd">
        <circle fill="#FFF" cx="24" cy="24" r="24"/>
        <circle fill-opacity=".38" fill="#010505" cx="24" cy="24" r="24"/>
        <circle fill="#FFF" cx="24" cy="24" r="21.6"/>
        <path d="M30.046 27.61a7.62 7.62 0 0 0 2.458-5.616V17.71a7.657 7.657 0 0 0-7.657-7.656h-1.694a7.657 7.657 0 0 0-7.657 7.656v4.285c0 2.222.947 4.218 2.458 5.616 1.478 1.365 1.42 3.72-.144 4.985a6.236 6.236 0 0 1-1.805 1.018c-2.53.919-5.723 2.271-8.08 3.932a.53.53 0 0 0-.086.78c3.957 4.461 9.729 7.275 16.16 7.275 6.433 0 12.205-2.814 16.162-7.274a.53.53 0 0 0-.087-.78c-2.356-1.662-5.548-3.014-8.08-3.933a6.253 6.253 0 0 1-1.804-1.018c-1.564-1.266-1.622-3.62-.144-4.986z" fill-opacity=".38" fill="#010505"/>
        <circle fill="#9EA0A0" cx="33.78" cy="32.4" r="7"/>
        <path d="M33.78 23.7a8.7 8.7 0 1 1 0 17.4 8.7 8.7 0 0 1 0-17.4zm5.53 5.68-8.55 8.55a6.3 6.3 0 0 0 8.55-8.55zm-5.53-3.28a6.3 6.3 0 0 0-4.875 10.29l8.866-8.865A6.274 6.274 0 0 0 33.78 26.1z" fill="#FFF" fill-rule="nonzero"/>
    </g>
</svg>
