<svg width="36" height="36" viewBox="0 0 36 36" xmlns="http://www.w3.org/2000/svg">
    <g fill="none" fill-rule="evenodd">
        <circle fill="#FFF" cx="18" cy="18" r="18"/>
        <circle fill="#FFF" cx="18" cy="18" r="18"/>
        <circle fill-opacity=".38" fill="#010505" cx="18" cy="18" r="18"/>
        <circle fill="#FFF" cx="18" cy="18" r="16.2"/>
        <path d="M22.534 20.707a5.715 5.715 0 0 0 1.844-4.211v-3.214a5.743 5.743 0 0 0-5.743-5.743h-1.27a5.743 5.743 0 0 0-5.743 5.743v3.214c0 1.666.71 3.163 1.844 4.211 1.108 1.025 1.064 2.79-.108 3.739a4.677 4.677 0 0 1-1.354.764c-1.898.689-4.293 1.703-6.06 2.949a.398.398 0 0 0-.065.585A16.158 16.158 0 0 0 18 34.2c4.824 0 9.153-2.11 12.12-5.456a.398.398 0 0 0-.065-.585c-1.766-1.246-4.16-2.26-6.059-2.949a4.69 4.69 0 0 1-1.353-.764c-1.174-.95-1.217-2.714-.109-3.74z" fill-opacity=".38" fill="#010505"/>
        <circle fill="#9EA0A0" cx="25.335" cy="24.3" r="6"/>
        <path d="M25.335 17.775a6.525 6.525 0 1 1 0 13.05 6.525 6.525 0 0 1 0-13.05zm0 1.8a4.725 4.725 0 1 0 0 9.45 4.725 4.725 0 0 0 0-9.45z" fill="#FFF" fill-rule="nonzero"/>
        <path fill="#FFF" fill-rule="nonzero" d="m28.87 20.102 1.272 1.273-8.072 8.072-1.273-1.272z"/>
    </g>
</svg>
