<svg xmlns="http://www.w3.org/2000/svg" width="18" height="18" viewBox="0 0 18 18">
    <path fill="#FFF" fill-rule="evenodd" d="M16.361 12.68a.61.61 0 0 1 .61.596L17 14.421v.005h.25l.043.042c0 .83-.704 1.504-1.569 1.504H2.276c-.865 0-1.569-.675-1.569-1.504l.044-.042H1v-.005l.028-1.145a.61.61 0 0 1 .61-.595c.297 0 .543.215.59.499l.009.096.005 1.12.001.016v.016a.414.414 0 0 1-.018.126.3.3 0 0 0 .167.183h13.215a.32.32 0 0 0 .17-.183.327.327 0 0 1-.023-.126v-.016l.002-.017.006-1.119a.599.599 0 0 1 .598-.595zm.845 1.83h-.211a.405.405 0 0 1-.051.139v-.006a1.513 1.513 0 0 1-.96 1.224c.68-.117 1.2-.678 1.222-1.357zm-16.411 0l.004.078c.057.642.561 1.164 1.213 1.277a1.51 1.51 0 0 1-.954-1.21.457.457 0 0 1-.052-.145H.795zM9.162 2.09l.103.006a.61.61 0 0 1 .522.62l-.148 7.592 3.787-3.789.08-.068a.634.634 0 0 1 .823.052.638.638 0 0 1-.017.902l-4.898 4.899-.08.068a.634.634 0 0 1-.822-.052L3.787 7.595l-.066-.078a.643.643 0 0 1 .082-.824l.073-.063a.634.634 0 0 1 .83.047l3.657 3.657.148-7.596.01-.095a.667.667 0 0 1 .64-.554z"/>
</svg>
