<svg width="183" height="183" viewBox="0 0 183 183" xmlns="http://www.w3.org/2000/svg">
    <g fill-rule="nonzero" fill="#000" >
        <g opacity=".2">
            <path d="M91.907 173.708c-21.85 0-42.392-8.51-57.842-23.96-15.45-15.45-23.96-35.99-23.96-57.841 0-21.85 8.51-42.392 23.96-57.842 15.45-15.45 35.991-23.96 57.842-23.96 21.85 0 42.392 8.51 57.842 23.96 15.45 15.45 23.959 35.991 23.959 57.842 0 21.85-8.51 42.392-23.96 57.842-15.45 15.45-35.99 23.959-57.841 23.959z" />
            <path d="M91.907 11.264c10.887 0 21.447 2.132 31.389 6.336 9.603 4.062 18.226 9.876 25.632 17.283a80.405 80.405 0 0 1 17.283 25.632c4.204 9.942 6.336 20.502 6.336 31.39 0 10.886-2.132 21.447-6.336 31.388-4.062 9.604-9.876 18.227-17.283 25.633a80.405 80.405 0 0 1-25.632 17.283c-9.942 4.204-20.502 6.336-31.39 6.336-10.886 0-21.447-2.132-31.388-6.336-9.604-4.062-18.227-9.877-25.633-17.283a80.405 80.405 0 0 1-17.283-25.633c-4.204-9.941-6.336-20.502-6.336-31.389s2.132-21.447 6.336-31.389c4.062-9.603 9.877-18.226 17.283-25.632A80.405 80.405 0 0 1 60.518 17.6c9.941-4.204 20.502-6.336 31.389-6.336m0-2.317c-45.817 0-82.96 37.143-82.96 82.96 0 45.817 37.143 82.96 82.96 82.96 45.817 0 82.96-37.143 82.96-82.96 0-45.817-37.143-82.96-82.96-82.96z" />
        </g>
        <path d="M42.875 110.835c.413 5.94-3.879 9.816-8.914 11.26-7.117 2.04-10.73-1.615-11.205-8.449-.663-6.658 2.79-12.275 9.654-14.24 5.12-1.467 9.606-.499 10.074 5.821l-7.372 2.111c-.282-2.415-1.16-2.651-2.143-2.368-2.081.595-2.12 2.92-1.88 6.382.23 3.284.568 5.682 2.593 5.103 1.04-.3 1.7-1.157 1.653-3.458l7.538-2.16.002-.002zM44.069 96.643l8.046-2.303 1.096 15.758 7.4-2.118.403 5.791-15.446 4.424-1.5-21.55z" fill="#FFF"/>
        <path d="m65.757 90.43 10.438-2.989 8.025 19.68-8.326 2.384-1.03-3.238-5.823 1.669-.575 3.696-7.707 2.209 5-23.41h-.002zm7.56 10.925-2.17-7.66-.055.017-1.207 8.625 3.432-.982zM83.622 85.314l8.046-2.304 1.5 21.55-8.047 2.303zM114.995 82.6l-.056.016-1.798 16.222-7.372 2.111-3.942-14.579-.055.017 1.07 15.401-6.808 1.949-1.5-21.55 11.168-3.197 3.115 12.196.055-.016 1.33-13.471 11.17-3.198 1.5 21.55-6.809 1.948-1.07-15.401zM124.246 73.68l15.445-4.423.39 5.61-7.736 2.215.16 2.3 7.147-2.047.389 5.61-7.147 2.047.17 2.417 7.99-2.288.389 5.61-15.698 4.496-1.5-21.549zM141.97 68.603l9.535-2.732c8.13-2.33 11.04 1.557 11.485 7.944.452 6.507-3.263 11.68-9.508 13.468l-10.016 2.87-1.5-21.55h.003zm9.035 14.398.787-.225c1.294-.37 2.019-1.096 2.466-2.106.473-1.048.535-2.619.39-4.71-.146-2.09-.42-3.563-1.018-4.305-.568-.72-1.36-1.01-2.656-.64l-.787.225.818 11.759V83z" fill="#FFF"/>
    </g>
</svg>
